<svg xmlns="http://www.w3.org/2000/svg" xmlns:xlink="http://www.w3.org/1999/xlink" width="590" zoomAndPan="magnify" viewBox="0 0 442.5 295.499996" height="394" preserveAspectRatio="xMidYMid meet" version="1.0"><defs><clipPath id="66010b7d9f"><path d="M 207 88 L 397.335938 88 L 397.335938 269 L 207 269 Z M 207 88 " clip-rule="nonzero"/></clipPath></defs><path fill="#ffeee9" d="M 228.253906 89.039062 L 376.3125 89.039062 C 387.609375 89.039062 396.761719 98.210938 396.761719 109.488281 L 396.761719 268.375 L 207.789062 268.375 L 207.789062 109.488281 C 207.789062 98.191406 216.957031 89.039062 228.234375 89.039062 Z M 228.253906 89.039062 " fill-opacity="1" fill-rule="nonzero"/><g clip-path="url(#66010b7d9f)"><path fill="#271700" d="M 396.78125 268.949219 L 207.804688 268.949219 C 207.480469 268.949219 207.230469 268.699219 207.230469 268.375 L 207.230469 109.488281 C 207.230469 97.886719 216.671875 88.464844 228.253906 88.464844 L 376.3125 88.464844 C 387.917969 88.464844 397.335938 97.90625 397.335938 109.488281 L 397.335938 268.375 C 397.335938 268.699219 397.089844 268.949219 396.761719 268.949219 Z M 208.363281 267.800781 L 396.1875 267.800781 L 396.1875 109.488281 C 396.1875 98.519531 387.265625 89.613281 376.3125 89.613281 L 228.253906 89.613281 C 217.285156 89.613281 208.378906 98.535156 208.378906 109.488281 L 208.378906 267.800781 Z M 208.363281 267.800781 " fill-opacity="1" fill-rule="nonzero"/></g><path fill="#302d80" d="M 233.980469 256.695312 L 381.523438 256.695312 L 381.523438 260.238281 L 233.980469 260.238281 Z M 233.980469 256.695312 " fill-opacity="1" fill-rule="nonzero"/><path fill="#0089e2" d="M 381.523438 248.214844 L 381.523438 215.496094 C 381.523438 215.496094 367.792969 222.082031 357.78125 222.578125 C 347.765625 223.097656 337.429688 210.59375 325.269531 210.691406 C 306.773438 210.84375 301.796875 235.921875 283.988281 234.105469 C 266.183594 232.285156 236.984375 220.472656 230.113281 248.214844 Z M 381.523438 248.214844 " fill-opacity="1" fill-rule="nonzero"/><path fill="#0089e2" d="M 310.027344 167.804688 C 310.03125 169.019531 309.96875 170.234375 309.851562 171.441406 C 309.730469 172.652344 309.554688 173.855469 309.316406 175.046875 C 309.078125 176.238281 308.785156 177.417969 308.429688 178.582031 C 308.078125 179.742188 307.667969 180.886719 307.203125 182.011719 C 306.738281 183.132812 306.21875 184.230469 305.644531 185.304688 C 305.074219 186.375 304.449219 187.417969 303.773438 188.429688 C 303.097656 189.441406 302.375 190.414062 301.601562 191.355469 C 300.832031 192.292969 300.015625 193.195312 299.15625 194.054688 C 298.296875 194.914062 297.394531 195.730469 296.457031 196.5 C 295.515625 197.273438 294.539062 197.996094 293.53125 198.671875 C 292.519531 199.347656 291.476562 199.96875 290.40625 200.542969 C 289.332031 201.117188 288.234375 201.636719 287.113281 202.101562 C 285.988281 202.566406 284.84375 202.976562 283.679688 203.328125 C 282.519531 203.679688 281.339844 203.976562 280.148438 204.214844 C 278.953125 204.449219 277.753906 204.628906 276.542969 204.75 C 275.332031 204.867188 274.121094 204.925781 272.90625 204.925781 C 271.6875 204.925781 270.476562 204.867188 269.265625 204.75 C 268.054688 204.628906 266.855469 204.449219 265.660156 204.214844 C 264.46875 203.976562 263.292969 203.679688 262.128906 203.328125 C 260.964844 202.976562 259.820312 202.566406 258.695312 202.101562 C 257.574219 201.636719 256.476562 201.117188 255.402344 200.542969 C 254.332031 199.96875 253.289062 199.347656 252.277344 198.671875 C 251.269531 197.996094 250.292969 197.273438 249.351562 196.5 C 248.414062 195.730469 247.511719 194.914062 246.652344 194.054688 C 245.792969 193.195312 244.976562 192.292969 244.207031 191.355469 C 243.433594 190.414062 242.710938 189.441406 242.035156 188.429688 C 241.359375 187.417969 240.734375 186.375 240.164062 185.304688 C 239.589844 184.230469 239.070312 183.132812 238.605469 182.011719 C 238.140625 180.886719 237.730469 179.742188 237.378906 178.582031 C 237.023438 177.417969 236.730469 176.238281 236.492188 175.046875 C 236.253906 173.855469 236.078125 172.652344 235.957031 171.441406 C 235.839844 170.234375 235.78125 169.019531 235.78125 167.804688 C 235.78125 166.589844 235.839844 165.375 235.957031 164.164062 C 236.078125 162.957031 236.253906 161.753906 236.492188 160.5625 C 236.730469 159.371094 237.023438 158.191406 237.378906 157.027344 C 237.730469 155.863281 238.140625 154.722656 238.605469 153.597656 C 239.070312 152.476562 239.589844 151.378906 240.164062 150.304688 C 240.734375 149.234375 241.359375 148.191406 242.035156 147.179688 C 242.710938 146.167969 243.433594 145.195312 244.207031 144.253906 C 244.976562 143.3125 245.792969 142.414062 246.652344 141.554688 C 247.511719 140.695312 248.414062 139.878906 249.351562 139.109375 C 250.292969 138.335938 251.269531 137.613281 252.277344 136.9375 C 253.289062 136.261719 254.332031 135.636719 255.402344 135.066406 C 256.476562 134.492188 257.574219 133.972656 258.695312 133.507812 C 259.820312 133.042969 260.964844 132.632812 262.128906 132.28125 C 263.292969 131.925781 264.46875 131.632812 265.660156 131.394531 C 266.855469 131.15625 268.054688 130.980469 269.265625 130.859375 C 270.476562 130.742188 271.6875 130.683594 272.90625 130.683594 C 274.121094 130.683594 275.332031 130.742188 276.542969 130.859375 C 277.753906 130.980469 278.953125 131.15625 280.148438 131.394531 C 281.339844 131.632812 282.519531 131.925781 283.679688 132.28125 C 284.84375 132.632812 285.988281 133.042969 287.113281 133.507812 C 288.234375 133.972656 289.332031 134.492188 290.40625 135.066406 C 291.476562 135.636719 292.519531 136.261719 293.53125 136.9375 C 294.539062 137.613281 295.515625 138.335938 296.457031 139.109375 C 297.394531 139.878906 298.296875 140.695312 299.15625 141.554688 C 300.015625 142.414062 300.832031 143.3125 301.601562 144.253906 C 302.375 145.195312 303.097656 146.167969 303.773438 147.179688 C 304.449219 148.191406 305.074219 149.234375 305.644531 150.304688 C 306.21875 151.378906 306.738281 152.476562 307.203125 153.597656 C 307.667969 154.722656 308.078125 155.863281 308.429688 157.027344 C 308.785156 158.191406 309.078125 159.371094 309.316406 160.5625 C 309.554688 161.753906 309.730469 162.957031 309.851562 164.164062 C 309.96875 165.375 310.03125 166.589844 310.027344 167.804688 Z M 310.027344 167.804688 " fill-opacity="1" fill-rule="nonzero"/><path fill="#302d80" d="M 316.117188 166.292969 C 316.117188 171.765625 315.046875 176.996094 313.113281 181.78125 L 273.402344 167.554688 L 273.402344 125.148438 C 273.917969 125.148438 274.4375 125.109375 274.972656 125.109375 C 297.699219 125.109375 316.136719 143.546875 316.136719 166.273438 Z M 316.117188 166.292969 " fill-opacity="1" fill-rule="nonzero"/><path fill="#ffeee9" d="M 315.660156 187.007812 L 269.382812 170.445312 L 269.382812 128.574219 L 273.59375 128.574219 L 273.59375 167.480469 L 317.074219 183.042969 Z M 315.660156 187.007812 " fill-opacity="1" fill-rule="nonzero"/><path fill="#0089e2" d="M 234.820312 101.027344 C 234.820312 101.441406 234.742188 101.84375 234.582031 102.226562 C 234.421875 102.613281 234.195312 102.953125 233.902344 103.246094 C 233.609375 103.539062 233.269531 103.765625 232.882812 103.925781 C 232.5 104.085938 232.097656 104.164062 231.683594 104.164062 C 231.265625 104.164062 230.863281 104.085938 230.480469 103.925781 C 230.09375 103.765625 229.757812 103.539062 229.460938 103.246094 C 229.167969 102.953125 228.941406 102.613281 228.78125 102.226562 C 228.621094 101.84375 228.542969 101.441406 228.542969 101.027344 C 228.542969 100.609375 228.621094 100.207031 228.78125 99.824219 C 228.941406 99.441406 229.167969 99.101562 229.460938 98.804688 C 229.757812 98.511719 230.09375 98.285156 230.480469 98.125 C 230.863281 97.964844 231.265625 97.886719 231.683594 97.886719 C 232.097656 97.886719 232.5 97.964844 232.882812 98.125 C 233.269531 98.285156 233.609375 98.511719 233.902344 98.804688 C 234.195312 99.101562 234.421875 99.441406 234.582031 99.824219 C 234.742188 100.207031 234.820312 100.609375 234.820312 101.027344 Z M 234.820312 101.027344 " fill-opacity="1" fill-rule="nonzero"/><path fill="#0089e2" d="M 249.105469 101.027344 C 249.105469 101.441406 249.027344 101.84375 248.867188 102.226562 C 248.707031 102.613281 248.480469 102.953125 248.1875 103.246094 C 247.890625 103.539062 247.550781 103.765625 247.167969 103.925781 C 246.78125 104.085938 246.382812 104.164062 245.964844 104.164062 C 245.550781 104.164062 245.148438 104.085938 244.761719 103.925781 C 244.378906 103.765625 244.039062 103.539062 243.746094 103.246094 C 243.449219 102.953125 243.222656 102.613281 243.0625 102.226562 C 242.90625 101.84375 242.824219 101.441406 242.824219 101.027344 C 242.824219 100.609375 242.90625 100.207031 243.0625 99.824219 C 243.222656 99.441406 243.449219 99.101562 243.746094 98.804688 C 244.039062 98.511719 244.378906 98.285156 244.761719 98.125 C 245.148438 97.964844 245.550781 97.886719 245.964844 97.886719 C 246.382812 97.886719 246.78125 97.964844 247.167969 98.125 C 247.550781 98.285156 247.890625 98.511719 248.1875 98.804688 C 248.480469 99.101562 248.707031 99.441406 248.867188 99.824219 C 249.027344 100.207031 249.105469 100.609375 249.105469 101.027344 Z M 249.105469 101.027344 " fill-opacity="1" fill-rule="nonzero"/><path fill="#0089e2" d="M 263.40625 101.027344 C 263.40625 101.441406 263.328125 101.84375 263.167969 102.226562 C 263.007812 102.613281 262.78125 102.953125 262.488281 103.246094 C 262.195312 103.539062 261.855469 103.765625 261.46875 103.925781 C 261.085938 104.085938 260.683594 104.164062 260.269531 104.164062 C 259.851562 104.164062 259.449219 104.085938 259.066406 103.925781 C 258.679688 103.765625 258.339844 103.539062 258.046875 103.246094 C 257.753906 102.953125 257.527344 102.613281 257.367188 102.226562 C 257.207031 101.84375 257.128906 101.441406 257.128906 101.027344 C 257.128906 100.609375 257.207031 100.207031 257.367188 99.824219 C 257.527344 99.441406 257.753906 99.101562 258.046875 98.804688 C 258.339844 98.511719 258.679688 98.285156 259.066406 98.125 C 259.449219 97.964844 259.851562 97.886719 260.269531 97.886719 C 260.683594 97.886719 261.085938 97.964844 261.46875 98.125 C 261.855469 98.285156 262.195312 98.511719 262.488281 98.804688 C 262.78125 99.101562 263.007812 99.441406 263.167969 99.824219 C 263.328125 100.207031 263.40625 100.609375 263.40625 101.027344 Z M 263.40625 101.027344 " fill-opacity="1" fill-rule="nonzero"/><path fill="#271700" d="M 385.160156 248.789062 L 237.253906 248.789062 C 236.929688 248.789062 236.679688 248.539062 236.679688 248.214844 C 236.679688 247.890625 236.929688 247.640625 237.253906 247.640625 L 385.160156 247.640625 C 385.484375 247.640625 385.734375 247.890625 385.734375 248.214844 C 385.734375 248.539062 385.484375 248.789062 385.160156 248.789062 Z M 385.160156 248.789062 " fill-opacity="1" fill-rule="nonzero"/><path fill="#271700" d="M 390.082031 114.082031 L 214.296875 114.082031 C 213.972656 114.082031 213.722656 113.832031 213.722656 113.507812 C 213.722656 113.183594 213.972656 112.933594 214.296875 112.933594 L 390.082031 112.933594 C 390.40625 112.933594 390.65625 113.183594 390.65625 113.507812 C 390.65625 113.832031 390.40625 114.082031 390.082031 114.082031 Z M 390.082031 114.082031 " fill-opacity="1" fill-rule="nonzero"/><path fill="#302d80" d="M 328.105469 141.382812 L 385.160156 141.382812 L 385.160156 145.980469 L 328.105469 145.980469 Z M 328.105469 141.382812 " fill-opacity="1" fill-rule="nonzero"/><path fill="#0089e2" d="M 328.105469 152.871094 L 375.585938 152.871094 L 375.585938 157.464844 L 328.105469 157.464844 Z M 328.105469 152.871094 " fill-opacity="1" fill-rule="nonzero"/><path fill="#302d80" d="M 328.105469 164.359375 L 385.160156 164.359375 L 385.160156 168.953125 L 328.105469 168.953125 Z M 328.105469 164.359375 " fill-opacity="1" fill-rule="nonzero"/><path fill="#0089e2" d="M 328.105469 175.84375 L 375.585938 175.84375 L 375.585938 180.441406 L 328.105469 180.441406 Z M 328.105469 175.84375 " fill-opacity="1" fill-rule="nonzero"/><path fill="#302d80" d="M 328.105469 187.332031 L 356.632812 187.332031 L 356.632812 191.925781 L 328.105469 191.925781 Z M 328.105469 187.332031 " fill-opacity="1" fill-rule="nonzero"/><path fill="#302d80" d="M 92.601562 205.023438 L 92.601562 268.988281 L 217.820312 268.988281 L 217.820312 203.625 Z M 92.601562 205.023438 " fill-opacity="1" fill-rule="nonzero"/><path fill="#ff8782" d="M 121.035156 137.421875 C 121.035156 137.421875 128.367188 162.847656 159.117188 167.898438 C 189.867188 172.953125 184.851562 148.199219 184.851562 148.199219 L 183.28125 138.894531 L 171.925781 134.414062 L 170.871094 133.992188 C 170.777344 133.171875 170.679688 132.289062 170.605469 131.351562 C 170.296875 127.945312 170.144531 123.960938 170.355469 119.730469 C 170.546875 115.824219 167.351562 112.320312 162.925781 109.390625 C 161.703125 108.589844 160.398438 107.824219 159.039062 107.09375 C 157.242188 106.136719 155.324219 105.257812 153.449219 104.453125 C 145.886719 101.253906 138.609375 99.4375 138.609375 99.4375 C 138.609375 99.4375 139.03125 105.679688 138.609375 113.605469 C 138.476562 116.648438 138.191406 119.902344 137.730469 123.175781 C 137.386719 125.589844 136.945312 127.980469 136.371094 130.261719 C 136.140625 131.21875 135.875 132.15625 135.585938 133.054688 Z M 121.035156 137.421875 " fill-opacity="1" fill-rule="nonzero"/><path fill="#ff8782" d="M 168.230469 52.050781 C 163.980469 51.265625 159.652344 50.902344 155.34375 50.828125 C 147.859375 50.710938 139.742188 54.195312 133.824219 59.175781 C 132.371094 60.398438 131.105469 61.875 130.167969 63.539062 C 128.195312 67.042969 127.027344 70.96875 126.605469 74.949219 C 126.394531 77 126.359375 79.066406 126.511719 81.113281 C 126.664062 83.085938 127.332031 85.097656 127.410156 87.03125 C 125.246094 86.226562 123.445312 85.289062 120.976562 85.652344 C 117.226562 86.226562 111.402344 91.183594 116.707031 100.71875 C 122.050781 110.292969 129.804688 106.539062 129.804688 106.539062 C 129.34375 106.75 134.4375 115.613281 134.972656 116.4375 C 137.136719 119.636719 139.777344 122.871094 142.957031 125.070312 C 149.679688 129.742188 157.050781 131.984375 165.089844 130.300781 C 171.773438 128.882812 177.917969 123.328125 181.15625 117.472656 C 185.40625 109.738281 188.007812 100.660156 188.773438 91.914062 C 189.503906 83.546875 188.066406 74.28125 185.097656 66.355469 C 182.359375 58.984375 175.71875 53.410156 168.230469 52.03125 Z M 168.230469 52.050781 " fill-opacity="1" fill-rule="nonzero"/><path fill="#271700" d="M 164.976562 121.050781 C 162.429688 121.914062 159.960938 120.496094 159.960938 120.496094 C 158.601562 120.59375 159.882812 123.789062 162.984375 123.808594 C 166.085938 123.808594 167.523438 120.191406 164.976562 121.050781 Z M 164.976562 121.050781 " fill-opacity="1" fill-rule="nonzero"/><path fill="#271700" d="M 171.5625 96.8125 C 169.648438 98.804688 166.660156 98.480469 166.660156 98.480469 C 165.453125 99.167969 168.230469 101.792969 171.082031 100.433594 C 173.9375 99.074219 173.457031 94.824219 171.542969 96.8125 Z M 171.5625 96.8125 " fill-opacity="1" fill-rule="nonzero"/><path fill="#271700" d="M 178.78125 82.835938 C 176.828125 82.683594 175.105469 84.40625 174.914062 86.707031 C 174.722656 89.003906 176.15625 90.992188 178.109375 91.148438 C 180.0625 91.300781 181.785156 89.578125 181.976562 87.28125 C 182.167969 84.980469 180.734375 82.992188 178.78125 82.835938 Z M 178.78125 82.835938 " fill-opacity="1" fill-rule="nonzero"/><path fill="#271700" d="M 179.699219 73.820312 C 175.601562 73.707031 173.476562 77.917969 177.039062 77.726562 C 180.695312 77.535156 183.664062 78.683594 183.664062 78.683594 C 185.460938 78.605469 183.796875 73.933594 179.699219 73.820312 Z M 179.699219 73.820312 " fill-opacity="1" fill-rule="nonzero"/><path fill="#271700" d="M 150.023438 82.453125 C 147.761719 82.609375 146.078125 84.886719 146.269531 87.527344 C 146.441406 90.191406 148.414062 92.199219 150.671875 92.046875 C 152.933594 91.894531 154.617188 89.613281 154.425781 86.972656 C 154.253906 84.3125 152.28125 82.300781 150.023438 82.453125 Z M 150.023438 82.453125 " fill-opacity="1" fill-rule="nonzero"/><path fill="#271700" d="M 148.164062 71.964844 C 143.4375 72.019531 141.445312 77.382812 143.53125 77.496094 C 143.53125 77.496094 146.960938 76.234375 151.191406 76.5 C 155.308594 76.769531 152.914062 71.886719 148.183594 71.945312 Z M 148.164062 71.964844 " fill-opacity="1" fill-rule="nonzero"/><path fill="#271700" d="M 165.1875 112.246094 C 162.699219 112.246094 160.628906 111.632812 159.058594 110.925781 C 155.726562 109.410156 153.890625 107.152344 153.8125 107.054688 C 153.621094 106.828125 153.660156 106.480469 153.890625 106.289062 C 154.121094 106.097656 154.464844 106.136719 154.65625 106.367188 C 154.675781 106.40625 156.4375 108.550781 159.558594 109.949219 C 163.710938 111.824219 168.191406 111.554688 172.882812 109.144531 C 173.152344 109.007812 173.476562 109.105469 173.609375 109.375 C 173.746094 109.640625 173.648438 109.964844 173.382812 110.101562 C 170.316406 111.671875 167.578125 112.226562 165.1875 112.226562 Z M 165.1875 112.246094 " fill-opacity="1" fill-rule="nonzero"/><path fill="#ffeee9" d="M 135.585938 133.054688 L 160.761719 145.941406 L 170.871094 134.011719 L 177.363281 136.15625 L 172.25 208.964844 L 159.367188 208.964844 L 128.789062 171.019531 L 130.1875 134.683594 Z M 135.585938 133.054688 " fill-opacity="1" fill-rule="nonzero"/><path fill="#302d80" d="M 167.160156 246.664062 C 167.160156 246.664062 165.070312 228.953125 172.441406 214.230469 L 208.226562 218.5 L 210.429688 153.121094 L 240.03125 216.929688 C 247.421875 230.714844 237.445312 246.625 221.800781 246.644531 L 167.160156 246.683594 Z M 167.160156 246.664062 " fill-opacity="1" fill-rule="nonzero"/><path fill="#302d80" d="M 88.695312 243.292969 C 88.695312 244.117188 217.800781 245.972656 217.800781 245.972656 C 217.800781 245.972656 217.226562 164.722656 209.53125 151.226562 C 201.8125 137.726562 171.90625 134.433594 171.90625 134.433594 C 171.90625 134.433594 172.769531 164.78125 163.386719 203.816406 C 163.386719 203.816406 132.464844 150.976562 132.082031 134.011719 C 117.855469 135.335938 100.125 137.726562 90.917969 148.410156 C 81.25 159.648438 88.695312 242.546875 88.695312 243.273438 Z M 88.695312 243.292969 " fill-opacity="1" fill-rule="nonzero"/><path fill="#271700" d="M 93.253906 249.9375 C 92.945312 249.9375 92.679688 249.6875 92.679688 249.382812 C 92.679688 248.960938 91.703125 207.914062 91.433594 190.53125 C 91.148438 171.574219 91.664062 161.679688 91.664062 161.582031 C 91.664062 161.257812 91.953125 161.027344 92.277344 161.046875 C 92.601562 161.046875 92.832031 161.332031 92.8125 161.660156 C 92.8125 161.753906 92.296875 171.632812 92.582031 190.53125 C 92.832031 207.894531 93.808594 248.960938 93.828125 249.382812 C 93.828125 249.707031 93.578125 249.957031 93.273438 249.976562 Z M 93.253906 249.9375 " fill-opacity="1" fill-rule="nonzero"/><path fill="#271700" d="M 203.152344 235.769531 C 203.152344 235.769531 203.117188 235.769531 203.097656 235.769531 C 202.789062 235.75 202.542969 235.464844 202.578125 235.136719 C 205.949219 197.308594 205.375 166.523438 205.355469 166.214844 C 205.355469 165.890625 205.605469 165.640625 205.910156 165.621094 C 206.21875 165.621094 206.484375 165.871094 206.484375 166.175781 C 206.484375 166.484375 207.078125 197.34375 203.691406 235.234375 C 203.671875 235.539062 203.421875 235.75 203.117188 235.75 Z M 203.152344 235.769531 " fill-opacity="1" fill-rule="nonzero"/><path fill="#271700" d="M 163.40625 203.566406 C 163.214844 203.566406 163.023438 203.472656 162.90625 203.300781 C 162.832031 203.183594 155.996094 191.890625 148.777344 177.933594 C 142.097656 165.027344 133.730469 147.148438 131.71875 135.199219 C 131.660156 134.894531 131.871094 134.585938 132.195312 134.53125 C 132.503906 134.472656 132.808594 134.683594 132.867188 135.007812 C 136.3125 155.550781 158.886719 194.261719 163.195312 201.519531 C 172.289062 165.125 171.390625 135.925781 171.390625 135.640625 C 171.390625 135.316406 171.621094 135.066406 171.945312 135.046875 C 172.25 135.046875 172.519531 135.277344 172.539062 135.601562 C 172.539062 135.910156 173.476562 165.984375 163.980469 203.148438 C 163.921875 203.375 163.730469 203.53125 163.5 203.566406 C 163.484375 203.566406 163.445312 203.566406 163.425781 203.566406 Z M 163.40625 203.566406 " fill-opacity="1" fill-rule="nonzero"/><path fill="#271700" d="M 128.5 99.09375 C 128.292969 99.09375 128.082031 98.957031 128.003906 98.746094 C 128.003906 98.710938 126.089844 94.191406 123.027344 93.136719 C 121.859375 92.734375 120.671875 92.890625 119.425781 93.617188 C 119.160156 93.769531 118.832031 93.675781 118.679688 93.425781 C 118.527344 93.15625 118.621094 92.832031 118.871094 92.679688 C 120.382812 91.796875 121.894531 91.625 123.371094 92.125 C 126.914062 93.328125 128.921875 98.136719 129.019531 98.34375 C 129.132812 98.632812 129.019531 98.9375 128.730469 99.054688 C 128.65625 99.074219 128.597656 99.09375 128.519531 99.09375 Z M 128.5 99.09375 " fill-opacity="1" fill-rule="nonzero"/><path fill="#271700" d="M 123.832031 100.625 C 123.601562 100.625 123.371094 100.46875 123.3125 100.222656 C 122.125 96.046875 125.382812 93.867188 125.398438 93.847656 C 125.648438 93.675781 125.992188 93.75 126.148438 94 C 126.320312 94.25 126.242188 94.59375 125.992188 94.746094 C 125.878906 94.824219 123.390625 96.527344 124.347656 99.914062 C 124.421875 100.203125 124.269531 100.507812 123.964844 100.585938 C 123.90625 100.585938 123.867188 100.605469 123.8125 100.605469 Z M 123.832031 100.625 " fill-opacity="1" fill-rule="nonzero"/><path fill="#271700" d="M 160.074219 130.96875 C 155.882812 130.96875 150.253906 130.070312 144.222656 126.566406 C 143.953125 126.414062 143.875 126.085938 144.03125 125.820312 C 144.183594 125.550781 144.507812 125.472656 144.777344 125.628906 C 157.988281 133.324219 169.398438 128.210938 169.511719 128.15625 C 169.78125 128.019531 170.105469 128.15625 170.242188 128.421875 C 170.375 128.691406 170.242188 129.015625 169.972656 129.148438 C 169.859375 129.207031 166.929688 130.527344 162.277344 130.890625 C 161.605469 130.949219 160.859375 130.96875 160.09375 130.96875 Z M 160.074219 130.96875 " fill-opacity="1" fill-rule="nonzero"/><path fill="#271700" d="M 163.40625 250.167969 C 163.082031 250.167969 162.832031 249.917969 162.832031 249.59375 L 162.832031 203.414062 C 162.832031 203.089844 163.082031 202.839844 163.40625 202.839844 C 163.730469 202.839844 163.980469 203.089844 163.980469 203.414062 L 163.980469 249.59375 C 163.980469 249.917969 163.730469 250.167969 163.40625 250.167969 Z M 163.40625 250.167969 " fill-opacity="1" fill-rule="nonzero"/><path fill="#271700" d="M 172.980469 207.722656 C 172.980469 208.015625 172.921875 208.300781 172.808594 208.570312 C 172.699219 208.84375 172.535156 209.085938 172.328125 209.292969 C 172.121094 209.5 171.878906 209.660156 171.609375 209.773438 C 171.335938 209.886719 171.050781 209.941406 170.757812 209.941406 C 170.464844 209.941406 170.179688 209.886719 169.90625 209.773438 C 169.636719 209.660156 169.394531 209.5 169.1875 209.292969 C 168.980469 209.085938 168.820312 208.84375 168.707031 208.570312 C 168.59375 208.300781 168.535156 208.015625 168.535156 207.722656 C 168.535156 207.429688 168.59375 207.144531 168.707031 206.871094 C 168.820312 206.601562 168.980469 206.359375 169.1875 206.152344 C 169.394531 205.945312 169.636719 205.78125 169.90625 205.671875 C 170.179688 205.558594 170.464844 205.5 170.757812 205.5 C 171.050781 205.5 171.335938 205.558594 171.609375 205.671875 C 171.878906 205.78125 172.121094 205.945312 172.328125 206.152344 C 172.535156 206.359375 172.699219 206.601562 172.808594 206.871094 C 172.921875 207.144531 172.980469 207.429688 172.980469 207.722656 Z M 172.980469 207.722656 " fill-opacity="1" fill-rule="nonzero"/><path fill="#271700" d="M 172.980469 220.605469 C 172.980469 220.902344 172.921875 221.183594 172.808594 221.457031 C 172.699219 221.730469 172.535156 221.96875 172.328125 222.175781 C 172.121094 222.386719 171.878906 222.546875 171.609375 222.660156 C 171.335938 222.773438 171.050781 222.828125 170.757812 222.828125 C 170.464844 222.828125 170.179688 222.773438 169.90625 222.660156 C 169.636719 222.546875 169.394531 222.386719 169.1875 222.175781 C 168.980469 221.96875 168.820312 221.730469 168.707031 221.457031 C 168.59375 221.183594 168.535156 220.902344 168.535156 220.605469 C 168.535156 220.3125 168.59375 220.027344 168.707031 219.757812 C 168.820312 219.484375 168.980469 219.246094 169.1875 219.035156 C 169.394531 218.828125 169.636719 218.667969 169.90625 218.554688 C 170.179688 218.441406 170.464844 218.386719 170.757812 218.386719 C 171.050781 218.386719 171.335938 218.441406 171.609375 218.554688 C 171.878906 218.667969 172.121094 218.828125 172.328125 219.035156 C 172.535156 219.246094 172.699219 219.484375 172.808594 219.757812 C 172.921875 220.027344 172.980469 220.3125 172.980469 220.605469 Z M 172.980469 220.605469 " fill-opacity="1" fill-rule="nonzero"/><path fill="#271700" d="M 149.238281 160.875 C 149.160156 160.875 149.101562 160.875 149.027344 160.835938 L 139.339844 157.101562 C 139.050781 156.988281 138.898438 156.660156 139.011719 156.355469 C 139.128906 156.050781 139.453125 155.914062 139.761719 156.03125 L 149.066406 159.609375 L 160.324219 145.578125 C 160.4375 145.421875 160.628906 145.347656 160.820312 145.367188 C 161.011719 145.367188 161.183594 145.5 161.28125 145.652344 L 168.171875 158.25 L 170.585938 157.445312 C 170.890625 157.351562 171.21875 157.503906 171.3125 157.8125 C 171.410156 158.117188 171.257812 158.441406 170.949219 158.539062 L 168.097656 159.496094 C 167.828125 159.589844 167.542969 159.476562 167.40625 159.226562 L 160.6875 146.957031 L 149.695312 160.644531 C 149.582031 160.777344 149.429688 160.855469 149.257812 160.855469 Z M 149.238281 160.875 " fill-opacity="1" fill-rule="nonzero"/><path fill="#271700" d="M 152.664062 156.03125 L 156.933594 164.03125 L 153.660156 186.070312 L 163.386719 202.992188 C 163.386719 202.992188 166.566406 184.9375 168.019531 179.519531 L 163.730469 162.882812 L 166.105469 155.703125 L 160.761719 145.941406 Z M 152.664062 156.03125 " fill-opacity="1" fill-rule="nonzero"/><path fill="#271700" d="M 163.40625 206.054688 C 163.273438 206.054688 163.117188 206 163.023438 205.902344 C 155.191406 198.761719 143.722656 186.488281 132.332031 173.03125 C 129.382812 169.546875 114.714844 152.046875 114.582031 149.15625 C 114.582031 148.832031 114.699219 148.640625 114.792969 148.523438 C 116.132812 147.070312 122.03125 144.503906 124.652344 143.414062 L 118.257812 140.234375 C 117.972656 140.101562 117.855469 139.757812 117.992188 139.46875 C 118.125 139.183594 118.46875 139.066406 118.757812 139.203125 L 126.300781 142.933594 C 126.511719 143.03125 126.625 143.242188 126.625 143.472656 C 126.625 143.699219 126.472656 143.890625 126.261719 143.988281 C 123.792969 144.984375 117.226562 147.816406 115.75 149.195312 C 116.039062 150.707031 122.105469 159.152344 133.15625 172.207031 C 144.242188 185.324219 155.402344 197.328125 163.214844 204.503906 C 172.460938 183.523438 186 152.316406 186.265625 150.421875 C 186.535156 148.601562 183.164062 146.9375 181.84375 146.4375 C 181.671875 146.382812 181.539062 146.226562 181.5 146.054688 C 181.441406 145.882812 181.5 145.691406 181.613281 145.539062 L 185.636719 140.5625 C 185.828125 140.3125 186.191406 140.273438 186.4375 140.484375 C 186.6875 140.675781 186.726562 141.039062 186.515625 141.289062 L 182.972656 145.671875 C 184.503906 146.363281 187.761719 148.105469 187.394531 150.59375 C 187.011719 153.3125 164.878906 203.566406 163.941406 205.710938 C 163.867188 205.882812 163.710938 206 163.539062 206.039062 C 163.5 206.039062 163.464844 206.039062 163.425781 206.039062 Z M 163.40625 206.054688 " fill-opacity="1" fill-rule="nonzero"/><path fill="#271700" d="M 107.34375 186.144531 L 132.617188 186.144531 L 132.617188 192.082031 L 107.34375 192.082031 Z M 107.34375 186.144531 " fill-opacity="1" fill-rule="nonzero"/><path fill="#0089e2" d="M 222.816406 261.960938 L 162.160156 261.960938 C 159.824219 261.960938 157.988281 259.988281 158.140625 257.671875 L 167.003906 179.730469 C 167.140625 177.605469 168.902344 175.960938 171.027344 175.960938 L 231.683594 175.960938 C 234.019531 175.960938 235.855469 177.933594 235.703125 180.25 L 226.839844 258.1875 C 226.703125 260.3125 224.941406 261.960938 222.816406 261.960938 Z M 222.816406 261.960938 " fill-opacity="1" fill-rule="nonzero"/><path fill="#ff8782" d="M 134.839844 220.492188 C 134.839844 220.492188 157.835938 215.113281 162.105469 216.566406 C 166.375 218.023438 197.160156 230.351562 195.859375 233.414062 C 194.539062 236.476562 193.351562 238.316406 184.140625 235.960938 C 174.914062 233.605469 169.496094 230.503906 169.496094 230.503906 C 169.496094 230.503906 190.824219 241.246094 189.464844 245.898438 C 188.105469 250.550781 176.464844 244.367188 165.992188 239.90625 C 165.992188 239.90625 181.210938 247.507812 179.066406 250.933594 C 176.023438 255.796875 158.199219 245.554688 158.199219 245.554688 C 158.199219 245.554688 144.183594 245.648438 132.636719 241.339844 L 105.027344 247.332031 L 100.164062 224.875 L 134.859375 220.53125 Z M 134.839844 220.492188 " fill-opacity="1" fill-rule="nonzero"/><path fill="#302d80" d="M 130.1875 249.039062 C 130.1875 249.039062 132.273438 231.328125 124.902344 216.605469 L 89.117188 220.875 L 89.480469 150.648438 L 57.316406 219.285156 C 49.925781 233.070312 59.191406 255.335938 74.835938 255.355469 Z M 130.1875 249.039062 " fill-opacity="1" fill-rule="nonzero"/><path fill="#271700" d="M 93.484375 253.902344 C 93.195312 253.902344 92.945312 253.691406 92.910156 253.382812 C 92.871094 253.078125 93.101562 252.789062 93.40625 252.75 L 129.6875 248.519531 C 130.644531 230.027344 125.574219 219.191406 124.558594 217.238281 L 80.847656 222.023438 C 80.539062 222.0625 80.253906 221.832031 80.214844 221.507812 C 80.175781 221.199219 80.40625 220.914062 80.730469 220.875 L 124.824219 216.03125 C 125.054688 216.011719 125.265625 216.109375 125.382812 216.320312 C 125.457031 216.433594 127.085938 219.246094 128.578125 224.722656 C 129.957031 229.738281 131.449219 238.046875 130.820312 249.058594 C 130.820312 249.34375 130.589844 249.554688 130.320312 249.59375 L 93.558594 253.882812 C 93.539062 253.882812 93.519531 253.882812 93.484375 253.882812 Z M 93.484375 253.902344 " fill-opacity="1" fill-rule="nonzero"/><path fill="#ff8782" d="M 228.964844 245.609375 C 228.734375 245.667969 228.503906 245.707031 228.253906 245.765625 C 222.300781 246.988281 214.046875 248.023438 212.898438 244.597656 C 211.636719 240.824219 227.699219 237.054688 228.199219 236.9375 C 216.976562 238.8125 204.226562 242.105469 203.976562 237.261719 C 203.765625 233.148438 220.597656 228.589844 225.59375 227.328125 C 223.296875 227.84375 218.28125 228.761719 211.464844 228.859375 C 201.949219 228.992188 201.21875 226.925781 200.664062 223.632812 C 200.222656 221.027344 220.902344 217.46875 231.644531 215.917969 C 233.617188 215.628906 235.242188 215.417969 236.355469 215.285156 C 236.851562 215.820312 237.3125 216.492188 237.617188 217.277344 C 238.976562 220.742188 237.332031 241.148438 228.964844 245.609375 Z M 228.964844 245.609375 " fill-opacity="1" fill-rule="nonzero"/><path fill="#271700" d="M 127.410156 87.03125 C 127.410156 87.03125 128.539062 92.8125 130.472656 92.046875 C 132.386719 91.28125 134.898438 63.671875 134.898438 63.671875 C 134.898438 63.671875 140.773438 69.722656 145.234375 69.550781 C 149.695312 69.378906 147.898438 63.671875 147.898438 63.671875 C 147.898438 63.671875 159.195312 72.230469 169.761719 71.160156 C 180.351562 70.085938 179.679688 63.671875 179.679688 63.671875 C 179.679688 63.671875 181.691406 72.210938 186.898438 71.964844 L 188.890625 84.386719 C 188.890625 84.386719 191.035156 77.574219 190.671875 69.742188 C 190.671875 69.742188 202.253906 58.523438 188.984375 41.945312 C 173.09375 22.109375 138.726562 27.871094 128.519531 41.945312 C 128.519531 41.945312 120.804688 38.554688 115.636719 48.53125 C 110.464844 58.503906 116.496094 88.257812 116.496094 88.257812 C 116.496094 88.257812 119.160156 84.351562 127.410156 87.050781 Z M 127.410156 87.03125 " fill-opacity="1" fill-rule="nonzero"/><path fill="#ff8782" d="M 228.964844 245.609375 C 228.734375 245.746094 228.484375 245.859375 228.234375 245.957031 L 228.234375 245.765625 C 228.253906 245.765625 231.644531 215.917969 231.644531 215.917969 L 231.988281 212.816406 C 231.988281 212.816406 234.554688 213.351562 236.355469 215.285156 C 236.851562 215.820312 237.3125 216.492188 237.617188 217.277344 C 238.976562 220.742188 237.332031 241.148438 228.964844 245.609375 Z M 228.964844 245.609375 " fill-opacity="1" fill-rule="nonzero"/><path fill="#302d80" d="M 207.367188 203.777344 C 207.367188 204.242188 207.320312 204.703125 207.230469 205.160156 C 207.140625 205.617188 207.003906 206.058594 206.828125 206.488281 C 206.648438 206.917969 206.429688 207.328125 206.171875 207.714844 C 205.914062 208.101562 205.621094 208.457031 205.292969 208.789062 C 204.960938 209.117188 204.605469 209.410156 204.21875 209.667969 C 203.832031 209.925781 203.421875 210.144531 202.992188 210.324219 C 202.5625 210.5 202.121094 210.636719 201.664062 210.726562 C 201.207031 210.816406 200.746094 210.863281 200.28125 210.863281 C 199.816406 210.863281 199.355469 210.816406 198.898438 210.726562 C 198.445312 210.636719 198 210.5 197.570312 210.324219 C 197.140625 210.144531 196.734375 209.925781 196.347656 209.667969 C 195.960938 209.410156 195.601562 209.117188 195.273438 208.789062 C 194.945312 208.457031 194.648438 208.101562 194.390625 207.714844 C 194.132812 207.328125 193.914062 206.917969 193.738281 206.488281 C 193.558594 206.058594 193.425781 205.617188 193.332031 205.160156 C 193.242188 204.703125 193.199219 204.242188 193.199219 203.777344 C 193.199219 203.3125 193.242188 202.851562 193.332031 202.394531 C 193.425781 201.941406 193.558594 201.496094 193.738281 201.066406 C 193.914062 200.636719 194.132812 200.230469 194.390625 199.84375 C 194.648438 199.457031 194.945312 199.097656 195.273438 198.769531 C 195.601562 198.441406 195.960938 198.148438 196.347656 197.886719 C 196.734375 197.628906 197.140625 197.410156 197.570312 197.234375 C 198 197.054688 198.445312 196.921875 198.898438 196.832031 C 199.355469 196.738281 199.816406 196.695312 200.28125 196.695312 C 200.746094 196.695312 201.207031 196.738281 201.664062 196.832031 C 202.121094 196.921875 202.5625 197.054688 202.992188 197.234375 C 203.421875 197.410156 203.832031 197.628906 204.21875 197.886719 C 204.605469 198.148438 204.960938 198.441406 205.292969 198.769531 C 205.621094 199.097656 205.914062 199.457031 206.171875 199.84375 C 206.429688 200.230469 206.648438 200.636719 206.828125 201.066406 C 207.003906 201.496094 207.140625 201.941406 207.230469 202.394531 C 207.320312 202.851562 207.367188 203.3125 207.367188 203.777344 Z M 207.367188 203.777344 " fill-opacity="0.4" fill-rule="nonzero"/><path fill="#0089e2" d="M 248.453125 26.628906 L 272.082031 26.628906 C 272.542969 26.628906 273 26.671875 273.457031 26.761719 C 273.910156 26.851562 274.351562 26.988281 274.777344 27.164062 C 275.203125 27.339844 275.609375 27.558594 275.996094 27.816406 C 276.378906 28.070312 276.734375 28.363281 277.0625 28.691406 C 277.390625 29.019531 277.683594 29.375 277.941406 29.757812 C 278.195312 30.144531 278.414062 30.550781 278.589844 30.976562 C 278.769531 31.402344 278.902344 31.84375 278.992188 32.296875 C 279.082031 32.753906 279.125 33.210938 279.125 33.671875 L 279.125 57.296875 C 279.125 57.761719 279.082031 58.21875 278.992188 58.671875 C 278.902344 59.125 278.769531 59.566406 278.589844 59.996094 C 278.414062 60.421875 278.195312 60.828125 277.941406 61.210938 C 277.683594 61.597656 277.390625 61.953125 277.0625 62.28125 C 276.734375 62.605469 276.378906 62.898438 275.996094 63.15625 C 275.609375 63.414062 275.203125 63.628906 274.777344 63.808594 C 274.351562 63.984375 273.910156 64.117188 273.457031 64.207031 C 273 64.296875 272.542969 64.34375 272.082031 64.34375 L 248.453125 64.34375 C 247.992188 64.34375 247.535156 64.296875 247.078125 64.207031 C 246.625 64.117188 246.183594 63.984375 245.757812 63.808594 C 245.332031 63.628906 244.925781 63.414062 244.539062 63.15625 C 244.15625 62.898438 243.800781 62.605469 243.472656 62.28125 C 243.144531 61.953125 242.851562 61.597656 242.597656 61.210938 C 242.339844 60.828125 242.121094 60.421875 241.945312 59.996094 C 241.769531 59.566406 241.632812 59.125 241.542969 58.671875 C 241.453125 58.21875 241.410156 57.761719 241.410156 57.296875 L 241.410156 33.671875 C 241.410156 33.210938 241.453125 32.753906 241.542969 32.296875 C 241.632812 31.84375 241.769531 31.402344 241.945312 30.976562 C 242.121094 30.550781 242.339844 30.144531 242.597656 29.757812 C 242.851562 29.375 243.144531 29.019531 243.472656 28.691406 C 243.800781 28.363281 244.15625 28.070312 244.539062 27.816406 C 244.925781 27.558594 245.332031 27.339844 245.757812 27.164062 C 246.183594 26.988281 246.625 26.851562 247.078125 26.761719 C 247.535156 26.671875 247.992188 26.628906 248.453125 26.628906 Z M 248.453125 26.628906 " fill-opacity="1" fill-rule="nonzero"/><path fill="#ffeee9" d="M 259.828125 52.03125 C 259.75 52.03125 259.691406 52.03125 259.617188 52.03125 C 259.117188 51.976562 258.679688 51.6875 258.429688 51.25 L 254.964844 45.464844 L 248.378906 51.230469 C 247.707031 51.824219 246.671875 51.746094 246.082031 51.074219 C 245.488281 50.40625 245.5625 49.371094 246.234375 48.777344 L 254.273438 41.734375 C 254.640625 41.40625 255.117188 41.273438 255.597656 41.351562 C 256.074219 41.425781 256.496094 41.714844 256.746094 42.117188 L 260.132812 47.78125 L 268.671875 39.378906 C 269.304688 38.746094 270.339844 38.765625 270.96875 39.398438 C 271.601562 40.027344 271.582031 41.0625 270.953125 41.695312 L 260.9375 51.535156 C 260.632812 51.839844 260.230469 51.996094 259.808594 51.996094 Z M 259.828125 52.03125 " fill-opacity="1" fill-rule="nonzero"/><path fill="#ffeee9" d="M 267.660156 42.363281 L 264.9375 39.453125 L 268.84375 38.554688 L 272.730469 37.675781 L 271.546875 41.484375 L 270.378906 45.292969 Z M 267.660156 42.363281 " fill-opacity="1" fill-rule="nonzero"/><path fill="#ffeee9" d="M 270.378906 45.8125 C 270.242188 45.8125 270.109375 45.753906 270.011719 45.65625 L 264.574219 39.800781 C 264.460938 39.664062 264.402344 39.472656 264.460938 39.300781 C 264.519531 39.128906 264.652344 38.996094 264.824219 38.957031 L 272.597656 37.175781 C 272.769531 37.136719 272.960938 37.175781 273.078125 37.328125 C 273.191406 37.464844 273.25 37.65625 273.191406 37.828125 L 270.835938 45.445312 C 270.777344 45.621094 270.644531 45.753906 270.472656 45.792969 C 270.433594 45.792969 270.394531 45.792969 270.359375 45.792969 Z M 265.914062 39.742188 L 270.148438 44.296875 L 271.984375 38.34375 L 265.914062 39.722656 Z M 265.914062 39.742188 " fill-opacity="1" fill-rule="nonzero"/><path fill="#0089e2" d="M 306.5625 48.703125 L 344.320312 48.703125 C 344.972656 48.703125 345.621094 48.765625 346.257812 48.894531 C 346.898438 49.019531 347.519531 49.207031 348.125 49.457031 C 348.726562 49.707031 349.296875 50.015625 349.839844 50.375 C 350.382812 50.738281 350.886719 51.152344 351.347656 51.613281 C 351.808594 52.074219 352.21875 52.574219 352.582031 53.117188 C 352.945312 53.660156 353.25 54.234375 353.5 54.835938 C 353.75 55.4375 353.9375 56.058594 354.066406 56.699219 C 354.195312 57.339844 354.257812 57.984375 354.257812 58.636719 L 354.257812 87.664062 C 354.257812 88.316406 354.195312 88.960938 354.066406 89.601562 C 353.9375 90.242188 353.75 90.863281 353.5 91.464844 C 353.25 92.066406 352.945312 92.640625 352.582031 93.183594 C 352.21875 93.726562 351.808594 94.226562 351.347656 94.6875 C 350.886719 95.148438 350.382812 95.5625 349.839844 95.925781 C 349.296875 96.285156 348.726562 96.59375 348.125 96.84375 C 347.519531 97.09375 346.898438 97.28125 346.257812 97.40625 C 345.621094 97.535156 344.972656 97.597656 344.320312 97.597656 L 306.5625 97.597656 C 305.910156 97.597656 305.265625 97.535156 304.625 97.40625 C 303.984375 97.28125 303.363281 97.09375 302.761719 96.84375 C 302.160156 96.59375 301.585938 96.285156 301.042969 95.925781 C 300.5 95.5625 300 95.148438 299.539062 94.6875 C 299.074219 94.226562 298.664062 93.726562 298.300781 93.183594 C 297.9375 92.640625 297.632812 92.066406 297.382812 91.464844 C 297.132812 90.863281 296.945312 90.242188 296.816406 89.601562 C 296.691406 88.960938 296.625 88.316406 296.625 87.664062 L 296.625 58.636719 C 296.625 57.984375 296.691406 57.339844 296.816406 56.699219 C 296.945312 56.058594 297.132812 55.4375 297.382812 54.835938 C 297.632812 54.234375 297.9375 53.660156 298.300781 53.117188 C 298.664062 52.574219 299.074219 52.074219 299.539062 51.613281 C 300 51.152344 300.5 50.738281 301.042969 50.375 C 301.585938 50.015625 302.160156 49.707031 302.761719 49.457031 C 303.363281 49.207031 303.984375 49.019531 304.625 48.894531 C 305.265625 48.765625 305.910156 48.703125 306.5625 48.703125 Z M 306.5625 48.703125 " fill-opacity="1" fill-rule="nonzero"/><path fill="#ffeee9" d="M 309.894531 70.871094 L 315.121094 70.871094 C 315.304688 70.871094 315.480469 70.90625 315.648438 70.976562 C 315.820312 71.046875 315.96875 71.148438 316.097656 71.277344 C 316.226562 71.40625 316.324219 71.554688 316.394531 71.722656 C 316.464844 71.890625 316.5 72.066406 316.5 72.25 L 316.5 83.832031 C 316.5 84.015625 316.464844 84.191406 316.394531 84.359375 C 316.324219 84.53125 316.226562 84.679688 316.097656 84.808594 C 315.96875 84.9375 315.820312 85.035156 315.648438 85.105469 C 315.480469 85.175781 315.304688 85.210938 315.121094 85.210938 L 309.894531 85.210938 C 309.710938 85.210938 309.535156 85.175781 309.367188 85.105469 C 309.199219 85.035156 309.050781 84.9375 308.921875 84.808594 C 308.792969 84.679688 308.691406 84.53125 308.621094 84.359375 C 308.550781 84.191406 308.515625 84.015625 308.515625 83.832031 L 308.515625 72.25 C 308.515625 72.066406 308.550781 71.890625 308.621094 71.722656 C 308.691406 71.554688 308.792969 71.40625 308.921875 71.277344 C 309.050781 71.148438 309.199219 71.046875 309.367188 70.976562 C 309.535156 70.90625 309.710938 70.871094 309.894531 70.871094 Z M 309.894531 70.871094 " fill-opacity="1" fill-rule="nonzero"/><path fill="#ffeee9" d="M 322.992188 62.925781 L 328.21875 62.925781 C 328.402344 62.925781 328.578125 62.960938 328.746094 63.03125 C 328.914062 63.101562 329.0625 63.203125 329.191406 63.332031 C 329.324219 63.460938 329.421875 63.609375 329.492188 63.777344 C 329.5625 63.945312 329.597656 64.121094 329.597656 64.304688 L 329.597656 83.8125 C 329.597656 83.996094 329.5625 84.171875 329.492188 84.339844 C 329.421875 84.511719 329.324219 84.660156 329.191406 84.789062 C 329.0625 84.917969 328.914062 85.019531 328.746094 85.085938 C 328.578125 85.15625 328.402344 85.191406 328.21875 85.191406 L 322.992188 85.191406 C 322.808594 85.191406 322.632812 85.15625 322.464844 85.085938 C 322.296875 85.019531 322.144531 84.917969 322.015625 84.789062 C 321.886719 84.660156 321.789062 84.511719 321.71875 84.339844 C 321.648438 84.171875 321.613281 83.996094 321.613281 83.8125 L 321.613281 64.304688 C 321.613281 64.121094 321.648438 63.945312 321.71875 63.777344 C 321.789062 63.609375 321.886719 63.460938 322.015625 63.332031 C 322.144531 63.203125 322.296875 63.101562 322.464844 63.03125 C 322.632812 62.960938 322.808594 62.925781 322.992188 62.925781 Z M 322.992188 62.925781 " fill-opacity="1" fill-rule="nonzero"/><path fill="#ffeee9" d="M 335.761719 68.480469 L 340.988281 68.480469 C 341.171875 68.480469 341.347656 68.515625 341.515625 68.582031 C 341.683594 68.652344 341.835938 68.753906 341.964844 68.882812 C 342.09375 69.011719 342.191406 69.160156 342.261719 69.328125 C 342.332031 69.5 342.367188 69.675781 342.367188 69.855469 L 342.367188 83.8125 C 342.367188 83.996094 342.332031 84.171875 342.261719 84.339844 C 342.191406 84.511719 342.09375 84.660156 341.964844 84.789062 C 341.835938 84.917969 341.683594 85.019531 341.515625 85.085938 C 341.347656 85.15625 341.171875 85.191406 340.988281 85.191406 L 335.761719 85.191406 C 335.578125 85.191406 335.402344 85.15625 335.234375 85.085938 C 335.066406 85.019531 334.917969 84.917969 334.789062 84.789062 C 334.65625 84.660156 334.558594 84.511719 334.488281 84.339844 C 334.417969 84.171875 334.382812 83.996094 334.382812 83.8125 L 334.382812 69.855469 C 334.382812 69.675781 334.417969 69.5 334.488281 69.328125 C 334.558594 69.160156 334.65625 69.011719 334.789062 68.882812 C 334.917969 68.753906 335.066406 68.652344 335.234375 68.582031 C 335.402344 68.515625 335.578125 68.480469 335.761719 68.480469 Z M 335.761719 68.480469 " fill-opacity="1" fill-rule="nonzero"/><path fill="#ffeee9" d="M 373.578125 70.890625 L 381.042969 70.890625 C 381.402344 70.890625 381.75 70.960938 382.082031 71.097656 C 382.417969 71.234375 382.710938 71.429688 382.964844 71.683594 C 383.222656 71.9375 383.417969 72.230469 383.554688 72.5625 C 383.691406 72.894531 383.761719 73.242188 383.761719 73.601562 C 383.761719 73.960938 383.691406 74.304688 383.554688 74.636719 C 383.417969 74.96875 383.222656 75.261719 382.964844 75.515625 C 382.710938 75.769531 382.417969 75.964844 382.082031 76.101562 C 381.75 76.242188 381.402344 76.308594 381.042969 76.308594 L 373.578125 76.308594 C 373.214844 76.308594 372.867188 76.242188 372.535156 76.101562 C 372.203125 75.964844 371.910156 75.769531 371.652344 75.515625 C 371.398438 75.261719 371.203125 74.96875 371.0625 74.636719 C 370.925781 74.304688 370.859375 73.960938 370.859375 73.601562 C 370.859375 73.242188 370.925781 72.894531 371.0625 72.5625 C 371.203125 72.230469 371.398438 71.9375 371.652344 71.683594 C 371.910156 71.429688 372.203125 71.234375 372.535156 71.097656 C 372.867188 70.960938 373.214844 70.890625 373.578125 70.890625 Z M 373.578125 70.890625 " fill-opacity="1" fill-rule="nonzero"/><path fill="#ffeee9" d="M 370.128906 60.667969 L 377.597656 60.667969 C 377.957031 60.667969 378.304688 60.738281 378.636719 60.875 C 378.96875 61.011719 379.265625 61.207031 379.519531 61.460938 C 379.773438 61.714844 379.972656 62.007812 380.109375 62.339844 C 380.246094 62.671875 380.316406 63.015625 380.316406 63.375 C 380.316406 63.734375 380.246094 64.082031 380.109375 64.414062 C 379.972656 64.746094 379.773438 65.039062 379.519531 65.292969 C 379.265625 65.546875 378.96875 65.742188 378.636719 65.878906 C 378.304688 66.015625 377.957031 66.085938 377.597656 66.085938 L 370.128906 66.085938 C 369.769531 66.085938 369.421875 66.015625 369.089844 65.878906 C 368.757812 65.742188 368.460938 65.546875 368.207031 65.292969 C 367.953125 65.039062 367.757812 64.746094 367.617188 64.414062 C 367.480469 64.082031 367.410156 63.734375 367.410156 63.375 C 367.410156 63.015625 367.480469 62.671875 367.617188 62.339844 C 367.757812 62.007812 367.953125 61.714844 368.207031 61.460938 C 368.460938 61.207031 368.757812 61.011719 369.089844 60.875 C 369.421875 60.738281 369.769531 60.667969 370.128906 60.667969 Z M 370.128906 60.667969 " fill-opacity="1" fill-rule="nonzero"/><path fill="#271700" d="M 381.0625 76.882812 L 373.578125 76.882812 C 371.757812 76.882812 370.28125 75.410156 370.28125 73.589844 C 370.28125 71.773438 371.757812 70.296875 373.578125 70.296875 L 381.0625 70.296875 C 382.882812 70.296875 384.355469 71.773438 384.355469 73.589844 C 384.355469 75.410156 382.882812 76.882812 381.0625 76.882812 Z M 373.578125 71.464844 C 372.390625 71.464844 371.433594 72.421875 371.433594 73.609375 C 371.433594 74.796875 372.390625 75.753906 373.578125 75.753906 L 381.0625 75.753906 C 382.25 75.753906 383.207031 74.796875 383.207031 73.609375 C 383.207031 72.421875 382.25 71.464844 381.0625 71.464844 Z M 373.578125 71.464844 " fill-opacity="1" fill-rule="nonzero"/><path fill="#271700" d="M 377.617188 66.660156 L 370.128906 66.660156 C 368.3125 66.660156 366.835938 65.1875 366.835938 63.367188 C 366.835938 61.546875 368.3125 60.074219 370.128906 60.074219 L 377.617188 60.074219 C 379.433594 60.074219 380.910156 61.546875 380.910156 63.367188 C 380.910156 65.1875 379.433594 66.660156 377.617188 66.660156 Z M 370.128906 61.242188 C 368.941406 61.242188 367.984375 62.199219 367.984375 63.386719 C 367.984375 64.574219 368.941406 65.53125 370.128906 65.53125 L 377.617188 65.53125 C 378.804688 65.53125 379.761719 64.574219 379.761719 63.386719 C 379.761719 62.199219 378.804688 61.242188 377.617188 61.242188 Z M 370.128906 61.242188 " fill-opacity="1" fill-rule="nonzero"/></svg>