<svg xmlns="http://www.w3.org/2000/svg" xmlns:xlink="http://www.w3.org/1999/xlink" width="615" zoomAndPan="magnify" viewBox="0 0 461.25 419.999985" height="560" preserveAspectRatio="xMidYMid meet" version="1.0"><defs><clipPath id="c17d898b8e"><path d="M 150 297 L 184 297 L 184 377.773438 L 150 377.773438 Z M 150 297 " clip-rule="nonzero"/></clipPath><clipPath id="b3c63fbbe9"><path d="M 107 312 L 141 312 L 141 377.773438 L 107 377.773438 Z M 107 312 " clip-rule="nonzero"/></clipPath><clipPath id="e1a77696a2"><path d="M 65 325 L 99 325 L 99 377.773438 L 65 377.773438 Z M 65 325 " clip-rule="nonzero"/></clipPath><clipPath id="a322413c4e"><path d="M 194 274 L 228 274 L 228 377.773438 L 194 377.773438 Z M 194 274 " clip-rule="nonzero"/></clipPath><clipPath id="de1f07b591"><path d="M 238 237 L 272 237 L 272 377.773438 L 238 377.773438 Z M 238 237 " clip-rule="nonzero"/></clipPath><clipPath id="6ebbde518d"><path d="M 282 185 L 315 185 L 315 377.773438 L 282 377.773438 Z M 282 185 " clip-rule="nonzero"/></clipPath><clipPath id="6e010d66dd"><path d="M 325 140 L 359 140 L 359 377.773438 L 325 377.773438 Z M 325 140 " clip-rule="nonzero"/></clipPath><clipPath id="ac0ff64033"><path d="M 22.789062 121 L 437.613281 121 L 437.613281 377.773438 L 22.789062 377.773438 Z M 22.789062 121 " clip-rule="nonzero"/></clipPath><clipPath id="89cc3f4368"><path d="M 398 26.597656 L 401 26.597656 L 401 45 L 398 45 Z M 398 26.597656 " clip-rule="nonzero"/></clipPath></defs><path fill="#193564" d="M 135.246094 228.984375 C 135.273438 229.398438 135.316406 229.75 135.382812 230.070312 C 134.933594 230.210938 134.460938 230.644531 134.460938 231.140625 L 134.394531 232.320312 L 133.382812 232.320312 L 133.382812 231.140625 C 133.378906 230.09375 134.261719 229.199219 135.246094 228.984375 Z M 135.246094 228.984375 " fill-opacity="1" fill-rule="nonzero"/><path fill="#193564" d="M 142.203125 229.257812 C 142.203125 229.257812 142.277344 229.152344 142.363281 228.988281 C 143.414062 229.148438 144.316406 230.050781 144.316406 231.144531 L 144.316406 232.324219 L 143.242188 232.324219 L 143.234375 231.144531 C 143.234375 230.582031 142.722656 230.125 142.183594 230.054688 C 142.207031 229.617188 142.203125 229.257812 142.203125 229.257812 Z M 142.203125 229.257812 " fill-opacity="1" fill-rule="nonzero"/><path fill="#f2adab" d="M 167.09375 170.398438 C 167.09375 170.398438 166.871094 171.875 165.976562 173.074219 L 170.824219 177.671875 L 171.058594 172.421875 C 171.058594 172.421875 173.988281 173.429688 175.230469 172.539062 C 176.472656 171.648438 177.128906 169.515625 176.652344 168.039062 C 176.652344 168.039062 176.144531 167.367188 177.238281 167.1875 C 178.328125 167.007812 177.359375 165.863281 176.617188 165.246094 C 175.878906 164.632812 175.84375 162.484375 175.84375 162.484375 L 171.433594 161.648438 L 165.269531 165.554688 C 165.269531 165.554688 166.800781 168.179688 167.09375 170.398438 Z M 167.09375 170.398438 " fill-opacity="1" fill-rule="nonzero"/><path fill="#f2adab" d="M 173.0625 173.378906 L 172.65625 171.144531 L 169.726562 173.046875 L 170.828125 177.671875 L 172.957031 176.300781 Z M 173.0625 173.378906 " fill-opacity="1" fill-rule="nonzero"/><path fill="#f2adab" d="M 139.511719 223.414062 C 139.585938 224.824219 141.988281 226.125 142.574219 227.082031 C 143.160156 228.039062 142.304688 229.257812 142.304688 229.257812 C 142.304688 229.257812 142.316406 230.496094 142.128906 231.164062 C 141.941406 231.832031 141.195312 231.90625 140.460938 231.273438 C 139.726562 230.644531 139.40625 231.71875 138.453125 231.535156 C 137.496094 231.351562 137.328125 230.835938 136.125 230.957031 C 134.015625 231.171875 135.796875 223.058594 135.796875 223.058594 Z M 139.511719 223.414062 " fill-opacity="1" fill-rule="nonzero"/><path fill="#f2adab" d="M 211.304688 201.164062 C 212.710938 201.300781 214.355469 199.121094 215.390625 198.683594 C 216.421875 198.246094 217.5 199.273438 217.5 199.273438 C 217.5 199.273438 218.726562 199.449219 219.359375 199.734375 C 219.992188 200.015625 219.953125 200.765625 219.222656 201.398438 C 218.488281 202.03125 219.503906 202.507812 219.179688 203.425781 C 218.855469 204.339844 218.320312 204.429688 218.261719 205.640625 C 218.160156 207.753906 210.40625 204.777344 210.40625 204.777344 Z M 211.304688 201.164062 " fill-opacity="1" fill-rule="nonzero"/><path fill="#e4e8ff" d="M 196.996094 260.804688 L 196.667969 265.464844 L 202.621094 265.625 L 202.984375 260.519531 Z M 196.996094 260.804688 " fill-opacity="1" fill-rule="nonzero"/><path fill="#e4e8ff" d="M 165.558594 283.335938 L 164.808594 289.234375 L 157.992188 289.953125 L 158.8125 282.746094 Z M 165.558594 283.335938 " fill-opacity="1" fill-rule="nonzero"/><path fill="#e4e8ff" d="M 165.976562 173.074219 C 165.976562 173.074219 167.710938 174.628906 170.621094 176.027344 C 170.621094 176.027344 172.265625 174.902344 173.0625 173.378906 L 175.367188 174.550781 C 175.367188 174.550781 178.832031 186.414062 178.8125 193.917969 C 178.792969 201.421875 182.949219 212.988281 183.640625 222.007812 C 183.640625 222.007812 179.667969 230.59375 171.003906 230.59375 C 162.339844 230.59375 154.796875 220.804688 154.796875 220.804688 C 154.796875 220.804688 156.542969 212.039062 157.5 208.261719 C 158.453125 204.480469 159.007812 197.828125 157.5 193.9375 C 155.988281 190.050781 161.964844 179.972656 163.882812 175.03125 Z M 165.976562 173.074219 " fill-opacity="1" fill-rule="nonzero"/><path fill="#e4e8ff" d="M 135.09375 222.546875 L 135.101562 224.027344 L 140.417969 224.292969 L 140.480469 222.589844 Z M 135.09375 222.546875 " fill-opacity="1" fill-rule="nonzero"/><path fill="#e4e8ff" d="M 209.789062 205.402344 L 211.253906 205.617188 L 212.308594 200.394531 L 210.632812 200.082031 Z M 209.789062 205.402344 " fill-opacity="1" fill-rule="nonzero"/><path fill="#e4e8ff" d="M 181.964844 59.183594 C 183.226562 53.695312 188.140625 49.597656 194.007812 49.597656 C 195.085938 49.597656 196.132812 49.734375 197.128906 49.996094 C 200.027344 43.796875 206.316406 39.5 213.605469 39.5 C 215.492188 39.5 217.3125 39.789062 219.019531 40.320312 C 222.945312 33.820312 230.074219 29.472656 238.222656 29.472656 C 247.917969 29.472656 256.175781 35.625 259.300781 44.242188 C 261.515625 43.007812 264.0625 42.300781 266.78125 42.300781 C 275.277344 42.300781 282.164062 49.191406 282.164062 57.691406 C 282.164062 58.195312 282.140625 58.695312 282.089844 59.1875 L 181.964844 59.1875 Z M 181.964844 59.183594 " fill-opacity="1" fill-rule="nonzero"/><path fill="#e4e8ff" d="M 56.5 128.589844 C 57.316406 125.03125 60.496094 122.375 64.304688 122.375 C 65.003906 122.375 65.679688 122.46875 66.324219 122.632812 C 68.203125 118.617188 72.277344 115.832031 77.003906 115.832031 C 78.226562 115.832031 79.40625 116.015625 80.511719 116.363281 C 83.054688 112.148438 87.679688 109.332031 92.960938 109.332031 C 99.242188 109.332031 104.59375 113.320312 106.621094 118.902344 C 108.054688 118.105469 109.707031 117.644531 111.46875 117.644531 C 116.972656 117.644531 121.4375 122.109375 121.4375 127.617188 C 121.4375 127.945312 121.421875 128.269531 121.390625 128.585938 L 56.5 128.585938 Z M 56.5 128.589844 " fill-opacity="1" fill-rule="nonzero"/><path fill="#e4e8ff" d="M 53.777344 266.710938 C 54.332031 264.300781 56.488281 262.503906 59.066406 262.503906 C 59.539062 262.503906 59.996094 262.5625 60.433594 262.675781 C 61.707031 259.957031 64.46875 258.070312 67.667969 258.070312 C 68.496094 258.070312 69.292969 258.195312 70.046875 258.429688 C 71.765625 255.574219 74.898438 253.664062 78.476562 253.664062 C 82.730469 253.664062 86.355469 256.367188 87.730469 260.148438 C 88.703125 259.605469 89.824219 259.296875 91.011719 259.296875 C 94.742188 259.296875 97.765625 262.324219 97.765625 266.054688 C 97.765625 266.273438 97.753906 266.492188 97.734375 266.707031 L 53.777344 266.707031 Z M 53.777344 266.710938 " fill-opacity="1" fill-rule="nonzero"/><path fill="#e4e8ff" d="M 239.066406 123.925781 C 239.816406 120.667969 242.730469 118.238281 246.214844 118.238281 C 246.855469 118.238281 247.476562 118.320312 248.066406 118.472656 C 249.785156 114.792969 253.519531 112.242188 257.847656 112.242188 C 258.964844 112.242188 260.042969 112.414062 261.058594 112.730469 C 263.390625 108.867188 267.621094 106.289062 272.457031 106.289062 C 278.210938 106.289062 283.109375 109.941406 284.96875 115.058594 C 286.28125 114.324219 287.796875 113.902344 289.40625 113.902344 C 294.453125 113.902344 298.539062 117.992188 298.539062 123.039062 C 298.539062 123.339844 298.523438 123.632812 298.496094 123.925781 Z M 239.066406 123.925781 " fill-opacity="1" fill-rule="nonzero"/><path fill="#2878b5" d="M 165.976562 173.074219 C 165.976562 173.074219 156.414062 175.542969 155.210938 176.617188 C 154.003906 177.6875 142.796875 191.261719 141.523438 193.636719 C 140.257812 196.011719 138.203125 199.550781 136.769531 206.3125 C 135.539062 212.09375 134.3125 223.003906 134.3125 223.003906 L 141.066406 223.359375 L 146.417969 201.835938 L 155.070312 193.351562 C 155.070312 193.351562 157.308594 212.632812 153.867188 220.3125 C 153.867188 220.3125 161.644531 224.894531 172.464844 224.390625 C 172.464844 224.390625 171.082031 201.378906 168.429688 194.851562 C 165.78125 188.324219 165.59375 180.539062 165.976562 173.074219 Z M 165.976562 173.074219 " fill-opacity="1" fill-rule="nonzero"/><path fill="#2878b5" d="M 173.0625 173.378906 C 173.0625 173.378906 175.328125 187.917969 174.789062 195.917969 C 174.25 203.925781 174.070312 206.707031 175.210938 212.65625 C 176.351562 218.609375 177.203125 223.964844 177.203125 223.964844 C 177.203125 223.964844 181.59375 223.246094 185.480469 221.105469 C 185.480469 221.105469 184.53125 211.992188 182.28125 206.613281 C 178.550781 197.703125 179.910156 189.675781 179.910156 189.675781 C 179.910156 189.675781 185.066406 197.730469 188.386719 200.988281 C 189.902344 202.472656 194.511719 203.28125 197.316406 203.78125 C 201.6875 204.558594 209.90625 206.058594 209.90625 206.058594 L 211.433594 199.953125 C 211.433594 199.953125 197.160156 196.445312 194.289062 195.007812 L 181.210938 175.328125 C 181.210938 175.320312 179.035156 173.09375 173.0625 173.378906 Z M 173.0625 173.378906 " fill-opacity="1" fill-rule="nonzero"/><path fill="#2878b5" d="M 150.410156 250.328125 L 127.296875 250.328125 C 126.300781 250.328125 125.492188 249.523438 125.492188 248.527344 L 125.492188 234.949219 L 152.214844 234.949219 L 152.214844 248.527344 C 152.214844 249.523438 151.40625 250.328125 150.410156 250.328125 Z M 150.410156 250.328125 " fill-opacity="1" fill-rule="nonzero"/><g clip-path="url(#c17d898b8e)"><path fill="#2878b5" d="M 150.882812 297.859375 L 183.636719 297.859375 L 183.636719 377.664062 L 150.882812 377.664062 Z M 150.882812 297.859375 " fill-opacity="1" fill-rule="nonzero"/></g><g clip-path="url(#b3c63fbbe9)"><path fill="#2878b5" d="M 107.71875 312.878906 L 140.472656 312.878906 L 140.472656 377.660156 L 107.71875 377.660156 Z M 107.71875 312.878906 " fill-opacity="1" fill-rule="nonzero"/></g><g clip-path="url(#e1a77696a2)"><path fill="#2878b5" d="M 65.296875 325.84375 L 98.050781 325.84375 L 98.050781 377.664062 L 65.296875 377.664062 Z M 65.296875 325.84375 " fill-opacity="1" fill-rule="nonzero"/></g><g clip-path="url(#a322413c4e)"><path fill="#2878b5" d="M 194.34375 274.023438 L 227.097656 274.023438 L 227.097656 377.664062 L 194.34375 377.664062 Z M 194.34375 274.023438 " fill-opacity="1" fill-rule="nonzero"/></g><g clip-path="url(#de1f07b591)"><path fill="#2878b5" d="M 238.253906 237.257812 L 271.007812 237.257812 L 271.007812 377.664062 L 238.253906 377.664062 Z M 238.253906 237.257812 " fill-opacity="1" fill-rule="nonzero"/></g><g clip-path="url(#6ebbde518d)"><path fill="#2878b5" d="M 282.164062 185.542969 L 314.917969 185.542969 L 314.917969 377.664062 L 282.164062 377.664062 Z M 282.164062 185.542969 " fill-opacity="1" fill-rule="nonzero"/></g><g clip-path="url(#6e010d66dd)"><path fill="#2878b5" d="M 325.328125 140.5 L 358.082031 140.5 L 358.082031 377.660156 L 325.328125 377.660156 Z M 325.328125 140.5 " fill-opacity="1" fill-rule="nonzero"/></g><path fill="#193564" d="M 385.015625 105.429688 L 414.292969 105.429688 L 414.292969 118.960938 L 385.015625 118.960938 Z M 385.015625 105.429688 " fill-opacity="1" fill-rule="evenodd"/><path fill="#193564" d="M 416.652344 118.128906 C 416.652344 116.363281 415.222656 114.925781 413.453125 114.925781 L 385.855469 114.925781 C 384.089844 114.925781 382.652344 116.359375 382.652344 118.128906 C 382.652344 119.894531 384.085938 121.332031 385.855469 121.332031 L 413.453125 121.332031 C 415.222656 121.332031 416.652344 119.894531 416.652344 118.128906 Z M 416.652344 118.128906 " fill-opacity="1" fill-rule="evenodd"/><path fill="#ffbd00" d="M 170.621094 176.027344 C 170.621094 176.027344 170.011719 177.25 168.949219 177.875 C 168.949219 177.875 170.414062 179.246094 171.023438 179.316406 C 171.632812 179.390625 172.304688 177.875 172.304688 177.875 C 172.304688 177.875 172.003906 176.664062 170.621094 176.027344 Z M 170.621094 176.027344 " fill-opacity="1" fill-rule="nonzero"/><path fill="#ffbd00" d="M 170.535156 178.042969 C 170.535156 178.042969 169.128906 183.929688 163.984375 187.304688 C 158.835938 190.675781 155.945312 193.363281 155.875 203.738281 C 155.875 203.738281 156.300781 210.570312 152.242188 213.941406 L 152.488281 221.988281 C 152.488281 221.988281 157.859375 219.707031 159.933594 216.230469 C 162.007812 212.757812 161.476562 203.734375 161.386719 201.808594 C 161.300781 199.882812 161.183594 194.226562 165.621094 190.285156 C 170.054688 186.347656 171.503906 182.796875 171.785156 178.230469 Z M 170.535156 178.042969 " fill-opacity="1" fill-rule="nonzero"/><path fill="#ffbd00" d="M 138.851562 245.167969 C 139.429688 245.167969 139.898438 244.695312 139.898438 244.121094 L 139.898438 243.238281 C 139.898438 242.65625 139.429688 242.1875 138.851562 242.1875 C 138.273438 242.1875 137.804688 242.660156 137.804688 243.238281 L 137.804688 244.121094 C 137.804688 244.699219 138.273438 245.167969 138.851562 245.167969 Z M 138.851562 245.167969 " fill-opacity="1" fill-rule="nonzero"/><g clip-path="url(#ac0ff64033)"><path fill="#ffbd00" d="M 437.507812 121.246094 L 363.292969 121.246094 L 375.167969 141.820312 L 334.589844 162.132812 L 293.503906 253.773438 L 246.960938 270.210938 L 204.199219 318.050781 L 160.777344 310.074219 L 121.261719 343.375 L 79.171875 337.617188 L 22.890625 377.660156 L 54.144531 377.660156 L 84.179688 357.089844 L 126.929688 362.9375 L 166.050781 329.96875 L 211.109375 338.238281 L 257.652344 286.175781 L 307.214844 268.667969 L 348.820312 175.871094 L 384.640625 158.238281 L 400.398438 185.542969 Z M 437.507812 121.246094 " fill-opacity="1" fill-rule="nonzero"/></g><path fill="#ffbd00" d="M 383.042969 80.261719 C 380.878906 80.261719 378.371094 79.710938 376.34375 78.136719 C 373.871094 76.214844 372.558594 73.222656 372.445312 69.242188 C 372.351562 65.863281 373.253906 63.457031 375.125 62.09375 C 378.03125 59.976562 382.058594 61.367188 382.230469 61.429688 C 382.886719 61.660156 383.226562 62.378906 382.996094 63.03125 C 382.765625 63.683594 382.050781 64.027344 381.398438 63.796875 C 381.351562 63.785156 378.417969 62.792969 376.59375 64.128906 C 375.4375 64.980469 374.882812 66.675781 374.957031 69.175781 C 375.046875 72.367188 376.03125 74.714844 377.878906 76.152344 C 380.09375 77.871094 383.109375 77.976562 385.015625 77.542969 C 385.695312 77.390625 386.367188 77.816406 386.519531 78.492188 C 386.671875 79.171875 386.246094 79.84375 385.570312 79.996094 C 384.839844 80.160156 383.972656 80.261719 383.042969 80.261719 Z M 383.042969 80.261719 " fill-opacity="1" fill-rule="nonzero"/><path fill="#ffbd00" d="M 417.632812 54.246094 C 416.847656 54.246094 415.859375 54.246094 414.722656 54.246094 L 384.484375 54.246094 C 383.304688 54.246094 382.28125 54.246094 381.472656 54.246094 C 380.324219 54.246094 379.394531 55.175781 379.394531 56.324219 C 379.394531 57.203125 379.941406 57.953125 380.714844 58.257812 L 380.714844 63.070312 C 380.714844 74.296875 385.234375 83.976562 391.734375 88.382812 C 392.34375 88.921875 393.59375 90.148438 394.6875 91.941406 C 395.179688 92.753906 395.679688 93.609375 395.664062 94.527344 C 395.648438 95.453125 395.085938 96.296875 394.585938 97.109375 C 393.453125 98.9375 392.21875 100.195312 391.664062 100.714844 C 387.992188 101.992188 385.070312 102.808594 385.015625 104.34375 L 385.015625 105.921875 L 414.292969 105.921875 L 414.292969 104.34375 C 414.238281 102.824219 411.355469 102.1875 407.714844 100.964844 C 407.574219 100.847656 405.96875 99.453125 404.519531 97.113281 C 404.019531 96.296875 403.460938 95.453125 403.441406 94.53125 C 403.421875 93.613281 403.925781 92.753906 404.417969 91.945312 C 405.363281 90.390625 406.429688 89.261719 407.09375 88.636719 C 413.777344 84.367188 418.464844 74.570312 418.492188 63.164062 C 418.492188 63.164062 418.492188 60.597656 418.492188 58.214844 C 419.210938 57.890625 419.710938 57.167969 419.710938 56.328125 C 419.710938 55.175781 418.78125 54.246094 417.632812 54.246094 Z M 417.632812 54.246094 " fill-opacity="1" fill-rule="evenodd"/><path fill="#ffbd00" d="M 416.167969 80.261719 C 415.234375 80.261719 414.371094 80.160156 413.632812 79.996094 C 412.953125 79.84375 412.53125 79.167969 412.683594 78.492188 C 412.835938 77.816406 413.511719 77.390625 414.183594 77.542969 C 416.09375 77.976562 419.109375 77.871094 421.320312 76.152344 C 423.171875 74.714844 424.15625 72.367188 424.25 69.175781 C 424.316406 66.675781 423.769531 64.980469 422.609375 64.128906 C 420.78125 62.789062 417.839844 63.789062 417.808594 63.796875 C 417.152344 64.023438 416.4375 63.683594 416.210938 63.027344 C 415.980469 62.375 416.320312 61.660156 416.972656 61.429688 C 417.144531 61.367188 421.175781 59.976562 424.078125 62.09375 C 425.953125 63.457031 426.855469 65.863281 426.757812 69.242188 C 426.644531 73.222656 425.335938 76.214844 422.859375 78.136719 C 420.835938 79.710938 418.328125 80.261719 416.167969 80.261719 Z M 416.167969 80.261719 " fill-opacity="1" fill-rule="nonzero"/><path fill="#e4e8ff" d="M 391.078125 108.257812 L 408.230469 108.257812 L 408.230469 115.109375 L 391.078125 115.109375 Z M 391.078125 108.257812 " fill-opacity="1" fill-rule="evenodd"/><path fill="#ffbd00" d="M 392.695312 46.371094 C 392.492188 46.371094 392.296875 46.253906 392.203125 46.054688 L 385.042969 30.507812 C 384.914062 30.238281 385.035156 29.914062 385.308594 29.785156 C 385.578125 29.660156 385.902344 29.78125 386.027344 30.050781 L 393.1875 45.597656 C 393.3125 45.867188 393.195312 46.191406 392.921875 46.320312 C 392.851562 46.351562 392.773438 46.371094 392.695312 46.371094 Z M 392.695312 46.371094 " fill-opacity="1" fill-rule="nonzero"/><path fill="#ffbd00" d="M 406.621094 46.191406 C 406.550781 46.191406 406.476562 46.179688 406.40625 46.148438 C 406.128906 46.03125 406.003906 45.707031 406.121094 45.433594 L 412.886719 29.710938 C 413.007812 29.4375 413.328125 29.3125 413.601562 29.425781 C 413.878906 29.546875 414.003906 29.867188 413.886719 30.140625 L 407.121094 45.863281 C 407.035156 46.070312 406.832031 46.191406 406.621094 46.191406 Z M 406.621094 46.191406 " fill-opacity="1" fill-rule="nonzero"/><g clip-path="url(#89cc3f4368)"><path fill="#ffbd00" d="M 399.640625 44.800781 C 399.347656 44.800781 399.101562 44.5625 399.097656 44.261719 L 398.882812 27.144531 C 398.878906 26.84375 399.121094 26.597656 399.417969 26.597656 C 399.421875 26.597656 399.425781 26.597656 399.425781 26.597656 C 399.71875 26.597656 399.964844 26.832031 399.96875 27.132812 L 400.183594 44.25 C 400.1875 44.550781 399.945312 44.796875 399.648438 44.800781 C 399.644531 44.800781 399.640625 44.800781 399.640625 44.800781 Z M 399.640625 44.800781 " fill-opacity="1" fill-rule="nonzero"/></g><path fill="#ffbd00" d="M 411.800781 49.660156 C 411.664062 49.660156 411.527344 49.609375 411.421875 49.503906 C 411.207031 49.296875 411.203125 48.953125 411.414062 48.738281 L 423.359375 36.480469 C 423.570312 36.265625 423.914062 36.261719 424.128906 36.472656 C 424.34375 36.683594 424.347656 37.027344 424.136719 37.242188 L 412.191406 49.496094 C 412.082031 49.605469 411.941406 49.660156 411.800781 49.660156 Z M 411.800781 49.660156 " fill-opacity="1" fill-rule="nonzero"/><path fill="#ffbd00" d="M 387.605469 49.964844 C 387.464844 49.964844 387.332031 49.910156 387.226562 49.808594 L 374.976562 37.859375 C 374.761719 37.648438 374.757812 37.304688 374.96875 37.089844 C 375.175781 36.875 375.519531 36.871094 375.734375 37.082031 L 387.984375 49.03125 C 388.203125 49.242188 388.203125 49.585938 387.996094 49.800781 C 387.890625 49.910156 387.746094 49.964844 387.605469 49.964844 Z M 387.605469 49.964844 " fill-opacity="1" fill-rule="nonzero"/><path fill="#193564" d="M 173.0625 173.378906 C 173.0625 173.378906 174.414062 182.039062 174.78125 189.675781 C 176.085938 184.738281 178.117188 180.128906 178.117188 180.128906 C 177.398438 179.152344 175.425781 178.066406 175.425781 178.066406 L 177.140625 176.691406 C 176.542969 175.492188 175.796875 174.292969 175.195312 173.382812 C 174.546875 173.347656 173.835938 173.339844 173.0625 173.378906 Z M 173.0625 173.378906 " fill-opacity="1" fill-rule="nonzero"/><path fill="#193564" d="M 167.09375 170.398438 C 167.09375 170.398438 166.878906 169.476562 165.40625 168.257812 C 163.933594 167.046875 162.125 163.980469 163.125 161.585938 C 163.125 161.585938 163.949219 159.683594 166.046875 159.261719 C 166.046875 159.261719 166.964844 156.460938 169.355469 156.472656 C 171.742188 156.480469 173.230469 157.636719 174.28125 157.742188 C 175.335938 157.851562 178.015625 158.292969 177.835938 160.378906 C 177.660156 162.464844 174.960938 164.566406 172.617188 162.945312 C 172.617188 162.945312 171.558594 162.292969 171.695312 164.054688 C 171.832031 165.816406 171.570312 166.230469 171.570312 166.230469 C 171.570312 166.230469 170.871094 164.539062 169.820312 164.429688 C 168.769531 164.320312 168.199219 165.007812 168.246094 165.832031 C 168.304688 166.863281 167.746094 169.515625 167.09375 170.398438 Z M 167.09375 170.398438 " fill-opacity="1" fill-rule="nonzero"/><path fill="#193564" d="M 166.40625 189.5625 C 166.660156 189.96875 166.898438 190.375 167.125 190.777344 C 166.992188 190.257812 166.878906 189.734375 166.773438 189.207031 C 166.652344 189.324219 166.53125 189.441406 166.40625 189.5625 Z M 166.40625 189.5625 " fill-opacity="1" fill-rule="nonzero"/><path fill="#193564" d="M 160.636719 181.972656 C 160.636719 181.972656 162.605469 184.160156 164.589844 186.878906 C 165.175781 186.449219 165.707031 185.988281 166.191406 185.507812 C 165.730469 181.445312 165.761719 177.210938 165.976562 173.074219 C 165.976562 173.074219 164.375 173.488281 162.402344 174.050781 C 161.878906 175.0625 161.207031 176.359375 160.6875 177.363281 L 163.390625 178.816406 C 163.390625 178.816406 161.820312 179.953125 160.636719 181.972656 Z M 160.636719 181.972656 " fill-opacity="1" fill-rule="nonzero"/><path fill="#193564" d="M 150.410156 231.898438 L 127.296875 231.898438 C 126.300781 231.898438 125.492188 232.703125 125.492188 233.699219 L 125.492188 235.238281 C 125.492188 236.234375 126.039062 237.148438 126.917969 237.621094 L 137.570312 243.351562 C 137.648438 243.394531 137.726562 243.429688 137.804688 243.460938 L 137.804688 243.238281 C 137.804688 242.660156 138.273438 242.1875 138.851562 242.1875 C 139.429688 242.1875 139.898438 242.660156 139.898438 243.238281 L 139.898438 243.460938 C 139.976562 243.429688 140.058594 243.394531 140.132812 243.351562 L 150.789062 237.621094 C 151.664062 237.148438 152.210938 236.234375 152.210938 235.238281 L 152.210938 233.703125 C 152.214844 232.703125 151.40625 231.898438 150.410156 231.898438 Z M 150.410156 231.898438 " fill-opacity="1" fill-rule="nonzero"/><path fill="#193564" d="M 176.683594 298.117188 L 159.144531 298.132812 C 157.613281 298.140625 156.652344 296.53125 156.785156 295.871094 L 157.199219 289.742188 C 157.558594 288.394531 160.269531 289.558594 162.105469 288.3125 C 164.597656 287.292969 164.746094 287.011719 165.554688 287.199219 C 166.976562 287.5 166.953125 288.390625 166.71875 289.433594 C 166.046875 291.140625 168.242188 292.597656 169.617188 292.605469 C 175.214844 292.628906 180.195312 296.570312 176.683594 298.117188 Z M 176.683594 298.117188 " fill-opacity="1" fill-rule="nonzero"/><path fill="#193564" d="M 212.167969 274.402344 L 195.890625 274.449219 C 195.230469 274.445312 194.171875 273.304688 194.367188 272.761719 L 196.128906 265.09375 C 196.597656 263.992188 198.566406 265.40625 200.183594 264.625 C 202.285156 264.132812 202.441406 263.914062 203.054688 264.199219 C 204.128906 264.675781 203.984375 265.4375 203.648438 266.300781 C 202.878906 267.660156 204.382812 269.515625 205.476562 269.46875 C 210.941406 269.214844 215.144531 273.617188 212.167969 274.402344 Z M 212.167969 274.402344 " fill-opacity="1" fill-rule="nonzero"/><path fill="#193564" d="M 207.867188 227.25 C 204.738281 223.957031 191.875 222.78125 185.480469 221.101562 C 181.59375 223.242188 177.203125 223.964844 177.203125 223.964844 C 177.203125 223.964844 176.792969 221.386719 176.160156 217.824219 C 174.867188 218.097656 173.21875 218.457031 172.050781 218.667969 C 172.179688 220.25 172.277344 221.589844 172.34375 222.582031 C 172.359375 222.800781 172.375 223.003906 172.386719 223.191406 C 172.390625 223.238281 172.390625 223.296875 172.398438 223.34375 C 172.421875 223.730469 172.441406 224.007812 172.453125 224.183594 C 172.460938 224.304688 172.464844 224.390625 172.464844 224.390625 C 171.285156 224.445312 170.144531 224.429688 169.042969 224.375 C 168.675781 224.359375 168.332031 224.316406 167.976562 224.289062 C 167.257812 224.234375 166.539062 224.171875 165.859375 224.078125 C 165.476562 224.023438 165.109375 223.964844 164.742188 223.898438 C 164.128906 223.796875 163.523438 223.6875 162.949219 223.5625 C 162.609375 223.488281 162.273438 223.414062 161.953125 223.332031 C 161.386719 223.195312 160.847656 223.050781 160.335938 222.902344 C 157.792969 222.15625 155.851562 221.316406 154.800781 220.800781 C 154.800781 220.800781 154.796875 220.800781 154.796875 220.800781 C 153.90625 224.382812 155.585938 230.515625 160.054688 234.496094 C 160.578125 243.703125 161.660156 252.476562 161.660156 252.476562 C 156.773438 262.152344 157.382812 285.175781 157.382812 285.175781 L 166.078125 285.414062 C 166.742188 279.570312 173.148438 257.683594 173.210938 252.222656 C 173.242188 249.675781 175.289062 244.007812 176.511719 238.171875 C 189.660156 237.644531 197.082031 235.921875 197.082031 235.921875 L 195.511719 263.296875 L 204.503906 261.75 C 204.503906 261.75 211.855469 231.453125 207.867188 227.25 Z M 207.867188 227.25 " fill-opacity="1" fill-rule="nonzero"/><path fill="#193564" d="M 171.898438 177.070312 C 172.214844 177.507812 172.304688 177.875 172.304688 177.875 C 172.304688 177.875 172.0625 178.417969 171.738281 178.835938 C 171.367188 183.113281 169.855469 186.519531 165.621094 190.285156 C 161.183594 194.222656 161.300781 199.882812 161.386719 201.804688 C 161.472656 203.734375 162.003906 212.753906 159.929688 216.230469 C 158.753906 218.207031 156.511719 219.796875 154.792969 220.800781 C 154.550781 221.746094 154.558594 222.890625 154.558594 222.890625 C 154.558594 222.890625 159.398438 220.464844 161.375 216.925781 C 163.351562 213.394531 162.566406 204.390625 162.425781 202.46875 C 162.285156 200.546875 162.007812 194.894531 166.328125 190.832031 C 170.460938 186.953125 171.871094 183.503906 172.125 179.214844 C 172.4375 178.789062 172.667969 178.238281 172.667969 178.238281 C 172.667969 178.238281 172.5 177.632812 171.898438 177.070312 Z M 171.898438 177.070312 " fill-opacity="0.2" fill-rule="nonzero"/><path fill="#193564" d="M 172.96875 172.859375 L 172.867188 172.839844 C 172.867188 172.839844 170.859375 172.421875 169.246094 171.257812 C 169.246094 171.257812 170.453125 172.578125 173.0625 173.378906 Z M 172.96875 172.859375 " fill-opacity="0.2" fill-rule="nonzero"/><path fill="#193564" d="M 180.652344 182.960938 C 180.652344 185.195312 179.910156 189.675781 179.910156 189.675781 C 179.910156 189.675781 180.1875 190.109375 180.652344 190.808594 C 180.652344 190.796875 180.652344 190.789062 180.652344 190.777344 C 180.933594 186.871094 180.652344 182.960938 180.652344 182.960938 Z M 180.652344 182.960938 " fill-opacity="0.2" fill-rule="nonzero"/><path fill="#193564" d="M 155.214844 194.78125 C 158.964844 189.675781 159.921875 186.5 159.921875 186.5 C 158.371094 189.679688 155.070312 193.355469 155.070312 193.355469 C 155.070312 193.355469 155.128906 193.878906 155.214844 194.78125 Z M 155.214844 194.78125 " fill-opacity="0.2" fill-rule="nonzero"/><path fill="#193564" d="M 404.519531 97.109375 C 404.019531 96.292969 403.460938 95.449219 403.441406 94.523438 C 403.421875 93.605469 403.925781 92.75 404.417969 91.941406 C 405.363281 90.386719 406.429688 89.257812 407.09375 88.628906 C 404.796875 90.097656 402.265625 90.914062 399.605469 90.914062 C 396.796875 90.914062 394.128906 90 391.734375 88.375 C 392.34375 88.917969 393.589844 90.140625 394.6875 91.9375 C 395.179688 92.746094 395.679688 93.605469 395.664062 94.523438 C 395.648438 95.445312 395.085938 96.292969 394.585938 97.105469 C 393.070312 99.550781 391.363281 100.980469 391.363281 100.980469 C 391.363281 103.3125 407.742188 103.3125 407.742188 100.980469 C 407.742188 100.984375 406.035156 99.558594 404.519531 97.109375 Z M 404.519531 97.109375 " fill-opacity="0.2" fill-rule="evenodd"/></svg>