<svg xmlns="http://www.w3.org/2000/svg" xmlns:xlink="http://www.w3.org/1999/xlink" width="590" zoomAndPan="magnify" viewBox="0 0 442.5 295.499996" height="394" preserveAspectRatio="xMidYMid meet" version="1.0"><defs><clipPath id="3a56cdbde6"><path d="M 80.25 148 L 117 148 L 117 264 L 80.25 264 Z M 80.25 148 " clip-rule="nonzero"/></clipPath></defs><path fill="#ffffff" d="M 311.089844 263.519531 L 320.988281 263.519531 L 294.570312 148.660156 L 284.671875 148.660156 Z M 311.089844 263.519531 " fill-opacity="1" fill-rule="nonzero"/><path fill="#537aa0" d="M 180.367188 109.960938 L 156.464844 109.960938 L 149.980469 137.976562 L 173.875 137.976562 Z M 180.367188 109.960938 " fill-opacity="1" fill-rule="nonzero"/><path fill="#ffffff" d="M 165.140625 127.117188 L 235.003906 127.117188 C 235.441406 127.117188 235.859375 127.199219 236.257812 127.367188 C 236.660156 127.53125 237.015625 127.769531 237.320312 128.074219 C 237.628906 128.382812 237.863281 128.738281 238.03125 129.140625 C 238.199219 129.542969 238.28125 129.960938 238.28125 130.394531 C 238.28125 130.828125 238.199219 131.246094 238.03125 131.648438 C 237.863281 132.050781 237.628906 132.40625 237.320312 132.710938 C 237.015625 133.019531 236.660156 133.257812 236.257812 133.421875 C 235.859375 133.589844 235.441406 133.671875 235.003906 133.671875 L 165.140625 133.671875 C 164.707031 133.671875 164.289062 133.589844 163.886719 133.421875 C 163.488281 133.257812 163.132812 133.019531 162.824219 132.710938 C 162.519531 132.40625 162.28125 132.050781 162.117188 131.648438 C 161.949219 131.246094 161.867188 130.828125 161.867188 130.394531 C 161.867188 129.960938 161.949219 129.542969 162.117188 129.140625 C 162.28125 128.738281 162.519531 128.382812 162.824219 128.074219 C 163.132812 127.769531 163.488281 127.53125 163.886719 127.367188 C 164.289062 127.199219 164.707031 127.117188 165.140625 127.117188 Z M 165.140625 127.117188 " fill-opacity="1" fill-rule="nonzero"/><path fill="#a5b9d6" d="M 229.800781 117.585938 L 131.589844 117.585938 C 131.15625 117.570312 130.738281 117.484375 130.335938 117.328125 C 129.933594 117.171875 129.566406 116.953125 129.238281 116.671875 C 128.90625 116.390625 128.632812 116.066406 128.414062 115.691406 C 128.195312 115.320312 128.046875 114.917969 127.960938 114.496094 L 116.609375 48.425781 C 116.566406 48.234375 116.546875 48.042969 116.546875 47.851562 C 116.546875 47.65625 116.570312 47.464844 116.617188 47.277344 C 116.660156 47.085938 116.726562 46.90625 116.8125 46.730469 C 116.902344 46.558594 117.007812 46.394531 117.128906 46.246094 C 117.253906 46.097656 117.390625 45.964844 117.546875 45.84375 C 117.699219 45.726562 117.867188 45.628906 118.042969 45.550781 C 118.21875 45.46875 118.402344 45.410156 118.59375 45.375 C 118.785156 45.335938 118.976562 45.320312 119.171875 45.328125 L 217.390625 45.328125 C 217.824219 45.34375 218.242188 45.429688 218.644531 45.585938 C 219.046875 45.742188 219.414062 45.960938 219.742188 46.242188 C 220.070312 46.523438 220.34375 46.851562 220.5625 47.226562 C 220.777344 47.601562 220.929688 48 221.011719 48.425781 L 232.363281 114.496094 C 232.40625 114.683594 232.425781 114.875 232.421875 115.070312 C 232.421875 115.261719 232.398438 115.453125 232.351562 115.640625 C 232.308594 115.832031 232.242188 116.011719 232.15625 116.183594 C 232.066406 116.359375 231.960938 116.519531 231.839844 116.667969 C 231.714844 116.816406 231.578125 116.949219 231.421875 117.066406 C 231.269531 117.183594 231.101562 117.285156 230.925781 117.363281 C 230.75 117.441406 230.566406 117.5 230.378906 117.539062 C 230.1875 117.574219 229.996094 117.589844 229.800781 117.585938 Z M 229.800781 117.585938 " fill-opacity="1" fill-rule="nonzero"/><path fill="#e4e9f2" d="M 132.046875 113.289062 L 121.117188 49.625 L 216.925781 49.625 L 227.863281 113.289062 Z M 132.046875 113.289062 " fill-opacity="1" fill-rule="nonzero"/><path fill="#a5b9d6" d="M 171.878906 133.671875 L 292.320312 133.671875 C 292.632812 133.671875 292.945312 133.703125 293.25 133.765625 C 293.558594 133.824219 293.859375 133.917969 294.148438 134.035156 C 294.4375 134.15625 294.714844 134.304688 294.972656 134.476562 C 295.234375 134.652344 295.476562 134.851562 295.699219 135.074219 C 295.917969 135.296875 296.117188 135.535156 296.292969 135.796875 C 296.464844 136.058594 296.613281 136.335938 296.734375 136.625 C 296.851562 136.914062 296.945312 137.214844 297.003906 137.523438 C 297.066406 137.828125 297.097656 138.140625 297.097656 138.453125 L 297.097656 143.878906 C 297.097656 144.191406 297.066406 144.503906 297.003906 144.808594 C 296.945312 145.117188 296.851562 145.417969 296.734375 145.707031 C 296.613281 145.996094 296.464844 146.273438 296.292969 146.535156 C 296.117188 146.796875 295.917969 147.035156 295.699219 147.257812 C 295.476562 147.480469 295.234375 147.679688 294.972656 147.855469 C 294.714844 148.027344 294.4375 148.175781 294.148438 148.296875 C 293.859375 148.414062 293.558594 148.507812 293.25 148.566406 C 292.945312 148.628906 292.632812 148.660156 292.320312 148.660156 L 171.878906 148.660156 C 171.566406 148.660156 171.257812 148.628906 170.949219 148.566406 C 170.640625 148.507812 170.34375 148.414062 170.050781 148.296875 C 169.761719 148.175781 169.488281 148.027344 169.226562 147.855469 C 168.964844 147.679688 168.722656 147.480469 168.503906 147.257812 C 168.28125 147.035156 168.082031 146.796875 167.910156 146.535156 C 167.734375 146.273438 167.585938 145.996094 167.46875 145.707031 C 167.347656 145.417969 167.257812 145.117188 167.195312 144.808594 C 167.132812 144.503906 167.101562 144.191406 167.101562 143.878906 L 167.101562 138.453125 C 167.101562 138.140625 167.132812 137.828125 167.195312 137.523438 C 167.257812 137.214844 167.347656 136.914062 167.46875 136.625 C 167.585938 136.335938 167.734375 136.058594 167.910156 135.796875 C 168.082031 135.535156 168.28125 135.296875 168.503906 135.074219 C 168.722656 134.851562 168.964844 134.652344 169.226562 134.476562 C 169.488281 134.304688 169.761719 134.15625 170.050781 134.035156 C 170.34375 133.917969 170.640625 133.824219 170.949219 133.765625 C 171.257812 133.703125 171.566406 133.671875 171.878906 133.671875 Z M 171.878906 133.671875 " fill-opacity="1" fill-rule="nonzero"/><path fill="#c6d2e5" d="M 177.175781 133.671875 L 98.304688 133.671875 C 97.828125 133.671875 97.363281 133.761719 96.921875 133.945312 C 96.476562 134.128906 96.085938 134.390625 95.746094 134.730469 C 95.40625 135.070312 95.144531 135.464844 94.960938 135.90625 C 94.777344 136.351562 94.6875 136.816406 94.6875 137.296875 L 94.6875 145.035156 C 94.6875 145.515625 94.777344 145.980469 94.960938 146.425781 C 95.144531 146.867188 95.40625 147.261719 95.746094 147.601562 C 96.085938 147.941406 96.476562 148.203125 96.921875 148.386719 C 97.363281 148.570312 97.828125 148.660156 98.304688 148.660156 L 177.207031 148.660156 C 177.6875 148.660156 178.148438 148.566406 178.589844 148.382812 C 179.035156 148.199219 179.425781 147.9375 179.761719 147.597656 C 180.101562 147.257812 180.363281 146.867188 180.546875 146.421875 C 180.730469 145.976562 180.820312 145.515625 180.820312 145.035156 L 180.820312 137.296875 C 180.820312 136.8125 180.726562 136.347656 180.542969 135.902344 C 180.359375 135.457031 180.09375 135.0625 179.753906 134.722656 C 179.410156 134.382812 179.015625 134.121094 178.566406 133.9375 C 178.121094 133.757812 177.65625 133.667969 177.175781 133.671875 Z M 177.175781 133.671875 " fill-opacity="1" fill-rule="nonzero"/><path fill="#7e9ec4" d="M 226.660156 238.1875 C 221.722656 245.308594 217.582031 252.863281 214.230469 260.855469 C 213.601562 265.679688 248.984375 262.855469 249.617188 260.855469 C 249.824219 255.738281 249.683594 250.632812 249.195312 245.53125 Z M 226.660156 238.1875 " fill-opacity="1" fill-rule="nonzero"/><path fill="#7e9ec4" d="M 179.5625 238.1875 C 179.5625 238.1875 146.511719 256.027344 145.910156 260.855469 C 145.3125 265.6875 201.886719 262.855469 202.542969 260.855469 C 202.75 255.738281 202.613281 250.632812 202.125 245.53125 Z M 179.5625 238.1875 " fill-opacity="1" fill-rule="nonzero"/><path fill="#2a3359" d="M 271.488281 161.378906 C 271.488281 161.378906 230.292969 151.929688 214.257812 153.984375 C 198.21875 156.039062 179.195312 235.835938 178.5625 237.882812 C 177.929688 239.929688 201.363281 249.691406 202.9375 248.269531 C 204.515625 246.847656 226.519531 191.453125 226.519531 191.453125 C 242.609375 197.683594 259.269531 201.195312 276.503906 201.992188 C 302.464844 202.625 310.796875 188.304688 310.15625 178.386719 C 309.480469 171.242188 308.011719 164.261719 305.746094 157.453125 Z M 271.488281 161.378906 " fill-opacity="1" fill-rule="nonzero"/><path fill="#2a3359" d="M 288.160156 157.625 C 284.054688 155.734375 279.769531 154.476562 275.296875 153.855469 C 270.824219 153.234375 266.355469 153.273438 261.894531 153.976562 C 245.855469 156.023438 226.832031 235.828125 226.199219 237.875 C 225.566406 239.921875 249 249.683594 250.574219 248.261719 C 252.152344 246.839844 274.15625 191.445312 274.15625 191.445312 C 274.15625 191.445312 267.222656 197.605469 293.183594 198.230469 C 319.144531 198.855469 327.480469 184.542969 326.832031 174.625 C 326.15625 167.480469 324.691406 160.5 322.433594 153.6875 Z M 288.160156 157.625 " fill-opacity="1" fill-rule="nonzero"/><path fill="#601106" d="M 255.367188 44.652344 C 254.328125 43.585938 253.492188 42.375 252.859375 41.023438 C 252.226562 39.667969 251.832031 38.25 251.675781 36.765625 C 251.675781 36.765625 250.035156 41.382812 248.769531 40.175781 C 248.449219 39.070312 248.261719 37.945312 248.210938 36.792969 C 248.15625 35.644531 248.234375 34.503906 248.449219 33.375 C 248.664062 32.242188 249.003906 31.152344 249.476562 30.105469 C 249.945312 29.054688 250.53125 28.074219 251.230469 27.160156 C 246.09375 26.585938 245.832031 21.8125 253.21875 19.921875 C 261.402344 18.660156 269.632812 18.152344 277.90625 18.402344 C 277.90625 18.402344 274.917969 17.828125 275.289062 16.511719 C 275.660156 15.199219 284.71875 15.773438 288.601562 20.292969 C 289.753906 21.617188 290.632812 23.105469 291.238281 24.753906 C 291.84375 26.402344 292.136719 28.105469 292.113281 29.863281 C 292.113281 29.863281 296.824219 30.128906 297.089844 36.109375 C 297.351562 42.089844 291.433594 45.558594 290.367188 48.761719 C 289.300781 51.96875 289.941406 56.667969 282.503906 57.191406 C 276.191406 56.988281 270.136719 55.640625 264.332031 53.148438 Z M 255.367188 44.652344 " fill-opacity="1" fill-rule="nonzero"/><path fill="#ffa897" d="M 272.925781 70.199219 C 272.925781 70.199219 272.351562 68.933594 271.636719 67.457031 C 270.519531 65.15625 269.09375 62.238281 268.992188 62.089844 C 268.894531 61.941406 264.324219 65.046875 261.015625 64.414062 C 257.707031 63.78125 256.378906 55.046875 255.476562 54.382812 C 254.574219 53.71875 252.019531 53.125 251.699219 52.015625 C 251.378906 50.90625 254.292969 46.980469 254.648438 44.539062 C 255 42.097656 253.121094 36.085938 253.585938 33.859375 C 253.789062 34.554688 254.078125 35.214844 254.457031 35.832031 C 254.832031 36.453125 255.28125 37.015625 255.808594 37.515625 C 256.332031 38.015625 256.914062 38.441406 257.550781 38.785156 C 258.1875 39.132812 258.859375 39.390625 259.5625 39.558594 C 260.753906 39.675781 259.039062 36.183594 258.949219 35.984375 C 260.359375 37.644531 261.925781 39.140625 263.652344 40.472656 C 265.972656 42.113281 267.074219 44.867188 268.683594 45.46875 C 270.289062 46.066406 268.878906 38.613281 275.289062 39.289062 C 281.699219 39.960938 277.332031 49.476562 273.164062 49.28125 C 273.746094 50.417969 274.480469 51.445312 275.363281 52.367188 C 276.246094 53.289062 277.242188 54.066406 278.355469 54.695312 C 279.464844 55.324219 280.640625 55.78125 281.886719 56.066406 C 283.132812 56.347656 284.390625 56.449219 285.664062 56.363281 C 285.664062 56.363281 289.355469 62.699219 290.0625 64.035156 C 290.769531 65.375 272.925781 70.316406 272.925781 70.199219 Z M 272.925781 70.199219 " fill-opacity="1" fill-rule="nonzero"/><path fill="#f96858" d="M 271.636719 67.457031 C 270.519531 65.15625 269.09375 62.238281 268.992188 62.089844 C 268.992188 62.089844 275.558594 57.644531 276.429688 58.628906 C 277.109375 59.445312 274.1875 64.375 271.636719 67.457031 Z M 271.636719 67.457031 " fill-opacity="1" fill-rule="nonzero"/><path fill="#9e76ff" d="M 269.027344 75.128906 C 269.027344 75.128906 268.953125 68.703125 269.96875 67.675781 C 276.035156 64.453125 282.472656 62.367188 289.273438 61.425781 C 290.4375 62.328125 291.425781 63.390625 292.242188 64.617188 C 293.054688 65.84375 293.652344 67.167969 294.035156 68.589844 C 294.304688 70.832031 285.425781 73.742188 280.3125 74.6875 C 276.582031 75.671875 272.820312 75.820312 269.027344 75.128906 Z M 269.027344 75.128906 " fill-opacity="1" fill-rule="nonzero"/><path fill="#ffa897" d="M 242.894531 114.78125 L 238.289062 127.109375 C 238.289062 127.109375 211.136719 118.445312 209.40625 117.503906 C 207.675781 116.558594 201.386719 111.578125 196.929688 111.675781 C 192.472656 111.773438 186.34375 120.863281 186.710938 123.589844 C 187.082031 126.320312 192.21875 120.96875 192.21875 120.96875 C 192.21875 120.96875 188.863281 125.53125 189.386719 127.109375 C 189.914062 128.683594 196.09375 123.066406 196.09375 123.066406 C 196.09375 123.066406 192.472656 127.109375 193.261719 129.203125 C 194.050781 131.296875 200.707031 125.167969 200.707031 125.167969 C 200.707031 125.167969 234.25 147.515625 242.894531 148.617188 C 251.535156 149.71875 260.054688 121.390625 260.054688 121.390625 Z M 242.894531 114.78125 " fill-opacity="1" fill-rule="nonzero"/><path fill="#7b48e1" d="M 282.980469 69.140625 C 282.980469 69.140625 259.703125 76.378906 255.304688 81.464844 C 249.59375 92.390625 245.035156 103.773438 241.621094 115.621094 C 241.308594 117.117188 255.460938 123.097656 258.601562 123.648438 C 261.746094 124.199219 264.660156 116.640625 264.660156 116.640625 C 264.660156 116.640625 269.765625 140.253906 270.183594 144.765625 C 270.601562 149.277344 268.089844 158.199219 268.542969 161.550781 C 268.992188 164.902344 283.429688 163.441406 296.316406 161.550781 C 309.203125 159.660156 327.351562 157.878906 327.554688 147.699219 C 325.8125 125.226562 321.683594 103.203125 315.171875 81.628906 C 310.140625 69.765625 304.582031 62.835938 282.980469 69.140625 Z M 282.980469 69.140625 " fill-opacity="1" fill-rule="nonzero"/><path stroke-linecap="round" transform="matrix(8.207686, 0, 0, 8.216585, 80.249726, 15.896047)" fill="none" stroke-linejoin="round" d="M 22.46992 12.264929 L 23.104805 10.757878 " stroke="#582fbc" stroke-width="0.099" stroke-opacity="1" stroke-miterlimit="4"/><path stroke-linecap="round" transform="matrix(8.207686, 0, 0, 8.216585, 80.249726, 15.896047)" fill="none" stroke-linejoin="round" d="M 19.255041 13.536176 L 20.256865 13.907947 " stroke="#f96858" stroke-width="0.099" stroke-opacity="1" stroke-miterlimit="4"/><path fill="#a5b9d6" d="M 261.515625 257.078125 C 261.515625 257.492188 261.476562 257.90625 261.394531 258.3125 C 261.3125 258.722656 261.195312 259.117188 261.035156 259.5 C 260.875 259.886719 260.679688 260.25 260.449219 260.597656 C 260.21875 260.941406 259.957031 261.261719 259.664062 261.558594 C 259.371094 261.851562 259.050781 262.113281 258.703125 262.34375 C 258.359375 262.574219 257.992188 262.769531 257.609375 262.929688 C 257.226562 263.089844 256.832031 263.210938 256.421875 263.289062 C 256.015625 263.371094 255.605469 263.414062 255.1875 263.414062 C 254.773438 263.414062 254.359375 263.371094 253.953125 263.289062 C 253.546875 263.210938 253.152344 263.089844 252.765625 262.929688 C 252.382812 262.769531 252.019531 262.574219 251.671875 262.34375 C 251.328125 262.113281 251.007812 261.851562 250.714844 261.558594 C 250.417969 261.261719 250.15625 260.941406 249.925781 260.597656 C 249.695312 260.25 249.5 259.886719 249.34375 259.5 C 249.183594 259.117188 249.0625 258.722656 248.980469 258.3125 C 248.902344 257.90625 248.859375 257.492188 248.859375 257.078125 C 248.859375 256.660156 248.902344 256.25 248.980469 255.839844 C 249.0625 255.433594 249.183594 255.039062 249.34375 254.652344 C 249.5 254.269531 249.695312 253.902344 249.925781 253.558594 C 250.15625 253.210938 250.417969 252.890625 250.714844 252.597656 C 251.007812 252.304688 251.328125 252.042969 251.671875 251.808594 C 252.019531 251.578125 252.382812 251.382812 252.765625 251.226562 C 253.152344 251.066406 253.546875 250.945312 253.953125 250.863281 C 254.359375 250.78125 254.773438 250.742188 255.1875 250.742188 C 255.605469 250.742188 256.015625 250.78125 256.421875 250.863281 C 256.832031 250.945312 257.226562 251.066406 257.609375 251.226562 C 257.992188 251.382812 258.359375 251.578125 258.703125 251.808594 C 259.050781 252.042969 259.371094 252.304688 259.664062 252.597656 C 259.957031 252.890625 260.21875 253.210938 260.449219 253.558594 C 260.679688 253.902344 260.875 254.269531 261.035156 254.652344 C 261.195312 255.039062 261.3125 255.433594 261.394531 255.839844 C 261.476562 256.25 261.515625 256.660156 261.515625 257.078125 Z M 261.515625 257.078125 " fill-opacity="1" fill-rule="nonzero"/><path fill="#a5b9d6" d="M 309.152344 257.078125 C 309.152344 257.492188 309.113281 257.90625 309.03125 258.3125 C 308.953125 258.722656 308.832031 259.117188 308.671875 259.5 C 308.511719 259.886719 308.316406 260.25 308.085938 260.597656 C 307.855469 260.941406 307.59375 261.261719 307.300781 261.558594 C 307.007812 261.851562 306.6875 262.113281 306.339844 262.34375 C 305.996094 262.574219 305.632812 262.769531 305.246094 262.929688 C 304.863281 263.089844 304.46875 263.210938 304.058594 263.289062 C 303.652344 263.371094 303.242188 263.414062 302.824219 263.414062 C 302.410156 263.414062 302 263.371094 301.589844 263.289062 C 301.183594 263.210938 300.789062 263.089844 300.402344 262.929688 C 300.019531 262.769531 299.65625 262.574219 299.308594 262.34375 C 298.964844 262.113281 298.644531 261.851562 298.351562 261.558594 C 298.058594 261.261719 297.796875 260.941406 297.5625 260.597656 C 297.332031 260.25 297.136719 259.886719 296.980469 259.5 C 296.820312 259.117188 296.699219 258.722656 296.621094 258.3125 C 296.539062 257.90625 296.496094 257.492188 296.496094 257.078125 C 296.496094 256.660156 296.539062 256.25 296.621094 255.839844 C 296.699219 255.433594 296.820312 255.039062 296.980469 254.652344 C 297.136719 254.269531 297.332031 253.902344 297.5625 253.558594 C 297.796875 253.210938 298.058594 252.890625 298.351562 252.597656 C 298.644531 252.304688 298.964844 252.042969 299.308594 251.808594 C 299.65625 251.578125 300.019531 251.382812 300.402344 251.226562 C 300.789062 251.066406 301.183594 250.945312 301.589844 250.863281 C 302 250.78125 302.410156 250.742188 302.824219 250.742188 C 303.242188 250.742188 303.652344 250.78125 304.058594 250.863281 C 304.46875 250.945312 304.863281 251.066406 305.246094 251.226562 C 305.632812 251.382812 305.996094 251.578125 306.339844 251.808594 C 306.6875 252.042969 307.007812 252.304688 307.300781 252.597656 C 307.59375 252.890625 307.855469 253.210938 308.085938 253.558594 C 308.316406 253.902344 308.511719 254.269531 308.671875 254.652344 C 308.832031 255.039062 308.953125 255.433594 309.03125 255.839844 C 309.113281 256.25 309.152344 256.660156 309.152344 257.078125 Z M 309.152344 257.078125 " fill-opacity="1" fill-rule="nonzero"/><path fill="#a5b9d6" d="M 304.046875 250.890625 L 299.765625 255.105469 L 258.25 255.105469 L 253.972656 250.890625 L 270.734375 244.449219 C 271.292969 244.234375 271.804688 243.941406 272.273438 243.570312 C 272.746094 243.199219 273.148438 242.765625 273.488281 242.273438 C 273.824219 241.777344 274.082031 241.246094 274.261719 240.675781 C 274.4375 240.101562 274.527344 239.515625 274.527344 238.917969 L 274.527344 226.125 L 283.488281 226.125 L 283.488281 238.894531 C 283.488281 239.492188 283.578125 240.078125 283.753906 240.652344 C 283.929688 241.222656 284.191406 241.757812 284.53125 242.25 C 284.867188 242.746094 285.273438 243.175781 285.742188 243.546875 C 286.214844 243.917969 286.730469 244.210938 287.289062 244.425781 Z M 304.046875 250.890625 " fill-opacity="1" fill-rule="nonzero"/><path fill="#c6d2e5" d="M 274.5 213.636719 L 283.316406 213.636719 C 283.800781 213.636719 284.28125 213.683594 284.757812 213.777344 C 285.234375 213.875 285.695312 214.011719 286.144531 214.199219 C 286.589844 214.386719 287.015625 214.613281 287.421875 214.882812 C 287.824219 215.152344 288.195312 215.457031 288.539062 215.800781 C 288.882812 216.144531 289.1875 216.519531 289.457031 216.921875 C 289.726562 217.328125 289.953125 217.753906 290.140625 218.203125 C 290.328125 218.648438 290.464844 219.113281 290.5625 219.589844 C 290.65625 220.066406 290.703125 220.546875 290.703125 221.03125 L 290.703125 222.609375 C 290.703125 223.09375 290.65625 223.574219 290.5625 224.050781 C 290.464844 224.527344 290.328125 224.988281 290.140625 225.4375 C 289.957031 225.886719 289.726562 226.3125 289.457031 226.71875 C 289.1875 227.121094 288.882812 227.496094 288.539062 227.835938 C 288.195312 228.179688 287.824219 228.488281 287.421875 228.757812 C 287.015625 229.027344 286.589844 229.253906 286.144531 229.441406 C 285.695312 229.625 285.234375 229.765625 284.757812 229.863281 C 284.28125 229.957031 283.800781 230.003906 283.316406 230.003906 L 274.5 230.003906 C 274.015625 230.003906 273.535156 229.957031 273.058594 229.863281 C 272.585938 229.765625 272.121094 229.625 271.675781 229.441406 C 271.226562 229.253906 270.800781 229.027344 270.398438 228.757812 C 269.992188 228.488281 269.621094 228.179688 269.277344 227.835938 C 268.933594 227.496094 268.628906 227.121094 268.359375 226.71875 C 268.089844 226.3125 267.863281 225.886719 267.675781 225.4375 C 267.492188 224.988281 267.351562 224.527344 267.257812 224.050781 C 267.160156 223.574219 267.113281 223.09375 267.113281 222.609375 L 267.113281 221.03125 C 267.113281 220.546875 267.160156 220.066406 267.257812 219.589844 C 267.351562 219.113281 267.492188 218.648438 267.675781 218.203125 C 267.863281 217.753906 268.089844 217.328125 268.359375 216.921875 C 268.628906 216.519531 268.933594 216.144531 269.277344 215.800781 C 269.621094 215.457031 269.992188 215.152344 270.398438 214.882812 C 270.800781 214.613281 271.226562 214.386719 271.675781 214.199219 C 272.121094 214.011719 272.585938 213.875 273.058594 213.777344 C 273.535156 213.683594 274.015625 213.636719 274.5 213.636719 Z M 274.5 213.636719 " fill-opacity="1" fill-rule="nonzero"/><path fill="#537aa0" d="M 330.007812 211.902344 C 322.621094 217.769531 296.359375 222.253906 269.191406 220.382812 C 261.785156 220.039062 254.472656 219.035156 247.246094 217.378906 C 240.019531 215.722656 233 213.4375 226.183594 210.523438 C 225.484375 209.027344 224.964844 207.472656 224.621094 205.855469 C 224.277344 204.242188 224.121094 202.609375 224.152344 200.957031 C 224.183594 199.304688 224.402344 197.679688 224.804688 196.078125 C 225.210938 194.480469 225.789062 192.945312 226.542969 191.476562 C 241.457031 196.0625 256.707031 198.105469 272.300781 197.613281 C 290.359375 195.566406 295.28125 128.667969 303.589844 123.164062 C 311.894531 117.660156 355.296875 116.589844 358.777344 123.164062 C 358.820312 123.238281 358.855469 123.3125 358.882812 123.394531 C 361.773438 131.28125 341.359375 202.871094 330.007812 211.902344 Z M 330.007812 211.902344 " fill-opacity="1" fill-rule="nonzero"/><path fill="#7e9ec4" d="M 358.882812 123.359375 C 338.757812 118.769531 313.816406 119.433594 310.230469 127.117188 C 307.019531 133.976562 294.550781 203.441406 269.191406 220.382812 C 261.785156 220.039062 254.472656 219.035156 247.246094 217.378906 C 240.019531 215.722656 233 213.4375 226.183594 210.523438 C 225.484375 209.027344 224.964844 207.472656 224.621094 205.855469 C 224.277344 204.242188 224.121094 202.609375 224.152344 200.957031 C 224.183594 199.304688 224.402344 197.679688 224.804688 196.078125 C 225.210938 194.480469 225.789062 192.945312 226.542969 191.476562 C 241.457031 196.0625 256.707031 198.105469 272.300781 197.613281 C 290.359375 195.566406 295.28125 128.667969 303.589844 123.164062 C 311.894531 117.660156 355.296875 116.589844 358.777344 123.164062 C 358.820312 123.226562 358.855469 123.292969 358.882812 123.359375 Z M 358.882812 123.359375 " fill-opacity="1" fill-rule="nonzero"/><g clip-path="url(#3a56cdbde6)"><path fill="#ffffff" d="M 90.148438 263.519531 L 80.25 263.519531 L 106.660156 148.660156 L 116.570312 148.660156 Z M 90.148438 263.519531 " fill-opacity="1" fill-rule="nonzero"/></g><path fill="#ffffff" d="M 186.835938 263.519531 L 196.734375 263.519531 L 170.320312 148.660156 L 160.414062 148.660156 Z M 186.835938 263.519531 " fill-opacity="1" fill-rule="nonzero"/></svg>