<svg xmlns="http://www.w3.org/2000/svg" xmlns:xlink="http://www.w3.org/1999/xlink" width="590" zoomAndPan="magnify" viewBox="0 0 442.5 295.499996" height="394" preserveAspectRatio="xMidYMid meet" version="1.0"><defs><clipPath id="735081b4db"><path d="M 83.484375 21 L 379 21 L 379 274.699219 L 83.484375 274.699219 Z M 83.484375 21 " clip-rule="nonzero"/></clipPath><clipPath id="e63addd4b3"><path d="M 83.484375 65 L 379 65 L 379 274.699219 L 83.484375 274.699219 Z M 83.484375 65 " clip-rule="nonzero"/></clipPath></defs><g clip-path="url(#735081b4db)"><path fill="#abccff" d="M 369.449219 258.785156 L 357.789062 258.785156 L 357.808594 227.207031 L 366.585938 227.207031 L 366.585938 226.730469 L 357.808594 226.730469 L 357.820312 193.214844 L 366.585938 193.214844 L 366.585938 192.738281 L 357.820312 192.738281 L 357.839844 159.226562 L 366.585938 159.226562 L 366.585938 158.75 L 357.839844 158.75 L 357.859375 125.230469 L 366.585938 125.230469 L 366.585938 124.753906 L 357.859375 124.753906 L 357.859375 123.488281 L 374.050781 109.269531 L 376.386719 111.605469 C 376.820312 112.035156 377.5625 111.730469 377.5625 111.117188 L 377.5625 105.148438 C 377.5625 104.765625 377.25 104.460938 376.871094 104.460938 L 370.90625 104.460938 C 370.292969 104.460938 369.988281 105.203125 370.417969 105.636719 L 372.703125 107.921875 L 357.859375 120.957031 L 357.871094 91.238281 L 366.585938 91.238281 L 366.585938 90.761719 L 357.878906 90.761719 L 357.882812 72.179688 L 345.214844 72.179688 L 345.214844 57.242188 L 366.585938 57.242188 L 366.585938 56.765625 L 345.214844 56.765625 L 345.214844 50.417969 C 350.347656 47.125 353.316406 41.003906 352.289062 34.601562 C 350.90625 25.996094 342.800781 20.132812 334.183594 21.515625 C 325.570312 22.90625 319.714844 31.007812 321.097656 39.621094 C 322.480469 48.234375 330.589844 54.097656 339.203125 52.707031 C 341.21875 52.382812 343.085938 51.691406 344.738281 50.707031 L 344.738281 56.765625 L 307.625 56.765625 L 307.625 29.910156 L 307.148438 29.910156 L 307.148438 56.765625 L 270.035156 56.765625 L 270.035156 29.910156 L 269.558594 29.910156 L 269.558594 56.765625 L 248.347656 56.765625 C 246.222656 53.375 242.136719 51.507812 238 52.390625 C 235.722656 52.878906 233.800781 54.109375 232.441406 55.785156 L 232.441406 29.910156 L 231.96875 29.910156 L 231.96875 56.417969 C 231.882812 56.53125 231.808594 56.644531 231.738281 56.765625 L 194.84375 56.765625 L 194.847656 29.910156 L 194.371094 29.910156 L 194.371094 56.765625 L 157.253906 56.765625 L 157.253906 29.910156 L 156.777344 29.910156 L 156.777344 56.765625 L 119.664062 56.765625 L 119.664062 29.910156 L 119.1875 29.910156 L 119.1875 56.765625 L 97.816406 56.765625 L 97.816406 57.242188 L 119.1875 57.242188 L 119.1875 90.761719 L 97.816406 90.761719 L 97.816406 91.238281 L 119.1875 91.238281 L 119.1875 110.3125 L 104.847656 103.460938 C 104.371094 103.238281 103.804688 103.433594 103.578125 103.910156 C 103.347656 104.386719 103.550781 104.949219 104.019531 105.179688 L 119.1875 112.421875 L 119.1875 124.753906 L 97.816406 124.753906 L 97.816406 125.230469 L 119.1875 125.230469 L 119.1875 158.75 L 97.816406 158.75 L 97.816406 159.226562 L 119.1875 159.226562 L 119.1875 192.738281 L 97.816406 192.738281 L 97.816406 193.214844 L 119.1875 193.214844 L 119.1875 195.421875 C 118.191406 195.171875 117.144531 195.039062 116.074219 195.039062 C 109.007812 195.039062 103.277344 200.761719 103.277344 207.828125 C 103.277344 214.894531 109.007812 220.617188 116.074219 220.617188 C 117.144531 220.617188 118.191406 220.484375 119.1875 220.234375 L 119.1875 226.730469 L 97.816406 226.730469 L 97.816406 227.207031 L 119.1875 227.207031 L 119.1875 231.222656 L 104.527344 231.222656 L 104.445312 255.453125 L 93.097656 258.785156 L 83.570312 274.839844 L 378.976562 274.839844 Z M 104.433594 258.785156 L 100.753906 258.785156 L 104.441406 257.6875 Z M 157.253906 89.003906 L 174.507812 71.792969 L 191.484375 83.261719 C 185.941406 84.457031 179.707031 86.867188 176.558594 89.039062 C 176.148438 89.324219 176.148438 89.777344 176.625 89.9375 C 177.492188 90.230469 178.382812 90.429688 179.34375 90.347656 L 178.878906 90.761719 L 157.253906 90.761719 Z M 141.109375 226.800781 C 140.921875 226.78125 140.75 226.757812 140.601562 226.730469 C 140.75 226.757812 140.921875 226.777344 141.109375 226.800781 Z M 177.71875 157.683594 C 177.445312 157.722656 177.179688 157.777344 176.917969 157.863281 C 176.695312 156.984375 176.46875 156.109375 176.234375 155.234375 C 176.039062 154.523438 175.847656 153.8125 175.644531 153.105469 C 177.878906 150.566406 179.851562 148.097656 181.390625 145.363281 C 181.449219 146.144531 181.503906 146.933594 181.570312 147.710938 C 181.773438 150.121094 181.988281 152.53125 182.273438 154.945312 L 182.417969 157.132812 Z M 157.253906 91.238281 L 178.339844 91.238281 L 177.242188 92.496094 C 174.988281 94.339844 175.140625 96.117188 176.710938 96.605469 C 177.398438 96.824219 178.296875 97.148438 179.464844 97.117188 C 180.59375 102.371094 182.140625 107.375 185.089844 111.546875 C 185.957031 112.765625 187.441406 113.382812 188.914062 113.132812 L 188.921875 113.132812 C 188.964844 113.132812 189.011719 113.128906 189.054688 113.121094 L 188.363281 113.519531 C 183.597656 116.222656 179.628906 120.097656 176.816406 124.753906 L 157.253906 124.753906 Z M 157.253906 125.230469 L 176.53125 125.230469 C 176.152344 125.882812 175.796875 126.550781 175.460938 127.230469 L 166.949219 144.597656 L 167.0625 144.871094 L 157.253906 144.871094 Z M 156.777344 90.761719 L 155.496094 90.761719 L 156.777344 89.480469 Z M 119.664062 57.242188 L 156.777344 57.242188 L 156.777344 86.789062 L 152.800781 90.761719 L 119.664062 90.761719 Z M 119.664062 91.238281 L 152.320312 91.238281 L 128.664062 114.839844 L 119.664062 110.539062 Z M 119.664062 112.652344 L 128.449219 116.84375 C 128.582031 116.910156 128.722656 116.941406 128.863281 116.941406 C 129.109375 116.941406 129.351562 116.839844 129.535156 116.660156 L 155.023438 91.238281 L 156.777344 91.238281 L 156.777344 124.753906 L 119.664062 124.753906 Z M 119.664062 125.230469 L 156.777344 125.230469 L 156.777344 144.871094 L 139.339844 144.871094 C 139.0625 144.871094 138.851562 145.136719 138.929688 145.410156 L 142.539062 158.75 L 119.664062 158.75 Z M 119.664062 159.226562 L 142.664062 159.226562 L 145.519531 169.773438 C 145.570312 169.964844 145.734375 170.089844 145.933594 170.089844 L 152.648438 170.089844 L 148.742188 171.847656 C 145.949219 173.097656 143.875 175.535156 143.078125 178.488281 L 139.238281 192.738281 L 119.664062 192.738281 Z M 119.664062 220.109375 C 124.980469 218.554688 128.863281 213.644531 128.863281 207.828125 C 128.863281 202.011719 124.980469 197.101562 119.664062 195.546875 L 119.664062 193.214844 L 139.113281 193.214844 L 132.035156 219.476562 L 134.058594 219.671875 C 133.65625 220.566406 133.074219 221.371094 132.351562 222.03125 L 128.105469 225.902344 C 127.835938 226.148438 127.636719 226.425781 127.511719 226.730469 L 119.664062 226.730469 Z M 141.816406 258.785156 L 133.492188 258.785156 L 133.523438 249.035156 L 141.832031 246.5625 L 141.839844 246.5625 Z M 141.839844 244.480469 L 133.53125 246.917969 L 133.585938 231.222656 L 119.664062 231.222656 L 119.664062 227.207031 L 127.359375 227.207031 C 127.328125 227.34375 127.3125 227.480469 127.308594 227.621094 C 127.304688 227.753906 127.316406 227.886719 127.332031 228.019531 C 127.320312 228.019531 127.3125 228.011719 127.300781 228.011719 C 127.308594 228.019531 127.320312 228.027344 127.332031 228.039062 C 127.34375 228.128906 127.367188 228.222656 127.386719 228.3125 C 127.398438 228.351562 127.40625 228.394531 127.421875 228.433594 C 127.445312 228.515625 127.472656 228.59375 127.503906 228.667969 C 127.527344 228.722656 127.554688 228.777344 127.582031 228.832031 C 127.613281 228.894531 127.640625 228.960938 127.679688 229.019531 C 127.746094 229.128906 127.820312 229.234375 127.90625 229.332031 C 127.933594 229.367188 127.96875 229.394531 128.003906 229.429688 C 128.070312 229.5 128.140625 229.566406 128.21875 229.628906 C 128.257812 229.660156 128.300781 229.691406 128.34375 229.722656 C 128.425781 229.777344 128.511719 229.832031 128.605469 229.878906 C 128.644531 229.902344 128.6875 229.925781 128.730469 229.945312 C 128.867188 230.007812 129.011719 230.0625 129.167969 230.101562 C 131.15625 230.59375 133.613281 230.59375 136.015625 230.023438 C 137.164062 229.75 138.222656 229.199219 139.125 228.449219 L 140.621094 227.207031 L 141.871094 227.207031 L 141.871094 228.820312 C 141.046875 229.863281 140.121094 230.824219 139.105469 231.6875 L 136.390625 233.988281 C 135.472656 234.773438 135.179688 235.921875 135.40625 236.949219 C 135.644531 237.992188 136.410156 238.898438 137.601562 239.171875 C 138.832031 239.449219 140.273438 239.53125 141.851562 239.347656 Z M 179.195312 258.785156 L 170.878906 258.785156 L 170.925781 234.992188 L 177.230469 227.207031 L 179.234375 227.207031 Z M 170.929688 231.957031 L 170.9375 227.207031 L 174.78125 227.207031 Z M 179.234375 226.730469 L 177.617188 226.730469 L 179.234375 224.734375 Z M 179.242188 221.707031 L 175.167969 226.730469 L 170.9375 226.730469 L 170.976562 203.945312 L 170.386719 203.945312 L 175.226562 193.214844 L 179.273438 193.214844 Z M 179.273438 192.738281 L 175.441406 192.738281 L 176.417969 190.566406 C 176.875 189.558594 177.800781 188.84375 178.890625 188.640625 C 179.019531 188.613281 179.152344 188.589844 179.277344 188.5625 Z M 194.371094 82.75 C 194.292969 82.753906 194.222656 82.761719 194.148438 82.773438 L 174.921875 69.777344 C 174.546875 69.523438 174.039062 69.566406 173.714844 69.890625 L 157.253906 86.3125 L 157.253906 57.242188 L 194.371094 57.242188 Z M 216.585938 258.785156 L 208.261719 258.785156 L 208.300781 227.207031 L 216.609375 227.207031 Z M 216.609375 226.730469 L 208.300781 226.730469 L 208.332031 196.625 L 216.628906 197.667969 Z M 216.636719 195.75 L 208.339844 194.710938 L 208.339844 193.214844 L 216.636719 193.214844 Z M 216.636719 192.738281 L 208.339844 192.738281 L 208.351562 179.5625 C 209.542969 178.878906 210.464844 177.792969 210.945312 176.484375 C 212.59375 172.039062 212.992188 167.320312 211.625 162.21875 L 212.074219 159.226562 L 216.667969 159.226562 Z M 231.96875 140.511719 L 216.679688 140.511719 L 216.667969 158.75 L 212.152344 158.75 L 214.207031 145.15625 C 214.34375 144.855469 214.496094 144.558594 214.628906 144.253906 C 214.597656 144.3125 214.566406 144.363281 214.527344 144.417969 C 216.628906 140.386719 218.476562 136.3125 219.996094 132.195312 C 220.820312 129.964844 221.074219 127.566406 220.71875 125.230469 L 231.96875 125.230469 Z M 231.96875 124.753906 L 220.636719 124.753906 C 220.535156 124.210938 220.398438 123.671875 220.226562 123.136719 C 220.214844 123.105469 220.207031 123.074219 220.195312 123.042969 C 219.171875 119.890625 217.179688 117.144531 214.460938 115.257812 C 211.085938 112.917969 207.253906 111.199219 203.429688 109.777344 L 200.890625 104.691406 C 200.777344 104.46875 200.816406 104.195312 200.96875 104 C 201.84375 102.863281 202.292969 101.785156 202.457031 100.835938 C 203.503906 98.675781 203.398438 94.726562 202.546875 91.238281 L 203.277344 91.238281 L 231.96875 110.621094 Z M 202.394531 90.640625 L 202.570312 90.761719 L 202.425781 90.761719 C 202.414062 90.722656 202.40625 90.679688 202.394531 90.640625 Z M 231.96875 108.332031 L 206.667969 91.238281 L 231.96875 91.238281 Z M 231.96875 90.761719 L 205.964844 90.761719 L 201.304688 87.613281 L 201.296875 87.609375 C 200.867188 86.6875 200.363281 85.910156 199.820312 85.351562 C 198.410156 83.902344 196.769531 82.738281 194.84375 82.722656 L 194.84375 57.242188 L 231.460938 57.242188 C 230.355469 59.234375 229.945312 61.621094 230.449219 64.015625 C 230.730469 65.316406 231.257812 66.511719 231.96875 67.539062 Z M 253.964844 258.785156 L 245.644531 258.785156 L 245.667969 227.207031 L 253.984375 227.207031 Z M 253.984375 226.730469 L 245.667969 226.730469 L 245.695312 193.214844 L 254.003906 193.214844 Z M 254.003906 192.738281 L 245.695312 192.738281 L 245.695312 192.453125 L 254.011719 179.230469 Z M 254.015625 175.65625 L 254.015625 175.660156 L 245.699219 188.867188 L 245.726562 159.226562 L 254.023438 159.226562 Z M 254.023438 158.75 L 245.726562 158.75 L 245.738281 140.511719 L 232.441406 140.511719 L 232.441406 125.230469 L 254.042969 125.230469 Z M 254.042969 124.753906 L 232.441406 124.753906 L 232.441406 110.945312 L 236.160156 113.457031 C 236.535156 113.71875 237.035156 113.667969 237.359375 113.34375 L 254.0625 96.738281 Z M 254.0625 94.054688 L 236.574219 111.445312 L 232.441406 108.65625 L 232.441406 91.238281 L 254.0625 91.238281 Z M 269.558594 89.765625 L 261.0625 89.765625 L 269.558594 81.316406 Z M 269.558594 78.632812 L 258.367188 89.765625 L 254.0625 89.765625 L 254.0625 90.761719 L 232.441406 90.761719 L 232.441406 68.179688 C 234.695312 70.925781 238.367188 72.351562 242.085938 71.558594 C 247.382812 70.429688 250.757812 65.230469 249.628906 59.933594 C 249.417969 58.96875 249.082031 58.066406 248.625 57.242188 L 269.558594 57.242188 Z M 291.347656 258.785156 L 283.023438 258.785156 L 283.042969 227.207031 L 291.367188 227.207031 Z M 291.371094 226.730469 L 283.042969 226.730469 L 283.0625 193.214844 L 291.390625 193.214844 Z M 291.390625 192.738281 L 283.0625 192.738281 L 283.082031 159.226562 L 291.417969 159.226562 Z M 291.417969 158.75 L 283.082031 158.75 L 283.082031 154.703125 L 291.417969 157.945312 Z M 291.417969 155.90625 L 283.089844 152.667969 L 283.101562 125.230469 L 291.441406 125.230469 Z M 307.148438 122.75 L 291.441406 122.75 L 291.441406 124.753906 L 283.101562 124.753906 L 283.121094 91.238281 L 307.148438 91.238281 Z M 307.148438 90.761719 L 283.121094 90.761719 L 283.121094 89.765625 L 270.035156 89.765625 L 270.035156 80.847656 L 283.175781 67.773438 L 307.148438 87.792969 Z M 307.148438 60.148438 C 302.949219 60.117188 299.308594 63.238281 298.789062 67.507812 C 298.230469 72.09375 301.496094 76.265625 306.082031 76.816406 C 306.445312 76.863281 306.800781 76.882812 307.148438 76.882812 L 307.148438 85.3125 L 283.730469 65.753906 C 283.355469 65.4375 282.796875 65.464844 282.449219 65.8125 L 270.035156 78.164062 L 270.035156 57.242188 L 307.148438 57.242188 Z M 307.625 88.191406 L 310.703125 90.761719 L 307.625 90.761719 Z M 328.730469 258.785156 L 320.40625 258.785156 L 320.425781 227.207031 L 328.75 227.207031 Z M 328.75 226.730469 L 320.433594 226.730469 L 320.449219 193.214844 L 328.761719 193.214844 Z M 328.761719 192.738281 L 320.449219 192.738281 L 320.476562 159.226562 L 328.78125 159.226562 Z M 328.78125 158.75 L 320.476562 158.75 L 320.476562 156.308594 L 328.785156 149.011719 Z M 328.785156 146.480469 L 320.484375 153.777344 L 320.5 125.230469 L 328.800781 125.230469 Z M 328.800781 124.753906 L 320.5 124.753906 L 320.5 122.75 L 307.625 122.75 L 307.625 91.238281 L 311.273438 91.238281 L 323.65625 101.578125 C 323.972656 101.84375 324.433594 101.875 324.785156 101.644531 L 328.8125 99.03125 Z M 328.8125 96.761719 L 324.332031 99.667969 L 314.242188 91.238281 L 328.8125 91.238281 Z M 344.738281 72.179688 L 328.824219 72.179688 L 328.816406 90.761719 L 313.671875 90.761719 L 307.625 85.710938 L 307.625 76.863281 C 311.570312 76.621094 314.902344 73.597656 315.394531 69.53125 C 315.953125 64.945312 312.6875 60.769531 308.101562 60.210938 C 307.941406 60.191406 307.785156 60.171875 307.625 60.167969 L 307.625 57.242188 L 344.738281 57.242188 Z M 344.738281 72.179688 " fill-opacity="1" fill-rule="nonzero"/></g><path fill="#bfa9ff" d="M 104.441406 257.6875 L 133.523438 249.035156 L 133.492188 258.785156 L 104.433594 258.785156 Z M 104.445312 255.453125 L 133.53125 246.917969 L 133.585938 231.222656 L 104.527344 231.222656 Z M 143.160156 226.980469 C 142.683594 226.945312 142.253906 226.914062 141.871094 226.878906 L 141.871094 228.820312 C 142.277344 228.304688 142.660156 227.765625 143.015625 227.207031 C 143.066406 227.132812 143.109375 227.054688 143.160156 226.980469 Z M 167.519531 238.921875 L 141.839844 246.5625 L 141.816406 258.785156 L 170.878906 258.785156 L 170.925781 234.992188 L 167.988281 238.613281 C 167.867188 238.757812 167.703125 238.867188 167.519531 238.921875 Z M 160.101562 226.730469 L 159.886719 227.207031 L 157.253906 227.207031 L 157.253906 227.519531 C 157.101562 227.519531 156.945312 227.511719 156.777344 227.503906 L 156.777344 227.207031 L 147.570312 227.207031 C 150.035156 227.308594 152.710938 227.390625 154.921875 227.453125 C 154.964844 227.453125 155.007812 227.460938 155.054688 227.460938 C 155.5625 227.472656 156.042969 227.488281 156.488281 227.5 C 156.070312 230.0625 153.65625 231.742188 152.089844 232.585938 C 151.070312 233.136719 150.125 233.816406 149.300781 234.636719 L 146.558594 237.375 C 145.722656 238.214844 144.664062 238.808594 143.507812 239.070312 C 142.945312 239.195312 142.386719 239.285156 141.851562 239.347656 L 141.839844 244.480469 L 166.695312 237.183594 L 170.929688 231.957031 L 170.9375 227.207031 L 170.9375 226.730469 L 170.976562 203.945312 L 170.386719 203.945312 Z M 179.234375 224.734375 L 179.234375 227.207031 L 179.195312 258.785156 L 208.261719 258.785156 L 208.300781 227.207031 L 208.300781 226.730469 L 208.332031 196.625 L 202.605469 195.910156 Z M 194.84375 184.789062 C 194.6875 184.839844 194.527344 184.890625 194.371094 184.933594 C 189.5625 186.382812 184.507812 187.574219 179.277344 188.5625 L 179.273438 192.738281 L 179.273438 193.214844 L 179.242188 221.707031 L 201.457031 194.296875 C 201.664062 194.042969 201.988281 193.917969 202.316406 193.957031 L 208.339844 194.710938 L 208.339844 192.738281 L 208.351562 179.5625 C 208.210938 179.652344 208.066406 179.726562 207.914062 179.796875 C 203.816406 181.738281 199.445312 183.378906 194.84375 184.789062 Z M 239.921875 200.589844 L 216.628906 197.667969 L 216.609375 226.730469 L 216.609375 227.207031 L 216.585938 258.785156 L 245.644531 258.785156 L 245.667969 227.207031 L 245.667969 226.730469 L 245.695312 193.214844 L 245.695312 192.453125 L 240.847656 200.152344 C 240.652344 200.464844 240.289062 200.636719 239.921875 200.589844 Z M 216.667969 158.75 L 216.667969 159.226562 L 216.636719 192.738281 L 216.636719 195.75 L 239.558594 198.625 L 245.699219 188.875 L 245.699219 188.867188 L 245.726562 159.226562 L 245.726562 158.75 L 245.738281 140.511719 L 216.679688 140.511719 Z M 254.011719 179.230469 L 254.003906 192.738281 L 254.003906 193.214844 L 253.984375 226.730469 L 253.984375 227.207031 L 253.964844 258.785156 L 283.023438 258.785156 L 283.042969 227.207031 L 283.042969 226.730469 L 283.0625 193.214844 L 283.0625 192.738281 L 283.082031 159.226562 L 283.082031 154.703125 L 272.128906 150.441406 Z M 254.0625 96.738281 L 254.042969 124.753906 L 254.042969 125.230469 L 254.023438 158.75 L 254.023438 159.226562 L 254.015625 175.65625 L 270.933594 148.765625 C 271.175781 148.378906 271.664062 148.21875 272.082031 148.382812 L 283.089844 152.667969 L 283.101562 125.230469 L 283.101562 124.753906 L 283.121094 91.238281 L 283.121094 89.765625 L 254.0625 89.765625 Z M 309.722656 165.066406 L 291.417969 157.945312 L 291.417969 159.226562 L 291.390625 192.738281 L 291.390625 193.214844 L 291.371094 226.730469 L 291.367188 227.207031 L 291.347656 258.785156 L 320.40625 258.785156 L 320.425781 227.207031 L 320.433594 226.730469 L 320.449219 193.214844 L 320.449219 192.738281 L 320.476562 159.226562 L 320.476562 156.308594 L 310.695312 164.894531 C 310.429688 165.132812 310.054688 165.199219 309.722656 165.066406 Z M 291.441406 125.230469 L 291.417969 155.90625 L 309.875 163.089844 L 320.484375 153.777344 L 320.5 125.230469 L 320.5 122.75 L 291.441406 122.75 Z M 328.824219 72.179688 L 328.816406 90.761719 L 328.8125 91.238281 L 328.8125 99.03125 L 328.800781 124.753906 L 328.800781 125.230469 L 328.785156 146.480469 L 357.859375 120.957031 L 357.871094 91.238281 L 357.878906 90.761719 L 357.882812 72.179688 Z M 328.78125 158.75 L 328.78125 159.226562 L 328.761719 192.738281 L 328.761719 193.214844 L 328.75 226.730469 L 328.75 227.207031 L 328.730469 258.785156 L 357.789062 258.785156 L 357.808594 227.207031 L 357.808594 226.730469 L 357.820312 193.214844 L 357.820312 192.738281 L 357.839844 159.226562 L 357.839844 158.75 L 357.859375 125.230469 L 357.859375 123.488281 L 328.785156 149.011719 Z M 331.484375 34.71875 C 331.390625 34.140625 331.449219 33.472656 331.652344 32.71875 C 331.859375 31.96875 332.210938 31.289062 332.707031 30.679688 C 333.207031 30.066406 333.832031 29.621094 334.585938 29.335938 L 334.476562 28.667969 C 334.472656 28.421875 334.535156 28.222656 334.675781 28.058594 C 334.8125 27.898438 334.976562 27.804688 335.167969 27.773438 C 335.566406 27.707031 335.871094 27.894531 336.089844 28.335938 L 336.199219 29.003906 C 337.226562 28.917969 338.167969 29.070312 339.011719 29.457031 C 339.859375 29.84375 340.464844 30.414062 340.832031 31.171875 C 340.859375 31.542969 340.75 31.828125 340.503906 32.03125 C 340.402344 32.113281 340.273438 32.167969 340.113281 32.191406 C 339.78125 32.246094 339.503906 32.09375 339.28125 31.738281 C 338.941406 30.945312 338.085938 30.585938 336.707031 30.660156 L 336.8125 31.304688 L 337.46875 36.292969 C 340.332031 36.859375 341.964844 38.375 342.363281 40.84375 C 342.554688 42.035156 342.214844 42.964844 341.339844 43.625 C 340.46875 44.289062 339.464844 44.710938 338.335938 44.894531 L 338.429688 45.464844 C 338.457031 45.738281 338.398438 45.976562 338.25 46.179688 C 338.101562 46.382812 337.933594 46.5 337.742188 46.53125 C 337.28125 46.605469 336.964844 46.363281 336.792969 45.800781 L 336.6875 45.132812 C 335.722656 45.027344 334.808594 44.753906 333.945312 44.3125 C 333.082031 43.875 332.605469 43.367188 332.515625 42.792969 C 332.476562 42.554688 332.515625 42.34375 332.632812 42.160156 C 332.75 41.980469 332.910156 41.871094 333.105469 41.839844 C 333.304688 41.808594 333.605469 41.917969 334.003906 42.160156 C 334.023438 42.175781 334.179688 42.28125 334.472656 42.476562 C 335.402344 43.078125 336.09375 43.425781 336.546875 43.515625 C 336.488281 42.742188 336.375 41.792969 336.210938 40.667969 C 336.046875 39.542969 335.941406 38.535156 335.898438 37.644531 C 333.886719 37.234375 332.585938 36.691406 331.988281 36.023438 C 331.746094 35.734375 331.578125 35.300781 331.484375 34.71875 Z M 337.53125 38.066406 C 337.5625 38.554688 337.640625 39.273438 337.769531 40.234375 C 337.902344 41.191406 338.039062 42.289062 338.191406 43.519531 C 340.027344 43.078125 340.867188 42.367188 340.710938 41.390625 C 340.554688 40.410156 340.238281 39.683594 339.761719 39.203125 C 339.28125 38.726562 338.539062 38.347656 337.53125 38.066406 Z M 333.148438 34.5625 C 333.308594 35.253906 334.195312 35.726562 335.800781 35.972656 L 335.480469 33.992188 L 335.207031 31.832031 C 335.136719 31.402344 335.085938 31.125 335.050781 31 C 334.394531 31.285156 333.886719 31.785156 333.527344 32.503906 C 333.171875 33.222656 333.042969 33.910156 333.148438 34.5625 Z M 304.636719 71.777344 C 304.261719 71.425781 304.09375 71.101562 304.132812 70.792969 C 304.148438 70.667969 304.199219 70.566406 304.285156 70.492188 C 304.371094 70.414062 304.46875 70.382812 304.574219 70.398438 C 304.679688 70.410156 304.816406 70.507812 304.984375 70.691406 C 304.992188 70.703125 305.054688 70.777344 305.175781 70.921875 C 305.558594 71.363281 305.859375 71.640625 306.078125 71.753906 C 306.164062 71.351562 306.246094 70.851562 306.324219 70.253906 C 306.40625 69.660156 306.5 69.132812 306.609375 68.671875 C 305.648438 68.167969 305.0625 67.699219 304.859375 67.269531 C 304.777344 67.089844 304.753906 66.84375 304.792969 66.535156 C 304.828125 66.226562 304.957031 65.894531 305.171875 65.542969 C 305.386719 65.191406 305.664062 64.894531 306.007812 64.65625 C 306.351562 64.421875 306.734375 64.285156 307.160156 64.25 L 307.203125 63.894531 C 307.234375 63.769531 307.296875 63.675781 307.390625 63.613281 C 307.484375 63.550781 307.582031 63.527344 307.683594 63.539062 C 307.898438 63.566406 308.027344 63.707031 308.070312 63.960938 L 308.027344 64.316406 C 308.566406 64.425781 309.019531 64.640625 309.394531 64.960938 C 309.769531 65.28125 309.992188 65.660156 310.070312 66.097656 C 310.027344 66.292969 309.929688 66.421875 309.777344 66.488281 C 309.714844 66.515625 309.640625 66.523438 309.554688 66.515625 C 309.375 66.492188 309.257812 66.375 309.199219 66.160156 C 309.140625 65.707031 308.757812 65.398438 308.046875 65.234375 L 308.003906 65.578125 L 307.605469 68.210938 C 308.980469 68.921875 309.589844 69.933594 309.429688 71.246094 C 309.351562 71.882812 309.042969 72.304688 308.503906 72.511719 C 307.960938 72.722656 307.390625 72.789062 306.789062 72.71875 L 306.75 73.023438 C 306.722656 73.164062 306.660156 73.277344 306.554688 73.359375 C 306.449219 73.441406 306.347656 73.476562 306.246094 73.464844 C 306 73.433594 305.875 73.261719 305.867188 72.953125 L 305.914062 72.597656 C 305.4375 72.402344 305.011719 72.128906 304.636719 71.777344 Z M 306.914062 71.996094 C 307.914062 72.042969 308.445312 71.804688 308.511719 71.28125 C 308.574219 70.761719 308.519531 70.34375 308.347656 70.03125 C 308.171875 69.71875 307.851562 69.414062 307.378906 69.125 C 307.324219 69.378906 307.257812 69.757812 307.183594 70.261719 C 307.109375 70.769531 307.019531 71.347656 306.914062 71.996094 Z M 306.804688 67.804688 L 306.933594 66.75 L 307.109375 65.609375 C 307.136719 65.382812 307.152344 65.234375 307.152344 65.164062 C 306.777344 65.214844 306.445312 65.394531 306.15625 65.707031 C 305.871094 66.019531 305.703125 66.351562 305.664062 66.699219 C 305.644531 67.074219 306.023438 67.445312 306.804688 67.804688 Z M 236.738281 60.652344 C 236.660156 60.296875 236.675781 59.882812 236.78125 59.410156 C 236.882812 58.9375 237.078125 58.503906 237.371094 58.109375 C 237.660156 57.71875 238.03125 57.421875 238.492188 57.21875 L 238.402344 56.808594 C 238.390625 56.660156 238.425781 56.53125 238.507812 56.425781 C 238.585938 56.324219 238.683594 56.257812 238.800781 56.234375 C 239.046875 56.179688 239.242188 56.289062 239.390625 56.550781 L 239.480469 56.964844 C 240.117188 56.878906 240.703125 56.941406 241.238281 57.15625 C 241.773438 57.371094 242.167969 57.703125 242.417969 58.160156 C 242.449219 58.390625 242.390625 58.574219 242.242188 58.707031 C 242.183594 58.757812 242.105469 58.796875 242.007812 58.816406 C 241.800781 58.863281 241.625 58.777344 241.476562 58.5625 C 241.242188 58.082031 240.699219 57.882812 239.847656 57.972656 L 239.933594 58.371094 L 240.496094 61.441406 C 242.289062 61.703125 243.347656 62.589844 243.671875 64.109375 C 243.828125 64.839844 243.644531 65.425781 243.125 65.867188 C 242.605469 66.304688 241.996094 66.597656 241.304688 66.746094 L 241.378906 67.097656 C 241.402344 67.265625 241.375 67.414062 241.289062 67.546875 C 241.203125 67.675781 241.105469 67.753906 240.988281 67.777344 C 240.703125 67.839844 240.5 67.699219 240.375 67.355469 L 240.289062 66.945312 C 239.6875 66.910156 239.113281 66.769531 238.5625 66.523438 C 238.015625 66.277344 237.703125 65.976562 237.628906 65.625 C 237.597656 65.480469 237.617188 65.347656 237.683594 65.230469 C 237.75 65.113281 237.84375 65.042969 237.964844 65.015625 C 238.089844 64.992188 238.277344 65.046875 238.53125 65.1875 C 238.542969 65.195312 238.644531 65.257812 238.832031 65.371094 C 239.425781 65.714844 239.867188 65.90625 240.152344 65.949219 C 240.089844 65.46875 239.992188 64.882812 239.855469 64.191406 C 239.714844 63.5 239.621094 62.878906 239.5625 62.328125 C 238.304688 62.136719 237.480469 61.84375 237.089844 61.445312 C 236.929688 61.273438 236.8125 61.011719 236.738281 60.652344 Z M 240.589844 62.539062 C 240.625 62.839844 240.695312 63.285156 240.804688 63.875 C 240.917969 64.464844 241.039062 65.140625 241.167969 65.898438 C 242.292969 65.566406 242.792969 65.101562 242.664062 64.5 C 242.535156 63.898438 242.316406 63.457031 242.007812 63.175781 C 241.695312 62.890625 241.222656 62.679688 240.589844 62.539062 Z M 237.765625 60.503906 C 237.886719 60.929688 238.449219 61.191406 239.453125 61.292969 L 239.191406 60.078125 L 238.953125 58.746094 C 238.898438 58.484375 238.855469 58.3125 238.832031 58.238281 C 238.433594 58.433594 238.132812 58.761719 237.933594 59.21875 C 237.734375 59.675781 237.679688 60.101562 237.765625 60.503906 Z M 112 211.832031 C 112 211.636719 112.058594 211.472656 112.175781 211.34375 C 112.292969 211.210938 112.433594 211.148438 112.597656 211.148438 C 112.757812 211.148438 112.984375 211.269531 113.269531 211.519531 C 113.285156 211.53125 113.394531 211.636719 113.605469 211.832031 C 114.269531 212.433594 114.777344 212.796875 115.132812 212.929688 C 115.183594 212.300781 115.214844 211.527344 115.230469 210.609375 C 115.242188 209.6875 115.289062 208.871094 115.367188 208.152344 C 113.8125 207.566406 112.839844 206.964844 112.449219 206.351562 C 112.292969 206.089844 112.214844 205.722656 112.214844 205.246094 C 112.214844 204.769531 112.34375 204.242188 112.605469 203.667969 C 112.867188 203.09375 113.234375 202.59375 113.710938 202.171875 C 114.1875 201.746094 114.746094 201.46875 115.386719 201.339844 L 115.386719 200.789062 C 115.410156 200.59375 115.488281 200.441406 115.621094 200.332031 C 115.75 200.21875 115.894531 200.164062 116.050781 200.164062 C 116.378906 200.164062 116.597656 200.355469 116.71875 200.734375 L 116.71875 201.28125 C 117.550781 201.347656 118.28125 201.585938 118.910156 202.003906 C 119.535156 202.421875 119.945312 202.957031 120.144531 203.609375 C 120.117188 203.910156 119.992188 204.125 119.769531 204.253906 C 119.679688 204.308594 119.566406 204.335938 119.4375 204.335938 C 119.164062 204.335938 118.960938 204.175781 118.832031 203.863281 C 118.660156 203.1875 118.023438 202.789062 116.914062 202.671875 L 116.914062 203.199219 L 116.796875 207.269531 C 119.015625 208.09375 120.125 209.515625 120.125 211.539062 C 120.125 212.515625 119.730469 213.214844 118.949219 213.632812 C 118.164062 214.050781 117.308594 214.257812 116.382812 214.257812 L 116.382812 214.730469 C 116.371094 214.953125 116.292969 215.132812 116.148438 215.277344 C 116.003906 215.421875 115.855469 215.492188 115.699219 215.492188 C 115.320312 215.492188 115.097656 215.257812 115.035156 214.789062 L 115.035156 214.238281 C 114.277344 214.03125 113.582031 213.695312 112.949219 213.230469 C 112.316406 212.769531 112 212.300781 112 211.832031 Z M 116.441406 213.144531 C 117.96875 213.027344 118.734375 212.566406 118.734375 211.761719 C 118.734375 210.960938 118.574219 210.335938 118.253906 209.894531 C 117.933594 209.449219 117.390625 209.050781 116.617188 208.699219 C 116.578125 209.089844 116.550781 209.679688 116.53125 210.460938 C 116.511719 211.246094 116.480469 212.136719 116.441406 213.144531 Z M 115.503906 206.800781 L 115.503906 205.175781 L 115.5625 203.414062 C 115.5625 203.0625 115.554688 202.832031 115.542969 202.730469 C 114.980469 202.871094 114.511719 203.207031 114.132812 203.738281 C 113.753906 204.265625 113.566406 204.796875 113.566406 205.332031 C 113.605469 205.90625 114.25 206.398438 115.503906 206.800781 Z M 115.503906 206.800781 " fill-opacity="1" fill-rule="nonzero"/><path fill="#ff967a" d="M 203.429688 109.777344 C 201.132812 113.445312 198.246094 116.636719 194.84375 119.402344 C 194.6875 119.535156 194.527344 119.660156 194.371094 119.789062 C 194.332031 119.8125 194.292969 119.84375 194.253906 119.878906 C 193.410156 120.535156 192.1875 120.347656 191.578125 119.457031 C 190.964844 118.570312 190.410156 117.65625 189.949219 116.699219 C 189.535156 115.84375 189.339844 114.890625 189.339844 113.933594 L 189.339844 113.058594 C 189.257812 113.078125 189.175781 113.089844 189.09375 113.101562 C 189.042969 113.113281 188.992188 113.121094 188.933594 113.132812 L 188.925781 113.132812 C 188.921875 113.132812 188.921875 113.132812 188.914062 113.132812 C 187.441406 113.382812 185.957031 112.765625 185.089844 111.546875 C 182.140625 107.375 180.59375 102.371094 179.464844 97.117188 C 180.140625 97.105469 180.914062 97.035156 181.796875 96.902344 C 185.019531 96.398438 188.671875 94.675781 191.726562 92.320312 C 191.8125 92.265625 191.894531 92.199219 191.976562 92.125 L 194.371094 96.101562 L 194.84375 96.890625 L 196.527344 99.6875 L 197.046875 100.542969 L 198.511719 100.542969 L 198.511719 98.90625 C 198.511719 98.914062 198.519531 98.925781 198.519531 98.929688 C 198.734375 98.507812 198.976562 98.171875 199.234375 97.921875 C 199.296875 97.851562 199.375 97.789062 199.449219 97.730469 C 199.496094 97.699219 199.539062 97.667969 199.585938 97.636719 C 199.628906 97.605469 199.671875 97.582031 199.71875 97.554688 C 199.8125 97.503906 199.902344 97.464844 199.988281 97.429688 C 199.996094 97.429688 200.003906 97.421875 200.003906 97.421875 C 200.078125 97.394531 200.148438 97.378906 200.226562 97.363281 C 200.238281 97.363281 200.242188 97.359375 200.257812 97.359375 C 200.308594 97.34375 200.359375 97.339844 200.402344 97.339844 C 200.445312 97.332031 200.496094 97.332031 200.542969 97.332031 C 200.597656 97.332031 200.65625 97.332031 200.707031 97.339844 C 200.757812 97.34375 200.808594 97.351562 200.851562 97.363281 C 200.878906 97.371094 200.898438 97.378906 200.921875 97.382812 C 200.960938 97.390625 201 97.402344 201.035156 97.414062 L 201.042969 97.421875 C 201.101562 97.433594 201.152344 97.460938 201.203125 97.480469 C 201.207031 97.480469 201.207031 97.480469 201.207031 97.480469 C 201.257812 97.503906 201.308594 97.53125 201.355469 97.5625 C 201.359375 97.5625 201.359375 97.5625 201.359375 97.5625 C 201.410156 97.59375 201.460938 97.625 201.507812 97.664062 C 201.609375 97.738281 201.695312 97.816406 201.785156 97.910156 C 202.351562 98.511719 202.671875 99.554688 202.457031 100.835938 C 202.292969 101.785156 201.84375 102.863281 200.96875 104 C 200.816406 104.195312 200.777344 104.46875 200.890625 104.691406 Z M 185.433594 158.75 L 183.546875 157 L 182.417969 157.132812 L 177.71875 157.683594 C 177.371094 157.726562 177.035156 157.804688 176.710938 157.925781 L 176.917969 158.75 L 177.039062 159.226562 L 178.351562 164.40625 L 178.957031 166.78125 C 179.449219 166.40625 179.945312 165.960938 180.414062 165.550781 C 180.878906 165.144531 181.472656 164.941406 182.082031 164.960938 C 184.035156 165.023438 185.722656 164.421875 186.960938 163.765625 C 188.351562 163.023438 189.175781 162.21875 189.175781 162.21875 L 185.945312 159.226562 Z M 185.433594 158.75 " fill-opacity="1" fill-rule="nonzero"/><g clip-path="url(#e63addd4b3)"><path fill="#5e17eb" d="M 103.578125 103.910156 C 103.804688 103.433594 104.371094 103.238281 104.847656 103.460938 L 119.1875 110.3125 L 119.664062 110.539062 L 128.664062 114.839844 L 152.320312 91.238281 L 152.800781 90.761719 L 156.777344 86.789062 L 157.253906 86.3125 L 173.714844 69.890625 C 174.039062 69.566406 174.546875 69.523438 174.921875 69.777344 L 194.148438 82.773438 C 194.128906 82.773438 194.105469 82.78125 194.085938 82.78125 C 193.246094 82.90625 192.378906 83.074219 191.484375 83.261719 L 174.507812 71.792969 L 157.253906 89.003906 L 155.496094 90.761719 L 155.023438 91.238281 L 129.535156 116.660156 C 129.351562 116.839844 129.109375 116.941406 128.863281 116.941406 C 128.722656 116.941406 128.582031 116.910156 128.449219 116.84375 L 119.664062 112.652344 L 119.1875 112.421875 L 104.019531 105.179688 C 103.550781 104.949219 103.347656 104.386719 103.578125 103.910156 Z M 202.570312 90.761719 L 203.277344 91.238281 L 231.96875 110.621094 L 232.441406 110.945312 L 236.160156 113.457031 C 236.535156 113.71875 237.035156 113.667969 237.359375 113.34375 L 254.0625 96.738281 L 254.0625 94.054688 L 236.574219 111.445312 L 232.441406 108.65625 L 231.96875 108.332031 L 206.667969 91.238281 L 205.964844 90.761719 L 201.304688 87.613281 C 201.726562 88.515625 202.097656 89.550781 202.394531 90.640625 Z M 269.558594 81.316406 L 270.035156 80.847656 L 283.175781 67.773438 L 307.148438 87.792969 L 307.625 88.191406 L 310.703125 90.761719 L 311.273438 91.238281 L 323.65625 101.578125 C 323.972656 101.84375 324.433594 101.875 324.785156 101.644531 L 328.8125 99.03125 L 328.8125 96.761719 L 324.332031 99.667969 L 314.242188 91.238281 L 313.671875 90.761719 L 307.625 85.710938 L 307.148438 85.3125 L 283.730469 65.753906 C 283.355469 65.4375 282.796875 65.464844 282.449219 65.8125 L 270.035156 78.164062 L 269.558594 78.632812 L 258.367188 89.765625 L 261.0625 89.765625 Z M 191.578125 119.457031 C 190.964844 118.570312 190.410156 117.65625 189.949219 116.699219 C 189.535156 115.84375 189.339844 114.890625 189.339844 113.933594 L 189.339844 113.058594 C 189.257812 113.078125 189.175781 113.089844 189.09375 113.101562 L 188.363281 113.519531 C 183.597656 116.222656 179.628906 120.097656 176.816406 124.753906 C 176.714844 124.914062 176.628906 125.074219 176.53125 125.230469 C 176.152344 125.882812 175.796875 126.550781 175.460938 127.230469 L 166.949219 144.597656 L 167.0625 144.871094 L 173.070312 144.871094 C 173.265625 144.871094 173.4375 145.003906 173.488281 145.195312 L 175.523438 153.242188 C 177.902344 150.546875 180.003906 147.941406 181.59375 145.007812 L 182.417969 157.132812 L 183.546875 157 L 185.433594 158.75 L 185.945312 159.226562 L 189.175781 162.21875 L 211.625 162.21875 L 212.074219 159.226562 L 212.152344 158.75 L 214.226562 145.023438 C 216.453125 140.792969 218.398438 136.515625 219.996094 132.195312 C 220.820312 129.964844 221.074219 127.566406 220.71875 125.230469 C 220.695312 125.074219 220.667969 124.914062 220.636719 124.753906 C 220.535156 124.210938 220.398438 123.671875 220.226562 123.136719 C 220.214844 123.105469 220.207031 123.074219 220.195312 123.042969 C 219.171875 119.890625 217.179688 117.144531 214.460938 115.257812 C 211.085938 112.917969 207.253906 111.199219 203.429688 109.777344 C 201.132812 113.445312 198.246094 116.636719 194.84375 119.402344 C 194.6875 119.535156 194.527344 119.660156 194.371094 119.789062 C 194.332031 119.8125 194.292969 119.84375 194.253906 119.878906 C 193.410156 120.535156 192.1875 120.347656 191.578125 119.457031 Z M 369.449219 258.785156 L 100.753906 258.785156 L 104.441406 257.6875 L 133.523438 249.035156 L 141.832031 246.5625 L 141.839844 246.5625 L 167.519531 238.921875 C 167.703125 238.867188 167.867188 238.757812 167.988281 238.613281 L 170.925781 234.992188 L 177.230469 227.207031 L 177.617188 226.730469 L 179.234375 224.734375 L 202.605469 195.910156 L 208.332031 196.625 L 216.628906 197.667969 L 239.921875 200.589844 C 240.289062 200.636719 240.652344 200.464844 240.847656 200.152344 L 245.695312 192.453125 L 254.011719 179.230469 L 272.128906 150.441406 L 283.082031 154.703125 L 291.417969 157.945312 L 309.722656 165.066406 C 310.054688 165.199219 310.429688 165.132812 310.695312 164.894531 L 320.476562 156.308594 L 328.785156 149.011719 L 357.859375 123.488281 L 374.050781 109.269531 L 376.386719 111.605469 C 376.820312 112.035156 377.5625 111.730469 377.5625 111.117188 L 377.5625 105.148438 C 377.5625 104.765625 377.25 104.460938 376.871094 104.460938 L 370.90625 104.460938 C 370.292969 104.460938 369.988281 105.203125 370.417969 105.636719 L 372.703125 107.921875 L 357.859375 120.957031 L 328.785156 146.480469 L 320.484375 153.777344 L 309.875 163.089844 L 291.417969 155.90625 L 283.089844 152.667969 L 272.082031 148.382812 C 271.664062 148.21875 271.175781 148.378906 270.933594 148.765625 L 254.015625 175.65625 L 254.015625 175.660156 L 245.699219 188.867188 L 245.699219 188.875 L 239.558594 198.625 L 216.636719 195.75 L 208.339844 194.710938 L 202.316406 193.957031 C 201.988281 193.917969 201.664062 194.042969 201.457031 194.296875 L 179.242188 221.707031 L 175.167969 226.730469 L 174.78125 227.207031 L 170.929688 231.957031 L 166.695312 237.183594 L 141.839844 244.480469 L 133.53125 246.917969 L 104.445312 255.453125 L 93.097656 258.785156 L 83.570312 274.839844 L 378.976562 274.839844 Z M 369.449219 258.785156 " fill-opacity="1" fill-rule="nonzero"/></g><path fill="#321a2a" d="M 185.746094 105.765625 L 185.746094 105.789062 C 185.722656 106.082031 185.832031 106.371094 186.035156 106.589844 C 186.234375 106.804688 186.527344 106.929688 186.832031 106.921875 C 187.167969 106.902344 187.535156 106.824219 187.878906 106.714844 C 188.230469 106.609375 188.566406 106.453125 188.90625 106.289062 C 188.941406 106.269531 188.984375 106.285156 189 106.320312 C 189.015625 106.347656 189.007812 106.382812 188.984375 106.402344 C 188.695312 106.660156 188.367188 106.871094 188.019531 107.054688 C 187.664062 107.230469 187.296875 107.371094 186.878906 107.429688 C 186.425781 107.496094 185.945312 107.332031 185.613281 107.011719 C 185.273438 106.695312 185.089844 106.21875 185.117188 105.753906 L 185.117188 105.78125 C 185.050781 104.140625 185.03125 102.5 185.160156 100.851562 C 185.164062 100.804688 185.203125 100.765625 185.253906 100.769531 C 185.292969 100.773438 185.324219 100.804688 185.332031 100.84375 C 185.585938 102.476562 185.6875 104.117188 185.746094 105.757812 Z M 191.824219 101.089844 C 191.394531 101.207031 191.160156 101.734375 191.296875 102.269531 C 191.433594 102.800781 191.894531 103.140625 192.324219 103.027344 C 192.753906 102.910156 192.992188 102.382812 192.855469 101.847656 C 192.71875 101.316406 192.257812 100.976562 191.824219 101.089844 Z M 183.246094 105.246094 C 183.597656 105.144531 183.777344 104.648438 183.648438 104.136719 C 183.515625 103.625 183.125 103.292969 182.773438 103.398438 C 182.417969 103.5 182.238281 103.996094 182.367188 104.507812 C 182.5 105.019531 182.890625 105.347656 183.246094 105.246094 Z M 189.460938 109.523438 C 190.015625 109.308594 190.441406 108.820312 190.519531 108.253906 C 190.019531 108.535156 189.652344 108.78125 189.234375 108.929688 C 188.824219 109.097656 188.378906 109.15625 187.824219 109.296875 C 188.269531 109.648438 188.898438 109.730469 189.460938 109.523438 Z M 191.5625 98.847656 C 191.125 98.917969 190.703125 99.207031 190.597656 99.65625 C 191.046875 99.585938 191.335938 99.515625 191.65625 99.472656 C 191.976562 99.421875 192.28125 99.398438 192.730469 99.316406 C 192.476562 98.929688 192.003906 98.785156 191.5625 98.847656 Z M 181.746094 101.632812 C 181.40625 101.753906 181.097656 102.0625 181.113281 102.46875 C 181.5 102.378906 181.714844 102.3125 181.953125 102.230469 C 182.191406 102.140625 182.417969 102.0625 182.761719 101.871094 C 182.503906 101.566406 182.09375 101.519531 181.746094 101.632812 Z M 178.339844 91.238281 L 177.070312 92.359375 C 174.820312 94.207031 175.148438 96.3125 176.722656 96.800781 C 177.40625 97.015625 178.296875 97.148438 179.464844 97.117188 C 180.140625 97.105469 180.914062 97.035156 181.796875 96.902344 C 185.019531 96.398438 188.671875 94.675781 191.726562 92.320312 C 191.8125 92.265625 191.894531 92.199219 191.976562 92.125 L 194.371094 96.101562 L 194.84375 96.890625 L 196.527344 99.6875 L 197.046875 100.542969 L 198.511719 100.542969 L 198.511719 99.761719 C 198.519531 99.078125 198.757812 98.40625 199.234375 97.921875 C 199.296875 97.851562 199.375 97.789062 199.449219 97.730469 C 199.496094 97.699219 199.539062 97.667969 199.585938 97.636719 C 199.628906 97.605469 199.671875 97.582031 199.71875 97.554688 C 199.8125 97.503906 199.902344 97.464844 199.988281 97.429688 C 199.996094 97.429688 200.003906 97.421875 200.003906 97.421875 C 200.078125 97.394531 200.148438 97.378906 200.226562 97.363281 C 200.238281 97.363281 200.242188 97.359375 200.257812 97.359375 C 200.308594 97.34375 200.359375 97.339844 200.402344 97.339844 C 200.445312 97.332031 200.496094 97.332031 200.542969 97.332031 C 200.648438 97.332031 200.75 97.34375 200.851562 97.363281 C 200.878906 97.371094 200.898438 97.378906 200.921875 97.382812 C 200.960938 97.390625 201.003906 97.402344 201.042969 97.421875 C 201.152344 97.453125 201.253906 97.503906 201.355469 97.5625 C 201.40625 97.59375 201.457031 97.625 201.507812 97.664062 C 201.609375 97.738281 201.695312 97.816406 201.785156 97.910156 C 202.351562 98.511719 202.671875 99.554688 202.457031 100.835938 C 203.503906 98.675781 203.398438 94.726562 202.546875 91.238281 C 202.507812 91.078125 202.46875 90.917969 202.425781 90.761719 C 202.414062 90.722656 202.40625 90.679688 202.394531 90.640625 C 202.097656 89.550781 201.726562 88.515625 201.304688 87.613281 L 201.296875 87.609375 C 200.867188 86.6875 200.363281 85.910156 199.820312 85.351562 C 198.410156 83.902344 196.769531 82.738281 194.84375 82.722656 C 194.6875 82.722656 194.527344 82.730469 194.371094 82.75 C 194.292969 82.753906 194.222656 82.761719 194.148438 82.773438 C 194.128906 82.773438 194.105469 82.78125 194.085938 82.78125 C 193.246094 82.90625 192.378906 83.074219 191.484375 83.261719 C 185.941406 84.457031 179.589844 86.835938 176.445312 89.003906 C 176.03125 89.289062 176.113281 89.921875 176.589844 90.082031 C 177.457031 90.375 178.382812 90.429688 179.34375 90.347656 L 178.878906 90.761719 Z M 204.574219 156.816406 C 207.074219 155.625 209.246094 153.761719 210.828125 151.5 C 211.640625 150.371094 212.195312 149.121094 212.839844 147.925781 C 213.453125 146.710938 214.066406 145.496094 214.632812 144.257812 C 213.890625 145.402344 213.195312 146.570312 212.5 147.734375 C 211.804688 148.902344 211.191406 150.121094 210.394531 151.191406 C 208.835938 153.363281 206.722656 155.128906 204.304688 156.25 C 201.851562 157.398438 199.359375 158.460938 196.816406 159.398438 C 194.324219 160.316406 191.800781 161.164062 189.246094 161.898438 L 183.898438 157.003906 L 199.230469 143.566406 C 200.519531 142.378906 201.554688 140.914062 202.246094 139.304688 L 204.292969 134.566406 L 206.324219 129.824219 L 207.335938 127.449219 C 207.671875 126.660156 208.003906 125.863281 208.25 125.03125 C 208.25 125.023438 208.246094 125.015625 208.238281 125.007812 C 208.230469 125.003906 208.214844 125.007812 208.210938 125.015625 C 207.765625 125.761719 207.410156 126.542969 207.054688 127.328125 L 206.003906 129.683594 L 203.898438 134.394531 C 202.402344 137.472656 201.507812 140.964844 198.890625 143.199219 L 191.140625 149.996094 L 183.394531 156.824219 L 183.378906 156.839844 C 183.292969 156.933594 183.296875 157.082031 183.390625 157.167969 L 183.394531 157.171875 L 188.960938 162.410156 C 188.636719 162.695312 187.9375 163.246094 186.960938 163.765625 L 193.09375 163.691406 C 193.273438 163.691406 193.328125 163.9375 193.164062 164.015625 L 180.097656 169.953125 C 180.035156 169.976562 179.96875 170.003906 179.902344 170.027344 C 179.894531 170.027344 179.894531 170.027344 179.894531 170.027344 C 179.832031 170.046875 179.769531 170.066406 179.707031 170.070312 C 179.394531 168.410156 179.035156 166.757812 178.667969 165.109375 C 178.582031 164.710938 178.484375 164.316406 178.390625 163.917969 C 178.398438 163.910156 178.410156 163.902344 178.417969 163.894531 C 178.652344 163.648438 178.878906 163.335938 179.089844 163.105469 C 179.304688 162.867188 179.558594 162.65625 179.832031 162.480469 C 180.109375 162.308594 180.425781 162.113281 180.707031 161.890625 C 180.71875 161.882812 180.726562 161.871094 180.71875 161.859375 C 180.71875 161.839844 180.699219 161.824219 180.679688 161.824219 C 180.320312 161.902344 179.988281 161.984375 179.640625 162.125 C 179.296875 162.277344 178.988281 162.511719 178.734375 162.789062 C 178.554688 163.007812 178.414062 163.21875 178.28125 163.433594 C 178.097656 162.652344 177.914062 161.875 177.726562 161.09375 C 178.234375 160.683594 178.800781 160.328125 179.425781 160.074219 C 179.4375 160.070312 179.445312 160.054688 179.445312 160.050781 C 179.4375 160.03125 179.425781 160.023438 179.414062 160.023438 C 178.785156 160.144531 178.1875 160.394531 177.640625 160.738281 C 177.597656 160.546875 177.550781 160.351562 177.503906 160.160156 C 177.078125 158.519531 176.675781 156.871094 176.234375 155.238281 C 175.789062 153.601562 175.339844 151.964844 174.839844 150.34375 C 175.148438 152.011719 175.511719 153.667969 175.878906 155.324219 C 176.246094 156.980469 176.65625 158.625 177.042969 160.273438 C 177.46875 161.914062 177.871094 163.5625 178.3125 165.199219 C 178.753906 166.828125 179.203125 168.457031 179.703125 170.074219 C 179.628906 170.085938 179.546875 170.089844 179.464844 170.089844 L 152.648438 170.089844 L 148.742188 171.847656 C 145.949219 173.097656 143.875 175.535156 143.078125 178.488281 L 139.238281 192.738281 L 139.113281 193.214844 L 132.035156 219.476562 L 134.058594 219.671875 L 141.882812 220.433594 L 141.960938 220.4375 L 141.96875 220.4375 C 142.226562 219.59375 142.492188 218.746094 142.761719 217.894531 C 143.027344 217.046875 143.292969 216.195312 143.558594 215.351562 C 144.09375 213.65625 144.636719 211.957031 145.175781 210.269531 L 147.226562 203.945312 L 149.472656 197 C 149.890625 195.738281 150.308594 194.476562 150.726562 193.214844 C 150.777344 193.054688 150.828125 192.894531 150.886719 192.738281 C 151.875 189.742188 152.863281 186.753906 153.886719 183.769531 L 155.015625 180.46875 C 155.359375 179.351562 155.890625 178.25 156.601562 177.304688 C 156.660156 177.226562 156.714844 177.152344 156.777344 177.074219 C 156.855469 176.980469 156.929688 176.886719 157.015625 176.789062 C 157.089844 176.695312 157.171875 176.605469 157.253906 176.515625 C 157.273438 176.5 157.300781 176.472656 157.324219 176.453125 C 157.445312 176.3125 157.570312 176.1875 157.707031 176.066406 C 157.855469 175.921875 158.015625 175.78125 158.179688 175.648438 C 158.320312 175.527344 158.472656 175.414062 158.617188 175.304688 C 158.648438 175.28125 158.6875 175.25 158.726562 175.230469 C 158.878906 175.117188 159.039062 175.007812 159.195312 174.90625 C 160.160156 174.246094 161.128906 173.613281 162.125 173.007812 C 161.230469 173.757812 160.320312 174.476562 159.390625 175.179688 C 159.203125 175.316406 159.011719 175.457031 158.828125 175.609375 C 158.820312 175.617188 158.808594 175.621094 158.796875 175.636719 C 158.613281 175.789062 158.429688 175.945312 158.25 176.109375 C 158.074219 176.277344 157.894531 176.449219 157.730469 176.632812 C 157.566406 176.808594 157.40625 176.992188 157.253906 177.183594 C 157.152344 177.308594 157.058594 177.4375 156.964844 177.5625 C 156.898438 177.652344 156.835938 177.742188 156.777344 177.835938 C 156.207031 178.691406 155.789062 179.632812 155.503906 180.632812 L 154.4375 183.953125 C 153.492188 186.890625 152.523438 189.8125 151.546875 192.738281 C 151.496094 192.894531 151.445312 193.054688 151.386719 193.214844 C 150.949219 194.539062 150.503906 195.871094 150.066406 197.195312 L 147.769531 203.945312 L 145.578125 210.402344 C 144.839844 212.554688 144.09375 214.703125 143.34375 216.855469 C 142.863281 218.242188 142.375 219.625 141.882812 221.007812 L 141.882812 221.015625 C 141.617188 221.785156 141.34375 222.550781 141.074219 223.320312 C 141.058594 223.355469 141.046875 223.394531 141.035156 223.433594 C 141.027344 223.453125 141.023438 223.464844 141.015625 223.484375 C 141.003906 223.515625 140.996094 223.546875 140.984375 223.578125 C 140.890625 223.863281 140.800781 224.128906 140.71875 224.378906 C 140.6875 224.46875 140.660156 224.550781 140.636719 224.632812 C 140.5 225.019531 140.394531 225.355469 140.304688 225.628906 C 140.273438 225.714844 140.25 225.800781 140.222656 225.882812 C 140.203125 225.945312 140.183594 226.007812 140.164062 226.066406 C 140.140625 226.136719 140.121094 226.199219 140.101562 226.253906 C 140.097656 226.28125 140.082031 226.304688 140.078125 226.332031 C 140.050781 226.40625 140.03125 226.457031 140.019531 226.496094 C 140.015625 226.5 140.015625 226.503906 140.011719 226.507812 C 140.035156 226.441406 140.085938 226.292969 140.164062 226.066406 C 139.066406 226.851562 137.882812 227.503906 136.632812 227.992188 C 136.269531 228.152344 135.882812 228.253906 135.507812 228.394531 C 135.136719 228.515625 134.742188 228.582031 134.355469 228.683594 C 133.96875 228.761719 133.574219 228.820312 133.179688 228.886719 C 132.789062 228.914062 132.386719 228.957031 131.988281 228.964844 C 131.195312 228.964844 130.390625 228.925781 129.605469 228.742188 C 129.210938 228.679688 128.824219 228.550781 128.441406 228.429688 C 128.042969 228.328125 127.71875 228.089844 127.300781 228.011719 C 127.453125 228.160156 127.636719 228.242188 127.820312 228.34375 C 128 228.4375 128.183594 228.53125 128.375 228.601562 C 128.753906 228.761719 129.140625 228.921875 129.539062 229.015625 C 130.328125 229.261719 131.15625 229.363281 131.984375 229.425781 C 133.652344 229.523438 135.320312 229.1875 136.867188 228.582031 C 138.074219 228.09375 139.214844 227.453125 140.234375 226.667969 C 140.332031 226.6875 140.449219 226.707031 140.601562 226.730469 C 140.75 226.757812 140.921875 226.777344 141.109375 226.800781 C 141.332031 226.828125 141.59375 226.851562 141.871094 226.878906 C 142.253906 226.914062 142.683594 226.945312 143.160156 226.980469 C 143.382812 226.992188 143.617188 227.011719 143.859375 227.023438 C 144.097656 227.035156 144.347656 227.046875 144.601562 227.0625 C 145.105469 227.09375 145.640625 227.117188 146.191406 227.144531 C 146.414062 227.15625 146.640625 227.167969 146.871094 227.175781 C 147.097656 227.1875 147.332031 227.195312 147.570312 227.207031 C 150.035156 227.308594 152.710938 227.390625 154.921875 227.453125 C 154.128906 228.863281 152.910156 230 151.570312 230.859375 C 151.144531 231.140625 150.695312 231.394531 150.238281 231.597656 C 149.761719 231.773438 149.25 232.054688 148.835938 232.402344 C 148.039062 233.125 147.308594 233.828125 146.539062 234.539062 C 146.152344 234.894531 145.796875 235.261719 145.410156 235.585938 C 145.023438 235.902344 144.613281 236.195312 144.179688 236.457031 C 143.316406 236.96875 142.378906 237.363281 141.390625 237.578125 C 140.40625 237.800781 139.371094 237.859375 138.359375 237.773438 C 137.851562 237.730469 137.34375 237.636719 136.855469 237.496094 C 136.351562 237.355469 135.898438 237.148438 135.40625 236.949219 C 135.78125 237.335938 136.289062 237.535156 136.777344 237.71875 C 137.28125 237.894531 137.792969 238.023438 138.3125 238.097656 C 139.367188 238.25 140.433594 238.25 141.492188 238.078125 C 142.539062 237.890625 143.566406 237.527344 144.5 236.988281 C 145.425781 236.460938 146.261719 235.726562 146.972656 234.992188 C 147.707031 234.265625 148.457031 233.507812 149.179688 232.816406 C 149.558594 232.484375 149.964844 232.261719 150.449219 232.039062 C 150.929688 231.792969 151.375 231.515625 151.804688 231.203125 C 153.164062 230.246094 154.375 228.96875 155.054688 227.460938 C 155.5625 227.472656 156.042969 227.488281 156.488281 227.5 C 156.589844 227.5 156.683594 227.503906 156.777344 227.503906 C 156.945312 227.511719 157.101562 227.519531 157.253906 227.519531 C 158.757812 227.554688 159.722656 227.574219 159.722656 227.574219 L 159.886719 227.207031 L 160.101562 226.730469 L 170.386719 203.945312 L 175.226562 193.214844 L 175.441406 192.738281 L 176.417969 190.566406 C 176.875 189.558594 177.800781 188.84375 178.890625 188.640625 C 179.019531 188.613281 179.152344 188.589844 179.277344 188.5625 C 184.507812 187.574219 189.5625 186.382812 194.371094 184.933594 C 194.527344 184.890625 194.6875 184.839844 194.84375 184.789062 C 199.445312 183.378906 203.816406 181.738281 207.914062 179.796875 C 208.066406 179.726562 208.210938 179.652344 208.351562 179.5625 C 209.542969 178.878906 210.464844 177.792969 210.945312 176.484375 C 212.59375 172.039062 212.992188 167.320312 211.625 162.21875 L 190.207031 162.21875 C 192.507812 161.566406 194.796875 160.847656 197.042969 160.011719 C 199.597656 159.058594 202.121094 158.015625 204.574219 156.816406 Z M 181.140625 133.160156 L 180.820312 129.535156 C 180.691406 128.328125 180.585938 127.121094 180.4375 125.914062 C 180.441406 127.128906 180.488281 128.339844 180.511719 129.554688 L 180.652344 133.191406 C 180.753906 135.613281 180.910156 138.035156 181.039062 140.457031 C 181.214844 142.875 181.363281 145.296875 181.570312 147.714844 C 181.773438 150.128906 181.988281 152.546875 182.269531 154.960938 C 182.25 152.53125 182.15625 150.105469 182.054688 147.683594 C 181.953125 145.257812 181.796875 142.839844 181.667969 140.417969 C 181.492188 138 181.34375 135.578125 181.140625 133.160156 Z M 194.722656 111.773438 C 195.171875 111.523438 195.59375 111.222656 195.976562 110.878906 C 196.351562 110.519531 196.679688 110.171875 197.011719 109.792969 C 197.671875 109.050781 198.273438 108.25 198.777344 107.398438 C 198.078125 108.101562 197.367188 108.773438 196.65625 109.449219 C 195.933594 110.121094 195.253906 110.785156 194.417969 111.21875 C 194.007812 111.457031 193.582031 111.621094 193.113281 111.785156 C 192.660156 111.957031 192.195312 112.105469 191.730469 112.261719 C 190.800781 112.5625 189.863281 112.847656 188.914062 113.136719 C 189.90625 113.089844 190.894531 112.960938 191.863281 112.734375 C 192.828125 112.503906 193.796875 112.269531 194.722656 111.773438 Z M 194.722656 111.773438 " fill-opacity="1" fill-rule="nonzero"/></svg>