<svg xmlns="http://www.w3.org/2000/svg" xmlns:xlink="http://www.w3.org/1999/xlink" width="590" zoomAndPan="magnify" viewBox="0 0 442.5 295.499996" height="394" preserveAspectRatio="xMidYMid meet" version="1.0"><defs><clipPath id="22f98cd120"><path d="M 86.597656 17.96875 L 366.625 17.96875 L 366.625 277.03125 L 86.597656 277.03125 Z M 86.597656 17.96875 " clip-rule="nonzero"/></clipPath><clipPath id="b02ec8663f"><path d="M 292 271 L 321 271 L 321 277.03125 L 292 277.03125 Z M 292 271 " clip-rule="nonzero"/></clipPath><clipPath id="ef7fdd387b"><path d="M 86.597656 17.96875 L 338 17.96875 L 338 268 L 86.597656 268 Z M 86.597656 17.96875 " clip-rule="nonzero"/></clipPath><clipPath id="f7a28066c2"><path d="M 88 17.96875 L 353 17.96875 L 353 268 L 88 268 Z M 88 17.96875 " clip-rule="nonzero"/></clipPath><clipPath id="75dc181c00"><path d="M 139 77 L 366.625 77 L 366.625 268 L 139 268 Z M 139 77 " clip-rule="nonzero"/></clipPath><clipPath id="7d099b8173"><path d="M 336 263 L 357 263 L 357 277.03125 L 336 277.03125 Z M 336 263 " clip-rule="nonzero"/></clipPath><clipPath id="ddb122afd3"><path d="M 292 271 L 321 271 L 321 277.03125 L 292 277.03125 Z M 292 271 " clip-rule="nonzero"/></clipPath></defs><path fill="#f5f5f5" d="M 88.058594 82.304688 L 156.292969 82.304688 L 156.292969 43.921875 L 88.058594 43.921875 Z M 88.058594 82.304688 " fill-opacity="1" fill-rule="nonzero"/><path fill="#f5f5f5" d="M 206.476562 141.957031 L 281.820312 141.957031 L 281.820312 175.601562 L 206.476562 175.601562 Z M 206.476562 141.957031 " fill-opacity="1" fill-rule="nonzero"/><g clip-path="url(#22f98cd120)"><path fill="#f5f5f5" d="M 366.234375 182.253906 C 366.234375 182.246094 366.234375 182.242188 366.234375 182.234375 C 366.21875 181.820312 366.117188 180.71875 365.980469 179.34375 C 365.617188 175.722656 365.003906 170.195312 365.003906 170.195312 L 362.070312 143.941406 L 361.226562 129.710938 L 353.84375 130.011719 L 362.414062 129.664062 C 362.261719 127.183594 362.082031 124.703125 361.894531 122.222656 C 361.640625 119.300781 361.398438 116.375 361.03125 113.457031 C 360.6875 110.707031 358.933594 108.484375 356.589844 107.40625 C 356.59375 107.382812 356.597656 107.371094 356.597656 107.371094 C 351.011719 104.960938 345.558594 103.386719 340.152344 102.65625 L 338.203125 90.679688 C 338.890625 90.152344 339.363281 89.429688 339.507812 88.578125 C 339.640625 87.792969 339.570312 87.039062 339.351562 86.386719 C 340.734375 82.691406 340.089844 78.527344 337.679688 75.425781 L 337.679688 17.96875 L 169.808594 17.96875 L 169.808594 99.539062 L 151.777344 119.980469 L 145.910156 122.042969 L 143.09375 122.980469 L 141.914062 123.328125 C 141.828125 123.042969 141.738281 122.769531 141.644531 122.503906 C 141.996094 121.429688 142.378906 120.261719 141.785156 119.023438 C 143.648438 118.628906 149.828125 116.335938 145.507812 103.640625 C 147.5625 99.078125 143.394531 96.5625 141.234375 96.136719 C 129.148438 93.769531 124.640625 104.101562 124.789062 109.898438 C 124.898438 114.203125 116.898438 112.914062 116.90625 119.816406 C 116.910156 122.546875 116.542969 124.007812 116.007812 124.855469 C 115.816406 125.066406 115.628906 125.28125 115.449219 125.507812 C 114.746094 126.101562 113.902344 126.199219 113.195312 126.734375 C 111.109375 128.304688 110.582031 130.480469 111.199219 132.679688 C 102.980469 149.351562 99.4375 172.953125 99.4375 172.953125 C 100.25 173.347656 101.046875 173.695312 101.832031 174.019531 C 101.160156 178.480469 100.472656 189.410156 108.550781 194.53125 L 86.875 194.53125 L 86.875 267.703125 L 154.390625 267.703125 L 154.390625 249.851562 L 154.492188 252.328125 L 156.710938 252.605469 L 156.539062 265.367188 L 184.730469 270.523438 C 184.730469 270.523438 184.457031 266.800781 179.011719 264.578125 C 176.746094 263.65625 173.175781 262.710938 170.648438 258.1875 C 170.054688 257.121094 169.464844 255.644531 168.933594 254.132812 L 172.296875 254.550781 L 172.253906 232.703125 L 181.515625 247.558594 L 183.96875 245.734375 L 189.476562 257.023438 L 212.765625 240.324219 C 212.765625 240.324219 209.898438 237.933594 204.515625 240.308594 C 202.277344 241.296875 198.730469 243.960938 194.773438 241.195312 C 194.078125 240.710938 193.425781 239.980469 192.828125 239.140625 L 195.1875 237.386719 L 172.398438 190.382812 L 172.765625 222.859375 L 172.390625 189.835938 C 172.390625 189.691406 172.300781 189.585938 172.171875 189.535156 L 172.136719 170.785156 C 172.136719 170.785156 173.726562 160.929688 160.558594 163.285156 C 156.261719 164.050781 149.125 165.171875 141.285156 166.355469 L 141.867188 163.339844 C 141.894531 163.335938 141.921875 163.335938 141.945312 163.335938 C 142.128906 163.328125 142.277344 163.175781 142.269531 162.988281 C 142.269531 162.980469 142.265625 162.972656 142.265625 162.960938 L 165.113281 160.382812 L 165.21875 159.898438 L 171.695312 162.976562 C 172.371094 163.296875 173.230469 162.890625 173.617188 162.074219 L 174.539062 160.136719 C 175.96875 160.046875 177.207031 159.878906 177.339844 159.773438 C 178.253906 159.269531 178.335938 158.363281 178.335938 158.363281 C 180.324219 157.144531 179.554688 156.011719 179.550781 155.867188 C 181.539062 154.496094 180.65625 152.972656 180.65625 152.972656 C 180.667969 152.964844 180.683594 152.953125 180.703125 152.945312 C 181.964844 152.175781 181.664062 150.242188 180.238281 149.84375 C 180.234375 149.839844 179.894531 149.8125 179.460938 149.773438 L 185.078125 137.945312 C 185.464844 137.125 185.234375 136.203125 184.5625 135.882812 L 170.003906 128.96875 C 169.332031 128.648438 168.46875 129.054688 168.082031 129.871094 L 158.511719 150.023438 L 144.019531 149.652344 C 144.023438 149.46875 143.882812 149.316406 143.699219 149.308594 L 143.695312 149.308594 C 143.734375 148.21875 143.835938 144.527344 143.742188 140.070312 L 147.234375 138.492188 L 148.699219 137.828125 L 157.503906 133.40625 C 158.425781 132.945312 159.234375 132.285156 159.878906 131.480469 L 169.808594 119.769531 L 169.808594 126.4375 L 275.925781 126.4375 C 276.167969 126.753906 276.527344 126.976562 276.949219 127.027344 L 277.046875 127.019531 C 277.046875 127.03125 277.042969 127.035156 277.042969 127.046875 C 276.429688 127.238281 276.019531 127.847656 276.101562 128.511719 C 276.1875 129.191406 276.761719 129.707031 277.449219 129.710938 C 277.640625 129.714844 277.996094 129.679688 278.410156 129.636719 C 280.921875 130.324219 282.757812 130.660156 284.230469 130.699219 C 287.085938 136.96875 293.851562 151.789062 293.851562 151.789062 C 295.25 154.933594 299.265625 156.105469 301.972656 153.984375 C 302.089844 153.890625 302.203125 153.792969 302.316406 153.691406 C 302.808594 153.234375 303.199219 152.710938 303.488281 152.144531 L 312.304688 133.328125 C 312.347656 133.410156 312.429688 133.46875 312.519531 133.492188 C 312.910156 138.121094 313.179688 142.152344 313.179688 144.304688 C 313.179688 150.054688 312.308594 160.179688 312.308594 164.386719 C 312.308594 165.109375 312.652344 165.757812 313.191406 166.175781 L 313.023438 170.796875 C 313.042969 170.796875 313.058594 170.789062 313.078125 170.789062 C 312.890625 170.789062 312.742188 170.9375 312.742188 171.125 C 312.742188 171.308594 312.890625 171.460938 313.078125 171.460938 C 313.332031 171.460938 313.574219 171.4375 313.808594 171.402344 C 313.574219 171.4375 313.332031 171.460938 313.078125 171.460938 C 313.050781 171.460938 313.023438 171.449219 313 171.445312 L 311.507812 212.066406 L 309.847656 251.007812 C 309.695312 251.101562 309.582031 251.261719 309.574219 251.453125 L 309.316406 257.292969 C 309.308594 257.492188 309.410156 257.660156 309.558594 257.765625 L 309.554688 257.875 L 309.855469 257.875 C 309.632812 260.65625 309.226562 262.535156 308.605469 264.101562 C 308.605469 264.101562 308.605469 264.097656 308.605469 264.097656 C 306.621094 266.578125 301.425781 269.738281 297.394531 271.695312 L 299.144531 274.425781 L 320.144531 274.425781 C 320.195312 272.265625 320.070312 269.113281 319.175781 266.355469 C 319.160156 263.753906 319.523438 260.269531 319.820312 257.875 L 320.96875 257.875 C 320.976562 257.855469 320.980469 257.832031 320.988281 257.8125 C 321.121094 257.75 321.230469 257.636719 321.277344 257.488281 C 321.769531 255.898438 322.359375 253.902344 322.96875 251.621094 C 323.015625 251.453125 322.972656 251.285156 322.882812 251.15625 C 325.515625 241.25 328.625 226.195312 326.40625 214.6875 L 332.5625 172.980469 L 328.898438 172.75 L 334.085938 173.078125 C 334.09375 173.078125 334.097656 173.078125 334.105469 173.078125 C 334.109375 173.078125 334.113281 173.074219 334.117188 173.074219 L 336.496094 251.019531 C 336.339844 251.121094 336.234375 251.292969 336.238281 251.496094 L 336.425781 257.339844 C 336.429688 257.535156 336.546875 257.699219 336.703125 257.792969 L 336.707031 257.875 L 337.34375 257.875 C 337.339844 258.054688 337.332031 258.222656 337.332031 258.410156 C 337.332031 261.664062 337.140625 264.152344 336.984375 267.617188 C 336.972656 267.875 336.960938 268.140625 336.949219 268.414062 C 336.945312 268.515625 336.941406 268.621094 336.9375 268.722656 C 336.929688 268.875 336.925781 269.03125 336.917969 269.1875 C 336.914062 269.355469 336.90625 269.527344 336.898438 269.699219 C 336.894531 269.800781 336.894531 269.898438 336.890625 270 C 336.882812 270.207031 336.875 270.414062 336.871094 270.628906 C 336.867188 270.6875 336.867188 270.75 336.863281 270.8125 C 336.820312 272.320312 336.789062 274.019531 336.777344 276 C 336.777344 276.5625 337.230469 277.019531 337.792969 277.019531 L 355.578125 277.019531 C 356.195312 277.019531 356.679688 276.46875 356.582031 275.855469 C 356.203125 273.554688 354.722656 271.933594 353.035156 270.394531 C 353.035156 270.394531 353.039062 270.394531 353.039062 270.394531 C 352.976562 270.339844 352.914062 270.285156 352.855469 270.230469 C 352.347656 269.773438 351.824219 269.316406 351.308594 268.851562 C 351.1875 268.746094 351.066406 268.636719 350.949219 268.527344 C 350.820312 268.410156 350.695312 268.292969 350.570312 268.171875 C 350.441406 268.050781 350.316406 267.929688 350.195312 267.804688 C 350.078125 267.691406 349.96875 267.582031 349.855469 267.464844 C 349.730469 267.332031 349.605469 267.195312 349.484375 267.0625 C 349.382812 266.949219 349.28125 266.835938 349.1875 266.71875 C 349.0625 266.574219 348.945312 266.417969 348.828125 266.265625 C 348.742188 266.152344 348.65625 266.042969 348.574219 265.929688 C 348.449219 265.753906 348.335938 265.566406 348.222656 265.382812 C 348.164062 265.28125 348.09375 265.183594 348.035156 265.078125 C 347.875 264.789062 347.726562 264.488281 347.597656 264.175781 C 347.59375 264.171875 347.59375 264.167969 347.589844 264.164062 C 347.535156 264.035156 347.492188 263.902344 347.445312 263.773438 C 346.726562 261.820312 346.609375 259.851562 346.679688 257.875 L 348.097656 257.875 C 348.101562 257.851562 348.105469 257.828125 348.109375 257.804688 C 348.257812 257.730469 348.371094 257.59375 348.402344 257.417969 C 348.6875 255.78125 349.039062 253.761719 349.410156 251.574219 C 349.445312 251.375 349.363281 251.195312 349.226562 251.070312 C 350.113281 245.625 351.128906 239.214844 351.710938 234.835938 C 352.917969 225.792969 351.132812 212.507812 351.132812 212.507812 L 351.9375 171.460938 C 351.683594 171.460938 351.449219 171.4375 351.21875 171.402344 C 351.449219 171.4375 351.691406 171.460938 351.945312 171.460938 C 352.128906 171.460938 352.28125 171.3125 352.28125 171.125 C 352.28125 170.941406 352.128906 170.789062 351.945312 170.789062 C 351.945312 170.789062 351.949219 170.789062 351.949219 170.789062 L 352.039062 166.289062 C 352.65625 165.878906 353.058594 165.1875 353.058594 164.410156 C 353.058594 162.503906 352.878906 159.375 352.683594 155.984375 C 354.320312 161.832031 356.230469 168.640625 356.933594 171.148438 L 356.925781 171.152344 C 356.75 171.207031 356.648438 171.394531 356.703125 171.570312 C 356.726562 171.648438 356.777344 171.707031 356.839844 171.75 C 356.800781 171.8125 356.75 171.882812 356.714844 171.945312 C 355.628906 173.949219 355.414062 175.304688 355.722656 178.164062 C 355.597656 178.226562 355.527344 178.359375 355.542969 178.496094 C 355.507812 178.488281 355.472656 178.472656 355.4375 178.46875 C 354.683594 178.375 354.03125 178.980469 354.0625 179.738281 L 354.222656 183.691406 C 354.234375 184.058594 354.414062 184.398438 354.707031 184.621094 L 357.359375 186.625 C 357.554688 187.015625 357.800781 187.28125 358.019531 187.453125 C 358.210938 187.601562 358.445312 187.679688 358.679688 187.679688 C 358.714844 187.679688 358.742188 187.667969 358.777344 187.667969 C 359.199219 187.910156 359.726562 187.898438 360.125 187.597656 L 365.75 183.355469 C 366.070312 183.113281 366.253906 182.726562 366.238281 182.324219 Z M 131.210938 172.078125 C 131.210938 172.078125 131.199219 172.089844 131.175781 172.105469 C 131.199219 172.089844 131.210938 172.078125 131.210938 172.078125 Z M 141.144531 118.085938 C 141.117188 118.054688 141.09375 118.027344 141.066406 118 C 141.09375 118.027344 141.117188 118.054688 141.144531 118.085938 Z M 141.582031 118.65625 C 141.59375 118.675781 141.609375 118.695312 141.621094 118.714844 C 141.605469 118.695312 141.59375 118.675781 141.582031 118.65625 Z M 141.34375 118.324219 C 141.367188 118.351562 141.386719 118.378906 141.410156 118.40625 C 141.386719 118.378906 141.367188 118.351562 141.34375 118.324219 Z M 144.554688 105.277344 C 144.570312 105.25 144.589844 105.226562 144.605469 105.199219 C 144.589844 105.226562 144.574219 105.25 144.554688 105.277344 Z M 145.25 104.167969 C 145.25 104.164062 145.25 104.164062 145.25 104.164062 C 145.25 104.164062 145.25 104.164062 145.25 104.167969 Z M 144.929688 104.714844 C 144.9375 104.703125 144.945312 104.691406 144.953125 104.675781 C 144.945312 104.691406 144.9375 104.703125 144.929688 104.714844 Z M 137.503906 194.535156 L 137.5 194.535156 C 137.996094 194.378906 138.503906 194.21875 139.015625 194.050781 C 138.503906 194.21875 137.996094 194.378906 137.503906 194.535156 Z M 139.253906 193.972656 C 140.277344 193.636719 141.324219 193.269531 142.371094 192.875 C 141.324219 193.269531 140.277344 193.636719 139.253906 193.972656 Z M 142.683594 192.757812 C 143.710938 192.363281 144.734375 191.945312 145.730469 191.5 C 144.734375 191.945312 143.714844 192.363281 142.683594 192.757812 Z M 146.074219 191.34375 C 147.050781 190.898438 147.992188 190.429688 148.878906 189.9375 C 147.992188 190.429688 147.050781 190.898438 146.074219 191.34375 Z M 149.207031 189.75 C 149.640625 189.5 150.070312 189.246094 150.472656 188.984375 C 150.070312 189.246094 149.640625 189.5 149.207031 189.75 Z M 136.246094 194.210938 C 136.566406 194.117188 136.894531 194.015625 137.226562 193.914062 C 136.894531 194.015625 136.566406 194.117188 136.246094 194.210938 Z M 137.488281 193.835938 C 137.855469 193.71875 138.230469 193.601562 138.605469 193.480469 C 138.230469 193.601562 137.859375 193.71875 137.488281 193.835938 Z M 135.140625 194.535156 L 135.136719 194.535156 C 135.457031 194.441406 135.777344 194.351562 136.109375 194.253906 C 135.78125 194.351562 135.457031 194.445312 135.140625 194.535156 Z M 149.125 189.023438 C 149.460938 188.824219 149.792969 188.625 150.109375 188.421875 C 149.792969 188.625 149.460938 188.824219 149.125 189.023438 Z M 138.828125 193.40625 C 139.15625 193.300781 139.484375 193.191406 139.8125 193.078125 C 139.484375 193.191406 139.15625 193.300781 138.828125 193.40625 Z M 140.085938 192.984375 C 140.46875 192.855469 140.851562 192.71875 141.234375 192.582031 C 140.851562 192.71875 140.46875 192.855469 140.085938 192.984375 Z M 141.5 192.484375 C 141.832031 192.363281 142.164062 192.238281 142.496094 192.113281 C 142.164062 192.238281 141.832031 192.363281 141.5 192.484375 Z M 142.746094 192.015625 C 143.128906 191.867188 143.511719 191.714844 143.894531 191.558594 C 143.511719 191.714844 143.128906 191.867188 142.746094 192.015625 Z M 144.171875 191.441406 C 144.507812 191.300781 144.839844 191.160156 145.171875 191.015625 C 144.839844 191.160156 144.507812 191.300781 144.171875 191.441406 Z M 145.371094 190.929688 C 145.742188 190.761719 146.113281 190.589844 146.476562 190.417969 C 146.113281 190.589844 145.742188 190.761719 145.371094 190.929688 Z M 146.746094 190.289062 C 147.085938 190.121094 147.417969 189.957031 147.746094 189.785156 C 147.417969 189.957031 147.085938 190.125 146.746094 190.289062 Z M 147.855469 189.730469 C 148.207031 189.542969 148.550781 189.355469 148.882812 189.164062 C 148.550781 189.355469 148.207031 189.542969 147.855469 189.730469 Z M 172.296875 160.597656 L 171.367188 160.15625 L 172.296875 160.597656 L 172.488281 160.203125 Z M 169.449219 131.246094 L 183.148438 137.75 L 169.449219 131.246094 L 164.296875 142.097656 Z M 337.757812 267.773438 C 337.816406 267.773438 337.871094 267.777344 337.925781 267.773438 C 337.867188 267.777344 337.816406 267.773438 337.757812 267.773438 Z M 339.644531 267.015625 C 339.773438 266.902344 339.90625 266.78125 340.039062 266.640625 C 340.207031 266.457031 340.375 266.289062 340.546875 266.121094 C 340.375 266.289062 340.207031 266.457031 340.039062 266.640625 C 339.90625 266.78125 339.773438 266.902344 339.644531 267.015625 Z M 338.082031 267.761719 C 338.144531 267.753906 338.210938 267.746094 338.277344 267.730469 C 338.210938 267.746094 338.144531 267.753906 338.082031 267.761719 Z M 338.417969 267.703125 C 338.53125 267.671875 338.640625 267.636719 338.757812 267.585938 C 338.640625 267.636719 338.53125 267.671875 338.417969 267.703125 Z M 338.839844 267.542969 C 338.933594 267.5 339.03125 267.453125 339.128906 267.394531 C 339.03125 267.453125 338.933594 267.5 338.839844 267.542969 Z M 339.253906 267.308594 C 339.34375 267.25 339.433594 267.183594 339.523438 267.113281 C 339.433594 267.183594 339.34375 267.25 339.253906 267.308594 Z M 345.5625 263.511719 C 345.246094 263.527344 344.929688 263.574219 344.617188 263.644531 C 344.4375 263.6875 344.257812 263.742188 344.078125 263.800781 C 344.882812 263.53125 345.695312 263.4375 346.503906 263.550781 C 346.191406 263.507812 345.878906 263.496094 345.5625 263.511719 Z M 340.703125 265.972656 C 340.824219 265.859375 340.941406 265.75 341.0625 265.644531 C 340.941406 265.75 340.820312 265.859375 340.703125 265.972656 Z M 341.242188 265.488281 C 341.363281 265.386719 341.484375 265.285156 341.605469 265.191406 C 341.484375 265.285156 341.363281 265.382812 341.242188 265.488281 Z M 341.769531 265.0625 C 341.941406 264.933594 342.117188 264.808594 342.289062 264.691406 C 342.117188 264.808594 341.941406 264.933594 341.769531 265.0625 Z M 342.292969 264.691406 C 342.46875 264.574219 342.644531 264.46875 342.820312 264.371094 C 342.644531 264.46875 342.46875 264.574219 342.292969 264.691406 Z M 342.984375 264.28125 C 343.105469 264.214844 343.230469 264.152344 343.355469 264.09375 C 343.230469 264.152344 343.105469 264.214844 342.984375 264.28125 Z M 343.539062 264.011719 C 343.664062 263.957031 343.789062 263.90625 343.914062 263.863281 C 343.789062 263.90625 343.664062 263.957031 343.539062 264.011719 Z M 346.730469 263.589844 C 346.8125 263.605469 346.894531 263.617188 346.976562 263.636719 C 346.894531 263.617188 346.8125 263.605469 346.730469 263.589844 Z M 305.757812 126.4375 L 311.914062 129.742188 Z M 317.527344 167.105469 C 317.523438 167.105469 317.523438 167.105469 317.523438 167.105469 C 317.523438 167.105469 317.523438 167.105469 317.527344 167.105469 Z M 317.933594 167.839844 C 317.929688 167.855469 317.925781 167.867188 317.917969 167.878906 C 317.925781 167.867188 317.929688 167.855469 317.933594 167.839844 Z M 317.796875 168.132812 C 317.757812 168.214844 317.714844 168.292969 317.671875 168.375 C 317.714844 168.292969 317.757812 168.214844 317.796875 168.132812 Z M 317.558594 168.582031 C 317.476562 168.726562 317.386719 168.867188 317.292969 169.011719 C 317.386719 168.867188 317.476562 168.726562 317.558594 168.582031 Z M 316.011719 169.546875 C 315.996094 169.5625 315.980469 169.574219 315.964844 169.589844 C 315.980469 169.574219 315.996094 169.5625 316.011719 169.546875 Z M 315.59375 169.914062 C 315.566406 169.9375 315.539062 169.960938 315.507812 169.984375 C 315.539062 169.960938 315.566406 169.9375 315.59375 169.914062 Z M 315.054688 170.277344 C 315.027344 170.292969 314.996094 170.308594 314.964844 170.324219 C 314.992188 170.308594 315.027344 170.292969 315.054688 170.277344 Z M 314.496094 170.535156 C 314.472656 170.542969 314.445312 170.554688 314.421875 170.566406 C 314.449219 170.554688 314.472656 170.542969 314.496094 170.535156 Z M 317.527344 167.105469 C 317.503906 167.164062 317.476562 167.222656 317.453125 167.28125 C 317.476562 167.222656 317.503906 167.164062 317.527344 167.105469 Z M 317.347656 167.53125 C 317.320312 167.582031 317.296875 167.636719 317.273438 167.691406 C 317.296875 167.636719 317.320312 167.582031 317.347656 167.53125 Z M 317.078125 168.078125 C 317.050781 168.125 317.027344 168.171875 317 168.214844 C 317.027344 168.171875 317.050781 168.125 317.078125 168.078125 Z M 316.78125 168.578125 C 316.765625 168.601562 316.753906 168.625 316.738281 168.648438 C 316.753906 168.625 316.765625 168.601562 316.78125 168.578125 Z M 316.441406 169.054688 C 316.414062 169.089844 316.386719 169.125 316.359375 169.160156 C 316.386719 169.125 316.414062 169.089844 316.441406 169.054688 Z M 316.34375 170.152344 C 316.207031 170.28125 316.066406 170.402344 315.917969 170.515625 C 316.066406 170.402344 316.207031 170.28125 316.34375 170.152344 Z M 317.1875 169.164062 C 317.101562 169.289062 317.011719 169.414062 316.914062 169.535156 C 317.011719 169.414062 317.101562 169.289062 317.1875 169.164062 Z M 316.839844 169.628906 C 316.71875 169.777344 316.585938 169.917969 316.449219 170.054688 C 316.585938 169.917969 316.71875 169.777344 316.839844 169.628906 Z M 321.714844 167.570312 C 321.742188 167.574219 321.777344 167.578125 321.804688 167.578125 C 321.777344 167.578125 321.742188 167.574219 321.714844 167.570312 Z M 329.128906 168.027344 C 329.03125 168.027344 328.9375 168.023438 328.839844 168.019531 C 328.933594 168.023438 329.03125 168.027344 329.128906 168.027344 Z M 336.46875 168.039062 C 336.3125 168.042969 336.152344 168.050781 335.992188 168.054688 C 336.152344 168.050781 336.3125 168.042969 336.46875 168.039062 Z M 348.203125 169.644531 C 348.324219 169.789062 348.453125 169.929688 348.589844 170.0625 C 348.453125 169.929688 348.324219 169.789062 348.203125 169.644531 Z M 349.085938 170.496094 C 348.945312 170.390625 348.816406 170.277344 348.6875 170.160156 C 348.8125 170.277344 348.945312 170.390625 349.085938 170.496094 Z M 348.105469 169.523438 C 348.011719 169.40625 347.925781 169.289062 347.84375 169.171875 C 347.925781 169.289062 348.011719 169.40625 348.105469 169.523438 Z M 347.746094 169.03125 C 347.652344 168.894531 347.566406 168.75 347.484375 168.609375 C 347.566406 168.75 347.652344 168.894531 347.746094 169.03125 Z M 347.371094 168.398438 C 347.324219 168.316406 347.28125 168.234375 347.242188 168.152344 C 347.28125 168.234375 347.324219 168.316406 347.371094 168.398438 Z M 347.027344 167.695312 C 347.011719 167.660156 346.996094 167.625 346.980469 167.589844 C 346.996094 167.625 347.011719 167.660156 347.027344 167.695312 Z M 347.535156 167.179688 C 347.535156 167.183594 347.535156 167.183594 347.535156 167.183594 C 347.535156 167.183594 347.535156 167.179688 347.535156 167.179688 Z M 347.707031 167.578125 C 347.722656 167.617188 347.742188 167.65625 347.761719 167.699219 C 347.742188 167.65625 347.722656 167.617188 347.707031 167.578125 Z M 347.972656 168.117188 C 347.988281 168.140625 348.003906 168.167969 348.019531 168.195312 C 348.003906 168.167969 347.988281 168.140625 347.972656 168.117188 Z M 348.246094 168.574219 C 348.265625 168.601562 348.285156 168.632812 348.304688 168.664062 C 348.28125 168.632812 348.265625 168.601562 348.246094 168.574219 Z M 348.601562 169.070312 C 348.625 169.101562 348.648438 169.132812 348.675781 169.160156 C 348.648438 169.132812 348.625 169.101562 348.601562 169.070312 Z M 349.019531 169.546875 C 349.023438 169.550781 349.03125 169.558594 349.035156 169.5625 C 349.03125 169.558594 349.023438 169.550781 349.019531 169.546875 Z M 349.3125 166.933594 C 349.933594 166.84375 350.550781 166.746094 351.160156 166.644531 C 350.550781 166.746094 349.933594 166.84375 349.3125 166.933594 Z M 350.617188 170.566406 C 350.585938 170.554688 350.554688 170.542969 350.527344 170.53125 C 350.554688 170.542969 350.585938 170.554688 350.617188 170.566406 Z M 350.058594 170.324219 C 350.035156 170.308594 350.007812 170.296875 349.984375 170.285156 C 350.007812 170.296875 350.035156 170.308594 350.058594 170.324219 Z M 349.53125 169.988281 C 349.5 169.964844 349.46875 169.941406 349.4375 169.917969 C 349.46875 169.941406 349.5 169.964844 349.53125 169.988281 Z M 343.644531 167.613281 C 343.449219 167.628906 343.257812 167.644531 343.066406 167.664062 C 343.257812 167.644531 343.449219 167.628906 343.644531 167.613281 Z M 337.898438 84.609375 C 338.046875 84.679688 338.1875 84.765625 338.316406 84.867188 C 338.183594 84.765625 338.046875 84.679688 337.898438 84.609375 Z M 339.351562 86.382812 C 339.296875 86.222656 339.234375 86.074219 339.160156 85.929688 C 339.234375 86.074219 339.296875 86.222656 339.351562 86.382812 Z M 339.0625 85.746094 C 338.984375 85.601562 338.894531 85.464844 338.796875 85.339844 C 338.894531 85.464844 338.984375 85.601562 339.0625 85.746094 Z M 338.710938 85.242188 C 338.617188 85.136719 338.519531 85.039062 338.414062 84.949219 C 338.519531 85.039062 338.617188 85.136719 338.710938 85.242188 Z M 337.796875 84.5625 C 337.757812 84.546875 337.71875 84.542969 337.679688 84.527344 L 337.679688 84.511719 C 337.71875 84.527344 337.757812 84.546875 337.796875 84.5625 Z M 297.890625 135.199219 L 292.175781 126.4375 L 301.554688 126.4375 Z M 313.71875 166.476562 C 313.6875 166.464844 313.660156 166.449219 313.628906 166.4375 C 313.660156 166.449219 313.6875 166.464844 313.71875 166.476562 Z M 313.855469 170.710938 C 313.8125 170.71875 313.765625 170.726562 313.722656 170.734375 C 313.765625 170.726562 313.8125 170.71875 313.855469 170.710938 Z M 314.628906 171.207031 C 314.421875 171.277344 314.203125 171.332031 313.976562 171.371094 C 314.203125 171.332031 314.421875 171.277344 314.628906 171.207031 Z M 315.875 170.550781 C 315.710938 170.671875 315.535156 170.78125 315.351562 170.882812 C 315.535156 170.78125 315.710938 170.671875 315.875 170.550781 Z M 315.226562 170.949219 C 315.042969 171.042969 314.855469 171.128906 314.652344 171.199219 C 314.855469 171.128906 315.042969 171.042969 315.226562 170.949219 Z M 310.128906 250.917969 C 310.070312 250.917969 310.019531 250.933594 309.964844 250.953125 C 310.015625 250.933594 310.070312 250.917969 310.128906 250.917969 Z M 309.695312 257.835938 C 309.746094 257.851562 309.800781 257.867188 309.859375 257.867188 C 309.800781 257.867188 309.746094 257.855469 309.695312 257.835938 Z M 322.691406 250.984375 C 322.695312 250.984375 322.695312 250.988281 322.699219 250.988281 C 322.695312 250.988281 322.695312 250.984375 322.691406 250.984375 Z M 334.34375 172.980469 C 334.347656 172.976562 334.347656 172.96875 334.351562 172.964844 C 334.347656 172.96875 334.347656 172.976562 334.34375 172.980469 Z M 334.414062 172.882812 C 334.429688 172.84375 334.441406 172.800781 334.445312 172.757812 C 334.441406 172.800781 334.429688 172.84375 334.414062 172.882812 Z M 336.796875 250.917969 C 336.734375 250.917969 336.679688 250.9375 336.625 250.957031 C 336.675781 250.933594 336.734375 250.917969 336.796875 250.917969 Z M 347.859375 257.871094 L 336.980469 257.871094 C 336.921875 257.871094 336.867188 257.859375 336.816406 257.839844 C 336.871094 257.855469 336.921875 257.871094 336.980469 257.871094 L 347.859375 257.871094 C 347.910156 257.871094 347.960938 257.859375 348.007812 257.84375 C 347.960938 257.859375 347.910156 257.871094 347.859375 257.871094 Z M 348.867188 250.917969 C 348.941406 250.917969 349.007812 250.9375 349.070312 250.964844 C 349.007812 250.941406 348.941406 250.917969 348.867188 250.917969 Z M 349.167969 170.5625 C 349.328125 170.679688 349.5 170.785156 349.679688 170.886719 C 349.5 170.785156 349.328125 170.679688 349.167969 170.5625 Z M 350.410156 171.210938 C 350.613281 171.28125 350.828125 171.332031 351.050781 171.371094 C 350.828125 171.332031 350.613281 171.28125 350.410156 171.210938 Z M 349.808594 170.953125 C 349.980469 171.039062 350.15625 171.117188 350.34375 171.183594 C 350.15625 171.117188 349.976562 171.039062 349.808594 170.953125 Z M 351.175781 170.710938 C 351.21875 170.71875 351.261719 170.726562 351.304688 170.734375 C 351.261719 170.726562 351.21875 170.71875 351.175781 170.710938 Z M 351.617188 166.511719 C 351.628906 166.507812 351.636719 166.5 351.648438 166.496094 C 351.636719 166.503906 351.628906 166.507812 351.617188 166.511719 Z M 352.191406 144.304688 C 352.191406 144.679688 352.195312 145.082031 352.203125 145.492188 C 352.195312 145.082031 352.191406 144.679688 352.191406 144.304688 Z M 352.210938 145.925781 C 352.21875 146.207031 352.222656 146.488281 352.230469 146.78125 C 352.222656 146.488281 352.21875 146.207031 352.210938 145.925781 Z M 352.25 147.324219 C 352.257812 147.59375 352.269531 147.863281 352.277344 148.140625 C 352.269531 147.863281 352.257812 147.59375 352.25 147.324219 Z M 352.304688 148.757812 C 352.316406 149.027344 352.328125 149.296875 352.339844 149.570312 C 352.328125 149.296875 352.316406 149.027344 352.304688 148.757812 Z M 352.371094 150.21875 C 352.382812 150.492188 352.398438 150.769531 352.414062 151.046875 C 352.398438 150.769531 352.382812 150.496094 352.371094 150.21875 Z M 352.445312 151.710938 C 352.460938 151.996094 352.476562 152.277344 352.492188 152.5625 C 352.476562 152.277344 352.460938 151.996094 352.445312 151.710938 Z M 352.617188 154.789062 C 352.636719 155.101562 352.65625 155.414062 352.671875 155.726562 C 352.652344 155.414062 352.636719 155.101562 352.617188 154.789062 Z M 352.527344 153.21875 C 352.546875 153.511719 352.5625 153.804688 352.578125 154.101562 C 352.5625 153.804688 352.546875 153.511719 352.527344 153.21875 Z M 352.527344 153.21875 " fill-opacity="1" fill-rule="nonzero"/></g><g clip-path="url(#b02ec8663f)"><path fill="#f5f5f5" d="M 297.398438 271.691406 C 296.785156 271.988281 296.199219 272.257812 295.65625 272.496094 C 293.265625 273.53125 292.664062 274.722656 292.511719 275.871094 C 292.429688 276.476562 292.90625 277.015625 293.515625 277.015625 L 319.058594 277.015625 C 319.589844 277.015625 320.03125 276.609375 320.066406 276.082031 C 320.097656 275.648438 320.128906 275.082031 320.144531 274.425781 L 299.148438 274.425781 Z M 297.398438 271.691406 " fill-opacity="1" fill-rule="nonzero"/></g><g clip-path="url(#ef7fdd387b)"><path fill="#f5f5f5" d="M 279.820312 173.332031 L 207.765625 173.332031 L 207.765625 143.558594 L 279.820312 143.558594 Z M 169.808594 17.96875 L 169.808594 126.4375 L 337.679688 126.4375 L 337.679688 17.96875 Z M 86.875 267.703125 L 137.132812 267.703125 L 137.132812 194.535156 L 86.875 194.535156 Z M 88.058594 43.921875 L 88.058594 82.304688 L 156.292969 82.304688 L 156.292969 43.921875 Z M 169.449219 131.246094 L 158.601562 154.09375 L 172.296875 160.597656 L 183.148438 137.75 Z M 169.449219 131.246094 " fill-opacity="1" fill-rule="nonzero"/></g><g clip-path="url(#f7a28066c2)"><path fill="#e0e0e0" d="M 102.226562 60.324219 C 102.226562 61.707031 101.105469 62.828125 99.722656 62.828125 C 98.339844 62.828125 97.21875 61.707031 97.21875 60.324219 C 97.21875 58.941406 98.339844 57.820312 99.722656 57.820312 C 101.105469 57.820312 102.226562 58.941406 102.226562 60.324219 Z M 201.542969 108.828125 L 203.609375 108.828125 L 203.609375 39.503906 L 201.542969 39.503906 Z M 99.722656 68.238281 C 98.339844 68.238281 97.21875 69.359375 97.21875 70.742188 C 97.21875 72.125 98.339844 73.246094 99.722656 73.246094 C 101.105469 73.246094 102.226562 72.125 102.226562 70.742188 C 102.226562 69.359375 101.105469 68.238281 99.722656 68.238281 Z M 191.179688 48.199219 L 181.527344 48.199219 L 181.527344 55.390625 L 191.179688 55.390625 Z M 147.289062 57.820312 L 106.953125 57.820312 L 106.953125 62.828125 L 147.289062 62.828125 Z M 181.621094 82.925781 L 191.273438 82.925781 L 191.273438 75.734375 L 181.621094 75.734375 Z M 181.621094 69.109375 L 191.273438 69.109375 L 191.273438 61.917969 L 181.621094 61.917969 Z M 88.058594 49.132812 L 156.292969 49.132812 L 156.292969 43.921875 L 88.058594 43.921875 Z M 106.953125 73.246094 L 147.289062 73.246094 L 147.289062 68.238281 L 106.953125 68.238281 Z M 181.621094 96.742188 L 191.273438 96.742188 L 191.273438 89.550781 L 181.621094 89.550781 Z M 261.671875 35.046875 C 259.085938 35.046875 256.933594 36.90625 256.46875 39.359375 L 213.699219 39.359375 L 213.699219 41.425781 L 256.484375 41.425781 C 256.984375 43.832031 259.117188 45.644531 261.671875 45.644531 C 264.230469 45.644531 266.363281 43.832031 266.863281 41.425781 L 283.023438 41.425781 L 283.023438 39.359375 L 266.875 39.359375 C 266.414062 36.90625 264.261719 35.046875 261.671875 35.046875 Z M 206.476562 141.957031 L 281.820312 141.957031 L 281.820312 175.601562 L 206.476562 175.601562 Z M 259.429688 170.742188 L 277.199219 170.742188 L 277.199219 153.921875 L 259.429688 153.921875 Z M 224.367188 152.320312 L 244.265625 152.320312 L 244.265625 150.425781 L 224.367188 150.425781 Z M 212.519531 163.160156 L 245.570312 163.160156 L 245.570312 161.265625 L 212.519531 161.265625 Z M 212.519531 167.425781 L 242.015625 167.425781 L 242.015625 165.53125 L 212.519531 165.53125 Z M 169.808594 17.96875 L 337.679688 17.96875 L 337.679688 30.945312 L 169.808594 30.945312 Z M 189.054688 24.90625 C 189.054688 26.011719 189.949219 26.90625 191.054688 26.90625 C 192.160156 26.90625 193.054688 26.011719 193.054688 24.90625 C 193.054688 23.800781 192.160156 22.90625 191.054688 22.90625 C 189.949219 22.90625 189.054688 23.800781 189.054688 24.90625 Z M 182.382812 24.90625 C 182.382812 26.011719 183.277344 26.90625 184.382812 26.90625 C 185.488281 26.90625 186.386719 26.011719 186.386719 24.90625 C 186.386719 23.800781 185.488281 22.90625 184.382812 22.90625 C 183.277344 22.90625 182.382812 23.800781 182.382812 24.90625 Z M 175.710938 24.90625 C 175.710938 26.011719 176.609375 26.90625 177.710938 26.90625 C 178.816406 26.90625 179.714844 26.011719 179.714844 24.90625 C 179.714844 23.800781 178.816406 22.90625 177.710938 22.90625 C 176.609375 22.90625 175.710938 23.800781 175.710938 24.90625 Z M 291.953125 113.523438 L 323.933594 113.523438 L 323.933594 40.25 L 291.953125 40.25 Z M 280.980469 79.519531 L 280.980469 110.554688 L 215.46875 110.554688 L 215.46875 79.519531 Z M 274.03125 98.988281 L 222.417969 98.988281 L 222.417969 105.230469 L 274.03125 105.230469 Z M 274.03125 85.359375 L 222.417969 85.359375 L 222.417969 91.605469 L 274.03125 91.605469 Z M 251.074219 61.730469 C 248.488281 61.730469 246.335938 63.589844 245.871094 66.042969 L 213.699219 66.042969 L 213.699219 68.109375 L 245.886719 68.109375 C 246.386719 70.519531 248.519531 72.328125 251.074219 72.328125 C 253.632812 72.328125 255.765625 70.519531 256.265625 68.109375 L 283.023438 68.109375 L 283.023438 66.042969 L 256.277344 66.042969 C 255.816406 63.589844 253.664062 61.730469 251.074219 61.730469 Z M 213.699219 54.671875 L 283.023438 54.671875 L 283.023438 52.605469 L 213.699219 52.605469 Z M 351.949219 170.785156 C 347.941406 170.785156 347.03125 165.511719 347.019531 165.457031 C 346.992188 165.273438 346.8125 165.144531 346.632812 165.179688 C 346.453125 165.210938 346.328125 165.382812 346.359375 165.566406 C 346.367188 165.625 347.371094 171.457031 351.949219 171.457031 C 352.132812 171.457031 352.285156 171.308594 352.285156 171.121094 C 352.285156 170.9375 352.132812 170.785156 351.949219 170.785156 Z M 334.128906 172.402344 L 328.941406 172.074219 C 328.730469 172.058594 328.597656 172.203125 328.585938 172.390625 C 328.574219 172.574219 328.714844 172.734375 328.902344 172.746094 L 334.089844 173.074219 C 334.097656 173.074219 334.101562 173.074219 334.109375 173.074219 C 334.285156 173.074219 334.433594 172.9375 334.445312 172.757812 C 334.457031 172.574219 334.316406 172.414062 334.128906 172.402344 Z M 318.394531 165.179688 C 318.210938 165.144531 318.039062 165.273438 318.007812 165.457031 C 318 165.511719 317.09375 170.785156 313.078125 170.785156 C 312.894531 170.785156 312.742188 170.9375 312.742188 171.121094 C 312.742188 171.308594 312.894531 171.457031 313.078125 171.457031 C 317.660156 171.457031 318.660156 165.625 318.671875 165.566406 C 318.699219 165.382812 318.574219 165.210938 318.394531 165.179688 Z M 172.050781 189.507812 C 171.863281 189.507812 171.714844 189.660156 171.71875 189.847656 L 172.09375 222.871094 C 172.09375 223.054688 172.246094 223.203125 172.429688 223.203125 C 172.429688 223.203125 172.433594 223.203125 172.433594 223.203125 C 172.617188 223.199219 172.765625 223.046875 172.765625 222.863281 L 172.390625 189.839844 C 172.386719 189.652344 172.246094 189.527344 172.050781 189.507812 Z M 150.472656 188.988281 C 150.628906 188.886719 150.671875 188.675781 150.570312 188.519531 C 150.472656 188.363281 150.261719 188.324219 150.105469 188.421875 C 142.742188 193.195312 129.152344 196.054688 129.015625 196.082031 C 128.835938 196.121094 128.71875 196.296875 128.757812 196.480469 C 128.789062 196.636719 128.929688 196.746094 129.085938 196.746094 C 129.105469 196.746094 129.128906 196.746094 129.152344 196.738281 C 129.222656 196.726562 132.632812 196.007812 136.964844 194.699219 L 136.964844 267.703125 L 154.390625 267.703125 L 154.390625 194.535156 L 137.5 194.535156 C 141.792969 193.210938 146.859375 191.328125 150.472656 188.988281 Z M 185.078125 137.945312 L 173.617188 162.074219 C 173.230469 162.894531 172.371094 163.296875 171.695312 162.976562 L 157.136719 156.0625 C 156.464844 155.742188 156.234375 154.820312 156.621094 154.003906 L 168.082031 129.875 C 168.46875 129.054688 169.332031 128.652344 170.003906 128.96875 L 184.5625 135.886719 C 185.234375 136.203125 185.464844 137.128906 185.078125 137.945312 Z M 183.148438 137.75 L 169.449219 131.246094 L 158.601562 154.09375 L 172.296875 160.597656 Z M 183.148438 137.75 " fill-opacity="1" fill-rule="nonzero"/></g><g clip-path="url(#75dc181c00)"><path fill="#f5c0a2" d="M 180.703125 152.949219 C 180.683594 152.957031 180.667969 152.964844 180.65625 152.972656 C 180.65625 152.972656 181.539062 154.496094 179.550781 155.871094 C 179.550781 156.015625 180.324219 157.144531 178.335938 158.363281 C 178.335938 158.363281 178.25 159.269531 177.339844 159.773438 C 177.046875 160 171.65625 160.519531 170.183594 159.933594 L 168.539062 159.542969 L 167.238281 159.230469 L 165.296875 159.546875 L 167.132812 151.28125 L 168.160156 151.265625 L 168.539062 151.140625 L 173.757812 149.457031 L 178.65625 145.011719 C 178.65625 145.011719 180.578125 145.867188 177.589844 149.601562 C 177.859375 149.632812 180.226562 149.839844 180.238281 149.84375 C 181.664062 150.246094 181.964844 152.179688 180.703125 152.949219 Z M 191.207031 82.011719 C 192.503906 80.519531 191.871094 78.761719 191.871094 78.761719 L 186.84375 82.957031 L 183.332031 86.878906 C 184.957031 83.765625 183.40625 82.953125 183.40625 82.953125 L 180.925781 86.53125 C 179.121094 89.519531 178.402344 92.464844 178.402344 92.464844 L 178.085938 92.925781 L 176.90625 94.628906 L 176.261719 95.558594 L 182.128906 101.222656 L 183.222656 99.644531 L 183.792969 98.820312 L 183.90625 98.65625 C 185.339844 98.042969 187.722656 95.621094 188.773438 94.5 C 188.796875 94.476562 188.816406 94.453125 188.839844 94.433594 C 189.03125 94.226562 189.632812 92.964844 189.707031 92.882812 C 190.097656 91.886719 190.695312 90.390625 190.695312 90.390625 C 190.917969 88.164062 189.347656 88.132812 189.347656 88.132812 C 189.636719 85.472656 187.292969 86.601562 187.203125 86.644531 L 188.992188 84.441406 Z M 145.507812 103.640625 C 145.195312 104.328125 144.746094 105.066406 144.121094 105.847656 C 144.121094 105.847656 144.738281 108.59375 142.9375 109.808594 C 142.9375 109.808594 142.664062 108.984375 142.136719 108.53125 C 141.582031 108.050781 140.539062 107.664062 139.757812 108.726562 C 138.714844 110.144531 139.78125 111.613281 140.546875 112.195312 C 141.753906 113.113281 138.355469 115.496094 140.746094 117.679688 C 141.246094 118.136719 141.578125 118.585938 141.785156 119.023438 C 143.648438 118.628906 149.828125 116.335938 145.507812 103.640625 Z M 302.328125 124.59375 L 297.890625 135.199219 L 289.714844 122.667969 C 289.273438 119.332031 285.199219 115.367188 283.328125 113.441406 C 282.390625 112.476562 282.042969 112.285156 281.613281 112.769531 C 281.042969 113.414062 281.167969 114.546875 281.644531 115.78125 C 282.074219 116.882812 282.726562 117.933594 282.910156 118.53125 C 281.132812 118.171875 279.082031 118.035156 277.921875 117.867188 C 277.917969 117.867188 277.914062 117.867188 277.910156 117.863281 C 277.902344 117.863281 277.894531 117.863281 277.890625 117.863281 C 277.863281 117.859375 277.835938 117.855469 277.8125 117.851562 C 277.789062 117.847656 277.773438 117.851562 277.75 117.847656 C 277.066406 117.789062 276.402344 118.148438 276.101562 118.78125 L 276.078125 118.820312 C 275.640625 119.734375 276.335938 120.734375 277.238281 120.871094 C 277.082031 120.851562 276.945312 120.839844 276.835938 120.835938 C 275.980469 120.808594 275.257812 121.453125 275.191406 122.300781 L 275.1875 122.34375 C 275.121094 123.199219 275.742188 123.949219 276.59375 124.050781 C 276.703125 124.066406 276.882812 124.074219 277.097656 124.085938 L 277.085938 124.085938 C 276.230469 124.078125 275.59375 124.65625 275.597656 125.511719 C 275.605469 126.285156 276.183594 126.933594 276.949219 127.027344 L 277.046875 127.019531 C 277.046875 127.027344 277.042969 127.035156 277.042969 127.042969 C 276.429688 127.238281 276.023438 127.847656 276.101562 128.511719 C 276.1875 129.191406 276.765625 129.703125 277.449219 129.710938 C 277.640625 129.710938 277.996094 129.679688 278.410156 129.636719 C 280.925781 130.324219 282.757812 130.660156 284.230469 130.699219 C 287.085938 136.96875 293.851562 151.789062 293.851562 151.789062 C 295.25 154.929688 299.265625 156.105469 301.972656 153.980469 C 302.089844 153.890625 302.203125 153.792969 302.316406 153.6875 C 302.808594 153.234375 303.199219 152.710938 303.488281 152.144531 L 313.566406 130.632812 Z M 309.871094 257.871094 C 309.867188 257.871094 309.863281 257.867188 309.859375 257.867188 C 309.636719 260.652344 309.226562 262.535156 308.605469 264.097656 C 308.609375 264.097656 308.609375 264.097656 308.609375 264.097656 C 312.011719 268.589844 316.597656 267.667969 319.175781 266.351562 C 319.164062 263.753906 319.527344 260.265625 319.824219 257.871094 Z M 346.683594 257.871094 L 337.347656 257.871094 C 337.34375 258.050781 337.332031 258.222656 337.332031 258.40625 C 337.332031 261.660156 337.144531 264.148438 336.984375 267.613281 C 337.800781 267.933594 338.867188 267.890625 340.039062 266.640625 C 342.390625 264.125 344.925781 262.929688 347.449219 263.769531 C 346.730469 261.816406 346.613281 259.847656 346.683594 257.871094 Z M 366.234375 182.253906 C 366.234375 182.246094 366.234375 182.242188 366.234375 182.234375 C 366.21875 181.820312 366.117188 180.71875 365.980469 179.34375 C 365.617188 175.722656 365.003906 170.195312 365.003906 170.195312 L 362.070312 143.941406 L 361.226562 129.710938 L 353.503906 130.023438 C 352.769531 136.050781 352.191406 141.628906 352.191406 144.304688 C 352.191406 147.449219 352.449219 151.902344 352.6875 155.984375 C 354.390625 162.082031 356.402344 169.238281 357.023438 171.457031 C 356.910156 171.621094 356.804688 171.78125 356.71875 171.941406 C 355.582031 174.039062 355.398438 175.421875 355.769531 178.554688 C 355.664062 178.511719 355.554688 178.480469 355.441406 178.464844 C 354.6875 178.375 354.035156 178.976562 354.0625 179.734375 L 354.222656 183.6875 C 354.238281 184.054688 354.417969 184.398438 354.710938 184.621094 L 357.835938 186.980469 L 358.648438 187.59375 C 359.085938 187.925781 359.691406 187.925781 360.128906 187.59375 L 365.75 183.351562 C 366.074219 183.109375 366.253906 182.722656 366.238281 182.320312 Z M 340.214844 103.042969 L 338.203125 90.679688 C 338.890625 90.152344 339.363281 89.429688 339.507812 88.578125 C 339.855469 86.542969 338.863281 84.675781 337.296875 84.410156 C 335.726562 84.144531 335.367188 85.625 335.195312 86.644531 L 335.152344 86.894531 C 334.445312 86.863281 333.851562 86.878906 333.851562 86.878906 C 333.0625 84.554688 334.144531 80.855469 333.730469 78.066406 C 325.714844 76.480469 322.785156 79.84375 319.347656 78.449219 C 319.074219 79.414062 318.933594 80.433594 318.972656 81.492188 L 319.347656 91.636719 C 319.472656 94.941406 321.65625 97.96875 324.996094 98.996094 C 325.179688 99.050781 325.359375 99.089844 325.542969 99.132812 L 325.933594 104.175781 C 326.246094 107.964844 329.453125 110.871094 333.484375 110.527344 C 337.515625 110.183594 340.53125 106.832031 340.214844 103.042969 Z M 340.214844 103.042969 " fill-opacity="1" fill-rule="nonzero"/></g><path fill="#5e17eb" d="M 180.601562 238.835938 L 189.523438 232.4375 C 189.523438 232.4375 191.785156 239.113281 194.773438 241.199219 C 198.730469 243.960938 202.277344 241.296875 204.515625 240.308594 C 209.898438 237.933594 212.765625 240.328125 212.765625 240.328125 L 189.476562 257.023438 Z M 156.539062 265.371094 L 184.730469 270.527344 C 184.730469 270.527344 184.457031 266.800781 179.011719 264.578125 C 176.746094 263.65625 173.171875 262.710938 170.648438 258.1875 C 168.800781 254.871094 166.964844 247.574219 166.964844 247.574219 L 156.800781 245.917969 Z M 143.746094 140.070312 L 147.238281 138.492188 L 148.699219 137.828125 L 157.503906 133.40625 C 158.425781 132.945312 159.234375 132.289062 159.878906 131.480469 L 184 103.03125 L 174.671875 94.023438 L 151.777344 119.980469 L 145.910156 122.042969 L 143.09375 122.980469 L 141.914062 123.328125 C 141.671875 122.511719 141.398438 121.78125 141.09375 121.167969 C 139.964844 118.914062 137.53125 119.175781 133.347656 119.613281 C 129.496094 120.019531 119.703125 118.917969 114.636719 126.609375 C 103.957031 142.828125 99.4375 172.957031 99.4375 172.957031 C 118.175781 182.066406 131.210938 172.078125 131.210938 172.078125 L 141.277344 166.398438 L 141.929688 163 L 165.109375 160.382812 L 167.363281 150.25 L 143.683594 149.644531 C 143.683594 149.644531 143.855469 145.398438 143.746094 140.070312 Z M 362.414062 129.660156 C 362.261719 127.179688 362.082031 124.703125 361.894531 122.222656 C 361.644531 119.296875 361.398438 116.371094 361.035156 113.453125 C 360.691406 110.707031 358.9375 108.484375 356.589844 107.402344 C 356.59375 107.382812 356.597656 107.367188 356.597656 107.367188 C 351.011719 104.957031 345.558594 103.386719 340.152344 102.65625 L 340.214844 103.042969 C 340.53125 106.832031 337.515625 110.183594 333.484375 110.527344 C 329.453125 110.871094 326.246094 107.964844 325.933594 104.175781 L 325.820312 102.714844 C 321.105469 103.398438 316.371094 104.738281 311.5625 106.742188 C 311.554688 106.746094 311.546875 106.753906 311.539062 106.753906 C 309.703125 107.390625 308.117188 108.742188 307.242188 110.652344 L 300.65625 123.699219 L 312.203125 129.902344 C 312.757812 135.976562 313.183594 141.613281 313.183594 144.304688 C 313.183594 150.050781 312.308594 160.179688 312.308594 164.386719 C 312.308594 165.503906 313.125 166.449219 314.230469 166.628906 C 326.113281 168.554688 339.589844 168.609375 351.160156 166.644531 C 352.253906 166.457031 353.0625 165.515625 353.0625 164.402344 C 353.0625 160.207031 352.191406 150.0625 352.191406 144.304688 C 352.191406 141.628906 352.765625 136.050781 353.503906 130.023438 Z M 322.972656 251.617188 C 323.066406 251.265625 322.800781 250.917969 322.4375 250.917969 L 310.128906 250.917969 C 309.835938 250.917969 309.589844 251.152344 309.578125 251.449219 L 309.316406 257.292969 C 309.304688 257.609375 309.554688 257.871094 309.871094 257.871094 L 320.75 257.871094 C 320.992188 257.871094 321.207031 257.714844 321.28125 257.484375 C 321.773438 255.894531 322.359375 253.902344 322.972656 251.617188 M 349.414062 251.570312 C 349.472656 251.230469 349.210938 250.917969 348.867188 250.917969 L 336.796875 250.917969 C 336.480469 250.917969 336.230469 251.179688 336.242188 251.492188 L 336.425781 257.335938 C 336.4375 257.636719 336.683594 257.871094 336.980469 257.871094 L 347.859375 257.871094 C 348.128906 257.871094 348.355469 257.679688 348.402344 257.417969 C 348.691406 255.777344 349.039062 253.757812 349.414062 251.570312 M 237.261719 53.59375 C 237.261719 56.519531 234.886719 58.890625 231.960938 58.890625 C 229.035156 58.890625 226.664062 56.519531 226.664062 53.59375 C 226.664062 50.664062 229.035156 48.292969 231.960938 48.292969 C 234.886719 48.292969 237.261719 50.664062 237.261719 53.59375 Z M 212.519531 147.226562 L 212.519531 155.519531 L 221.523438 155.519531 L 221.523438 147.226562 Z M 246.886719 98.152344 L 235.101562 98.152344 L 235.101562 106.03125 L 246.886719 106.03125 Z M 246.886719 98.152344 " fill-opacity="1" fill-rule="nonzero"/><path fill="#293237" d="M 122.28125 144.734375 C 122.101562 144.6875 121.921875 144.800781 121.878906 144.980469 C 121.742188 145.558594 118.582031 159.097656 121.984375 162.074219 C 123.277344 163.207031 130.207031 163.433594 135.578125 163.433594 C 138.6875 163.433594 141.273438 163.359375 141.945312 163.335938 C 142.128906 163.332031 142.273438 163.175781 142.269531 162.988281 C 142.261719 162.808594 142.113281 162.664062 141.933594 162.664062 C 141.929688 162.664062 141.925781 162.664062 141.921875 162.664062 C 134.851562 162.894531 123.820312 162.789062 122.425781 161.570312 C 119.328125 158.855469 122.5 145.273438 122.53125 145.136719 C 122.574219 144.957031 122.464844 144.777344 122.28125 144.734375 Z M 122.28125 144.734375 " fill-opacity="1" fill-rule="nonzero"/><path fill="#293237" d="M 187 93.152344 C 187.015625 93.152344 187.027344 93.152344 187.039062 93.152344 C 187.113281 93.152344 187.183594 93.125 187.238281 93.082031 C 187.230469 93.558594 187.316406 93.976562 187.558594 94.269531 C 187.847656 94.617188 188.128906 94.714844 188.355469 94.714844 C 188.425781 94.714844 188.492188 94.703125 188.550781 94.691406 C 189.542969 94.4375 190.054688 92.199219 190.191406 91.515625 C 190.226562 91.335938 190.105469 91.160156 189.925781 91.121094 C 189.746094 91.082031 189.566406 91.203125 189.53125 91.386719 C 189.292969 92.585938 188.777344 93.9375 188.382812 94.039062 C 188.285156 94.058594 188.144531 93.925781 188.074219 93.839844 C 187.496094 93.144531 188.425781 90.6875 189.144531 89.300781 C 189.230469 89.136719 189.167969 88.933594 189 88.847656 C 188.839844 88.765625 188.632812 88.828125 188.546875 88.992188 C 188.402344 89.273438 187.484375 91.078125 187.277344 92.585938 C 187.226562 92.53125 187.15625 92.492188 187.078125 92.484375 C 186.71875 92.441406 186.484375 92.300781 186.347656 92.042969 C 185.820312 91.0625 186.761719 88.761719 187.167969 87.953125 C 187.253906 87.789062 187.1875 87.585938 187.019531 87.503906 C 186.855469 87.417969 186.652344 87.484375 186.570312 87.652344 C 186.402344 87.980469 184.96875 90.898438 185.753906 92.359375 C 185.996094 92.8125 186.425781 93.085938 187 93.152344 Z M 187 93.152344 " fill-opacity="1" fill-rule="nonzero"/><path fill="#293237" d="M 312.601562 133.507812 C 312.613281 133.507812 312.625 133.503906 312.636719 133.503906 C 312.820312 133.484375 312.957031 133.320312 312.9375 133.136719 L 311.757812 121.640625 C 311.738281 121.457031 311.558594 121.316406 311.386719 121.34375 C 311.203125 121.359375 311.066406 121.527344 311.085938 121.710938 L 312.269531 133.203125 C 312.285156 133.378906 312.433594 133.507812 312.601562 133.507812 Z M 312.601562 133.507812 " fill-opacity="1" fill-rule="nonzero"/><path fill="#293237" d="M 182.910156 94.863281 C 182.835938 95.035156 182.917969 95.230469 183.089844 95.300781 C 183.132812 95.320312 183.175781 95.328125 183.21875 95.328125 C 183.351562 95.328125 183.476562 95.25 183.527344 95.121094 C 184.808594 92.066406 182.996094 89.722656 182.917969 89.625 C 182.804688 89.476562 182.59375 89.453125 182.449219 89.566406 C 182.304688 89.683594 182.277344 89.894531 182.390625 90.039062 C 182.460938 90.125 184.03125 92.179688 182.910156 94.863281 Z M 182.910156 94.863281 " fill-opacity="1" fill-rule="nonzero"/><path fill="#293237" d="M 115.867188 138.628906 C 118.644531 140.554688 124.722656 142.003906 128.742188 141.90625 C 138.957031 141.65625 142.203125 139.351562 143.835938 134.410156 C 144.941406 131.050781 143.3125 127.425781 141.675781 125.386719 C 140.035156 123.347656 144.054688 120.699219 140.75 117.679688 C 138.355469 115.496094 141.753906 113.113281 140.546875 112.195312 C 139.785156 111.613281 138.714844 110.144531 139.757812 108.726562 C 140.539062 107.667969 141.582031 108.050781 142.140625 108.53125 C 142.667969 108.984375 142.9375 109.8125 142.9375 109.8125 C 144.738281 108.597656 144.121094 105.847656 144.121094 105.847656 C 148.875 99.890625 143.722656 96.625 141.234375 96.140625 C 129.148438 93.773438 124.640625 104.101562 124.789062 109.902344 C 124.902344 114.203125 116.902344 112.914062 116.90625 119.816406 C 116.914062 126.484375 114.738281 125.574219 113.195312 126.734375 C 109.097656 129.824219 110.984375 135.230469 115.867188 138.628906 Z M 115.867188 138.628906 " fill-opacity="1" fill-rule="nonzero"/><path fill="#293237" d="M 317.527344 167.105469 C 316.417969 166.960938 315.316406 166.804688 314.230469 166.628906 C 313.839844 166.566406 313.488281 166.402344 313.195312 166.175781 L 313.023438 170.796875 C 313.042969 170.792969 313.058594 170.785156 313.078125 170.785156 C 315.621094 170.785156 316.914062 168.667969 317.527344 167.105469 Z M 317.527344 167.105469 " fill-opacity="1" fill-rule="nonzero"/><path fill="#293237" d="M 333.730469 78.066406 C 334.144531 80.855469 333.066406 84.554688 333.851562 86.878906 C 333.851562 86.878906 334.445312 86.867188 335.152344 86.898438 L 335.195312 86.644531 C 335.367188 85.625 335.730469 84.144531 337.296875 84.410156 C 338.261719 84.574219 339.003906 85.34375 339.351562 86.382812 C 341.109375 81.691406 339.609375 76.230469 335.347656 73.167969 C 330.246094 69.503906 321.636719 71.054688 318.96875 78.289062 C 322.578125 80.117188 325.417969 76.421875 333.730469 78.066406 Z M 333.730469 78.066406 " fill-opacity="1" fill-rule="nonzero"/><path fill="#293237" d="M 353.460938 130.324219 C 353.476562 130.324219 353.492188 130.324219 353.507812 130.324219 C 353.675781 130.324219 353.816406 130.203125 353.839844 130.035156 L 355.425781 118.480469 C 355.449219 118.296875 355.324219 118.125 355.136719 118.101562 C 354.957031 118.074219 354.785156 118.203125 354.757812 118.386719 L 353.175781 129.945312 C 353.148438 130.128906 353.277344 130.296875 353.460938 130.324219 Z M 353.460938 130.324219 " fill-opacity="1" fill-rule="nonzero"/><path fill="#293237" d="M 357.027344 171.804688 C 357.058594 171.804688 357.09375 171.800781 357.125 171.789062 L 358.261719 171.445312 C 358.4375 171.390625 358.539062 171.203125 358.484375 171.023438 C 358.429688 170.847656 358.242188 170.746094 358.0625 170.800781 L 356.929688 171.148438 C 356.75 171.203125 356.652344 171.390625 356.707031 171.566406 C 356.75 171.710938 356.882812 171.804688 357.027344 171.804688 Z M 357.027344 171.804688 " fill-opacity="1" fill-rule="nonzero"/><path fill="#293237" d="M 351.949219 170.785156 C 351.949219 170.785156 351.953125 170.785156 351.953125 170.785156 L 352.042969 166.285156 C 351.78125 166.460938 351.484375 166.589844 351.160156 166.644531 C 349.972656 166.847656 348.757812 167.023438 347.535156 167.179688 C 348.15625 168.738281 349.453125 170.785156 351.949219 170.785156 Z M 351.949219 170.785156 " fill-opacity="1" fill-rule="nonzero"/><g clip-path="url(#7d099b8173)"><path fill="#293237" d="M 353.039062 270.390625 C 352.980469 270.335938 352.917969 270.28125 352.855469 270.226562 C 352.347656 269.769531 351.828125 269.3125 351.308594 268.847656 C 351.1875 268.742188 351.070312 268.632812 350.949219 268.523438 C 350.824219 268.40625 350.699219 268.289062 350.570312 268.167969 C 350.445312 268.046875 350.320312 267.925781 350.195312 267.800781 C 350.082031 267.6875 349.96875 267.578125 349.859375 267.460938 C 349.730469 267.328125 349.609375 267.191406 349.488281 267.054688 C 349.386719 266.945312 349.285156 266.832031 349.1875 266.714844 C 349.0625 266.570312 348.945312 266.414062 348.828125 266.261719 C 348.746094 266.148438 348.65625 266.039062 348.574219 265.925781 C 348.453125 265.75 348.339844 265.5625 348.226562 265.378906 C 348.164062 265.277344 348.097656 265.179688 348.039062 265.074219 C 347.875 264.785156 347.730469 264.484375 347.597656 264.171875 C 347.597656 264.167969 347.59375 264.164062 347.59375 264.160156 C 347.539062 264.03125 347.496094 263.898438 347.449219 263.769531 C 346.820312 263.558594 346.191406 263.476562 345.5625 263.511719 C 345.246094 263.527344 344.929688 263.574219 344.613281 263.644531 C 343.050781 264.011719 341.507812 265.066406 340.035156 266.640625 C 339.140625 267.59375 338.3125 267.84375 337.605469 267.765625 C 337.386719 267.742188 337.175781 267.6875 336.984375 267.613281 C 336.972656 267.871094 336.960938 268.136719 336.949219 268.410156 C 336.945312 268.511719 336.941406 268.617188 336.9375 268.71875 C 336.933594 268.871094 336.925781 269.027344 336.917969 269.183594 C 336.914062 269.351562 336.90625 269.523438 336.902344 269.695312 C 336.898438 269.796875 336.894531 269.894531 336.890625 269.996094 C 336.882812 270.203125 336.878906 270.410156 336.871094 270.625 C 336.867188 270.683594 336.867188 270.746094 336.867188 270.808594 C 336.820312 272.316406 336.789062 274.015625 336.78125 275.996094 C 336.777344 276.558594 337.230469 277.015625 337.792969 277.015625 L 355.578125 277.015625 C 356.195312 277.015625 356.683594 276.464844 356.582031 275.851562 C 356.207031 273.546875 354.726562 271.929688 353.039062 270.390625 Z M 353.039062 270.390625 " fill-opacity="1" fill-rule="nonzero"/></g><path fill="#293237" d="M 320.75 257.871094 L 309.871094 257.871094 C 309.753906 257.871094 309.652344 257.824219 309.5625 257.761719 L 309.554688 257.871094 L 320.972656 257.871094 C 320.976562 257.851562 320.984375 257.832031 320.988281 257.8125 C 320.917969 257.847656 320.835938 257.871094 320.75 257.871094 Z M 320.75 257.871094 " fill-opacity="1" fill-rule="nonzero"/><path fill="#293237" d="M 308.609375 264.097656 C 306.625 266.578125 301.425781 269.734375 297.398438 271.691406 L 299.148438 274.425781 L 320.144531 274.425781 C 320.199219 272.265625 320.074219 269.109375 319.175781 266.351562 C 316.597656 267.667969 312.011719 268.589844 308.609375 264.097656 Z M 308.609375 264.097656 " fill-opacity="1" fill-rule="nonzero"/><path fill="#293237" d="M 361.816406 175.894531 C 361.632812 175.890625 361.46875 176.015625 361.453125 176.199219 L 361.136719 179.84375 L 359.101562 186.691406 C 359.058594 186.832031 358.953125 186.941406 358.8125 186.984375 C 358.679688 187.027344 358.542969 187.003906 358.4375 186.921875 C 357.992188 186.570312 357.734375 185.992188 357.671875 185.203125 C 357.5 182.96875 357.609375 180.3125 357.613281 180.285156 C 357.617188 180.148438 357.539062 180.019531 357.414062 179.960938 C 357.378906 179.945312 356.546875 179.558594 356.195312 178.359375 C 356.144531 178.183594 355.957031 178.078125 355.777344 178.132812 C 355.597656 178.183594 355.496094 178.371094 355.550781 178.546875 C 355.878906 179.679688 356.582031 180.242188 356.933594 180.464844 C 356.910156 181.140625 356.855469 183.347656 357.003906 185.257812 C 357.097656 186.484375 357.609375 187.125 358.023438 187.449219 C 358.210938 187.597656 358.445312 187.675781 358.683594 187.675781 C 358.796875 187.675781 358.90625 187.660156 359.015625 187.625 C 359.367188 187.511719 359.640625 187.234375 359.746094 186.882812 L 361.792969 180 C 361.800781 179.980469 361.804688 179.957031 361.804688 179.933594 L 362.121094 176.257812 C 362.136719 176.074219 362 175.910156 361.816406 175.894531 Z M 361.816406 175.894531 " fill-opacity="1" fill-rule="nonzero"/><g clip-path="url(#ddb122afd3)"><path fill="#293237" d="M 297.398438 271.691406 C 296.785156 271.988281 296.199219 272.257812 295.65625 272.496094 C 293.265625 273.53125 292.664062 274.722656 292.511719 275.871094 C 292.429688 276.476562 292.90625 277.015625 293.515625 277.015625 L 319.058594 277.015625 C 319.589844 277.015625 320.03125 276.609375 320.066406 276.082031 C 320.097656 275.648438 320.128906 275.082031 320.144531 274.425781 L 299.148438 274.425781 Z M 297.398438 271.691406 " fill-opacity="1" fill-rule="nonzero"/></g><path fill="#293237" d="M 172.765625 222.863281 C 172.765625 223.046875 172.617188 223.199219 172.433594 223.203125 C 172.433594 223.203125 172.429688 223.203125 172.429688 223.203125 C 172.246094 223.203125 172.09375 223.054688 172.09375 222.871094 L 171.71875 189.847656 C 171.714844 189.660156 171.863281 189.507812 172.050781 189.507812 C 172.09375 189.511719 172.136719 189.523438 172.171875 189.539062 L 172.136719 170.785156 C 172.136719 170.785156 173.726562 160.929688 160.558594 163.285156 C 156.261719 164.050781 149.121094 165.171875 141.285156 166.355469 L 141.277344 166.398438 L 131.210938 172.078125 C 131.210938 172.078125 119.273438 181.207031 101.832031 174.019531 C 100.902344 180.199219 99.933594 198.765625 122.226562 197.171875 C 122.226562 197.171875 125.625 196.808594 130.761719 195.605469 L 131.054688 195.613281 C 135.144531 194.617188 144.453125 192.085938 150.105469 188.421875 C 150.261719 188.324219 150.472656 188.363281 150.570312 188.519531 C 150.671875 188.675781 150.628906 188.886719 150.472656 188.984375 C 145.648438 192.113281 138.226562 194.421875 133.535156 195.671875 L 149.40625 196.058594 L 152.328125 200.746094 L 154.492188 252.328125 L 172.296875 254.554688 L 172.253906 232.707031 L 181.515625 247.558594 L 195.183594 237.386719 L 172.394531 190.386719 Z M 172.765625 222.863281 " fill-opacity="1" fill-rule="nonzero"/><path fill="#293237" d="M 143.683594 149.980469 C 143.867188 149.980469 144.011719 149.839844 144.019531 149.660156 C 144.027344 149.472656 143.882812 149.316406 143.699219 149.308594 L 135.480469 148.976562 C 135.296875 148.984375 135.136719 149.113281 135.128906 149.300781 C 135.121094 149.484375 135.265625 149.640625 135.449219 149.648438 L 143.671875 149.980469 C 143.675781 149.980469 143.679688 149.980469 143.683594 149.980469 Z M 143.683594 149.980469 " fill-opacity="1" fill-rule="nonzero"/><path fill="#293237" d="M 282.578125 121.554688 C 282.582031 121.550781 282.589844 121.550781 282.59375 121.546875 C 282.9375 121.296875 283.160156 120.917969 283.226562 120.449219 C 283.300781 119.949219 283.210938 119.039062 281.769531 118.570312 C 281.59375 118.511719 281.402344 118.609375 281.34375 118.785156 C 281.285156 118.960938 281.382812 119.148438 281.558594 119.207031 C 282.679688 119.574219 282.589844 120.160156 282.5625 120.351562 C 282.519531 120.640625 282.398438 120.859375 282.199219 121 C 282.015625 121.136719 281.769531 121.191406 281.523438 121.164062 C 281.515625 121.164062 281.511719 121.160156 281.503906 121.160156 C 281.503906 121.160156 281.5 121.164062 281.5 121.164062 C 281.480469 121.160156 281.464844 121.160156 281.449219 121.160156 C 281 121.082031 280.3125 120.976562 279.609375 120.875 C 279.429688 120.855469 279.253906 120.972656 279.226562 121.15625 C 279.203125 121.339844 279.328125 121.511719 279.511719 121.539062 C 280.207031 121.640625 280.894531 121.746094 281.335938 121.820312 C 281.378906 121.828125 281.421875 121.828125 281.464844 121.832031 C 281.886719 121.859375 282.261719 122.066406 282.46875 122.386719 C 282.65625 122.675781 282.6875 123.023438 282.558594 123.367188 C 282.386719 123.8125 281.96875 123.996094 281.304688 123.914062 C 281.285156 123.910156 281.253906 123.910156 281.234375 123.90625 C 281.230469 123.90625 281.226562 123.90625 281.222656 123.90625 C 280.898438 123.871094 280.386719 123.84375 279.570312 123.820312 C 279.371094 123.835938 279.230469 123.960938 279.222656 124.144531 C 279.21875 124.332031 279.363281 124.488281 279.550781 124.492188 C 280.074219 124.507812 280.808594 124.53125 281.195312 124.578125 C 281.523438 124.605469 281.808594 124.753906 281.976562 124.996094 C 282.132812 125.21875 282.171875 125.492188 282.089844 125.769531 C 281.964844 126.191406 281.578125 126.464844 281.097656 126.460938 L 279.542969 126.546875 C 279.355469 126.554688 279.214844 126.714844 279.222656 126.898438 C 279.234375 127.078125 279.382812 127.21875 279.558594 127.21875 C 279.566406 127.21875 279.574219 127.21875 279.578125 127.21875 L 280.175781 127.183594 C 280.203125 127.1875 280.226562 127.195312 280.253906 127.191406 C 280.554688 127.160156 280.84375 127.265625 281.050781 127.484375 C 281.257812 127.707031 281.34375 128.003906 281.292969 128.296875 C 281.21875 128.726562 280.863281 129.046875 280.433594 129.078125 C 280.25 129.09375 280.109375 129.253906 280.125 129.441406 C 280.136719 129.617188 280.285156 129.75 280.457031 129.75 C 280.46875 129.75 280.476562 129.75 280.484375 129.75 C 281.222656 129.695312 281.828125 129.144531 281.957031 128.414062 C 282.039062 127.925781 281.898438 127.445312 281.574219 127.074219 C 282.121094 126.929688 282.566406 126.523438 282.734375 125.960938 C 282.875 125.484375 282.800781 125.003906 282.527344 124.613281 C 282.484375 124.550781 282.429688 124.496094 282.375 124.441406 C 282.746094 124.28125 283.03125 124.011719 283.183594 123.609375 C 283.390625 123.066406 283.332031 122.492188 283.03125 122.023438 C 282.914062 121.835938 282.753906 121.6875 282.578125 121.554688 Z M 282.578125 121.554688 " fill-opacity="1" fill-rule="nonzero"/><path fill="#293237" d="M 289.261719 126.828125 C 289.078125 126.777344 288.898438 126.882812 288.847656 127.058594 C 288.339844 128.847656 287.476562 129.894531 286.28125 130.179688 C 286.097656 130.222656 285.988281 130.40625 286.03125 130.585938 C 286.066406 130.742188 286.207031 130.84375 286.355469 130.84375 C 286.382812 130.84375 286.410156 130.84375 286.433594 130.835938 C 287.886719 130.488281 288.914062 129.28125 289.492188 127.242188 C 289.542969 127.066406 289.441406 126.878906 289.261719 126.828125 Z M 289.261719 126.828125 " fill-opacity="1" fill-rule="nonzero"/><path fill="#293237" d="M 347.859375 257.871094 L 336.980469 257.871094 C 336.878906 257.871094 336.789062 257.835938 336.707031 257.789062 L 336.707031 257.871094 L 348.101562 257.871094 C 348.105469 257.847656 348.109375 257.824219 348.113281 257.800781 C 348.035156 257.84375 347.953125 257.871094 347.859375 257.871094 Z M 347.859375 257.871094 " fill-opacity="1" fill-rule="nonzero"/><path fill="#293237" d="M 351.136719 212.503906 L 351.941406 171.457031 C 348.980469 171.453125 347.519531 169.011719 346.851562 167.269531 C 337.648438 168.402344 327.570312 168.351562 318.203125 167.191406 C 317.550781 168.933594 316.09375 171.457031 313.078125 171.457031 C 313.050781 171.457031 313.027344 171.449219 313 171.441406 L 311.507812 212.0625 L 309.847656 251.007812 C 309.933594 250.957031 310.023438 250.917969 310.128906 250.917969 L 322.433594 250.917969 C 322.625 250.917969 322.78125 251.015625 322.882812 251.152344 C 325.515625 241.25 328.625 226.191406 326.40625 214.683594 L 332.5625 172.976562 L 328.898438 172.746094 C 328.710938 172.734375 328.570312 172.574219 328.582031 172.390625 C 328.59375 172.207031 328.730469 172.0625 328.941406 172.074219 L 334.128906 172.402344 C 334.3125 172.414062 334.453125 172.574219 334.441406 172.757812 C 334.429688 172.933594 334.289062 173.066406 334.117188 173.074219 L 336.496094 251.019531 C 336.582031 250.960938 336.683594 250.917969 336.792969 250.917969 L 348.867188 250.917969 C 349.007812 250.917969 349.128906 250.980469 349.226562 251.066406 C 350.113281 245.621094 351.128906 239.210938 351.714844 234.832031 C 352.921875 225.789062 351.136719 212.503906 351.136719 212.503906 Z M 351.136719 212.503906 " fill-opacity="1" fill-rule="nonzero"/></svg>