<svg xmlns="http://www.w3.org/2000/svg" xmlns:xlink="http://www.w3.org/1999/xlink" width="590" zoomAndPan="magnify" viewBox="0 0 442.5 295.499996" height="394" preserveAspectRatio="xMidYMid meet" version="1.0"><defs><clipPath id="d160e504ea"><path d="M 40.667969 179 L 402.308594 179 L 402.308594 280.738281 L 40.667969 280.738281 Z M 40.667969 179 " clip-rule="nonzero"/></clipPath><clipPath id="63fd8ad233"><path d="M 192 13.441406 L 255 13.441406 L 255 56 L 192 56 Z M 192 13.441406 " clip-rule="nonzero"/></clipPath></defs><g clip-path="url(#d160e504ea)"><path fill="#000000" d="M 40.675781 179.808594 L 382.503906 184.277344 C 389.09375 216.441406 395.695312 248.59375 402.300781 280.738281 L 40.675781 280.738281 Z M 40.675781 179.808594 " fill-opacity="1" fill-rule="nonzero"/></g><path fill="#163e61" d="M 258.734375 72.023438 C 259.722656 72.527344 260.671875 73.097656 261.578125 73.738281 C 265.011719 76.164062 266.109375 78.359375 268.167969 80.320312 C 270.226562 82.28125 272.191406 82.882812 276.542969 84.5 C 278.945312 85.394531 279.355469 85.351562 289.996094 87.929688 C 296.847656 89.589844 298.675781 90.082031 300.511719 91.359375 C 301.894531 92.324219 303.34375 93.183594 304.851562 93.9375 C 305.882812 94.445312 306.941406 94.890625 308.023438 95.28125 C 309.617188 95.898438 311.632812 97.390625 316.714844 105.347656 C 318.773438 108.554688 320.765625 112.324219 324.730469 119.882812 C 325.277344 120.894531 325.734375 121.945312 326.105469 123.035156 C 326.996094 125.738281 326.695312 126.875 327.203125 129.070312 C 327.875 131.992188 329.332031 134.007812 330.636719 135.789062 C 332.75 138.695312 333.628906 138.519531 335.167969 141.136719 C 336.238281 142.949219 336.664062 144.484375 337.226562 146.484375 C 338.363281 150.570312 337.828125 151.667969 339.148438 155.125 C 339.640625 156.410156 340.234375 157.640625 340.933594 158.828125 C 342.429688 161.390625 343.597656 162.351562 345.324219 164.449219 C 346.507812 165.890625 348.976562 168.878906 350.40625 172.539062 C 351.367188 174.996094 351.574219 177.023438 351.777344 180.355469 C 352.027344 184.484375 352.21875 190.148438 352.054688 197.085938 C 352.121094 197.964844 351.96875 198.800781 351.585938 199.597656 C 350.980469 200.84375 349.9375 201.488281 349.253906 201.886719 C 345.269531 204.175781 341.894531 204.984375 341.894531 204.984375 C 338.40625 205.835938 336.085938 206.398438 332.1875 206.726562 C 327.195312 207.144531 322.21875 206.992188 317.261719 206.273438 L 315.617188 213.679688 L 296.863281 212.117188 C 297.480469 210.15625 298.109375 208.195312 298.730469 206.21875 C 300.761719 206.289062 302.1875 206.054688 303 205.863281 C 303.480469 205.777344 303.914062 205.585938 304.304688 205.289062 C 305.125 204.617188 305.320312 203.601562 305.375 203.339844 C 305.511719 202.53125 305.265625 202.296875 305.347656 201.324219 C 305.40625 200.742188 305.550781 200.1875 305.785156 199.652344 C 306.652344 199.414062 307.457031 199.042969 308.203125 198.539062 C 308.859375 198.109375 309.441406 197.59375 309.945312 196.992188 C 309.972656 195.289062 310.015625 193.578125 310.042969 191.875 L 313.144531 188.859375 C 313.296875 188.3125 313.570312 187.007812 312.964844 185.636719 C 312.808594 185.285156 312.613281 184.953125 312.375 184.648438 L 318.554688 184.195312 C 319.597656 183.476562 320.355469 182.523438 320.820312 181.34375 C 320.996094 180.878906 321.257812 180.179688 321.164062 179.289062 C 320.984375 177.519531 319.570312 176.476562 319.238281 176.242188 L 311.59375 176.449219 C 312.074219 175.777344 312.71875 174.914062 313.515625 173.910156 C 315.140625 171.890625 316.878906 169.96875 318.730469 168.152344 C 321.003906 165.917969 323.417969 163.839844 325.96875 161.925781 L 253.105469 163.023438 L 251.734375 164.039062 L 246.96875 163.765625 C 245.554688 164.546875 243.730469 165.644531 241.671875 167.054688 C 238.140625 169.484375 234.871094 172.226562 231.867188 175.28125 C 227.914062 179.289062 225.46875 182.769531 223.546875 185.511719 C 219.714844 191.019531 216.449219 196.84375 213.746094 202.984375 C 214.394531 196.429688 215.035156 189.875 215.667969 183.320312 C 213.921875 186.0625 211.933594 188.957031 209.625 191.917969 C 206.425781 196.0625 202.949219 199.964844 199.191406 203.613281 C 195.761719 203.695312 192.21875 203.835938 188.578125 204.082031 C 180.09375 204.628906 172.144531 205.601562 164.785156 206.824219 L 162.5625 200.953125 C 163.539062 201.539062 164.570312 202.003906 165.652344 202.351562 C 166.203125 202.542969 166.765625 202.6875 167.339844 202.792969 C 170.730469 203.3125 174.863281 198.910156 176.757812 196.265625 C 177.210938 195.632812 177.746094 194.785156 178.777344 193.550781 C 179.160156 193.070312 180.011719 192.234375 181.730469 190.558594 C 182.183594 190.050781 182.730469 189.667969 183.363281 189.40625 C 183.8125 189.234375 184.28125 189.144531 184.761719 189.132812 C 185.09375 189.96875 185.546875 190.4375 185.929688 190.710938 C 186.738281 191.285156 188.015625 191.5625 188.015625 191.5625 L 189.429688 194.140625 C 189.375 194.496094 189.335938 194.867188 189.292969 195.234375 L 192.890625 200.035156 C 192.875 197.949219 192.847656 195.867188 192.820312 193.796875 L 191.859375 192.972656 C 191.148438 191.636719 190.636719 190.230469 190.324219 188.75 C 190.113281 187.714844 190.003906 186.667969 189.992188 185.609375 C 190.441406 185.835938 190.917969 185.9375 191.421875 185.925781 C 191.574219 185.910156 192.753906 185.84375 193.453125 184.921875 C 194.152344 184.003906 193.824219 182.566406 193.671875 182.03125 C 193.34375 180.972656 192.917969 180.945312 192.164062 179.628906 C 191.40625 178.3125 191.695312 178.273438 190.75 175.832031 C 190.132812 174.253906 189.828125 173.460938 189.402344 172.882812 C 188.828125 172.089844 188.375 171.800781 186.339844 170.210938 C 185.269531 169.371094 184.40625 168.671875 183.871094 168.234375 L 182.304688 164.722656 C 182.910156 164.40625 183.460938 164.007812 183.953125 163.53125 C 185.902344 161.636719 186.21875 158.964844 186.480469 156.632812 C 186.835938 153.273438 186.191406 152.820312 186.933594 151.324219 C 187.671875 149.832031 189.140625 149.132812 190.871094 147.9375 C 192.601562 146.746094 194.8125 144.839844 196.914062 141.546875 C 197.5625 138.925781 198.046875 136.277344 198.367188 133.59375 C 198.589844 131.894531 198.671875 130.621094 199.109375 123.625 C 199.464844 117.785156 199.578125 116.054688 200.757812 113.929688 C 201.085938 113.339844 202.953125 110.105469 204.957031 110.089844 C 205.402344 110.128906 205.832031 110.070312 206.25 109.914062 C 207.03125 109.597656 207.375 109.007812 207.980469 108.265625 C 208.582031 107.527344 209.269531 107.046875 209.902344 106.441406 C 210.929688 105.46875 214.460938 102.65625 223.410156 95.953125 L 225.167969 97.378906 C 226.910156 98.761719 228.832031 100.300781 230.632812 101.480469 C 233.445312 103.355469 234.859375 104.289062 236.726562 104.660156 C 240.171875 105.332031 243.113281 103.824219 244.992188 102.851562 C 249.015625 100.792969 251.210938 97.898438 253.710938 94.554688 C 256.308594 91.046875 258.40625 87.269531 260.011719 83.210938 C 260.230469 81.542969 260.265625 79.871094 260.121094 78.195312 C 259.933594 76.074219 259.472656 74.019531 258.734375 72.023438 Z M 258.734375 72.023438 " fill-opacity="1" fill-rule="nonzero"/><path fill="#af0000" d="M 242.425781 104.933594 C 243.671875 108.398438 244.929688 111.875 246.199219 115.355469 C 243.949219 118.179688 241.707031 121.015625 239.472656 123.859375 C 239.511719 136.273438 239.554688 148.6875 239.609375 161.105469 L 234.777344 172.5 C 233.378906 173.761719 231.910156 175.199219 230.398438 176.820312 C 228.886719 178.4375 227.613281 180 226.472656 181.480469 C 225.738281 175.394531 225.015625 169.304688 224.304688 163.214844 C 225.292969 156.71875 226.707031 150.3125 228.546875 144.003906 C 231.359375 134.375 234.214844 128.371094 235.011719 126.738281 C 235.394531 125.941406 235.738281 125.269531 235.972656 124.820312 C 235.460938 121.746094 234.957031 118.683594 234.460938 115.628906 C 235.515625 113.15625 236.890625 110.882812 238.59375 108.800781 C 239.746094 107.386719 241.019531 106.097656 242.425781 104.933594 Z M 242.425781 104.933594 " fill-opacity="1" fill-rule="nonzero"/><path fill="#032641" d="M 260.628906 73.09375 C 260.769531 72.957031 264.570312 75.683594 267.894531 80.046875 C 270.363281 83.324219 271.585938 86.214844 272.628906 88.753906 C 275.855469 96.609375 276.378906 103.589844 276.472656 105.140625 C 276.609375 107.265625 276.527344 108.390625 276.886719 110.898438 C 277.308594 113.878906 278.039062 116.78125 279.082031 119.609375 L 262.675781 126.191406 L 277.160156 136.886719 C 274.785156 140.695312 272.085938 144.261719 269.058594 147.582031 C 267.453125 149.324219 266.246094 150.476562 261.097656 155.332031 L 252.199219 163.695312 L 250.59375 163.625 C 255.917969 159.0625 260.976562 154.214844 265.765625 149.089844 C 269.058594 145.566406 272.039062 142.097656 274.757812 138.738281 C 275.003906 138.324219 275.25 137.914062 275.511719 137.503906 L 261.507812 126.121094 L 277.640625 119.195312 C 276.949219 118.339844 276.476562 117.378906 276.222656 116.308594 C 275.972656 115.238281 275.964844 114.167969 276.199219 113.09375 C 276.035156 111.832031 275.800781 109.96875 275.648438 107.675781 C 275.472656 105.042969 275.539062 104.304688 275.445312 102.742188 C 275.195312 98.832031 274.304688 95.898438 273.453125 93.140625 C 272.601562 90.382812 271.957031 88.300781 270.433594 85.53125 C 269.199219 83.308594 268.042969 81.839844 266.109375 79.429688 C 262.785156 75.257812 260.507812 73.214844 260.628906 73.09375 Z M 260.628906 73.09375 " fill-opacity="1" fill-rule="nonzero"/><path fill="#032641" d="M 223.972656 96.40625 C 220.777344 103.71875 217.570312 111.023438 214.347656 118.320312 C 215.941406 121.199219 217.542969 124.078125 219.15625 126.957031 L 210.863281 129.933594 C 211.316406 134.625 211.753906 139.328125 212.195312 144.015625 C 214.007812 151.394531 216.242188 159.238281 219.015625 167.464844 C 220.925781 173.117188 222.929688 178.464844 224.976562 183.511719 L 225.773438 182.414062 C 223.191406 176.351562 221.1875 171.101562 219.703125 167 C 215.75 156.125 214.183594 149.898438 213.609375 147.582031 C 213.222656 145.992188 212.933594 144.675781 212.742188 143.785156 C 212.296875 140.691406 212.011719 137.582031 211.878906 134.457031 C 211.808594 133.113281 211.78125 131.796875 211.78125 130.523438 L 220.253906 127.371094 C 219.167969 125.695312 218.070312 123.898438 217 121.980469 C 216.367188 120.855469 215.777344 119.730469 215.214844 118.648438 L 216.863281 114.710938 C 219.210938 109.15625 221.570312 103.644531 223.960938 98.214844 C 224.164062 97.777344 224.386719 97.351562 224.605469 96.925781 Z M 223.972656 96.40625 " fill-opacity="1" fill-rule="nonzero"/><path fill="#032641" d="M 305.9375 94.445312 C 305.007812 94.816406 304.148438 95.3125 303.355469 95.925781 C 300.691406 98.035156 299.894531 100.917969 298.785156 105.152344 C 296.667969 113.21875 295.613281 117.25 295.488281 118.140625 C 294.734375 123.476562 294.882812 127.507812 295.023438 131.03125 C 295.253906 136.761719 295.476562 141.988281 297.683594 148.308594 C 298.785156 151.453125 300.21875 154.4375 301.984375 157.265625 C 299.898438 152.753906 298.375 148.066406 297.410156 143.195312 C 296.078125 136.503906 296.203125 131.332031 296.3125 127.011719 C 296.3125 127.011719 296.503906 118.675781 298.136719 111.378906 C 298.703125 108.871094 299.414062 106.523438 299.414062 106.523438 C 299.921875 104.878906 300.375 103.726562 301.253906 101.410156 C 302.132812 99.09375 302.3125 98.777344 302.710938 98.214844 C 303.371094 97.28125 304.207031 96.101562 305.730469 95.652344 C 307.640625 95.101562 309.328125 96.046875 309.753906 96.308594 Z M 305.9375 94.445312 " fill-opacity="1" fill-rule="nonzero"/><path fill="#032641" d="M 304.726562 130.480469 C 304.496094 130.496094 305.015625 138.476562 304.714844 149.679688 C 304.578125 155.015625 304.304688 159.375 304.082031 162.253906 L 306.652344 162.226562 C 306.582031 157.277344 306.390625 150.339844 305.828125 142 C 305.457031 136.378906 304.933594 130.46875 304.726562 130.480469 Z M 304.726562 130.480469 " fill-opacity="1" fill-rule="nonzero"/><path fill="#032641" d="M 324.882812 120.183594 C 325.308594 125.65625 325.40625 130.097656 325.417969 133.128906 C 325.445312 138.96875 325.15625 141.070312 326.242188 143.921875 C 327.875 148.242188 331.335938 150.902344 333.835938 152.421875 C 332.1875 151.449219 329.359375 149.449219 328.027344 145.9375 C 327.640625 144.9375 327.421875 143.921875 327.273438 141.890625 C 326.988281 138.171875 327.136719 134.46875 327.710938 130.785156 C 327.453125 130.011719 327.238281 129.230469 327.066406 128.4375 C 326.722656 126.78125 326.722656 125.804688 326.585938 124.820312 C 326.449219 123.832031 326.007812 122.074219 324.882812 120.183594 Z M 324.882812 120.183594 " fill-opacity="1" fill-rule="nonzero"/><path fill="#032641" d="M 310.933594 154.300781 C 310.933594 154.179688 315.835938 154.355469 317.796875 154.507812 C 322.988281 154.878906 331.652344 156.660156 343.679688 164.3125 C 343.609375 164.65625 343.457031 165.300781 342.921875 165.683594 C 342.386719 166.066406 341.453125 165.972656 341.070312 165.890625 C 338.078125 165.246094 335.027344 164.765625 332.078125 163.96875 C 329.851562 163.375 327.585938 163.078125 325.28125 163.078125 C 326.296875 162.664062 327.347656 162.414062 328.4375 162.324219 C 329.976562 162.1875 330.9375 162.433594 333.039062 162.667969 C 334.027344 162.777344 335.46875 162.898438 337.226562 162.941406 C 335.800781 161.964844 334.3125 161.097656 332.761719 160.335938 C 330.8125 159.375 329.921875 159.171875 321.4375 156.566406 C 318.691406 155.714844 317.660156 155.398438 315.945312 155.054688 C 313.074219 154.480469 310.921875 154.382812 310.933594 154.300781 Z M 310.933594 154.300781 " fill-opacity="1" fill-rule="nonzero"/><path fill="#032641" d="M 322.660156 164.574219 C 326.4375 165.5 330.0625 166.832031 333.539062 168.570312 C 337.019531 170.304688 340.261719 172.40625 343.265625 174.871094 C 340.082031 172.9375 337.265625 171.484375 335.027344 170.414062 C 333.078125 169.484375 331.691406 168.808594 329.8125 168.152344 C 326.902344 167.121094 323.90625 166.457031 320.832031 166.164062 Z M 322.660156 164.574219 " fill-opacity="1" fill-rule="nonzero"/><path fill="#032641" d="M 197.351562 139.628906 C 197.902344 140.148438 198.710938 140.917969 199.660156 141.890625 C 202.28125 144.578125 205.289062 147.664062 207.277344 151.421875 C 208.074219 152.929688 209.023438 155.152344 209.820312 159.648438 C 211.535156 169.484375 210.628906 179.738281 209.886719 185.5 C 209.832031 179.671875 209.652344 174.777344 209.476562 171.03125 C 209.324219 167.851562 209.171875 165.628906 208.515625 162.734375 C 207.472656 158.167969 205.933594 155.414062 205.355469 154.4375 C 204.476562 152.957031 203.460938 151.257812 201.511719 149.640625 C 200.441406 148.75 198.863281 147.460938 196.433594 146.964844 C 194.984375 146.667969 193.542969 146.691406 192.109375 147.035156 C 193.097656 146.183594 193.867188 145.402344 194.429688 144.824219 C 195.59375 143.59375 196.242188 142.90625 196.75 141.796875 C 197.054688 141.101562 197.257812 140.378906 197.351562 139.628906 Z M 197.351562 139.628906 " fill-opacity="1" fill-rule="nonzero"/><path fill="#032641" d="M 195.472656 155.878906 C 196.695312 155.996094 197.839844 156.363281 198.902344 156.976562 C 200.003906 157.621094 201.085938 158.609375 202.816406 161.636719 C 204.011719 163.722656 205.019531 165.894531 205.835938 168.152344 C 206.304688 169.46875 207.386719 172.734375 208.238281 177.75 C 208.917969 181.769531 209.261719 185.8125 209.269531 189.886719 C 208.992188 186.089844 208.398438 182.339844 207.484375 178.644531 C 206.675781 175.367188 205.617188 171.265625 203.089844 166.4375 C 201.046875 162.5625 198.507812 159.042969 195.472656 155.878906 Z M 195.472656 155.878906 " fill-opacity="1" fill-rule="nonzero"/><path fill="#f7bd89" d="M 250.636719 53.371094 C 250.601562 52.179688 250.726562 51.007812 251.007812 49.847656 C 251.320312 48.601562 251.515625 47.859375 252.1875 47.285156 C 253.148438 46.488281 254.410156 46.597656 254.851562 46.652344 C 255.648438 47.355469 256.347656 48.148438 256.949219 49.027344 C 258.640625 51.492188 258.996094 53.921875 259.382812 56.664062 C 259.847656 60.023438 259.160156 59.324219 259.628906 62.890625 C 259.863281 64.660156 260.230469 66.332031 259.324219 67.085938 C 258.941406 67.414062 258.421875 67.457031 258.050781 67.441406 C 258.117188 68.058594 258.226562 69.035156 258.421875 70.238281 C 258.488281 70.707031 258.84375 72.84375 259.65625 76.273438 C 260.191406 78.507812 260.34375 78.894531 260.382812 79.921875 C 260.421875 81.035156 260.296875 82.132812 260.011719 83.210938 C 259.257812 86.339844 257.515625 89.125 256.304688 90.890625 C 254.382812 93.746094 251.773438 97.542969 247.203125 101.230469 C 244.675781 103.273438 243.332031 103.824219 242.492188 104.113281 C 239.445312 105.140625 236.671875 104.714844 235.121094 104.332031 C 232.644531 102.871094 230.253906 101.292969 227.941406 99.585938 C 225.882812 98.0625 226.527344 98.40625 221.984375 94.828125 C 218.316406 91.933594 216.917969 90.945312 215.035156 88.792969 C 213.5 87.039062 212.796875 85.832031 212.566406 85.40625 C 211.398438 83.335938 210.890625 81.445312 210.546875 80.113281 C 210.269531 79.027344 210.054688 77.933594 209.902344 76.824219 C 209.339844 76.136719 208.542969 75.148438 207.582031 73.941406 C 205.753906 71.625 204.820312 70.445312 204.050781 69.144531 C 203.246094 67.777344 202.582031 66.347656 202.0625 64.851562 C 200.523438 60.65625 201.347656 59.898438 199.796875 55.511719 C 199.355469 54.304688 198.972656 53.441406 198.710938 51.90625 C 198.480469 50.527344 198.445312 49.140625 198.601562 47.75 L 199.328125 47.792969 C 200.839844 49.164062 202.492188 50.339844 204.285156 51.316406 C 205.09375 51.757812 205.929688 52.152344 206.785156 52.496094 C 207.980469 52.960938 209.226562 53.441406 210.78125 53.59375 C 212.375 53.726562 213.921875 53.515625 215.421875 52.960938 C 217.4375 52.261719 218.675781 51.179688 221.308594 48.667969 C 222.476562 47.542969 228.023438 42.222656 231.304688 39.25 C 232.367188 38.339844 233.503906 37.53125 234.710938 36.820312 C 236.960938 35.476562 237.839844 35.410156 238.308594 35.410156 C 239.523438 35.4375 240.578125 35.863281 241.476562 36.683594 C 241.917969 37.066406 242.578125 37.808594 243.359375 40.894531 C 243.839844 42.757812 243.714844 42.964844 244.265625 45.652344 C 244.925781 48.957031 245.390625 50.121094 246.117188 51.164062 C 246.847656 52.207031 247.574219 52.726562 248.027344 52.960938 C 248.855469 53.347656 249.726562 53.484375 250.636719 53.371094 Z M 250.636719 53.371094 " fill-opacity="1" fill-rule="nonzero"/><path fill="#f7bd89" d="M 183.871094 168.234375 L 188.855469 172.210938 C 189.195312 172.582031 189.5 172.980469 189.773438 173.40625 C 190.914062 175.1875 190.640625 176.1875 191.324219 178.027344 C 192.273438 180.523438 193.496094 180.453125 193.753906 182.496094 C 193.835938 183.128906 194.015625 184.554688 193.070312 185.375 C 192.328125 186.019531 191.132812 186.089844 189.992188 185.609375 C 187.90625 180.992188 186.15625 176.25 184.734375 171.386719 C 184.433594 170.332031 184.132812 169.277344 183.871094 168.234375 Z M 183.871094 168.234375 " fill-opacity="1" fill-rule="nonzero"/><path fill="#f7bd89" d="M 189.707031 186.664062 C 190.117188 187.582031 190.5 188.421875 190.253906 189.40625 C 190.214844 189.558594 189.882812 190.777344 188.746094 191.257812 C 187.605469 191.738281 186.121094 190.847656 185.929688 190.710938 C 185.390625 190.296875 185 189.769531 184.761719 189.132812 C 184.160156 189.148438 183.589844 189.285156 183.046875 189.542969 C 182.15625 189.957031 181.769531 190.519531 180.851562 191.535156 C 179.382812 193.152344 179.367188 192.824219 178.308594 194.070312 C 177.253906 195.316406 177.308594 195.621094 176.25 196.949219 C 175.410156 198.007812 174.472656 198.964844 173.4375 199.828125 C 171.347656 201.53125 169.539062 202.203125 168.824219 202.449219 C 168.109375 202.695312 167.808594 202.792969 167.339844 202.792969 C 166.035156 202.832031 165.445312 202.105469 163.59375 201.339844 C 162.734375 200.980469 161.851562 200.707031 160.941406 200.515625 C 158.511719 199.941406 158.210938 200.351562 157.179688 199.871094 C 155.726562 199.183594 154.324219 197.375 154.433594 195.304688 C 154.546875 193.234375 155.863281 192.207031 156.179688 191.917969 C 156.207031 189.269531 156.246094 186.609375 156.273438 183.964844 C 158.609375 182.632812 159.390625 181 159.652344 180.300781 C 160.40625 178.367188 160.105469 176.09375 160.023438 175.460938 C 159.804688 173.800781 159.363281 173.210938 159.75 172.171875 C 160.132812 171.195312 160.804688 170.492188 161.765625 170.070312 C 162.808594 169.632812 163.34375 170.058594 164.238281 169.523438 C 165.128906 168.988281 165.445312 168.082031 165.515625 167.878906 C 166.089844 166.300781 165.046875 165.492188 165.609375 163.765625 C 165.734375 163.394531 166.023438 162.488281 166.792969 162.117188 C 167.558594 161.75 167.929688 162.007812 168.988281 162.199219 C 170.019531 162.390625 171.058594 162.515625 172.105469 162.570312 C 174.519531 162.667969 175.042969 161.886719 176.59375 162.394531 C 176.992188 162.515625 177.84375 162.804688 178.421875 163.570312 C 178.996094 164.339844 178.734375 165.273438 179.148438 166.863281 C 179.382812 167.742188 179.820312 168.453125 180.710938 169.878906 C 181.769531 171.609375 182.125 171.746094 183.089844 173.265625 C 183.871094 174.5 183.828125 174.734375 184.832031 176.65625 C 186.164062 179.21875 186.328125 178.984375 187.480469 181.222656 C 188.632812 183.457031 187.933594 182.6875 189.707031 186.664062 Z M 189.707031 186.664062 " fill-opacity="1" fill-rule="nonzero"/><path fill="#f7bd89" d="M 301.1875 176.792969 C 305.386719 176.628906 309.621094 176.488281 313.886719 176.378906 L 319.238281 176.242188 C 319.777344 176.585938 320.570312 177.242188 320.957031 178.300781 C 321.628906 180.179688 320.710938 182.605469 318.554688 184.195312 C 314.320312 184.808594 310.085938 184.808594 305.855469 184.195312 C 303.5625 183.863281 301.308594 183.347656 299.097656 182.648438 C 298.722656 182.003906 298.550781 181.308594 298.578125 180.5625 C 298.660156 178.164062 301.035156 176.875 301.1875 176.792969 Z M 301.1875 176.792969 " fill-opacity="1" fill-rule="nonzero"/><path fill="#f7bd89" d="M 284.4375 185.636719 C 288.210938 186.074219 291.371094 186.390625 293.703125 186.597656 C 297.164062 186.898438 298.082031 186.910156 299.058594 186.871094 C 302.710938 186.679688 305.703125 185.527344 307.84375 184.445312 L 312.375 184.648438 C 312.632812 184.941406 312.832031 185.269531 312.964844 185.636719 C 313.089844 185.953125 313.128906 186.253906 313.144531 187.253906 C 313.15625 187.667969 313.15625 188.214844 313.144531 188.859375 L 310.042969 191.875 C 310.015625 193.578125 309.972656 195.289062 309.945312 196.992188 C 309.457031 197.613281 308.878906 198.128906 308.203125 198.539062 C 307.5 198.984375 306.738281 199.292969 305.921875 199.460938 C 305.71875 199.742188 305.5625 200.046875 305.457031 200.378906 C 305.125 201.460938 305.648438 202.066406 305.375 203.339844 C 305.289062 203.765625 305.132812 204.164062 304.90625 204.535156 C 304.597656 205.046875 304.1875 205.460938 303.671875 205.765625 C 302.03125 206.015625 300.386719 206.167969 298.730469 206.21875 C 296.328125 206.304688 293.933594 206.199219 291.546875 205.90625 C 289.71875 205.710938 287.898438 205.421875 286.097656 205.039062 C 286.015625 205 284.492188 204.394531 284.230469 202.886719 C 284.179688 202.5625 284.183594 202.242188 284.246094 201.917969 C 284.3125 201.597656 284.429688 201.292969 284.597656 201.015625 C 284.769531 200.734375 284.984375 200.492188 285.242188 200.289062 C 285.5 200.085938 285.785156 199.933594 286.097656 199.828125 C 285.214844 199.570312 284.410156 199.160156 283.683594 198.59375 C 282.96875 198.046875 282.335938 197.554688 282.171875 196.71875 C 282.007812 195.878906 282.238281 195.511719 282.390625 195.070312 C 282.59375 194.464844 282.933594 193.949219 283.40625 193.523438 C 283.894531 193.082031 284.457031 192.789062 285.097656 192.644531 C 284.339844 192.457031 283.667969 192.109375 283.078125 191.601562 C 282.707031 191.257812 282.183594 190.792969 281.980469 190.039062 C 281.675781 188.871094 282.335938 187.832031 282.664062 187.296875 C 283.117188 186.59375 283.707031 186.042969 284.4375 185.636719 Z M 284.4375 185.636719 " fill-opacity="1" fill-rule="nonzero"/><g clip-path="url(#63fd8ad233)"><path fill="#2f1e12" d="M 209.132812 18.953125 C 212.179688 17.183594 214.707031 16.414062 217.644531 15.523438 C 220.101562 14.769531 223.191406 13.851562 227.390625 13.605469 C 230.015625 13.433594 232.625 13.570312 235.21875 14.015625 C 237.085938 14.34375 238.925781 14.6875 241.121094 15.796875 C 242.738281 16.636719 244.203125 17.6875 245.515625 18.953125 C 247.835938 21.160156 249.015625 23.339844 250.183594 25.535156 C 251.378906 27.816406 252.339844 30.195312 253.066406 32.664062 C 254.402344 37.234375 255 41.894531 254.851562 46.652344 C 254.425781 46.597656 253.148438 46.476562 252.1875 47.285156 C 252.023438 47.433594 251.542969 47.886719 251.089844 49.53125 C 250.757812 50.792969 250.605469 52.070312 250.636719 53.371094 C 249.976562 53.425781 249 53.425781 248.027344 52.960938 C 246.171875 52.070312 245.488281 50.09375 244.828125 48.105469 C 244.402344 46.832031 244.484375 46.625 243.359375 40.894531 C 243.042969 39.277344 242.796875 38.082031 241.808594 37 C 241.53125 36.710938 240.683594 35.792969 239.335938 35.492188 C 237.992188 35.1875 236.523438 35.722656 234.710938 36.820312 C 232.085938 38.410156 230.371094 40.015625 228.492188 41.800781 L 222.039062 47.929688 C 219.867188 50.109375 218.878906 51.261719 216.820312 52.316406 C 215.96875 52.753906 214.554688 53.46875 212.605469 53.648438 C 212.082031 53.6875 210.203125 53.8125 206.933594 52.550781 C 204.105469 51.433594 201.570312 49.847656 199.328125 47.792969 L 198.601562 47.75 C 198.535156 48.160156 198.488281 48.570312 198.464844 48.984375 C 198.367188 50.78125 198.753906 52.195312 199.109375 53.453125 C 199.300781 54.152344 199.53125 54.839844 199.796875 55.511719 C 198.851562 55.097656 197.964844 54.582031 197.136719 53.964844 C 196.308594 53.347656 195.5625 52.648438 194.894531 51.859375 C 194.226562 51.070312 193.660156 50.21875 193.1875 49.300781 C 192.71875 48.378906 192.359375 47.421875 192.109375 46.421875 C 192.078125 45.234375 192.167969 44.0625 192.382812 42.894531 C 192.535156 42.046875 192.78125 41.03125 193.617188 38.835938 C 194.289062 37.054688 194.910156 35.421875 195.992188 33.296875 C 196.722656 31.882812 197.957031 29.5 200.015625 26.90625 C 202.5625 23.691406 205.601562 21.039062 209.132812 18.953125 Z M 209.132812 18.953125 " fill-opacity="1" fill-rule="nonzero"/></g><path fill="#2f1e12" d="M 223.890625 64.890625 C 224.882812 64.40625 225.820312 63.835938 226.707031 63.175781 C 228.449219 61.875 228.984375 60.957031 230.617188 59.476562 C 231.839844 58.363281 233.101562 57.226562 234.601562 56.59375 C 235.535156 56.199219 238.222656 55.304688 242.492188 57.144531 C 241.160156 57.136719 239.832031 57.226562 238.511719 57.417969 C 236.90625 57.652344 236.109375 57.761719 235.148438 58.242188 C 234.75 58.433594 234.613281 58.542969 232.402344 60.367188 L 229.863281 62.421875 C 228.558594 63.4375 227.898438 63.960938 227.390625 64.207031 C 226.28125 64.726562 225.113281 64.953125 223.890625 64.890625 Z M 223.890625 64.890625 " fill-opacity="1" fill-rule="nonzero"/><path fill="#2f1e12" d="M 203.351562 67.882812 C 203.640625 67.511719 204.09375 67.058594 204.738281 66.949219 C 205.605469 66.796875 206.070312 67.386719 207.347656 67.910156 C 207.925781 68.140625 208.871094 68.265625 210.78125 68.527344 C 211.5625 68.636719 212.648438 68.757812 213.9375 68.867188 C 212.582031 69.195312 211.210938 69.332031 209.820312 69.28125 C 208.800781 69.238281 208.128906 69.101562 206.660156 69.074219 C 205.550781 69.046875 204.628906 69.101562 204.050781 69.144531 Z M 203.351562 67.882812 " fill-opacity="1" fill-rule="nonzero"/><path fill="#2f1e12" d="M 208.582031 74.492188 C 208.789062 74.21875 209.765625 75.082031 211.121094 75.246094 C 212.933594 75.449219 214.664062 74.3125 216.132812 72.84375 C 216.003906 73.753906 215.636719 74.550781 215.035156 75.246094 C 214.429688 75.90625 213.699219 76.363281 212.839844 76.617188 C 212.34375 76.753906 211.492188 77 210.574219 76.683594 C 209.214844 76.21875 208.351562 74.777344 208.582031 74.492188 Z M 208.582031 74.492188 " fill-opacity="1" fill-rule="nonzero"/><path fill="#2f1e12" d="M 231.03125 67.496094 C 231.097656 67.265625 232.636719 67.964844 234.460938 67.703125 C 237.125 67.304688 239.128906 65.042969 240.570312 62.628906 C 240.597656 63.011719 240.75 65.523438 238.855469 67.359375 C 238.003906 68.171875 236.996094 68.675781 235.835938 68.867188 C 233.226562 69.292969 230.949219 67.773438 231.03125 67.496094 Z M 231.03125 67.496094 " fill-opacity="1" fill-rule="nonzero"/><path fill="#2f1e12" d="M 166.433594 129.753906 C 166.515625 129.617188 167.050781 128.796875 168.082031 128.660156 C 168.539062 128.59375 168.972656 128.664062 169.386719 128.863281 C 177.882812 153.617188 181.34375 162.914062 182.304688 164.722656 C 182.933594 165.847656 183.453125 167.015625 183.871094 168.234375 C 184.269531 169.414062 184.390625 170.070312 184.734375 171.386719 C 185.148438 172.925781 185.503906 173.980469 186.230469 176.09375 C 187.617188 180.164062 189.199219 183.8125 189.992188 185.609375 C 190.007812 187.046875 190.210938 188.460938 190.597656 189.847656 C 190.90625 190.933594 191.328125 191.976562 191.859375 192.972656 L 189.265625 193.835938 L 188.015625 191.5625 C 188.320312 191.507812 188.605469 191.402344 188.871094 191.25 C 189.140625 191.097656 189.375 190.90625 189.574219 190.671875 C 189.773438 190.4375 189.929688 190.175781 190.039062 189.890625 C 190.148438 189.601562 190.207031 189.304688 190.214844 188.996094 C 190.28125 188.226562 190.089844 187.679688 189.707031 186.664062 C 188.976562 184.71875 188.605469 183.746094 188.292969 183.03125 C 187.714844 181.714844 187.21875 180.742188 187.109375 180.535156 C 186.753906 179.808594 185.972656 178.300781 184.226562 175.449219 C 182.664062 172.882812 181.867188 171.59375 181.304688 170.800781 C 180.011719 168.960938 179.285156 168.207031 179.148438 166.863281 C 179.121094 166.132812 179.023438 165.410156 178.859375 164.695312 C 178.742188 164.144531 178.582031 163.605469 178.378906 163.078125 Z M 166.433594 129.753906 " fill-opacity="1" fill-rule="nonzero"/><path fill="#e2a065" d="M 223.960938 91.015625 C 224.855469 91.648438 225.839844 92.085938 226.910156 92.316406 C 227.296875 92.402344 228.777344 92.6875 231.675781 91.933594 C 233.761719 91.402344 235.71875 90.570312 237.550781 89.4375 C 239.664062 88.105469 241.496094 86.460938 243.042969 84.5 C 242.605469 84.488281 242.261719 84.269531 242.21875 84.023438 C 242.179688 83.773438 242.589844 83.363281 242.90625 83.265625 C 243.523438 83.0625 244.320312 83.515625 244.964844 84.363281 L 243.867188 84.707031 C 243.46875 85.132812 242.878906 85.75 242.152344 86.488281 C 240.597656 88.039062 239.445312 89.207031 237.894531 90.355469 C 236.34375 91.507812 235.355469 92.25 233.84375 92.757812 C 232.335938 93.265625 230.988281 93.277344 228.929688 93.238281 C 226.238281 93.195312 225.414062 92.703125 224.949219 92.316406 C 224.527344 91.953125 224.199219 91.519531 223.960938 91.015625 Z M 223.960938 91.015625 " fill-opacity="1" fill-rule="nonzero"/><path fill="#e2a065" d="M 231.058594 95.226562 C 232.164062 95.339844 233.261719 95.285156 234.351562 95.0625 C 234.929688 94.945312 235.492188 94.785156 236.042969 94.582031 C 238.417969 93.632812 239.691406 90.917969 240.089844 90.015625 C 240.09375 91.007812 239.894531 91.957031 239.5 92.867188 C 239.15625 93.664062 238.582031 95.007812 237.207031 95.679688 C 236.261719 96.128906 235.367188 96.0625 234.121094 95.953125 C 233.066406 95.855469 232.042969 95.613281 231.058594 95.226562 Z M 231.058594 95.226562 " fill-opacity="1" fill-rule="nonzero"/><path fill="#e2a065" d="M 207.746094 74.148438 C 207.757812 73.683594 207.839844 72.460938 208.71875 71.695312 C 208.898438 71.542969 209.296875 71.242188 211.371094 71.007812 C 213.441406 70.773438 214.488281 70.679688 215.351562 71.144531 C 215.597656 71.28125 216.601562 71.84375 217 73.023438 C 217.398438 74.203125 216.984375 75.738281 215.902344 76.824219 C 216.285156 76.628906 217.535156 75.972656 218.136719 74.492188 C 218.386719 73.890625 218.496094 73.261719 218.46875 72.613281 C 218.988281 73.207031 219.445312 73.847656 219.839844 74.53125 C 220.457031 75.617188 220.734375 76.492188 221.351562 79.058594 C 222.121094 82.253906 222.285156 83.308594 223 85.230469 C 223.4375 86.421875 223.738281 86.996094 224.136719 87.558594 C 225.058594 88.835938 226.144531 89.507812 226.980469 90.027344 C 228.269531 90.824219 228.972656 91.25 229.945312 91.222656 C 231.222656 91.179688 232.113281 90.398438 232.691406 89.890625 C 234.710938 88.148438 235.203125 85.722656 235.355469 84.679688 L 233.335938 80.660156 C 233.792969 81.71875 233.941406 82.8125 233.789062 83.953125 C 233.757812 84.382812 233.652344 84.792969 233.472656 85.1875 C 232.882812 86.476562 231.648438 87.039062 230.496094 87.558594 C 229.09375 88.191406 228.148438 88.628906 226.882812 88.382812 C 225.9375 88.191406 225.144531 87.734375 224.507812 87.011719 C 224.289062 86.765625 223.710938 86.050781 223.355469 83.996094 C 223 81.9375 223.425781 81.335938 223.175781 79.289062 C 223.066406 78.359375 222.890625 76.945312 222.078125 75.394531 C 221.269531 73.847656 220.03125 72.734375 218.648438 71.554688 C 217.480469 70.582031 216.890625 70.089844 216.078125 69.871094 C 214.925781 69.566406 214.488281 69.964844 212.507812 69.691406 C 211.5625 69.554688 211.574219 69.445312 210.449219 69.292969 C 209.984375 69.226562 209.3125 69.144531 207.675781 69.117188 C 206.742188 69.101562 205.519531 69.089844 204.050781 69.144531 C 205.289062 70.800781 206.511719 72.476562 207.746094 74.148438 Z M 207.746094 74.148438 " fill-opacity="1" fill-rule="nonzero"/><path fill="#e2a065" d="M 227.390625 64.207031 C 226.832031 65.164062 226.527344 66.199219 226.472656 67.304688 C 226.445312 68.085938 226.417969 68.910156 226.925781 69.691406 C 227.652344 70.773438 228.902344 71.007812 229.21875 71.0625 L 234.160156 69.320312 C 232.402344 69.292969 230.921875 68.609375 230.496094 67.496094 C 230.246094 66.8125 230.453125 66.113281 230.6875 65.304688 C 230.921875 64.496094 231.25 63.371094 232.238281 62.5625 C 233.226562 61.75 234.847656 61.710938 236.726562 61.820312 C 238.046875 61.914062 239.328125 62.183594 240.570312 62.628906 L 241.476562 57.625 C 240.644531 57.417969 239.796875 57.332031 238.9375 57.363281 C 237.613281 57.394531 236.351562 57.6875 235.148438 58.242188 C 233.777344 58.886719 233.253906 59.558594 231.839844 60.820312 C 230.445312 62.0625 228.960938 63.191406 227.390625 64.207031 Z M 227.390625 64.207031 " fill-opacity="1" fill-rule="nonzero"/><path fill="#e2a065" d="M 251.417969 53.371094 C 251.953125 53.917969 252.457031 54.488281 252.929688 55.085938 C 253.78125 56.183594 254.21875 56.746094 254.300781 57.417969 C 254.382812 58.089844 254.207031 57.871094 253.957031 59.679688 C 253.792969 60.847656 253.820312 61.121094 253.957031 61.394531 C 254.21875 61.945312 254.851562 62.449219 255.46875 62.421875 C 256.085938 62.394531 256.746094 61.4375 257.320312 60.296875 C 257.898438 59.160156 258.542969 57.84375 258.558594 56.117188 C 258.570312 54.070312 257.761719 52.714844 256.703125 50.90625 C 255.933594 49.601562 255.167969 48.300781 254.234375 48.367188 C 253.613281 48.410156 253.203125 49.027344 252.722656 49.738281 C 251.984375 50.839844 251.550781 52.054688 251.417969 53.371094 Z M 251.417969 53.371094 " fill-opacity="1" fill-rule="nonzero"/><path fill="#ffffff" d="M 258.789062 72.324219 C 258.859375 72.296875 259.351562 73.96875 260.066406 75.902344 C 261.316406 79.304688 261.851562 79.757812 262.539062 81.664062 C 263.226562 83.570312 263.375 85.816406 263.636719 90.164062 C 263.84375 93.691406 263.953125 95.445312 263.816406 97.570312 C 263.625 100.683594 263.046875 103.164062 261.523438 108.089844 C 259.558594 114.519531 258.871094 115.769531 256.582031 122.625 C 254.289062 129.480469 254.273438 130.414062 252.378906 135.515625 C 250.609375 140.273438 249.027344 143.757812 248.617188 144.648438 C 246.023438 150.355469 243.019531 155.839844 239.609375 161.105469 C 239.554688 148.699219 239.511719 136.28125 239.472656 123.859375 C 241.707031 121.015625 243.949219 118.179688 246.199219 115.355469 C 245.570312 113.164062 244.800781 110.84375 243.867188 108.429688 C 243.398438 107.214844 242.917969 106.050781 242.425781 104.933594 C 240.519531 106.523438 238.851562 108.328125 237.414062 110.351562 C 236.242188 112.003906 235.257812 113.765625 234.460938 115.628906 C 234.957031 118.683594 235.460938 121.746094 235.972656 124.820312 C 234.902344 126.890625 233.75 129.316406 232.609375 132.085938 C 231.25 135.363281 230.289062 138.175781 229.65625 140.175781 C 229.027344 142.179688 228.394531 144.386719 227.324219 148.953125 C 226.484375 152.519531 225.414062 157.347656 224.304688 163.214844 C 223.441406 158.660156 222.9375 154.066406 222.792969 149.433594 C 222.667969 145.402344 222.957031 141.125 223.546875 132.566406 C 223.851562 128.152344 224.097656 125.738281 224.371094 123.515625 C 224.480469 122.652344 224.742188 120.785156 225.265625 117.070312 C 225.785156 113.355469 226.058594 111.339844 226.15625 110.761719 C 226.539062 108.171875 227.1875 104.453125 228.242188 99.804688 L 230.632812 101.480469 C 233.351562 103.414062 233.898438 103.824219 234.875 104.195312 C 236.371094 104.757812 237.632812 104.757812 238.511719 104.757812 C 241.503906 104.730469 243.714844 103.550781 244.992188 102.851562 C 247.078125 101.710938 248.289062 100.492188 250.347656 98.40625 C 252.777344 95.9375 254.300781 93.800781 255.398438 92.25 C 256.867188 90.152344 258.117188 88.355469 259.214844 85.667969 C 260.316406 82.980469 260.410156 81.429688 260.398438 80.46875 C 260.371094 79.714844 260.21875 78.90625 259.902344 77.328125 C 259.3125 74.285156 258.722656 72.339844 258.789062 72.324219 Z M 258.789062 72.324219 " fill-opacity="1" fill-rule="nonzero"/><path fill="#ffffff" d="M 246.96875 163.765625 L 251.734375 164.039062 C 248.207031 166.148438 244.855469 168.503906 241.671875 171.101562 C 234.574219 176.859375 230.21875 182.25 226.707031 186.664062 C 223.726562 190.394531 217.039062 199.226562 211 212.035156 C 209.214844 215.847656 207.882812 219.136719 206.976562 221.539062 L 205.328125 221.714844 C 203.652344 221.097656 201.554688 220.332031 199.109375 219.523438 C 197.847656 219.109375 194.386719 218 190.5 216.972656 C 186.617188 215.941406 180.355469 214.296875 172.105469 213.488281 C 166.339844 212.941406 162 213.035156 157.828125 213.132812 C 152.742188 213.242188 147.675781 213.605469 142.628906 214.230469 C 142.867188 214.246094 143.105469 214.21875 143.335938 214.152344 C 143.566406 214.082031 143.777344 213.976562 143.972656 213.835938 C 144.167969 213.691406 144.328125 213.519531 144.460938 213.320312 C 144.59375 213.117188 144.6875 212.898438 144.742188 212.664062 C 144.816406 212.242188 144.761719 211.839844 144.574219 211.453125 C 144.386719 211.066406 144.105469 210.769531 143.726562 210.566406 L 153.613281 208.824219 C 168.5625 206.21875 170.609375 205.917969 172.171875 205.710938 C 175 205.328125 181.289062 204.535156 189.390625 204.027344 C 193.273438 203.792969 196.609375 203.667969 199.191406 203.613281 C 200.605469 202.242188 202.335938 200.472656 204.257812 198.347656 C 207.03125 195.261719 209.351562 192.355469 211.246094 189.792969 C 212.523438 188.050781 214.046875 185.882812 215.667969 183.320312 C 215.035156 189.875 214.394531 196.429688 213.746094 202.984375 C 215.894531 198.15625 218.378906 193.507812 221.199219 189.039062 C 223.011719 186.171875 224.480469 184.15625 224.976562 183.511719 C 227.089844 180.617188 229.390625 177.875 231.867188 175.28125 C 236.921875 170.085938 242.507812 166.316406 246.96875 163.765625 Z M 246.96875 163.765625 " fill-opacity="1" fill-rule="nonzero"/><path fill="#ffffff" d="M 214.292969 225.378906 L 317.632812 220.261719 L 365.6875 229.121094 L 292.742188 238.636719 Z M 214.292969 225.378906 " fill-opacity="1" fill-rule="nonzero"/><path fill="#ffffff" d="M 216.792969 225.800781 L 212.933594 226.117188 L 290.957031 239.597656 L 332.832031 234.386719 L 364.410156 230.480469 L 361.320312 229.695312 L 292.742188 238.636719 Z M 216.792969 225.800781 " fill-opacity="1" fill-rule="nonzero"/><path fill="#ffffff" d="M 292.46875 242.890625 L 211.464844 227.117188 L 214.855469 226.445312 L 290.957031 239.597656 L 358.644531 231.917969 L 366.605469 233.152344 Z M 292.46875 242.890625 " fill-opacity="1" fill-rule="nonzero"/><path fill="#ffffff" d="M 214.96875 227.789062 L 197.1875 228.695312 L 275.621094 242.285156 L 284.410156 241.324219 Z M 214.96875 227.789062 " fill-opacity="1" fill-rule="nonzero"/><path fill="#ffffff" d="M 125.519531 215.050781 L 211.742188 234.25 L 141.996094 243.027344 L 63.464844 223.28125 Z M 125.519531 215.050781 " fill-opacity="1" fill-rule="nonzero"/><path fill="#ffffff" d="M 64.015625 196.402344 L 136.503906 192.5625 L 154.628906 196.8125 C 155.082031 198.28125 155.792969 198.992188 156.382812 199.378906 C 157.359375 200.007812 158.238281 199.855469 160.941406 200.515625 C 161.628906 200.679688 162.191406 200.84375 162.5625 200.953125 C 163.125 202.421875 163.675781 203.890625 164.238281 205.371094 L 118.382812 211.484375 L 63.328125 201.886719 C 63.273438 201.285156 63.230469 200.695312 63.191406 200.105469 L 71.566406 199.691406 L 63.191406 197.5 Z M 64.015625 196.402344 " fill-opacity="1" fill-rule="nonzero"/><path fill="#2856ac" d="M 253.105469 163.023438 L 325.96875 161.925781 C 322.542969 164.472656 319.386719 167.316406 316.496094 170.457031 C 314.746094 172.359375 313.109375 174.355469 311.59375 176.449219 L 301.1875 176.792969 C 300.160156 177.246094 299.425781 177.984375 298.976562 179.011719 C 298.207031 180.796875 298.976562 182.414062 299.097656 182.648438 L 306.085938 184.222656 L 305.605469 185.445312 C 303.824219 186.152344 301.980469 186.597656 300.074219 186.789062 C 298.734375 186.914062 297.390625 186.914062 296.050781 186.789062 C 291.410156 186.40625 287.074219 185.9375 284.4375 185.636719 C 283.457031 186.15625 282.746094 186.921875 282.308594 187.941406 C 282.128906 188.339844 281.785156 189.148438 281.980469 190.039062 C 282.265625 191.3125 283.503906 192.300781 285.097656 192.644531 C 284.21875 192.859375 283.5 193.320312 282.941406 194.027344 C 282.804688 194.222656 281.757812 195.605469 282.253906 197.019531 C 282.527344 197.800781 283.132812 198.226562 283.941406 198.789062 C 284.605469 199.25 285.324219 199.597656 286.097656 199.828125 C 285.511719 200.019531 285.046875 200.367188 284.699219 200.871094 C 284.335938 201.382812 284.167969 201.949219 284.191406 202.574219 C 284.257812 203.695312 285.054688 204.382812 285.246094 204.535156 C 285.671875 204.863281 286.070312 204.972656 286.714844 205.164062 C 287.214844 205.308594 287.722656 205.398438 288.238281 205.4375 C 290.214844 205.601562 290.394531 205.851562 293.210938 206.070312 C 295.046875 206.21875 296.886719 206.269531 298.730469 206.21875 C 298.109375 208.195312 297.480469 210.15625 296.863281 212.117188 L 296.65625 214.367188 C 290.148438 214.886719 283.648438 215.433594 277.160156 216.011719 C 253.398438 218.097656 229.671875 220.472656 205.972656 223.140625 C 204.902344 222.964844 203.324219 222.691406 201.445312 222.25 C 197.460938 221.304688 194.894531 220.277344 192.519531 219.441406 C 188.964844 218.191406 186.398438 217.589844 181.742188 216.492188 C 181.742188 216.492188 168.851562 213.445312 153.667969 213.886719 C 148.351562 214.035156 143.027344 214.667969 143.027344 214.667969 L 141.105469 214.914062 L 142.710938 214.214844 C 144.605469 213.980469 146.84375 213.75 149.367188 213.558594 C 150.644531 213.445312 153.515625 213.242188 157.25 213.144531 C 160.984375 213.050781 164.511719 212.941406 169.289062 213.269531 C 170.964844 213.378906 173.683594 213.613281 177.035156 214.089844 C 178.640625 214.324219 182.113281 214.875 187.246094 216.132812 C 193.382812 217.640625 199.410156 219.5 205.328125 221.714844 L 206.976562 221.539062 C 207.59375 219.90625 208.679688 217.164062 210.175781 213.84375 C 210.640625 212.800781 221.542969 189.050781 237.140625 175.050781 C 242.464844 170.265625 248.699219 165.945312 248.699219 165.945312 C 250.484375 164.710938 252.023438 163.722656 253.105469 163.023438 Z M 253.105469 163.023438 " fill-opacity="1" fill-rule="nonzero"/></svg>