<svg xmlns="http://www.w3.org/2000/svg" xmlns:xlink="http://www.w3.org/1999/xlink" width="590" zoomAndPan="magnify" viewBox="0 0 442.5 295.499996" height="394" preserveAspectRatio="xMidYMid meet" version="1.0"><defs><clipPath id="297c6b6da6"><path d="M 19.214844 224 L 421 224 L 421 261 L 19.214844 261 Z M 19.214844 224 " clip-rule="nonzero"/></clipPath><clipPath id="d1a25da9f0"><path d="M 19.214844 86 L 101 86 L 101 208 L 19.214844 208 Z M 19.214844 86 " clip-rule="nonzero"/></clipPath></defs><path fill="#fa9a2d" d="M 395.613281 134.066406 C 394.382812 140.1875 393.171875 146.308594 391.910156 152.417969 C 389.480469 164.214844 387.023438 176.003906 384.582031 187.800781 C 384.453125 188.398438 384.425781 189.023438 384.351562 189.636719 C 383.046875 189.441406 383.324219 188.316406 383.1875 187.515625 C 382.585938 183.933594 382.226562 180.3125 381.691406 176.722656 C 381.511719 175.503906 381.367188 174.25 380.613281 173.210938 C 379.308594 171.414062 377.480469 171.492188 376.308594 173.367188 C 375.410156 174.800781 375.546875 176.324219 375.894531 177.855469 C 377.265625 183.890625 378.734375 189.898438 380.175781 195.910156 C 380.488281 197.210938 381.171875 198.582031 380.15625 199.902344 C 379.40625 200.40625 378.539062 200.535156 377.703125 200.414062 C 371.449219 199.527344 365.410156 201.199219 359.3125 201.992188 C 351.269531 203.03125 343.265625 204.417969 335.210938 205.375 C 332.414062 205.710938 329.90625 206.054688 329.21875 209.359375 C 329.074219 209.425781 328.828125 209.46875 328.8125 209.410156 C 328.148438 206.582031 325.742188 207.097656 323.773438 206.78125 C 322.078125 206.359375 320.386719 206.855469 318.691406 206.832031 C 317.183594 207.078125 315.695312 206.996094 314.210938 206.664062 C 310.472656 205.554688 306.589844 205.585938 302.765625 205.195312 C 293.722656 204.265625 284.648438 203.714844 275.570312 203.246094 C 274.871094 203.210938 274.183594 203.140625 273.546875 202.820312 C 272.847656 202.414062 272.519531 201.804688 272.527344 201.003906 C 272.738281 199.558594 273.003906 198.113281 273.203125 196.660156 C 273.589844 193.832031 274.4375 193.007812 277.300781 193.261719 C 280.921875 193.570312 284.539062 193.882812 288.148438 194.300781 C 289.230469 194.429688 290.308594 194.46875 291.382812 194.585938 C 297.484375 195.488281 303.648438 195.699219 309.804688 195.945312 C 313.152344 196.078125 314.3125 195.144531 315.4375 191.925781 C 316.691406 188.347656 317.140625 184.554688 318.277344 180.945312 C 319.652344 174.292969 321.421875 167.726562 322.785156 161.070312 C 322.890625 160.546875 322.941406 160.011719 323.019531 159.480469 C 323.082031 159.113281 323.222656 158.773438 323.351562 158.433594 C 325.09375 152.992188 326.785156 147.527344 329.46875 142.441406 C 329.863281 141.363281 330.410156 140.378906 331.269531 139.597656 C 333.402344 138.496094 334.773438 136.359375 336.976562 135.34375 C 340.957031 133.246094 345.214844 133.511719 349.449219 134.046875 C 353.128906 134.511719 356.789062 135.15625 360.425781 135.863281 C 365.753906 136.898438 369.734375 135.277344 372.605469 130.550781 C 374.773438 126.976562 376.628906 123.238281 378.710938 119.625 C 379.039062 119.054688 379.570312 118.347656 379.035156 117.707031 C 378.53125 117.113281 377.734375 117.429688 377.054688 117.511719 C 375.0625 117.769531 373.058594 117.996094 371.085938 118.359375 C 361.445312 120.121094 352.195312 118.402344 343.015625 115.511719 C 340.078125 114.59375 339.039062 112.644531 338.796875 109.894531 C 338.453125 107.21875 338.929688 104.554688 338.730469 101.847656 C 338.445312 98.015625 337.820312 94.378906 336.03125 90.96875 C 335.78125 90.496094 335.605469 89.980469 335.519531 89.441406 C 335.554688 88.355469 335.101562 87.15625 336.238281 86.328125 C 347.996094 86.363281 359.757812 86.054688 371.511719 86.675781 C 377.648438 87.003906 383.199219 88.816406 387.597656 93.359375 C 388.796875 94.59375 390.101562 95.941406 390.414062 97.554688 C 391.007812 100.644531 392.851562 101.03125 395.40625 100.597656 C 395.855469 100.523438 396.332031 100.570312 396.796875 100.566406 C 402.230469 100.480469 402.175781 100.472656 401.066406 105.871094 C 399.136719 115.25 397.140625 124.609375 395.613281 134.066406 Z M 395.613281 134.066406 " fill-opacity="1" fill-rule="nonzero"/><path fill="#fcf1de" d="M 336.015625 89.539062 C 339.699219 94.667969 339.632812 100.605469 339.660156 106.523438 C 339.664062 107.667969 339.578125 108.816406 339.535156 109.964844 C 339.773438 111.625 339.453125 113.285156 339.5625 114.945312 C 338.089844 119.558594 337.515625 124.398438 336.082031 129.03125 C 335.195312 131.902344 334.164062 134.71875 333.121094 137.53125 C 332.792969 138.414062 332.355469 139.210938 331.5625 139.769531 C 331.074219 140.652344 330.589844 141.53125 330.101562 142.414062 C 329.742188 142.78125 329.273438 142.886719 328.832031 142.726562 C 323.703125 140.921875 318.671875 142.535156 313.625 143.1875 C 312.222656 143.367188 310.894531 143.453125 309.546875 142.996094 C 306.980469 140.925781 306.753906 138.207031 307.414062 135.246094 C 310.414062 133.257812 313.855469 132.773438 317.316406 132.679688 C 318.996094 132.632812 320.332031 134.828125 320.488281 137.09375 C 320.507812 137.335938 320.707031 137.214844 320.792969 137.207031 C 321.167969 137.160156 321.625 137.125 321.378906 136.535156 C 321.011719 135.65625 320.386719 134.960938 319.683594 134.351562 C 318.671875 133.472656 318.523438 132.484375 319.433594 131.535156 C 322.179688 128.675781 322.457031 124.996094 322.777344 121.382812 C 322.96875 119.230469 323.160156 117.070312 323.351562 114.914062 C 323.234375 111.933594 324.167969 109.0625 324.300781 106.554688 C 324.257812 105.796875 323.742188 106.09375 324.054688 106.058594 C 324.167969 106.042969 324.230469 106.066406 324.230469 106.121094 C 324.300781 108.433594 323.753906 110.605469 322.800781 112.695312 C 321.996094 114.363281 321.679688 116.339844 319.878906 117.390625 C 317.035156 118.488281 313.976562 118.535156 311.03125 119.128906 C 308.832031 119.570312 306.621094 119.949219 304.570312 120.914062 C 302.351562 121.953125 301.15625 123.527344 301.164062 126.164062 C 301.179688 129.066406 301.746094 132.042969 300.574219 134.878906 C 300.464844 135.125 300.304688 135.332031 300.097656 135.503906 C 299.46875 135.769531 299.082031 135.457031 298.761719 134.964844 C 298.667969 134.707031 298.636719 134.4375 298.660156 134.167969 C 298.691406 130.066406 299.226562 125.949219 298.300781 121.878906 C 296.816406 118.945312 296.742188 115.8125 297.003906 112.632812 C 298.480469 106.796875 297.9375 100.800781 298.128906 94.867188 C 297.957031 100.550781 298.457031 106.28125 297.128906 111.878906 C 296.753906 113.46875 296.746094 115.113281 296.96875 116.675781 C 297.207031 118.335938 296.628906 119.535156 295.597656 120.609375 C 293.511719 122.78125 291.726562 125.148438 290.363281 127.839844 C 289.945312 128.660156 289.328125 129.355469 288.460938 129.773438 C 287.070312 130.261719 286.078125 129.429688 285.105469 128.679688 C 283.132812 127.164062 281.050781 125.84375 278.777344 124.847656 C 278.117188 124.558594 277.484375 123.996094 276.515625 124.378906 C 277.273438 125.746094 278.550781 126.507812 279.589844 127.496094 C 280.148438 128.023438 280.785156 128.617188 280.441406 129.484375 C 280.066406 130.449219 279.160156 130.472656 278.28125 130.441406 C 277.972656 130.433594 278.363281 130.4375 278.050781 130.421875 C 272.183594 130.089844 270.542969 126.78125 273.429688 121.113281 C 273.78125 120.40625 274.398438 120.023438 275.128906 120.183594 C 277.804688 120.769531 279.058594 119.007812 280.253906 117.164062 C 284.023438 111.355469 288 105.695312 292.167969 100.164062 C 293.875 97.898438 294.332031 95.101562 294.816406 92.371094 C 296.210938 84.507812 300.621094 83.363281 306.839844 82.710938 C 307.363281 82.652344 307.636719 83.109375 307.863281 83.523438 C 308.683594 84.402344 308.195312 85.429688 308.152344 86.386719 C 307.929688 91.257812 310.878906 93.625 315.515625 92.046875 C 319.246094 90.785156 321.574219 87.992188 322.84375 84.300781 C 323.191406 83.285156 323.203125 82.167969 323.820312 81.238281 C 324.484375 80.648438 325.15625 80.980469 325.746094 81.320312 C 328.5625 82.933594 331.421875 84.480469 333.9375 86.554688 C 334.90625 87.34375 335.738281 88.25 336.015625 89.539062 Z M 336.015625 89.539062 " fill-opacity="1" fill-rule="nonzero"/><path fill="#161111" d="M 336.015625 89.539062 C 332.726562 85.761719 328.257812 83.644531 324.089844 81.113281 C 322.890625 80.941406 322.523438 79.960938 322.128906 79.039062 C 321.578125 77.757812 321.230469 76.402344 320.890625 75.054688 C 320.308594 72.761719 319.988281 70.449219 317.832031 68.789062 C 316.515625 67.773438 316.230469 65.835938 315.507812 64.296875 C 314.449219 62.03125 312.535156 60.136719 312.679688 57.34375 C 312.710938 56.710938 312.140625 56.097656 311.3125 55.847656 C 311.722656 56.984375 312.484375 57.871094 312.777344 58.984375 C 313.125 60.316406 312.785156 61.328125 311.453125 61.773438 C 309.957031 62.273438 309.820312 61.136719 309.625 60.109375 C 309.429688 59.074219 308.734375 58.503906 307.757812 58.269531 C 304.171875 57.382812 301.460938 55.039062 298.714844 52.78125 C 296.964844 51.339844 296.078125 49.550781 297.054688 47.246094 C 299.117188 42.363281 303.625 41.671875 308.003906 41.28125 C 317.132812 40.46875 323.492188 45.773438 324.9375 55.007812 C 325.042969 55.683594 324.691406 56.414062 326 56.566406 C 331.296875 57.183594 333.886719 59.773438 334.703125 65.15625 C 335.125 67.953125 335.210938 70.675781 337.632812 72.871094 C 339.324219 74.40625 338.992188 76.839844 338.292969 79.003906 C 337.511719 81.417969 336.527344 83.769531 336.25 86.328125 C 336.164062 87.398438 336.089844 88.46875 336.015625 89.539062 Z M 336.015625 89.539062 " fill-opacity="1" fill-rule="nonzero"/><path fill="#b6795b" d="M 297.050781 47.246094 C 296.808594 49.34375 297.546875 51.078125 299.203125 52.324219 C 302.011719 54.441406 304.585938 56.914062 308.296875 57.601562 C 310.1875 57.953125 311.144531 59.328125 310.089844 61.425781 C 313.234375 60.707031 313.125 59.816406 309.472656 55 C 312.089844 54.398438 313.988281 56 313.652344 58.59375 C 313.574219 59.207031 313.269531 59.765625 313.828125 60.300781 C 315.742188 62.132812 316.441406 64.625 317.433594 66.960938 C 317.917969 68.105469 318.3125 69.292969 319.804688 69.523438 C 320.847656 69.6875 320.703125 70.605469 320.859375 71.335938 C 321.558594 74.71875 321.964844 78.203125 324.089844 81.113281 C 323.773438 86.503906 321.375 90.546875 316.269531 92.597656 C 310.558594 94.894531 306.734375 91.882812 307.449219 85.785156 C 307.539062 85.019531 307.730469 84.273438 307.871094 83.519531 C 308.980469 80.515625 307.339844 78.003906 306.378906 75.382812 C 306.121094 74.671875 305.507812 74.957031 304.988281 75.117188 C 304.035156 75.417969 303.097656 75.839844 302.113281 75.980469 C 299.039062 76.417969 298.566406 76.027344 297.640625 73.089844 C 297.019531 71.132812 296.273438 69.214844 295.527344 67.300781 C 295.402344 66.980469 295.042969 66.578125 294.730469 66.523438 C 292.226562 66.058594 293.007812 64.695312 293.84375 63.351562 C 294.808594 61.8125 295.496094 60.207031 295.375 58.34375 C 295.65625 58.210938 295.886719 58.515625 296.164062 58.441406 C 295.859375 58.28125 295.601562 58.027344 295.257812 57.929688 C 293.941406 56.746094 294.351562 55.25 294.589844 53.839844 C 294.984375 51.492188 295.652344 49.226562 297.050781 47.246094 Z M 297.050781 47.246094 " fill-opacity="1" fill-rule="nonzero"/><path fill="#b47457" d="M 299.054688 135 C 299.335938 135.136719 299.617188 135.277344 299.902344 135.410156 C 302.488281 134.722656 305.070312 133.902344 307.738281 135.046875 C 307.96875 137.632812 307.707031 140.34375 309.609375 142.511719 C 309.351562 143.839844 308.285156 143.578125 307.449219 143.503906 C 305.152344 143.304688 302.84375 143.253906 300.570312 142.867188 C 299.734375 142.613281 299.238281 143.84375 298.351562 143.398438 C 297.449219 142.332031 296.25 141.894531 294.898438 141.78125 C 291.195312 141.472656 288.191406 139.78125 285.585938 137.195312 C 283.808594 135.429688 281.519531 134.410156 279.21875 133.558594 C 275.328125 132.121094 271.332031 130.996094 267.414062 129.625 C 266.316406 129.289062 265.257812 128.851562 264.144531 128.554688 C 263.300781 128.160156 262.449219 127.792969 261.53125 127.582031 C 257.859375 125.988281 254.046875 124.746094 250.519531 122.820312 C 249.269531 122.136719 247.949219 121.789062 246.515625 122.058594 C 243.492188 122.628906 240.53125 122.300781 237.605469 121.453125 C 235.074219 120.835938 232.582031 120.085938 230.070312 119.382812 C 227.164062 118.574219 225.097656 117.015625 225.054688 113.683594 C 226.691406 111.519531 229.152344 112.695312 231.195312 112.164062 C 233.523438 111.753906 235.894531 112.363281 238.214844 111.835938 C 240.671875 111.597656 241.035156 110.902344 239.726562 108.914062 C 239.234375 108.160156 238.71875 107.421875 238.210938 106.675781 C 237.601562 106.011719 237.988281 105.546875 238.554688 105.1875 C 239.074219 104.859375 239.582031 105.046875 240.0625 105.363281 C 240.722656 105.800781 240.765625 106.511719 240.902344 107.1875 C 247.550781 112.753906 253.976562 118.71875 263.21875 119.628906 C 266.621094 120.128906 270.019531 120.621094 273.421875 121.117188 C 273.425781 123.117188 273.597656 125.128906 273.039062 127.089844 C 272.652344 128.449219 273.1875 129.0625 274.570312 129.203125 C 276.023438 129.34375 277.453125 129.648438 278.902344 129.847656 C 279.347656 129.910156 279.910156 129.964844 280.109375 129.441406 C 280.320312 128.914062 279.800781 128.632812 279.472656 128.355469 C 277.683594 126.828125 275.796875 125.390625 274.675781 123.195312 C 275.878906 122.546875 276.6875 123.144531 277.515625 123.476562 C 280.761719 124.753906 283.6875 126.59375 286.4375 128.71875 C 286.996094 129.148438 287.453125 129.679688 288.253906 129.425781 C 290.679688 131.816406 293.640625 133.167969 296.945312 133.8125 C 297.8125 133.960938 298.597656 134.171875 299.054688 135 Z M 299.054688 135 " fill-opacity="1" fill-rule="nonzero"/><path fill="#603a2a" d="M 295.257812 57.925781 C 295.507812 57.574219 295.8125 57.695312 296.015625 57.925781 C 296.554688 58.515625 297.628906 57.722656 297.976562 58.695312 C 298.027344 58.835938 297.859375 59.199219 297.742188 59.222656 C 296.785156 59.417969 295.988281 59.105469 295.375 58.34375 C 295.324219 58.203125 295.28125 58.066406 295.257812 57.925781 Z M 295.257812 57.925781 " fill-opacity="1" fill-rule="nonzero"/><g clip-path="url(#297c6b6da6)"><path fill="#d09565" d="M 389.6875 227.910156 C 393.070312 227.585938 396.429688 228.007812 399.757812 228.441406 C 404.640625 229.070312 409.589844 229.390625 414.269531 231.132812 C 415.953125 231.757812 417.53125 232.558594 418.976562 233.597656 C 421.28125 235.253906 421.214844 237.347656 418.902344 239.0625 C 413.875 242.804688 407.933594 244.394531 402.042969 245.933594 C 391.003906 248.820312 379.738281 250.570312 368.4375 252.136719 C 359.289062 253.40625 350.09375 254.269531 340.921875 255.257812 C 334.265625 255.980469 327.554688 256.25 320.875 256.742188 C 312.8125 257.339844 304.753906 257.980469 296.691406 258.550781 C 293.304688 258.792969 289.902344 258.789062 286.515625 258.917969 C 281.582031 259.109375 276.644531 259.398438 271.710938 259.609375 C 264.835938 259.894531 257.953125 259.777344 251.085938 260.027344 C 224.628906 260.984375 198.160156 260.320312 171.703125 260.351562 C 165.226562 260.363281 158.71875 260.257812 152.242188 259.917969 C 144.921875 259.535156 137.59375 259.375 130.277344 259.023438 C 120.117188 258.535156 109.960938 257.90625 99.820312 257.148438 C 91.457031 256.523438 83.089844 255.792969 74.765625 254.820312 C 60 253.09375 45.21875 251.324219 30.957031 246.855469 C 27.070312 245.636719 23.121094 244.328125 20.238281 241.144531 C 19.214844 240.011719 19.3125 236.867188 20.582031 236.230469 C 23.742188 234.640625 27.003906 233.253906 30.515625 232.589844 C 31.464844 233.011719 32.441406 233.074219 33.449219 232.835938 C 34.59375 232.660156 35.730469 232.652344 36.851562 232.957031 C 44.410156 236.585938 52.164062 239.628906 60.515625 240.882812 C 69.769531 242.273438 79.089844 243.195312 88.316406 244.746094 C 100.582031 246.8125 112.933594 246.761719 125.304688 247.128906 C 144.179688 247.6875 163.054688 247.28125 181.925781 247.496094 C 182.546875 247.507812 183.164062 247.515625 183.773438 247.648438 C 185.21875 247.746094 186.664062 247.679688 188.109375 247.695312 C 196.515625 247.25 204.929688 247.515625 213.339844 247.476562 C 222.519531 247.4375 231.6875 246.898438 240.863281 246.792969 C 241.175781 246.789062 241.476562 246.835938 241.761719 246.953125 C 241.988281 248.242188 242.914062 248.050781 243.839844 247.957031 C 247.640625 247.574219 251.4375 247.152344 255.246094 246.839844 C 257.566406 247.933594 259.972656 248.03125 262.464844 247.566406 C 263.523438 247.371094 264.121094 246.921875 264.324219 245.84375 C 264.5625 244.558594 264.871094 243.28125 264.804688 241.953125 C 264.769531 241.179688 264.777344 240.402344 265.019531 239.660156 C 265.269531 238.882812 265.707031 238.128906 266.570312 238.152344 C 267.625 238.179688 267.527344 239.152344 267.617188 239.902344 C 267.753906 241.070312 267.035156 242.121094 267.167969 243.292969 C 267.253906 244.019531 266.984375 244.90625 268.09375 245.097656 C 274.308594 244.597656 280.191406 242.621094 286.175781 241.128906 C 286.929688 240.9375 287.65625 240.59375 287.644531 239.597656 C 287.613281 237.875 288.867188 237.445312 290.195312 237.128906 C 291.179688 236.898438 292.203125 236.761719 293.1875 236.890625 C 299.28125 237.695312 305.367188 236.570312 311.453125 236.878906 C 315.304688 237.070312 319.167969 237.21875 322.871094 238.511719 C 323.675781 238.789062 324.480469 239.050781 325.210938 239.492188 C 326.261719 240.09375 326.109375 242.328125 328.125 241.636719 C 333.152344 240.304688 338.324219 239.78125 343.414062 238.78125 C 351.011719 237.289062 358.59375 235.742188 366.070312 233.710938 C 368.605469 233.023438 370.742188 231.667969 372.800781 230.164062 C 374.242188 229.105469 374.144531 228.574219 372.546875 227.683594 C 371.105469 226.878906 369.597656 226.410156 367.902344 226.425781 C 365.195312 226.457031 362.480469 226.585938 359.78125 226.328125 C 359.074219 226.265625 357.421875 226.519531 358.367188 224.742188 C 359.289062 224.238281 360.300781 224.25 361.300781 224.25 C 368.316406 224.238281 375.335938 224.238281 382.351562 224.25 C 383.429688 224.253906 384.515625 224.273438 385.519531 224.738281 C 386.765625 225.324219 387.058594 226.519531 387.417969 227.695312 C 387.878906 229.203125 387.878906 230.851562 388.773438 232.425781 C 389.90625 230.953125 388.171875 229.085938 389.6875 227.910156 Z M 389.6875 227.910156 " fill-opacity="1" fill-rule="nonzero"/></g><path fill="#1b1616" d="M 32.742188 233.484375 C 31.59375 234.191406 30.839844 233.914062 30.507812 232.589844 C 30.78125 230.730469 31.050781 228.875 31.320312 227.011719 C 33.375 214.464844 35.25 201.894531 36.875 189.277344 C 36.453125 184.210938 37.707031 179.324219 38.539062 174.402344 C 38.75 173.164062 39.433594 172.109375 40.414062 171.28125 C 42.300781 169.6875 44.535156 169.90625 46.097656 171.867188 C 47.699219 173.871094 47.675781 176.109375 47.070312 178.460938 C 45.265625 185.488281 43.550781 192.535156 41.828125 199.582031 C 39.636719 207.882812 37.925781 216.300781 35.757812 224.609375 C 35.03125 226.566406 34.949219 228.683594 34.328125 230.667969 C 33.894531 231.664062 33.839844 232.867188 32.742188 233.484375 Z M 32.742188 233.484375 " fill-opacity="1" fill-rule="nonzero"/><path fill="#1a1615" d="M 389.6875 227.910156 C 389.8125 229.371094 389.945312 230.828125 390.070312 232.289062 C 390.136719 233.054688 389.972656 233.714844 389.074219 233.824219 C 388.261719 233.921875 388.050781 233.226562 387.847656 232.664062 C 387.019531 230.359375 387.023438 227.816406 385.890625 225.59375 C 385.160156 224.65625 384.828125 223.558594 384.582031 222.417969 C 383.15625 215.859375 381.5 209.359375 380.128906 202.789062 C 379.910156 201.757812 379.449219 200.703125 380.136719 199.660156 C 378.421875 192.308594 376.699219 184.953125 375 177.589844 C 374.828125 176.847656 374.722656 176.066406 374.75 175.308594 C 374.828125 172.945312 376.445312 171.015625 378.375 170.867188 C 380.160156 170.730469 381.722656 172.117188 382.121094 174.574219 C 382.84375 179.066406 383.394531 183.582031 384.03125 188.089844 C 384.105469 188.609375 384.246094 189.125 384.355469 189.636719 C 385.714844 199.644531 387.070312 209.660156 388.433594 219.675781 C 388.683594 221.507812 388.953125 223.339844 389.214844 225.171875 C 389.371094 226.085938 389.53125 227 389.6875 227.910156 Z M 389.6875 227.910156 " fill-opacity="1" fill-rule="nonzero"/><g clip-path="url(#d1a25da9f0)"><path fill="#ed802d" d="M 41.167969 199.605469 C 42.445312 192.136719 44.726562 184.898438 46.363281 177.511719 C 46.53125 176.761719 46.726562 175.996094 46.707031 175.242188 C 46.660156 173.054688 45.074219 171.125 43.226562 170.875 C 41.511719 170.640625 39.753906 172.109375 39.328125 174.429688 C 38.4375 179.363281 37.679688 184.324219 36.863281 189.277344 C 35.039062 180.203125 33.164062 171.144531 31.402344 162.0625 C 27.601562 142.4375 23.894531 122.796875 20.046875 103.183594 C 19.625 101.019531 20.121094 100.300781 22.222656 100.578125 C 22.378906 100.597656 22.535156 100.566406 22.691406 100.582031 C 27.054688 101.066406 30.324219 100.742188 32.449219 95.53125 C 34.601562 90.257812 40.21875 88.144531 45.707031 87.253906 C 55.214844 85.703125 64.847656 86.457031 74.425781 86.328125 C 74.691406 86.324219 74.960938 86.574219 75.230469 86.710938 C 75.390625 87.28125 75.21875 87.816406 74.894531 88.242188 C 71.574219 92.667969 70.386719 97.84375 69.59375 103.160156 C 68.660156 106.574219 67.625 107.332031 63.839844 107.484375 C 56.160156 107.800781 48.539062 107.359375 40.984375 105.882812 C 39.726562 105.632812 37.980469 104.980469 37.230469 105.945312 C 36.378906 107.046875 37.886719 108.277344 38.460938 109.386719 C 40.6875 113.726562 42.605469 118.210938 44.832031 122.546875 C 46.359375 125.652344 48.039062 128.675781 49.976562 131.550781 C 52.476562 135.246094 55.761719 136.867188 60.277344 135.820312 C 61.976562 135.425781 63.710938 134.914062 65.515625 135.195312 C 66.089844 135.425781 66.65625 135.753906 67.296875 135.625 C 73.949219 134.269531 77.972656 138.058594 81.308594 142.9375 C 84.003906 146.875 85.546875 151.382812 86.761719 155.949219 C 90.589844 170.386719 94.175781 184.882812 96.714844 199.613281 C 97.117188 201.925781 96.976562 204.585938 100.332031 204.898438 C 100.625 204.925781 100.726562 205.328125 100.699219 205.664062 C 99.359375 206.828125 97.515625 206.320312 96.054688 207.082031 C 94.308594 207.523438 92.6875 207.078125 91.105469 206.367188 C 90.847656 206.316406 90.585938 206.261719 90.320312 206.21875 C 77 204.460938 63.71875 202.484375 50.414062 200.632812 C 48.339844 200.34375 46.253906 200.535156 44.167969 200.449219 C 43.113281 200.417969 41.980469 200.558594 41.167969 199.605469 Z M 41.167969 199.605469 " fill-opacity="1" fill-rule="nonzero"/></g><path fill="#fcf0db" d="M 68.992188 102.984375 C 69.554688 96.972656 71.199219 91.382812 75.238281 86.710938 C 79.0625 82.601562 83.503906 79.324219 88.460938 76.703125 C 90.585938 75.578125 92.289062 73.867188 94.101562 72.320312 C 95.261719 72.566406 95.550781 73.605469 96.019531 74.457031 C 98.875 79.617188 101.992188 81.207031 107.921875 80.492188 C 108.3125 80.445312 108.6875 80.445312 109.03125 80.667969 C 109.953125 79.554688 109.09375 78.117188 109.738281 76.648438 C 115.070312 80.796875 121.433594 83.53125 124.234375 90.210938 C 125.835938 94.039062 126.132812 98.136719 126.585938 102.164062 C 127.3125 108.550781 129.140625 114.488281 132.542969 119.957031 C 132.96875 120.644531 134.007812 121.316406 133.597656 122.128906 C 133.167969 122.972656 132.058594 122.308594 131.261719 122.433594 C 130.960938 122.480469 130.648438 122.464844 130.335938 122.480469 C 129.964844 123.03125 129.359375 123.226562 128.800781 123.484375 C 127.429688 124.230469 127.417969 125.738281 126.855469 126.933594 C 126.464844 127.765625 126.5625 128.949219 125.269531 129.144531 C 124.285156 128.945312 123.707031 128.207031 123.125 127.484375 C 122.300781 126.460938 121.691406 125.261719 120.796875 124.328125 C 117.53125 120.933594 116.738281 116.957031 117.558594 112.445312 C 117.957031 110.25 117.859375 107.996094 117.8125 106.0625 C 118.082031 110.53125 116.875 115.265625 117.492188 120.046875 C 117.230469 125.464844 117.402344 130.878906 117.292969 136.300781 C 117.058594 137.355469 117.109375 138.429688 117.082031 139.5 C 117.046875 141.050781 116.167969 141.742188 114.71875 141.636719 C 112.742188 141.5 110.734375 141.523438 108.835938 140.816406 C 105.699219 139.796875 102.554688 138.796875 99.363281 137.945312 C 98.480469 137.707031 97.550781 137.511719 97.066406 136.582031 C 96.746094 133.964844 95.96875 131.460938 95.078125 128.996094 C 93.191406 123.769531 92.421875 118.226562 90.582031 112.984375 C 90.269531 112.089844 90.441406 111.144531 90.402344 110.230469 C 90.566406 107.859375 90.492188 105.421875 92.023438 103.3125 C 90.546875 104.507812 91.109375 106.324219 90.539062 107.765625 C 90.28125 108.828125 90.449219 109.914062 90.402344 110.988281 C 90.300781 112.007812 90.621094 113.011719 90.519531 114.03125 C 90.054688 115.230469 90.136719 116.472656 90.246094 117.707031 C 90.335938 120.480469 89.640625 123.195312 89.671875 125.976562 C 89.734375 131.65625 89.683594 131.65625 84.359375 133.207031 C 85.882812 132.773438 87.378906 132.144531 89.007812 132.683594 C 89.816406 133.097656 90.679688 133.476562 90.441406 134.652344 C 88.011719 135.804688 85.347656 136.160156 82.808594 136.949219 C 79.410156 135.375 75.585938 135.804688 72.089844 134.679688 C 71.3125 133.75 71.171875 132.585938 70.945312 131.464844 C 69.875 126.203125 69.277344 120.867188 68.683594 115.53125 C 68.101562 111.335938 68.015625 107.144531 68.992188 102.984375 Z M 68.992188 102.984375 " fill-opacity="1" fill-rule="nonzero"/><path fill="#151010" d="M 118.839844 72.347656 C 118.777344 74.109375 117.464844 74.28125 116.230469 74.125 C 113.832031 73.816406 111.453125 73.304688 109.066406 72.882812 C 105.414062 72.917969 103.179688 70.886719 103.148438 67.367188 C 103.125 64.886719 103.050781 62.421875 102.511719 59.992188 C 102.203125 58.597656 101.632812 57.351562 100.488281 56.441406 C 100 56.050781 99.441406 55.660156 98.804688 55.984375 C 98.191406 56.296875 98.09375 56.957031 98.066406 57.589844 C 98.027344 58.453125 98.371094 59.253906 98.53125 60.085938 C 98.96875 62.34375 97.027344 65.160156 94.667969 65.738281 C 93.175781 62.441406 91.632812 59.160156 90.199219 55.835938 C 88.4375 51.75 88.421875 47.601562 89.851562 43.394531 C 91.847656 37.480469 95.273438 35.054688 101.535156 35.375 C 105.445312 35.574219 109.335938 35.5625 113.230469 35.128906 C 114.949219 34.9375 116.292969 35.609375 117.050781 37.160156 C 117.984375 39.082031 117.441406 40.742188 115.917969 42.148438 C 115.234375 43.609375 113.792969 43.519531 112.542969 43.738281 C 109.160156 44.324219 108.867188 44.574219 108.847656 48.0625 C 108.839844 49.84375 108.441406 51.398438 107.203125 52.730469 C 106.4375 53.546875 106.082031 54.5625 106.113281 55.695312 C 106.230469 59.917969 106.894531 63.855469 111.148438 66.109375 C 112.402344 66.773438 113.429688 67.46875 114.363281 65.710938 C 114.753906 64.976562 115.5625 64.695312 116.375 65.039062 C 117.386719 65.464844 116.726562 66.195312 116.59375 66.8125 C 116.472656 67.390625 116.550781 68.160156 117.058594 68.210938 C 120.277344 68.519531 118.660156 70.800781 118.839844 72.347656 Z M 118.839844 72.347656 " fill-opacity="1" fill-rule="nonzero"/><path fill="#fb9b2c" d="M 177.257812 190.246094 C 176.625 192.464844 176.464844 194.683594 177.242188 196.902344 C 178.421875 199.296875 177.632812 200.929688 175.15625 201.210938 C 174.328125 200.703125 174.167969 199.855469 174.121094 199.003906 C 173.726562 191.78125 173.082031 184.574219 172.621094 177.347656 C 172.410156 173.972656 172.296875 170.585938 171.90625 167.21875 C 171.683594 165.296875 171.632812 163.378906 171.921875 161.457031 C 173.382812 155.914062 173.472656 150.1875 174.175781 144.535156 C 174.535156 141.667969 174.5625 138.871094 173.605469 136.085938 C 172.363281 132.480469 170.15625 129.941406 166.367188 128.945312 C 165.414062 128.695312 164.371094 128.546875 163.78125 127.578125 C 174.582031 125.402344 180.859375 129.601562 181.871094 141.035156 C 182.574219 148.988281 181.144531 156.882812 180.269531 164.777344 C 180.167969 165.695312 180.136719 166.621094 180.074219 167.539062 C 179.226562 170.265625 179.316406 173.125 178.945312 175.917969 C 178.332031 180.550781 177.417969 185.148438 177.289062 189.84375 C 177.40625 189.945312 177.4375 190.039062 177.390625 190.121094 C 177.34375 190.203125 177.300781 190.246094 177.257812 190.246094 Z M 177.257812 190.246094 " fill-opacity="1" fill-rule="nonzero"/><path fill="#e2772f" d="M 163.785156 127.582031 C 171.492188 128.144531 175.894531 134.160156 175.097656 143.058594 C 174.667969 147.808594 174.078125 152.535156 173.59375 157.273438 C 173.460938 158.589844 173.277344 159.855469 172.683594 161.042969 C 171.46875 159.925781 171.558594 158.390625 171.445312 156.953125 C 171.328125 155.488281 171.238281 154.027344 171.070312 152.570312 C 170.621094 148.667969 168.464844 146.238281 164.84375 144.976562 C 163.402344 144.5 161.859375 144.199219 161.535156 142.277344 C 161.375 141.3125 160.511719 141.214844 159.707031 141.367188 C 158.546875 141.585938 157.652344 141.070312 156.707031 140.511719 C 153.34375 138.535156 150.335938 135.964844 146.632812 134.554688 C 145.773438 133.960938 144.882812 133.382812 144.734375 132.214844 C 145 131.960938 145.238281 131.539062 145.539062 131.476562 C 151.632812 130.246094 157.617188 128.472656 163.785156 127.582031 Z M 163.785156 127.582031 " fill-opacity="1" fill-rule="nonzero"/><path fill="#a46445" d="M 118.839844 72.347656 C 118.839844 71.269531 118.839844 70.191406 118.839844 69.078125 C 117.792969 68.734375 116.621094 70.46875 115.996094 68.898438 C 115.585938 67.878906 115.03125 66.605469 116.230469 65.46875 C 115.257812 65.277344 114.566406 65.542969 114.585938 66.734375 C 114.609375 68.109375 113.941406 68.28125 112.816406 67.9375 C 108.988281 66.757812 106.25 62.933594 105.652344 58.902344 C 105.195312 55.808594 105.136719 53.152344 107.691406 50.871094 C 108.601562 50.058594 108.09375 48.664062 108.035156 47.519531 C 107.871094 44.304688 108.625 43.40625 111.886719 43.058594 C 113.269531 42.910156 114.648438 42.785156 115.917969 42.152344 C 117.671875 45.378906 118.890625 48.664062 118.421875 52.503906 C 118.144531 54.8125 119.632812 56.742188 120.9375 58.585938 C 121.683594 59.636719 122.566406 60.765625 120.363281 61.214844 C 119.765625 61.335938 119.417969 61.71875 119.621094 62.40625 C 119.9375 63.457031 119.851562 64.375 118.839844 65.0625 C 118.359375 65.394531 118.589844 65.816406 118.78125 66.285156 C 119.609375 68.277344 119.296875 70.320312 118.839844 72.347656 Z M 118.839844 72.347656 " fill-opacity="1" fill-rule="nonzero"/><path fill="#9e5f41" d="M 94.664062 65.738281 C 96.648438 63.78125 98.96875 62.027344 97.347656 58.613281 C 96.734375 57.324219 96.894531 55.6875 98.355469 54.957031 C 99.761719 54.25 100.851562 55.382812 101.703125 56.367188 C 103.480469 58.414062 103.457031 61.054688 103.867188 63.542969 C 103.917969 63.84375 103.933594 64.171875 103.867188 64.464844 C 102.910156 68.9375 104.761719 71.667969 109.066406 72.886719 C 109.054688 75.480469 109.042969 78.078125 109.03125 80.671875 C 105.007812 82.742188 99.480469 81.15625 96.640625 76.992188 C 95.648438 75.539062 94.941406 73.882812 94.101562 72.320312 C 94.613281 70.152344 94.589844 67.9375 94.664062 65.738281 Z M 94.664062 65.738281 " fill-opacity="1" fill-rule="nonzero"/><path fill="#fcf8f1" d="M 144.730469 132.214844 C 145.410156 132.820312 146.316406 133.179688 146.726562 134.074219 C 146.523438 134.992188 145.691406 135.363281 145.101562 135.945312 C 143.734375 137.285156 142.257812 138.539062 141.792969 140.53125 C 141.660156 141.109375 141.265625 141.441406 140.6875 141.574219 C 137.878906 141.523438 135.210938 140.652344 132.480469 140.15625 C 131.25 138.496094 131.253906 138.476562 134.230469 136.855469 C 133.066406 136.902344 132.023438 137.28125 130.953125 137.019531 C 126.820312 135.15625 125.800781 133.578125 126.042969 129.464844 C 126.535156 127.164062 126.710938 124.742188 128.558594 122.960938 C 129.105469 122.621094 129.683594 122.429688 130.332031 122.484375 C 130.558594 122.683594 130.796875 123.074219 131.011719 123.058594 C 135.789062 122.707031 137.488281 127.109375 140.585938 129.3125 C 141.960938 130.289062 143.203125 131.453125 144.730469 132.214844 Z M 144.730469 132.214844 " fill-opacity="1" fill-rule="nonzero"/><path fill="#1c1616" d="M 186.117188 173.117188 C 184.238281 172.632812 184.75 171.117188 184.71875 169.847656 C 184.679688 168.492188 185.78125 168.285156 186.699219 168.097656 C 189.140625 167.601562 191.605469 167.21875 194.0625 166.796875 C 195.574219 166.074219 197.179688 165.816406 198.835938 165.769531 C 201.667969 166.132812 204.519531 165.914062 207.359375 165.914062 C 208.953125 165.914062 210.09375 166.417969 211.085938 167.726562 C 213.339844 170.6875 218.332031 170.707031 220.761719 167.820312 C 221.578125 166.847656 222.386719 165.964844 223.753906 165.890625 C 228.265625 165.46875 232.695312 166.132812 237.109375 166.96875 C 238.179688 167.171875 239.195312 167.585938 239.941406 168.441406 C 241.574219 170.324219 240.773438 172.890625 238.214844 174.03125 C 235.3125 175.332031 235.316406 175.332031 235.667969 178.453125 C 235.921875 180.75 236.304688 183.042969 236.292969 185.367188 C 236.085938 186.589844 235.40625 187.589844 234.671875 188.527344 C 234.199219 189.125 233.679688 189.980469 232.683594 189.1875 C 231.347656 185.925781 231.210938 182.410156 230.515625 179.015625 C 229.894531 175.964844 229.878906 175.867188 226.789062 175.855469 C 217.890625 175.832031 208.992188 175.832031 200.09375 175.855469 C 196.925781 175.867188 196.863281 175.964844 196.273438 179.191406 C 193.722656 193.117188 191.324219 207.070312 188.886719 221.019531 C 188.671875 222.238281 188.449219 223.457031 188.089844 224.640625 C 187.613281 227.21875 187.25 229.824219 186.617188 232.367188 C 186.253906 233.824219 185.566406 235.0625 183.675781 234.125 C 182.652344 232.816406 183.121094 231.371094 183.289062 229.953125 C 183.476562 228.363281 183.695312 226.78125 184.019531 225.21875 C 184.660156 221.304688 185.070312 217.359375 185.730469 213.449219 C 187.566406 201.789062 189.375 190.121094 191.160156 178.453125 C 191.621094 175.445312 191.355469 175.167969 188.347656 174.292969 C 187.523438 174.042969 186.738281 173.738281 186.117188 173.117188 Z M 186.117188 173.117188 " fill-opacity="1" fill-rule="nonzero"/><path fill="#d26f2f" d="M 338.917969 115.035156 C 339.121094 113.339844 339.324219 111.652344 339.535156 109.960938 C 339.222656 113.742188 342.074219 114.347656 344.742188 115.1875 C 351.101562 117.191406 357.597656 118.542969 364.273438 118.234375 C 368.558594 118.039062 372.8125 117.207031 377.082031 116.671875 C 377.84375 116.574219 378.613281 116.449219 379.375 116.484375 C 380.285156 116.53125 380.945312 117 380.402344 117.996094 C 377.53125 123.277344 375.09375 128.796875 371.34375 133.578125 C 368.390625 137.34375 364.488281 137.214844 360.402344 136.679688 C 355.300781 136.015625 350.308594 134.65625 345.113281 134.5 C 342.175781 134.410156 339.488281 135.183594 336.757812 135.960938 C 335.636719 134.65625 336.226562 133.167969 336.398438 131.789062 C 337.09375 126.1875 337.972656 120.605469 338.917969 115.035156 Z M 338.917969 115.035156 " fill-opacity="1" fill-rule="nonzero"/><path fill="#e1cd9b" d="M 299.921875 142.015625 C 302.425781 142.242188 304.933594 142.457031 307.4375 142.699219 C 308.179688 142.769531 308.933594 143.125 309.609375 142.507812 C 313.898438 142.628906 318.042969 141.472656 322.265625 141.035156 C 325.03125 140.75 327.621094 141.21875 330.105469 142.414062 C 327.722656 147.726562 325.699219 153.167969 324.015625 158.742188 C 323.207031 159.273438 322.347656 159.453125 321.378906 159.257812 C 314.230469 157.808594 307.046875 156.511719 299.90625 155.019531 C 298.980469 154.824219 297.847656 154.871094 297.253906 153.839844 C 297.003906 153.34375 296.847656 152.785156 297.027344 152.289062 C 298.199219 148.917969 298.433594 145.289062 299.921875 142.015625 Z M 299.921875 142.015625 " fill-opacity="1" fill-rule="nonzero"/><path fill="#ec8931" d="M 291.59375 195.40625 C 287.113281 194.980469 282.628906 194.566406 278.148438 194.128906 C 274.570312 193.78125 273.746094 194.054688 273.84375 197.242188 C 273.882812 198.484375 273.328125 199.746094 273.042969 201 C 272.660156 200.789062 272.476562 200.4375 272.351562 200.039062 C 272.128906 199.101562 272.214844 198.171875 272.378906 197.242188 C 273.449219 192.179688 273.988281 187.023438 275.167969 181.976562 C 275.519531 181.265625 275.539062 180.371094 276.273438 179.859375 C 277.902344 179.246094 279.476562 179.855469 281.054688 180.101562 C 283.875 180.539062 286.761719 180.359375 289.535156 181.125 C 291.050781 181.921875 292.695312 181.710938 294.308594 181.726562 C 296.546875 181.746094 298.789062 181.65625 301.027344 181.761719 C 302.859375 181.851562 303.660156 182.710938 303.253906 184.460938 C 302.445312 187.976562 300.660156 191.0625 298.351562 193.796875 C 297.492188 194.8125 296.164062 195.164062 294.785156 195.199219 C 293.722656 195.226562 292.628906 194.945312 291.59375 195.40625 Z M 291.59375 195.40625 " fill-opacity="1" fill-rule="nonzero"/><path fill="#d16f2f" d="M 291.59375 195.40625 C 291.964844 194.910156 292.546875 194.886719 293.0625 194.859375 C 299.78125 194.503906 300.519531 188.734375 302.59375 184.242188 C 303.113281 183.117188 302.464844 182.382812 301.089844 182.398438 C 297.9375 182.441406 294.777344 182.421875 291.625 182.394531 C 290.804688 182.386719 289.90625 182.636719 289.230469 181.898438 C 290.203125 180.859375 291.496094 181.046875 292.703125 181.039062 C 297.953125 181.003906 303.195312 181.019531 308.441406 181.023438 C 311.675781 181.027344 314.894531 180.636719 318.132812 180.65625 C 318.433594 180.703125 318.695312 180.828125 318.921875 181.027344 C 318.113281 184.871094 317.425781 188.746094 316.164062 192.46875 C 314.996094 195.925781 313.640625 196.875 310 196.800781 C 303.835938 196.679688 297.710938 196.097656 291.59375 195.40625 Z M 291.59375 195.40625 " fill-opacity="1" fill-rule="nonzero"/><path fill="#221b19" d="M 328.90625 209.140625 C 328.820312 212.609375 328.738281 216.078125 328.65625 219.542969 C 328.5 221.683594 328.59375 223.78125 328.871094 225.945312 C 329.527344 231.078125 329.488281 236.257812 328.425781 241.375 C 328.347656 241.757812 328.050781 242.039062 327.792969 242.332031 C 325.03125 243.609375 325.765625 241.265625 325.421875 240.035156 C 324.257812 238.6875 324.472656 236.960938 324.335938 235.410156 C 324.039062 231.976562 323.914062 228.523438 323.800781 225.074219 C 323.710938 219.773438 323.332031 214.480469 323.1875 209.179688 C 323.160156 208.105469 323.183594 207.003906 324.070312 206.179688 C 324.894531 206.246094 325.726562 206.734375 326.542969 206.328125 C 328.820312 205.1875 329.046875 206.414062 328.828125 208.230469 C 328.789062 208.523438 328.871094 208.835938 328.90625 209.140625 Z M 328.90625 209.140625 " fill-opacity="1" fill-rule="nonzero"/><path fill="#241c18" d="M 318.960938 206.15625 C 318.988281 212.472656 319.015625 218.789062 319.046875 225.105469 C 319.523438 225.835938 319.597656 226.570312 318.871094 227.15625 C 318.355469 227.574219 317.714844 227.554688 317.132812 227.230469 C 316.386719 226.816406 316.027344 226.144531 316.179688 225.304688 C 316.328125 224.472656 316.59375 223.660156 316.265625 222.816406 C 315.65625 217.214844 315.042969 211.605469 314.433594 206 C 315.941406 206.054688 317.453125 206.105469 318.960938 206.15625 Z M 318.960938 206.15625 " fill-opacity="1" fill-rule="nonzero"/><path fill="#e4c697" d="M 338.917969 115.035156 C 338.980469 120.460938 337.957031 125.78125 337.386719 131.148438 C 337.214844 132.757812 336.96875 134.359375 336.753906 135.964844 C 334.996094 137.1875 333.921875 139.351562 331.566406 139.769531 C 333.683594 133.582031 335.945312 127.4375 337.332031 121.023438 C 337.761719 119.007812 338.015625 116.933594 338.917969 115.035156 Z M 338.917969 115.035156 " fill-opacity="1" fill-rule="nonzero"/><path fill="#c29469" d="M 297.59375 153.53125 C 301.351562 154.960938 305.347656 155.339844 309.242188 156.132812 C 314.140625 157.125 319.015625 158.308594 324.015625 158.742188 C 323.875 158.894531 323.742188 159.046875 323.605469 159.199219 C 323.40625 159.539062 323.222656 159.898438 322.816406 160.046875 C 320.699219 160.425781 318.679688 159.753906 316.65625 159.382812 C 310.367188 158.222656 304.105469 156.914062 297.832031 155.652344 C 296.867188 155.457031 295.8125 155.390625 295.203125 154.414062 C 295.132812 153.746094 295.625 153.511719 296.105469 153.265625 C 296.644531 153.09375 297.140625 153.171875 297.59375 153.53125 Z M 297.59375 153.53125 " fill-opacity="1" fill-rule="nonzero"/><path fill="#b88860" d="M 323.109375 159.746094 C 323.277344 159.5625 323.441406 159.382812 323.605469 159.199219 C 323.679688 162.015625 322.679688 164.648438 322.132812 167.347656 C 321.199219 171.941406 320.007812 176.480469 318.917969 181.042969 C 318.75 181.019531 318.585938 180.992188 318.425781 180.96875 C 316.3125 180.785156 314.160156 180.792969 312.148438 180.042969 C 311.535156 179.8125 309.960938 179.910156 310.957031 178.382812 C 312.089844 177.800781 313.21875 178.226562 314.34375 178.414062 C 316.917969 178.835938 317.148438 178.761719 317.820312 176.367188 C 319.082031 171.847656 320.550781 167.382812 321.675781 162.824219 C 321.949219 161.703125 322.113281 160.527344 323.109375 159.746094 Z M 323.109375 159.746094 " fill-opacity="1" fill-rule="nonzero"/><path fill="#dcae79" d="M 272.917969 199.996094 C 272.960938 200.332031 273.003906 200.664062 273.050781 201 C 272.933594 201.519531 273.183594 201.929688 273.46875 202.324219 C 272.253906 205.511719 272.285156 208.925781 271.652344 212.21875 C 271.179688 214.703125 270.933594 217.230469 270.492188 219.71875 C 270.351562 220.519531 270.1875 221.421875 269.320312 221.878906 C 268.519531 221.132812 268.652344 220.207031 268.835938 219.289062 C 269.882812 213.914062 270.675781 208.507812 271.421875 203.089844 C 271.574219 201.957031 271.421875 200.539062 272.917969 199.996094 Z M 272.917969 199.996094 " fill-opacity="1" fill-rule="nonzero"/><path fill="#e7d2a5" d="M 307.738281 135.046875 C 305.140625 135.414062 302.527344 135.636719 299.902344 135.410156 C 299.914062 135.289062 299.933594 135.171875 299.957031 135.050781 C 302.964844 134.214844 304.09375 131.632812 305.277344 129.171875 C 306.421875 126.804688 308.089844 124.769531 309.300781 122.453125 C 309.761719 121.574219 310.558594 121.285156 311.433594 121.410156 C 314.429688 121.828125 316.65625 120.691406 318.328125 118.242188 C 318.71875 117.671875 319.304688 117.269531 319.886719 116.890625 C 320.652344 115.488281 321.421875 114.09375 322.1875 112.695312 C 323.246094 111.910156 323.941406 111.835938 323.867188 113.488281 C 323.84375 113.992188 323.703125 114.53125 324.050781 114.996094 C 323.722656 118.597656 323.496094 122.207031 323.039062 125.792969 C 322.734375 128.195312 321.863281 130.453125 319.902344 132.066406 C 319.042969 132.777344 319.285156 133.257812 319.941406 133.914062 C 321.082031 135.046875 322.15625 136.253906 323.398438 137.578125 C 321.972656 138.132812 320.722656 137.742188 319.144531 137.171875 C 320.890625 136.746094 320.75 136.171875 319.78125 135.144531 C 318.40625 133.679688 317.136719 132.847656 314.953125 133.554688 C 312.628906 134.304688 310.148438 134.570312 307.738281 135.046875 Z M 307.738281 135.046875 " fill-opacity="1" fill-rule="nonzero"/><path fill="#f3e6c8" d="M 319.890625 116.890625 C 318.78125 119.367188 317.253906 121.40625 314.4375 122.097656 C 314.070312 122.1875 313.613281 122.507812 313.359375 122.386719 C 310.527344 121 309.847656 123.261719 308.621094 124.949219 C 306.886719 127.351562 305.605469 130 304.289062 132.601562 C 303.265625 134.625 301.988281 135.277344 299.953125 135.058594 C 300.757812 132.09375 300.519531 129.050781 300.328125 126.082031 C 300.101562 122.550781 302.015625 121.121094 304.550781 119.972656 C 307.390625 118.683594 310.492188 118.429688 313.511719 117.871094 C 315.628906 117.476562 317.765625 117.210938 319.890625 116.890625 Z M 319.890625 116.890625 " fill-opacity="1" fill-rule="nonzero"/><path fill="#cd6a31" d="M 299.054688 135 C 295.613281 134.3125 292.21875 133.503906 289.3125 131.363281 C 288.628906 130.855469 287.808594 130.496094 288.265625 129.410156 C 290.65625 125.851562 292.851562 122.183594 295.84375 119.03125 C 297.570312 117.207031 296.257812 114.558594 296.742188 112.335938 C 297.15625 112.179688 297.347656 112.257812 297.175781 112.730469 C 296.710938 115.863281 297.621094 118.695312 299.054688 121.421875 C 299.355469 125.839844 299.347656 130.261719 299.058594 134.679688 C 299.113281 134.792969 299.113281 134.894531 299.054688 135 Z M 299.054688 135 " fill-opacity="1" fill-rule="nonzero"/><path fill="#e4bd93" d="M 297.175781 112.738281 C 297.03125 112.601562 296.886719 112.472656 296.742188 112.335938 C 297.863281 107.019531 297.597656 101.621094 297.652344 96.242188 C 297.664062 95.507812 297.785156 94.746094 298.507812 94.0625 C 298.359375 100.410156 299.171875 106.667969 297.175781 112.738281 Z M 297.175781 112.738281 " fill-opacity="1" fill-rule="nonzero"/><path fill="#d3af7f" d="M 324.050781 115 C 323.910156 114.667969 323.597656 114.300781 323.652344 113.996094 C 323.886719 112.691406 323.101562 112.652344 322.1875 112.695312 C 322.753906 110.234375 323.933594 107.949219 324.308594 105.410156 C 325.054688 108.640625 323.992188 111.804688 324.050781 115 Z M 324.050781 115 " fill-opacity="1" fill-rule="nonzero"/><path fill="#b47457" d="M 299.058594 134.679688 C 299.058594 130.261719 299.054688 125.84375 299.054688 121.421875 C 300.027344 123.25 299.382812 125.203125 299.417969 127.085938 C 299.457031 129.621094 299.613281 132.171875 299.058594 134.679688 Z M 299.058594 134.679688 " fill-opacity="1" fill-rule="nonzero"/><path fill="#b6ada1" d="M 335.800781 72.929688 C 337.234375 74.226562 337.394531 75.953125 337.367188 77.738281 C 336.460938 76.277344 335.925781 74.679688 335.800781 72.929688 Z M 335.800781 72.929688 " fill-opacity="1" fill-rule="nonzero"/><path fill="#df7830" d="M 264.179688 128.0625 C 265.390625 127.898438 266.390625 128.476562 267.40625 129 C 269.847656 130.703125 271.332031 133.070312 272.027344 135.917969 C 272.839844 139.277344 273.222656 142.726562 274.253906 146.042969 C 274.785156 147.742188 274.035156 148.84375 272.324219 149.355469 C 271.355469 149.644531 270.347656 149.621094 269.386719 149.90625 C 267.535156 149.914062 265.699219 149.675781 263.839844 149.71875 C 260.554688 149.792969 258.050781 151.230469 256.289062 153.9375 C 254.601562 156.527344 253.230469 159.308594 251.609375 161.9375 C 251.078125 162.792969 250.753906 164.019531 249.324219 163.875 C 248.640625 163.355469 248.488281 162.574219 248.417969 161.808594 C 247.789062 154.730469 246.503906 147.710938 246.5625 140.570312 C 246.585938 137.777344 247.273438 135.203125 248.585938 132.792969 C 250.507812 129.261719 253.347656 127.183594 257.558594 127.351562 C 259.78125 127.4375 262.042969 127.148438 264.179688 128.0625 Z M 264.179688 128.0625 " fill-opacity="1" fill-rule="nonzero"/><path fill="#d36f30" d="M 269.253906 149.285156 C 274.164062 148.074219 274.210938 148.0625 272.636719 143.167969 C 272.179688 141.75 272 140.3125 271.898438 138.878906 C 271.636719 135 269.332031 132.097656 267.40625 129 C 273.488281 130.84375 279.703125 132.332031 285.210938 135.675781 C 285.964844 136.132812 286.445312 137.015625 287.117188 137.628906 C 289.464844 139.792969 292.269531 140.816406 295.4375 141.113281 C 296.84375 141.242188 298.722656 141.09375 298.621094 143.441406 C 299.246094 144.109375 299.011719 144.875 298.820312 145.601562 C 298.117188 148.308594 297.75 151.125 296.246094 153.574219 C 295.894531 153.769531 295.546875 153.960938 295.199219 154.15625 C 294.339844 154.96875 293.324219 154.734375 292.339844 154.5625 C 285.707031 153.390625 279.109375 152.046875 272.488281 150.824219 C 271.308594 150.605469 269.980469 150.535156 269.253906 149.285156 Z M 269.253906 149.285156 " fill-opacity="1" fill-rule="nonzero"/><path fill="#fb9b2c" d="M 264.179688 128.0625 C 261.894531 128.085938 259.664062 127.730469 257.324219 127.875 C 250.84375 128.277344 247.839844 134.238281 247.476562 139.148438 C 247.0625 144.773438 248.027344 150.332031 248.691406 155.902344 C 249.007812 158.558594 248.9375 161.261719 249.617188 163.875 C 250.171875 164.605469 249.636719 165.195312 249.300781 165.738281 C 247.523438 168.597656 245.707031 171.429688 243.886719 174.25 C 243.515625 174.832031 243.089844 175.394531 242.289062 175.402344 C 241.917969 172.835938 242.300781 170.265625 241.992188 167.675781 C 241.21875 161.152344 240.746094 154.601562 240.183594 148.058594 C 239.910156 144.878906 240.03125 141.703125 240.632812 138.578125 C 242.371094 129.644531 248.523438 125.433594 257.757812 126.824219 C 259.144531 127.035156 260.523438 127.136719 261.917969 127.117188 C 262.769531 127.171875 263.558594 127.414062 264.179688 128.0625 Z M 264.179688 128.0625 " fill-opacity="1" fill-rule="nonzero"/><path fill="#f7f1e5" d="M 296.242188 153.574219 C 296.304688 150.875 297.703125 148.503906 298.113281 145.890625 C 298.246094 145.066406 298.449219 144.257812 298.617188 143.4375 C 299.195312 143.09375 298.671875 141.746094 299.917969 142.015625 C 299.871094 145.0625 298.847656 147.914062 298.125 150.820312 C 297.898438 151.710938 297.472656 152.570312 297.589844 153.527344 C 297.140625 153.546875 296.695312 153.558594 296.242188 153.574219 Z M 296.242188 153.574219 " fill-opacity="1" fill-rule="nonzero"/><path fill="#c18365" d="M 241.847656 247.421875 C 240.3125 247.859375 238.742188 247.890625 237.148438 247.9375 C 220.757812 248.402344 204.363281 248.441406 187.96875 248.378906 C 187.796875 247.839844 188.140625 247.742188 188.550781 247.703125 C 188.277344 247.671875 188.019531 247.761719 187.761719 247.832031 C 186.460938 248.195312 185.007812 247.4375 183.789062 248.378906 C 166.773438 248.378906 149.757812 248.664062 132.761719 248.257812 C 124.808594 248.070312 116.855469 248.269531 108.917969 247.875 C 101.394531 247.496094 93.925781 246.5625 86.476562 245.34375 C 79.277344 244.167969 72.019531 243.328125 64.785156 242.351562 C 55.882812 241.148438 47.15625 239.363281 39.265625 234.742188 C 38.402344 234.242188 37.4375 233.925781 36.519531 233.523438 C 36.59375 232.289062 37.636719 232.390625 38.394531 232.269531 C 44.566406 231.289062 50.535156 231.242188 56.578125 233.726562 C 64.792969 237.097656 73.265625 239.859375 82.113281 241.214844 C 83.726562 241.460938 85.34375 241.550781 86.964844 241.511719 C 89.617188 241.441406 89.824219 241.21875 90.050781 238.605469 C 90.144531 237.5625 89.914062 236.378906 91.121094 235.742188 C 92.703125 236.839844 91.996094 238.523438 92.109375 239.957031 C 92.226562 241.398438 92.785156 241.882812 94.152344 241.453125 C 95.859375 241.410156 97.558594 241.488281 99.230469 241.863281 C 103.40625 242.8125 107.632812 242.90625 111.894531 242.875 C 120.394531 242.808594 128.898438 242.890625 137.398438 242.839844 C 143.734375 242.804688 150.066406 242.605469 156.203125 240.726562 C 158.777344 239.933594 161.28125 240.203125 163.546875 241.644531 C 164.921875 242.519531 166.394531 242.15625 167.816406 242.347656 C 171.460938 243.394531 175.195312 242.90625 178.878906 242.828125 C 182.117188 242.757812 185.347656 242.507812 188.578125 242.878906 C 189.421875 242.976562 190.28125 242.949219 191.128906 242.882812 C 192.089844 242.808594 193.4375 243.332031 193.90625 242.34375 C 194.390625 241.316406 192.640625 241.21875 192.394531 240.3125 C 192.128906 238.378906 193.367188 237.546875 194.882812 236.933594 C 200.367188 234.71875 206.0625 234.097656 211.910156 234.777344 C 213.851562 235.003906 215.726562 235.199219 217.449219 233.945312 C 218.132812 233.441406 218.878906 233.628906 219.617188 234.035156 C 221.941406 235.324219 224.320312 235.3125 226.710938 234.171875 C 227.269531 233.90625 227.878906 233.511719 228.457031 233.621094 C 232.871094 234.5 236.707031 232.222656 240.820312 231.449219 C 241.046875 231.410156 241.28125 231.402344 241.507812 231.414062 C 242.1875 231.46875 242.382812 232.21875 243.183594 232.53125 C 243.570312 231.019531 242.773438 229.511719 243.230469 228.078125 C 243.640625 226.484375 243.363281 224.386719 245.9375 224.386719 C 246.179688 224.394531 246.398438 224.464844 246.601562 224.59375 C 247.613281 226.042969 246.675781 227.585938 246.808594 229.078125 C 246.882812 229.914062 246.75 230.765625 246.84375 231.835938 C 247.808594 229.519531 247.195312 226.957031 248.792969 225.050781 C 249.035156 224.96875 249.273438 224.980469 249.503906 225.082031 C 250.167969 225.925781 251.105469 225.800781 252.019531 225.878906 C 254.316406 226.074219 255.351562 226.933594 255.777344 229.191406 C 256.140625 231.132812 256.625 233.078125 256.496094 235.085938 C 256.113281 239.792969 253.703125 243.097656 249.476562 245.097656 C 248.089844 245.753906 246.660156 246.304688 245.273438 246.960938 C 244.132812 247.167969 243.066406 247.875 241.847656 247.421875 Z M 241.847656 247.421875 " fill-opacity="1" fill-rule="nonzero"/><path fill="#b3765d" d="M 245.113281 246.511719 C 246.027344 245.632812 247.1875 245.171875 248.332031 244.761719 C 252.777344 243.160156 255.097656 239.925781 255.796875 235.375 C 256.492188 232.585938 255.644531 229.710938 256.273438 226.910156 C 256.472656 226.019531 256.4375 225.070312 256.90625 224.238281 C 257.488281 223.582031 258.335938 223.46875 259.089844 223.164062 C 260.902344 222.859375 262.726562 222.589844 264.554688 222.386719 C 265.382812 222.292969 266.242188 222.085938 266.960938 222.761719 C 268.570312 225.5 271.234375 224.730469 273.640625 224.734375 C 287.109375 224.753906 300.570312 224.726562 314.039062 224.765625 C 315.503906 224.773438 316.476562 224.570312 316.261719 222.824219 C 316.769531 223.492188 316.632812 224.292969 316.71875 225.050781 C 316.816406 225.933594 316.636719 227.105469 318.015625 227.078125 C 319.375 227.050781 318.691406 225.765625 319.046875 225.105469 C 320.867188 225.109375 322.691406 225.117188 324.507812 225.121094 C 324.8125 230.09375 325.113281 235.0625 325.417969 240.03125 C 318.835938 237.703125 311.976562 237.277344 305.136719 237.789062 C 300.886719 238.105469 296.710938 237.785156 292.5 237.683594 C 291.484375 237.660156 290.515625 237.84375 289.535156 238.082031 C 288.484375 238.339844 287.644531 238.417969 288.703125 239.78125 C 289.710938 241.074219 288.449219 241.292969 287.589844 241.546875 C 282.203125 243.148438 276.769531 244.570312 271.234375 245.550781 C 269.964844 245.78125 268.699219 246.289062 267.359375 246.027344 C 266.640625 244.71875 266.914062 243.351562 267.140625 241.996094 C 267.820312 237.910156 268.628906 233.863281 270.515625 231.0625 C 269.90625 232.449219 268.792969 234.558594 268.054688 236.835938 C 267.699219 237.921875 268.332031 239.332031 267.007812 240.097656 C 266.925781 239.582031 266.851562 239.070312 266.769531 238.515625 C 265.617188 238.867188 265.53125 239.710938 265.558594 240.574219 C 265.609375 242.402344 265.367188 244.195312 265.179688 246.003906 C 264.984375 247.867188 264.148438 248.230469 262.554688 248.414062 C 260.003906 248.703125 257.519531 249.023438 255.265625 247.398438 C 255.25 246.941406 255.496094 246.769531 255.921875 246.789062 C 255.640625 246.679688 255.390625 246.832031 255.144531 246.90625 C 252.761719 247.636719 250.277344 247.660156 247.832031 247.832031 C 246.867188 247.90625 245.410156 248.15625 245.113281 246.511719 Z M 245.113281 246.511719 " fill-opacity="1" fill-rule="nonzero"/><path fill="#b57960" d="M 327.789062 242.332031 C 328.324219 235.5 328.316406 228.65625 328.382812 221.8125 C 328.394531 221.054688 328.558594 220.300781 328.648438 219.546875 C 328.6875 219.695312 328.753906 219.847656 328.757812 220 C 329.023438 225.085938 329.015625 225.066406 334.089844 225.074219 C 342.058594 225.085938 350.027344 225.128906 357.996094 225.164062 C 360.53125 226.140625 363.164062 225.53125 365.75 225.589844 C 368.371094 225.652344 370.964844 225.523438 373.300781 227.054688 C 373.988281 227.507812 375.03125 227.582031 375.082031 228.632812 C 375.128906 229.574219 374.382812 230.082031 373.707031 230.636719 C 369.753906 233.882812 364.949219 235.003906 360.148438 236.125 C 349.449219 238.617188 338.625 240.488281 327.789062 242.332031 Z M 327.789062 242.332031 " fill-opacity="1" fill-rule="nonzero"/><path fill="#bb7d60" d="M 91.296875 235.835938 C 90.5 236.960938 90.882812 238.246094 90.90625 239.441406 C 90.949219 241.511719 90.101562 242.324219 88.011719 242.371094 C 82.382812 242.492188 76.972656 241.355469 71.660156 239.695312 C 65.472656 237.765625 59.261719 235.914062 53.277344 233.371094 C 49.1875 231.636719 44.792969 232.21875 40.535156 232.804688 C 39.214844 232.984375 37.714844 232.542969 36.519531 233.511719 C 35.257812 233.5 34.003906 233.488281 32.742188 233.476562 C 33.035156 232.519531 33.332031 231.566406 33.625 230.609375 C 41.785156 229.207031 50.023438 228.667969 58.28125 228.449219 C 68.234375 228.191406 78.171875 227.730469 88.105469 227.027344 C 89.222656 226.949219 90.03125 226.570312 90.464844 225.507812 C 90.785156 225.183594 91.101562 224.855469 91.570312 225.296875 C 92.519531 228.839844 92.957031 232.367188 91.296875 235.835938 Z M 91.296875 235.835938 " fill-opacity="1" fill-rule="nonzero"/><path fill="#38231c" d="M 267.007812 240.101562 C 267.296875 236.121094 268.785156 232.582031 271.25 229.371094 C 269.675781 234.859375 266.984375 240.109375 267.363281 246.03125 C 265.53125 244.933594 266.839844 243.230469 266.597656 241.832031 C 266.503906 241.296875 266.859375 240.683594 267.007812 240.101562 Z M 267.007812 240.101562 " fill-opacity="1" fill-rule="nonzero"/><path fill="#2d1d1b" d="M 245.113281 246.511719 C 248.121094 248.175781 251.222656 247.054688 254.289062 246.828125 C 255.34375 246.746094 256.398438 246.582031 257.988281 246.390625 C 256.859375 247.203125 255.855469 246.761719 255.261719 247.410156 C 251.023438 247.890625 246.78125 248.375 242.542969 248.863281 C 240.921875 249.050781 241.078125 248.390625 241.84375 247.421875 C 242.785156 246.5625 243.914062 246.402344 245.113281 246.511719 Z M 245.113281 246.511719 " fill-opacity="1" fill-rule="nonzero"/><path fill="#bb7d60" d="M 183.792969 248.375 C 184.925781 247.269531 185.1875 247.230469 189.3125 247.605469 C 188.824219 247.882812 188.398438 248.128906 187.972656 248.375 C 186.578125 248.375 185.183594 248.375 183.792969 248.375 Z M 183.792969 248.375 " fill-opacity="1" fill-rule="nonzero"/><path fill="#fb9b2d" d="M 72.363281 134.457031 C 76.035156 134.339844 79.644531 134.523438 82.921875 136.457031 C 84.164062 136.472656 85.007812 137.21875 85.835938 138.011719 C 88.144531 140.332031 89.921875 143.003906 91.171875 146.027344 C 91.78125 147.503906 92.214844 149.121094 94.144531 149.523438 C 94.570312 149.609375 94.90625 150.066406 94.492188 150.601562 C 92.859375 151.335938 93.179688 152.5625 93.570312 153.90625 C 96.242188 163.109375 98.074219 172.5 100.070312 181.855469 C 100.816406 184.855469 101.40625 187.886719 102.234375 190.867188 C 103.332031 194.800781 104.777344 195.933594 108.792969 195.96875 C 114.128906 196.015625 119.410156 195.167969 124.722656 194.851562 C 126.035156 194.773438 127.34375 194.804688 128.652344 194.667969 C 135.457031 193.800781 142.320312 193.539062 149.128906 192.710938 C 149.894531 192.617188 150.671875 192.566406 151.410156 192.910156 C 153.191406 195.804688 153.386719 198.871094 152.371094 202.058594 C 150.976562 203.074219 149.292969 203.09375 147.710938 203.171875 C 142.007812 203.449219 136.308594 203.800781 130.609375 204.195312 C 122.371094 204.773438 114.148438 205.507812 105.933594 206.34375 C 104.1875 206.382812 102.585938 206.984375 100.992188 207.632812 C 100.027344 207.191406 100.0625 206.539062 100.601562 205.78125 C 100.4375 205.617188 100.257812 205.300781 100.121094 205.320312 C 96.867188 205.765625 96.46875 203.617188 96.113281 201.164062 C 94.097656 187.277344 90.398438 173.753906 87.128906 160.144531 C 85.707031 154.222656 84.03125 148.308594 80.542969 143.1875 C 77.414062 138.605469 73.636719 135 67.359375 136.351562 C 66.5625 136.523438 65.804688 136.378906 65.359375 135.5625 C 67.507812 134.042969 69.808594 133.457031 72.363281 134.457031 Z M 72.363281 134.457031 " fill-opacity="1" fill-rule="nonzero"/><path fill="#cc6b31" d="M 68.992188 102.984375 C 69.136719 107.167969 69.273438 111.355469 69.417969 115.535156 C 69.03125 119.285156 68.992188 119.117188 65.109375 120.132812 C 59.5 121.601562 53.730469 122.070312 48.058594 123.113281 C 46.84375 123.335938 45.609375 123.476562 44.417969 122.941406 C 41.882812 119.21875 40.527344 114.902344 38.363281 110.996094 C 37.539062 109.511719 36.765625 108 35.980469 106.5 C 35.691406 105.945312 35.394531 105.328125 35.828125 104.753906 C 36.246094 104.203125 36.808594 104.640625 37.320312 104.695312 C 46.042969 105.605469 54.691406 107.351562 63.546875 106.730469 C 67.222656 106.472656 67.960938 106.183594 68.992188 102.984375 Z M 68.992188 102.984375 " fill-opacity="1" fill-rule="nonzero"/><path fill="#bc5f2f" d="M 44.421875 122.941406 C 48.113281 122.324219 51.78125 121.480469 55.496094 121.152344 C 59.828125 120.769531 63.882812 119.203125 68.167969 118.660156 C 69.867188 118.449219 68.449219 116.382812 69.417969 115.542969 C 70.203125 121.875 71.074219 128.203125 72.359375 134.460938 C 70.023438 134.828125 67.683594 135.203125 65.347656 135.570312 C 63.097656 136 60.855469 136.507812 58.589844 136.84375 C 55.136719 137.355469 52.421875 135.960938 50.363281 133.265625 C 47.941406 130.085938 45.851562 126.699219 44.421875 122.941406 Z M 44.421875 122.941406 " fill-opacity="1" fill-rule="nonzero"/><path fill="#221b19" d="M 91.253906 225.140625 C 91.253906 223.898438 91.253906 222.660156 91.253906 221.417969 C 91.097656 216.179688 90.867188 210.9375 91.371094 205.707031 C 92.8125 206.445312 94.390625 206.4375 95.949219 206.515625 C 96.730469 207.097656 96.851562 207.960938 96.78125 208.8125 C 96.3125 214.824219 96.1875 220.855469 95.773438 226.863281 C 95.421875 231.292969 95.277344 235.738281 94.796875 240.15625 C 94.699219 240.890625 94.363281 241.484375 93.734375 241.890625 C 93.542969 242.84375 92.863281 242.90625 92.144531 242.664062 C 91.460938 242.429688 91.378906 241.832031 91.386719 241.152344 C 91.398438 239.378906 91.335938 237.609375 91.300781 235.835938 C 91.28125 232.273438 91.269531 228.707031 91.253906 225.140625 Z M 91.253906 225.140625 " fill-opacity="1" fill-rule="nonzero"/><path fill="#bb7d60" d="M 91.367188 205.707031 C 91.328125 210.945312 91.289062 216.179688 91.25 221.417969 C 90.6875 216.148438 90.988281 210.859375 90.875 205.582031 C 91.042969 205.628906 91.203125 205.667969 91.367188 205.707031 Z M 91.367188 205.707031 " fill-opacity="1" fill-rule="nonzero"/><path fill="#a56547" d="M 131.335938 136.460938 C 132.257812 136.457031 133.15625 136.425781 134.042969 136.070312 C 134.449219 135.914062 135.066406 135.332031 135.425781 136.023438 C 135.757812 136.660156 135.300781 137.242188 134.753906 137.558594 C 134.167969 137.898438 133.496094 138.089844 132.859375 138.335938 C 132.226562 138.578125 131.707031 138.855469 132.238281 139.644531 C 134.921875 141.136719 138.042969 141.140625 140.859375 142.1875 C 141.789062 142.53125 142.839844 142.695312 143.351562 143.710938 C 143.511719 144.023438 143.484375 144.3125 143.078125 144.4375 C 143.523438 144.539062 143.761719 144.171875 144.070312 143.976562 C 144.316406 143.820312 144.671875 143.804688 144.757812 143.484375 C 143.644531 142.488281 141.613281 143 141.054688 141.136719 C 141.4375 137.5625 143.855469 135.632812 146.734375 134.070312 C 148.589844 134.234375 150.015625 135.332031 151.5 136.289062 C 153.632812 137.667969 155.777344 139.027344 157.867188 140.476562 C 158.472656 140.894531 158.925781 140.917969 159.554688 140.644531 C 161.257812 139.902344 162.398438 140.496094 162.378906 142.339844 C 162.355469 144.253906 164.058594 143.515625 164.789062 144.21875 C 163.089844 145.863281 160.980469 145.011719 159.039062 145.171875 C 157.671875 144.816406 156.398438 145.527344 155.0625 145.550781 C 152.71875 145.925781 150.363281 146.261719 147.996094 146.441406 C 143.582031 146.308594 139.25 145.375 135.214844 144.953125 C 134.554688 144.976562 134.984375 145.480469 134.859375 145.195312 C 134.835938 145.144531 134.886719 145.101562 135.007812 145.109375 C 138.300781 145.132812 141.511719 145.871094 144.753906 146.292969 C 145.359375 146.375 145.566406 146.9375 145.421875 147.554688 C 145.238281 147.90625 144.972656 148.230469 144.609375 148.34375 C 141.070312 149.441406 138.128906 151.816406 134.601562 152.964844 C 131.96875 153.824219 129.308594 154.464844 126.671875 153.507812 C 121.242188 151.527344 115.640625 151.574219 110.007812 151.65625 C 108.714844 151.675781 107.371094 151.839844 106.183594 151.058594 C 105.960938 150.839844 105.714844 150.585938 105.699219 150.285156 C 105.503906 146.597656 106.113281 143.132812 108.589844 140.207031 C 110.488281 140.402344 112.40625 140.464844 114.269531 140.824219 C 115.972656 141.148438 116.742188 140.816406 116.488281 138.941406 C 116.375 138.117188 116.496094 137.265625 116.511719 136.425781 C 117.710938 136.597656 117.558594 137.609375 117.582031 138.363281 C 117.632812 139.863281 118.394531 139.917969 119.554688 139.613281 C 121.941406 138.992188 124.074219 137.832031 126.1875 136.601562 C 127.882812 136.011719 129.617188 136.453125 131.335938 136.460938 Z M 131.335938 136.460938 " fill-opacity="1" fill-rule="nonzero"/><path fill="#fdfaf8" d="M 108.574219 140.210938 C 107.582031 143.691406 106.082031 147.042969 106.042969 150.75 C 105.675781 151.328125 105.085938 151.585938 104.472656 151.601562 C 101.042969 151.683594 97.558594 152.117188 94.386719 150.257812 C 92.203125 150.242188 91.371094 148.925781 90.757812 146.988281 C 89.691406 143.644531 87.667969 140.816406 85.195312 138.320312 C 85.136719 136.902344 86.296875 136.628906 87.242188 136.195312 C 88.71875 135.515625 90.316406 135.300781 91.921875 135.15625 C 93.828125 135.1875 95.789062 134.984375 97.378906 136.40625 C 100.359375 137.328125 103.339844 138.234375 106.3125 139.183594 C 107.105469 139.433594 107.984375 139.515625 108.574219 140.210938 Z M 108.574219 140.210938 " fill-opacity="1" fill-rule="nonzero"/><path fill="#e8d6ac" d="M 97.378906 136.40625 C 95.503906 136.238281 93.628906 136.070312 91.757812 135.910156 C 91.199219 135.53125 90.390625 135.398438 90.367188 134.496094 C 90.132812 133.824219 89.421875 133.703125 88.972656 133.289062 C 89.058594 129.601562 89.222656 125.914062 89.582031 122.238281 C 89.726562 120.78125 89.882812 119.332031 89.515625 117.890625 C 89.550781 116.617188 89.160156 115.292969 89.898438 114.085938 C 90.421875 114.714844 90.046875 115.5 90.230469 116.1875 C 90.304688 116.488281 90.46875 116.1875 90.460938 116.171875 C 89.777344 114.484375 90.535156 112.667969 90.003906 110.957031 C 89.984375 109.8125 89.6875 108.644531 90.335938 107.566406 C 91.042969 108.226562 90.28125 109.21875 90.859375 109.914062 C 91.621094 114.667969 93.253906 119.203125 94.394531 123.855469 C 95.25 127.351562 96.421875 130.773438 97.511719 134.207031 C 97.761719 135.007812 97.820312 135.699219 97.378906 136.40625 Z M 97.378906 136.40625 " fill-opacity="1" fill-rule="nonzero"/><path fill="#a84825" d="M 126.207031 136.839844 C 123.992188 139.53125 120.808594 140.089844 117.65625 140.671875 C 116.761719 140.839844 116.976562 140.066406 116.910156 139.582031 C 116.769531 138.53125 117.183594 137.410156 116.507812 136.429688 C 116.09375 130.886719 116.507812 125.363281 116.960938 119.84375 C 117.90625 119.640625 117.898438 120.429688 118 120.941406 C 119.019531 126.160156 121.925781 130.378906 125.074219 134.476562 C 125.609375 135.183594 126.46875 135.742188 126.207031 136.839844 Z M 126.207031 136.839844 " fill-opacity="1" fill-rule="nonzero"/><path fill="#e7cfa5" d="M 126.207031 136.839844 C 121.796875 131.894531 118.070312 126.578125 116.957031 119.84375 C 116.566406 114.164062 117.726562 108.554688 117.386719 102.875 C 117.648438 102.871094 117.910156 102.871094 118.175781 102.867188 C 118.175781 105.386719 118.398438 107.9375 118.117188 110.425781 C 117.816406 113.054688 118.011719 115.671875 117.851562 118.285156 C 117.75 119.886719 119.265625 120.386719 119.945312 121.453125 C 121.628906 124.09375 123.152344 126.902344 125.648438 128.941406 C 126.027344 128.960938 125.816406 130.136719 126.578125 129.425781 C 126.257812 133.0625 128.050781 135.265625 131.335938 136.460938 C 129.644531 136.804688 127.980469 137.628906 126.207031 136.839844 Z M 126.207031 136.839844 " fill-opacity="1" fill-rule="nonzero"/><path fill="#d3ab75" d="M 89.515625 117.890625 C 90.34375 118.917969 89.972656 120.132812 89.902344 121.226562 C 89.667969 124.753906 89.378906 128.277344 89.488281 131.816406 C 89.507812 132.363281 89.417969 132.894531 88.972656 133.289062 C 86.851562 132.878906 85.039062 133.742188 83.246094 134.675781 C 82.921875 134.84375 82.550781 135.167969 82.210938 134.804688 C 81.816406 134.382812 82.078125 133.945312 82.378906 133.574219 C 83.464844 132.257812 85.085938 132 86.570312 131.898438 C 88.191406 131.789062 88.65625 131.109375 88.738281 129.660156 C 88.957031 125.738281 89.25 121.816406 89.515625 117.890625 Z M 89.515625 117.890625 " fill-opacity="1" fill-rule="nonzero"/><path fill="#d6b489" d="M 90.367188 134.496094 C 90.980469 134.816406 91.445312 135.289062 91.757812 135.910156 C 89.402344 136.265625 87.054688 136.632812 85.195312 138.328125 C 84.433594 137.703125 83.675781 137.082031 82.917969 136.457031 C 85.25 135.222656 87.734375 134.578125 90.367188 134.496094 Z M 90.367188 134.496094 " fill-opacity="1" fill-rule="nonzero"/><path fill="#d3ab75" d="M 90.859375 109.917969 C 90.121094 109.261719 90.5625 108.339844 90.335938 107.570312 C 90.390625 106.570312 90.351562 105.554688 90.519531 104.574219 C 90.832031 102.746094 91.726562 101.578125 94.34375 102.28125 C 91.46875 104.230469 90.78125 106.921875 90.859375 109.917969 Z M 90.859375 109.917969 " fill-opacity="1" fill-rule="nonzero"/><path fill="#c69e66" d="M 126.578125 129.421875 C 126.382812 129.730469 126.050781 130.328125 126.019531 130.3125 C 125.40625 130.015625 125.878906 129.382812 125.648438 128.941406 C 125.917969 126.960938 126.746094 125.167969 127.613281 123.402344 C 127.769531 123.089844 127.941406 122.425781 128.570312 122.960938 C 127.402344 124.960938 126.796875 127.132812 126.578125 129.421875 Z M 126.578125 129.421875 " fill-opacity="1" fill-rule="nonzero"/><path fill="#e6b27d" d="M 109.378906 83.375 C 107.351562 85.636719 106.144531 85.726562 102.949219 84.054688 C 105.019531 84.449219 107.0625 84.492188 109.378906 83.375 Z M 109.378906 83.375 " fill-opacity="1" fill-rule="nonzero"/><path fill="#d3ab75" d="M 90.003906 110.960938 C 90.800781 112.714844 90.238281 114.519531 90.046875 116.3125 C 89.996094 115.570312 89.941406 114.828125 89.898438 114.085938 C 89.933594 113.042969 89.972656 112 90.003906 110.960938 Z M 90.003906 110.960938 " fill-opacity="1" fill-rule="nonzero"/><path fill="#28201e" d="M 94.386719 150.257812 C 98.269531 150.464844 102.136719 151.140625 106.046875 150.75 C 107.359375 150.78125 108.675781 150.890625 109.988281 150.839844 C 115.878906 150.605469 121.703125 150.777344 127.359375 152.757812 C 130.066406 153.707031 132.582031 152.648438 135.207031 151.820312 C 138.695312 150.710938 141.34375 147.753906 145.164062 147.507812 C 145.882812 146.535156 146.972656 146.164062 148.035156 145.753906 C 150.34375 145.441406 152.652344 145.132812 154.960938 144.820312 C 157.3125 145.632812 158.429688 147.820312 160.03125 149.453125 C 160.710938 150.144531 160.527344 151.050781 159.96875 151.804688 C 157.074219 155.703125 155.515625 160.242188 153.753906 164.683594 C 155.5625 160.1875 157.109375 155.558594 160.113281 151.644531 C 161.136719 150.308594 161.015625 149.121094 159.742188 148 C 159.105469 147.441406 158.429688 146.902344 157.96875 146.179688 C 157.355469 145.214844 157.625 144.601562 158.738281 144.355469 C 160.75 144.3125 162.769531 144.265625 164.785156 144.222656 C 169.84375 145.65625 171.609375 148.15625 172.128906 154.601562 C 172.300781 156.75 172.5 158.898438 172.6875 161.046875 C 172.734375 170.0625 173.703125 179.023438 174.300781 188.003906 C 174.59375 192.367188 174.644531 196.75 175.371094 201.078125 C 175.398438 206.667969 176.164062 212.195312 176.929688 217.714844 C 178.703125 219.617188 177.875 222.128906 178.484375 224.300781 C 178.753906 232.195312 181.828125 236.007812 189.476562 238.542969 C 190.542969 239.003906 191.820312 239.035156 192.585938 240.09375 C 193.0625 240.59375 193.742188 240.441406 194.324219 240.605469 C 195.324219 240.882812 195.609375 241.539062 195.550781 242.515625 C 195.488281 243.671875 194.699219 243.613281 193.914062 243.613281 C 185.742188 243.609375 177.566406 243.605469 169.394531 243.597656 C 168.761719 243.597656 168.132812 243.617188 167.941406 242.8125 C 167.046875 241.898438 167.25 240.753906 167.277344 239.640625 C 167.261719 237.570312 166.238281 237.007812 164.285156 237.433594 C 162.703125 237.777344 161.058594 237.671875 159.4375 237.574219 C 156.945312 237.421875 155.988281 236.644531 155.464844 234.191406 C 154.90625 231.554688 154.535156 228.875 154.328125 226.179688 C 154.246094 225.171875 154.097656 224.199219 153.855469 223.226562 C 153.023438 217.582031 152.453125 211.902344 151.890625 206.222656 C 151.75 204.804688 151.316406 203.308594 152.183594 201.933594 C 152.128906 198.960938 151.878906 196.015625 151.21875 193.105469 C 150.179688 192.09375 150.289062 190.703125 150.082031 189.441406 C 149.542969 186.097656 148.945312 182.769531 148.070312 179.492188 C 147.007812 178.214844 145.644531 178.722656 144.425781 179 C 139.691406 180.078125 134.996094 181.347656 130.1875 182.089844 C 120.835938 183.527344 111.457031 183.671875 102.046875 182.867188 C 101.039062 182.777344 100.042969 182.65625 99.316406 181.828125 C 97.074219 171.96875 95.277344 162 92.242188 152.339844 C 91.421875 149.746094 93.199219 150.457031 94.386719 150.257812 Z M 94.386719 150.257812 " fill-opacity="1" fill-rule="nonzero"/><path fill="#321c12" d="M 116.519531 51.609375 C 114.910156 52.613281 113.089844 52.695312 111.292969 52.867188 C 112.90625 51.976562 114.570312 51.242188 116.519531 51.609375 Z M 116.519531 51.609375 " fill-opacity="1" fill-rule="nonzero"/><path fill="#3c1e0f" d="M 115.5 54.519531 C 115.511719 55.011719 115.390625 55.457031 114.828125 55.5 C 114.402344 55.53125 114.148438 55.25 114.167969 54.792969 C 114.183594 54.375 114.417969 54.078125 114.789062 53.941406 C 115.300781 53.746094 115.40625 54.140625 115.5 54.519531 Z M 115.5 54.519531 " fill-opacity="1" fill-rule="nonzero"/><path fill="#7b4932" d="M 141.046875 141.140625 C 142.625 142.210938 144.816406 141.996094 146.3125 143.691406 C 145.019531 144.515625 143.679688 144.847656 142.0625 144.742188 C 142.453125 144.265625 143.71875 143.78125 142.152344 143.375 C 139.847656 142.769531 137.550781 142.144531 135.257812 141.5 C 134.085938 141.167969 132.804688 140.976562 132.234375 139.648438 C 135.230469 139.796875 138.128906 140.53125 141.046875 141.140625 Z M 141.046875 141.140625 " fill-opacity="1" fill-rule="nonzero"/><path fill="#fdfbf9" d="M 266.96875 222.761719 C 264.34375 223.125 261.71875 223.492188 259.09375 223.855469 C 255.6875 224.195312 255.277344 223.972656 254.863281 220.75 C 254.007812 214.082031 254.394531 207.390625 254.589844 200.707031 C 254.507812 195.65625 254.359375 190.589844 255.199219 186.34375 C 253.441406 190.980469 250.203125 195.453125 246.164062 199.394531 C 244.960938 200.269531 244.238281 201.90625 242.398438 201.78125 C 238.542969 199.074219 234.828125 196.195312 231.679688 192.640625 C 231.136719 191.046875 231.199219 189.738281 233.242188 189.386719 C 234.042969 188.140625 234.847656 186.894531 235.648438 185.640625 C 238.230469 182.46875 240.46875 179.074219 242.277344 175.402344 C 244.71875 171.558594 247.164062 167.710938 249.609375 163.871094 C 250.953125 161.539062 252.3125 159.21875 253.640625 156.878906 C 257.902344 149.390625 260.726562 148.011719 269.25 149.285156 C 277.898438 150.90625 286.542969 152.53125 295.191406 154.148438 C 303.539062 156.085938 311.953125 157.660156 320.382812 159.171875 C 321.296875 159.335938 322.199219 159.550781 323.105469 159.742188 C 321.992188 166.175781 319.578125 172.265625 318.035156 178.585938 C 317.742188 179.796875 316.878906 179.664062 316.058594 179.535156 C 314.394531 179.273438 312.746094 178.929688 311.089844 178.617188 C 308.660156 179.164062 306.519531 178.066406 304.402344 177.257812 C 295.582031 173.878906 287.039062 169.875 278.683594 165.46875 C 275.648438 163.644531 272.34375 162.339844 269.320312 160.464844 C 266.796875 158.902344 263.652344 159.902344 262.144531 162.492188 C 260.972656 164.507812 260.554688 166.808594 259.703125 168.945312 C 260.644531 166.597656 261.050781 164.027344 262.546875 161.902344 C 264.269531 159.441406 268.011719 159.152344 269.820312 161.328125 C 269.972656 161.941406 269.933594 162.558594 269.832031 163.167969 C 268.574219 170.902344 269.703125 178.539062 270.792969 186.171875 C 271.0625 188.078125 271.617188 189.949219 272.429688 191.710938 C 273.273438 193.535156 273.429688 195.394531 273.007812 197.335938 C 272.976562 198.21875 272.9375 199.105469 272.90625 199.992188 C 271.699219 204.578125 271.5625 209.339844 270.640625 213.976562 C 270.125 216.59375 269.742188 219.242188 269.304688 221.875 C 268.53125 222.171875 267.75 222.464844 266.96875 222.761719 Z M 266.96875 222.761719 " fill-opacity="1" fill-rule="nonzero"/><path fill="#bc7f62" d="M 219.074219 224.753906 C 219.234375 224.753906 219.398438 224.75 219.566406 224.75 C 220.25 226.492188 218.855469 227.152344 217.789062 227.703125 C 215.339844 228.964844 212.796875 230.054688 210.023438 230.441406 C 209.484375 230.464844 208.964844 230.335938 208.367188 230.21875 C 210.976562 231.53125 213.738281 232.171875 216.5 232.730469 C 217.675781 232.964844 218.953125 233.117188 220.023438 232.246094 C 221.257812 231.472656 222.355469 230.535156 223.339844 229.460938 C 224.277344 228.636719 225.175781 227.78125 225.78125 226.660156 C 226.558594 225.738281 227.175781 224.628906 228.511719 224.367188 C 229.785156 224.511719 229.757812 225.261719 229.351562 226.183594 C 228.761719 227.523438 228.171875 228.863281 227.765625 230.273438 C 228.269531 228.726562 228.871094 227.222656 229.589844 225.757812 C 230.027344 224.871094 230.59375 224.21875 231.609375 224.046875 C 234.585938 223.589844 237.609375 224.058594 240.589844 223.578125 C 242.273438 225.339844 242.917969 229.597656 241.816406 231.660156 C 238.796875 233.296875 235.339844 234.3125 232.164062 234.53125 C 229.4375 234.714844 226.921875 235.203125 224.300781 235.753906 C 222.488281 236.132812 220.425781 236.128906 218.96875 234.386719 C 218.621094 233.964844 218.15625 234 217.800781 234.46875 C 216.394531 236.351562 214.359375 236.003906 212.535156 235.695312 C 206.265625 234.640625 200.292969 235.769531 194.414062 237.824219 C 193.355469 238.191406 193.027344 239.207031 192.574219 240.097656 C 191.429688 240.003906 190.324219 239.789062 189.347656 239.132812 C 188.859375 236.691406 187.351562 235.433594 184.886719 235.160156 C 184.355469 235.105469 183.652344 234.851562 183.78125 233.996094 C 184.941406 234.140625 185.542969 233.757812 185.792969 232.476562 C 186.304688 229.878906 186.355469 227.175781 187.46875 224.707031 C 187.46875 224.707031 187.527344 224.664062 187.527344 224.664062 C 188.230469 225.15625 189.027344 224.910156 189.773438 224.914062 C 196.804688 224.9375 203.828125 224.851562 210.855469 224.96875 C 213.605469 225.003906 216.351562 225.523438 219.074219 224.753906 Z M 219.074219 224.753906 " fill-opacity="1" fill-rule="nonzero"/><path fill="#97664d" d="M 222.371094 165.285156 C 222.253906 166.347656 223.171875 166.25 223.761719 166.515625 C 222.929688 166.65625 222.300781 166.871094 221.78125 167.757812 C 219.34375 171.914062 212.472656 171.847656 210.164062 167.664062 C 209.65625 166.75 209.039062 166.550781 208.140625 166.550781 C 205.140625 166.5625 202.140625 166.558594 199.144531 166.5625 C 202.019531 165.847656 204.949219 166.230469 207.851562 166.148438 C 208.941406 166.117188 209.351562 166.140625 209.144531 164.636719 C 208.660156 161.101562 208.34375 157.523438 208.460938 153.929688 C 208.472656 153.601562 208.554688 153.339844 208.953125 153.339844 C 211.886719 154.046875 214.863281 153.644531 217.8125 153.636719 C 219.480469 153.632812 221.152344 153.546875 222.820312 153.605469 C 223.792969 154.566406 222.445312 156.175781 223.78125 157.039062 C 224.074219 157.539062 223.910156 158.101562 223.988281 158.632812 C 224.179688 160.347656 223.574219 162.0625 223.957031 163.777344 C 223.929688 164.816406 222.738281 164.609375 222.371094 165.285156 Z M 222.371094 165.285156 " fill-opacity="1" fill-rule="nonzero"/><path fill="#c18365" d="M 177.785156 224.695312 C 179.316406 225.339844 180.90625 225.054688 182.472656 224.96875 C 183.214844 224.925781 183.953125 224.640625 184.65625 225.117188 C 184.738281 228.109375 183.609375 230.984375 183.789062 233.984375 C 184.351562 234.632812 185.195312 234.558594 185.910156 234.730469 C 189.132812 235.507812 189.746094 234.925781 189.351562 239.125 C 184.925781 238.441406 181.792969 235.679688 179.367188 232.269531 C 177.859375 230.152344 178.167969 227.265625 177.785156 224.695312 Z M 177.785156 224.695312 " fill-opacity="1" fill-rule="nonzero"/><path fill="#352620" d="M 222.828125 153.613281 C 218.640625 154.980469 214.359375 154.597656 210.089844 154.253906 C 209.582031 154.210938 208.984375 154.089844 208.953125 153.351562 C 213.597656 152.511719 218.230469 151.988281 222.828125 153.613281 Z M 222.828125 153.613281 " fill-opacity="1" fill-rule="nonzero"/><path fill="#362d28" d="M 223.300781 158.363281 C 223.226562 157.839844 223.5 157.441406 223.78125 157.042969 C 224.230469 156.960938 224.683594 156.871094 225.132812 156.785156 C 226.410156 156.898438 227.902344 156.664062 228.222656 158.457031 C 228.601562 160.546875 228.285156 162.480469 226.441406 163.800781 C 225.246094 164.660156 223.816406 165.042969 222.367188 165.28125 C 222.300781 164.292969 223.269531 164.339844 223.742188 163.898438 C 223.953125 163.140625 224.636719 162.871094 225.203125 162.484375 C 226.261719 161.769531 226.90625 160.820312 226.53125 159.539062 C 226.171875 158.328125 225.042969 158.71875 224.15625 158.65625 C 223.851562 158.636719 223.5625 158.546875 223.300781 158.363281 Z M 223.300781 158.363281 " fill-opacity="1" fill-rule="nonzero"/><path fill="#dfcb9a" d="M 278.988281 164.824219 C 287.085938 168.921875 295.234375 172.898438 303.710938 176.160156 C 306.128906 177.089844 308.632812 177.804688 311.097656 178.617188 C 312.550781 179.933594 314.476562 179.632812 316.183594 180.0625 C 316.992188 180.265625 317.820312 180.292969 318.425781 180.957031 C 315.757812 181.824219 312.96875 181.808594 310.238281 181.871094 C 303.234375 182.019531 296.230469 181.90625 289.222656 181.902344 C 285.75 181.464844 282.273438 181.027344 278.800781 180.585938 C 277.964844 180.480469 277.136719 180.347656 276.308594 180.226562 C 276.257812 180.167969 276.160156 180.105469 276.167969 180.054688 C 276.71875 175.519531 275.71875 170.890625 277.027344 166.40625 C 277.132812 166.039062 277.339844 165.707031 277.589844 165.40625 C 277.941406 164.929688 278.542969 165.066406 278.988281 164.824219 Z M 278.988281 164.824219 " fill-opacity="1" fill-rule="nonzero"/><path fill="#f7edd6" d="M 273.023438 197.339844 C 273.085938 195.773438 272.699219 194.347656 272.007812 192.910156 C 269.769531 188.261719 269.136719 183.1875 268.875 178.144531 C 268.578125 172.429688 267.675781 166.652344 269.300781 160.96875 C 271.28125 160.648438 272.609375 161.816406 273.925781 163.011719 C 274.160156 163.597656 274.234375 164.207031 274.160156 164.824219 C 273.449219 170.65625 274.332031 176.335938 275.8125 181.957031 C 275.027344 187.113281 274.195312 192.261719 273.023438 197.339844 Z M 273.023438 197.339844 " fill-opacity="1" fill-rule="nonzero"/><path fill="#eddfb9" d="M 275.8125 181.957031 C 273.734375 180.070312 273.785156 177.414062 273.496094 174.972656 C 273.015625 170.945312 272.742188 166.882812 273.488281 162.839844 C 275.390625 162.929688 276.886719 163.792969 278.082031 165.242188 C 277.207031 167.917969 276.960938 170.675781 277.195312 173.457031 C 277.390625 175.796875 276.976562 178.015625 276.316406 180.222656 C 276.195312 180.820312 276.308594 181.480469 275.8125 181.957031 Z M 275.8125 181.957031 " fill-opacity="1" fill-rule="nonzero"/><path fill="#bb7d60" d="M 167.929688 239.5625 C 167.929688 240.644531 167.933594 241.730469 167.933594 242.808594 C 166.015625 243.421875 164.308594 243.5 162.546875 242.03125 C 160.570312 240.378906 158.109375 240.90625 155.90625 241.683594 C 151.089844 243.378906 146.042969 243.558594 141.074219 243.65625 C 129.390625 243.890625 117.703125 243.886719 106.019531 243.644531 C 101.914062 243.5625 97.824219 242.507812 93.726562 241.890625 C 93.542969 241.339844 93.808594 240.90625 94.101562 240.476562 C 95.269531 239.386719 96.785156 239.367188 98.234375 239.203125 C 110.210938 237.828125 122.261719 237.222656 134.265625 236.175781 C 142.152344 235.488281 149.675781 236.691406 157.242188 238.300781 C 160.128906 238.914062 162.96875 239.628906 165.953125 239.132812 C 166.640625 239.023438 167.351562 239.039062 167.929688 239.5625 Z M 167.929688 239.5625 " fill-opacity="1" fill-rule="nonzero"/><path fill="#241c1a" d="M 253.320312 200.757812 C 251.910156 206.691406 251.339844 212.777344 250.203125 218.761719 C 249.804688 220.878906 249.363281 222.984375 248.9375 225.097656 C 248.585938 227.367188 248.226562 229.636719 247.886719 231.90625 C 247.757812 232.792969 247.574219 233.738281 246.421875 233.542969 C 245.320312 233.351562 245.945312 232.445312 245.984375 231.835938 C 246.121094 229.445312 246.28125 227.058594 246.433594 224.675781 C 247.277344 216.898438 248.125 209.125 248.964844 201.347656 C 250.574219 199.703125 251.542969 199.570312 253.320312 200.757812 Z M 253.320312 200.757812 " fill-opacity="1" fill-rule="nonzero"/><path fill="#281d1c" d="M 241.328125 204.289062 C 242.015625 211.082031 242.703125 217.882812 243.398438 224.679688 C 244.164062 225.835938 244.042969 227.09375 243.796875 228.363281 C 243.890625 229.339844 244.066406 230.3125 244.0625 231.289062 C 244.058594 232.21875 244.863281 233.671875 243.160156 233.816406 C 241.742188 233.9375 242.09375 232.5 241.828125 231.65625 C 241.703125 228.953125 241.234375 226.304688 240.523438 223.703125 C 239.316406 222.800781 239.371094 221.421875 239.292969 220.15625 C 239.210938 218.816406 238.949219 217.59375 238.050781 216.558594 C 238.65625 214.761719 238.695312 212.957031 238.390625 211.082031 C 238.023438 208.804688 238.398438 206.59375 239.691406 204.628906 C 240.058594 204.054688 240.503906 203.046875 241.328125 204.289062 Z M 241.328125 204.289062 " fill-opacity="1" fill-rule="nonzero"/><path fill="#bc7f62" d="M 249.289062 225.105469 C 251.09375 225.09375 252.902344 225.042969 254.707031 225.078125 C 255.640625 225.097656 256.480469 224.945312 257.199219 224.335938 C 257.117188 228.066406 256.863281 231.769531 255.800781 235.375 C 256.027344 232.960938 255.261719 230.683594 254.8125 228.367188 C 254.445312 226.464844 252.695312 226.6875 251.300781 226.566406 C 250.277344 226.476562 249.203125 226.636719 249.289062 225.105469 Z M 249.289062 225.105469 " fill-opacity="1" fill-rule="nonzero"/><path fill="#d09565" d="M 204.648438 246.511719 C 204.964844 245.175781 204.519531 244.558594 203.066406 244.566406 C 201.886719 244.574219 200.65625 244.886719 199.535156 244.230469 C 200.847656 244.21875 202.164062 244.195312 203.472656 244.195312 C 205.359375 244.199219 205.613281 245.050781 204.648438 246.511719 Z M 204.648438 246.511719 " fill-opacity="1" fill-rule="nonzero"/><path fill="#d09565" d="M 243.792969 228.363281 C 243.660156 227.132812 243.527344 225.90625 243.394531 224.679688 C 244.269531 224.707031 245.140625 224.738281 246.011719 224.765625 C 243.640625 224.957031 244.53125 227.167969 243.792969 228.363281 Z M 243.792969 228.363281 " fill-opacity="1" fill-rule="nonzero"/><path fill="#ce6c30" d="M 99.316406 181.828125 C 113.941406 183.28125 128.40625 182.578125 142.609375 178.492188 C 143.855469 178.136719 145.167969 177.980469 146.460938 177.832031 C 147.53125 177.710938 148.445312 178.050781 148.847656 179.195312 C 148.308594 180.605469 146.980469 180.941406 145.773438 181.417969 C 140.109375 183.660156 134.109375 184.257812 128.140625 185.015625 C 127.378906 185.113281 126.597656 185.117188 125.871094 185.414062 C 125.367188 185.617188 124.90625 185.84375 124.734375 186.457031 C 124.203125 188.371094 125.738281 192.300781 127.464844 193.480469 C 128.117188 193.925781 129.097656 194.261719 128.484375 195.398438 C 121.714844 195.765625 114.992188 196.824219 108.203125 196.832031 C 104.472656 196.835938 102.453125 195.34375 101.558594 191.75 C 100.75 188.457031 100.0625 185.136719 99.316406 181.828125 Z M 99.316406 181.828125 " fill-opacity="1" fill-rule="nonzero"/><path fill="#e47b2e" d="M 128.492188 195.394531 C 128.410156 194.535156 127.742188 194.246094 127.066406 194.089844 C 124.808594 193.566406 124.195312 192.023438 124.308594 189.933594 C 124.339844 189.332031 124.261719 188.699219 124.117188 188.113281 C 123.441406 185.34375 123.949219 184.5625 126.773438 184.292969 C 131.046875 183.878906 135.308594 183.394531 139.511719 182.457031 C 142.757812 181.730469 145.890625 180.726562 148.847656 179.195312 C 150.078125 183.757812 150.976562 188.375 151.214844 193.105469 C 148.21875 194.164062 145.042969 193.949219 141.953125 194.335938 C 137.492188 194.894531 132.984375 195.066406 128.492188 195.394531 Z M 128.492188 195.394531 " fill-opacity="1" fill-rule="nonzero"/><path fill="#221a18" d="M 105.214844 205.734375 C 104.597656 212.351562 103.984375 218.972656 103.363281 225.589844 C 103.019531 226.117188 103.382812 226.875 102.871094 227.3125 C 102.164062 227.921875 101.433594 228.265625 101.042969 226.976562 C 101 220.402344 100.953125 213.832031 100.914062 207.253906 C 100.921875 206.308594 101.390625 206.03125 102.328125 206.054688 C 103.289062 206.082031 104.253906 205.855469 105.214844 205.734375 Z M 105.214844 205.734375 " fill-opacity="1" fill-rule="nonzero"/><path fill="#b0735c" d="M 101.046875 226.980469 C 102.769531 228.101562 102.777344 226.363281 103.367188 225.589844 C 103.496094 226.199219 103.539062 226.667969 104.488281 226.597656 C 116.152344 225.714844 127.847656 226.386719 139.523438 225.777344 C 143.769531 225.554688 148.035156 225.542969 152.292969 225.632812 C 154.136719 225.667969 154.847656 225.074219 154.609375 223.289062 C 155.195312 227.003906 155.863281 230.710938 156.335938 234.441406 C 156.574219 236.320312 157.480469 236.976562 159.261719 236.835938 C 161.109375 236.691406 162.972656 236.730469 164.8125 236.515625 C 168.109375 236.128906 168.105469 236.074219 167.933594 239.558594 C 165 240.445312 162.082031 240.28125 159.105469 239.644531 C 152.269531 238.183594 145.484375 236.269531 138.390625 236.769531 C 130.503906 237.328125 122.632812 238.140625 114.738281 238.519531 C 107.824219 238.859375 101.011719 240.070312 94.113281 240.472656 C 94.164062 235.972656 94.488281 231.488281 95.039062 227.023438 C 97.039062 227.011719 99.042969 226.996094 101.046875 226.980469 Z M 101.046875 226.980469 " fill-opacity="1" fill-rule="nonzero"/><path fill="#704533" d="M 158.726562 144.351562 C 158.285156 144.773438 157.699219 145.171875 158.386719 145.839844 C 158.664062 146.101562 158.992188 146.316406 159.28125 146.570312 C 162.394531 149.285156 162.335938 149.246094 160.046875 152.613281 C 157.425781 156.476562 155.65625 160.769531 154.101562 165.148438 C 153.925781 165.652344 153.902344 166.207031 153.328125 166.679688 C 152.84375 165.808594 153.269531 165.070312 153.507812 164.339844 C 154.9375 159.996094 156.609375 155.757812 159.195312 151.949219 C 159.964844 150.820312 160.09375 150.113281 158.824219 149.09375 C 157.339844 147.90625 156.222656 146.261719 154.945312 144.816406 C 156.214844 144.699219 157.421875 144.109375 158.726562 144.351562 Z M 158.726562 144.351562 " fill-opacity="1" fill-rule="nonzero"/><path fill="#5e3628" d="M 148.03125 145.757812 C 147.242188 146.621094 146.394531 147.382812 145.15625 147.511719 C 145.078125 146.609375 144.386719 146.707031 143.78125 146.667969 C 140.488281 146.433594 137.390625 145.0625 134.082031 144.75 C 138.734375 145.085938 143.386719 145.417969 148.03125 145.757812 Z M 148.03125 145.757812 " fill-opacity="1" fill-rule="nonzero"/><path fill="#895946" d="M 166.367188 209.222656 C 165.960938 216.09375 163.953125 222.570312 161.542969 229.300781 C 160.664062 226.71875 164.296875 211.601562 166.367188 209.222656 Z M 166.367188 209.222656 " fill-opacity="1" fill-rule="nonzero"/><path fill="#b4795b" d="M 241.328125 204.289062 C 239.339844 205.078125 239.382812 207.027344 239.058594 208.621094 C 238.824219 209.773438 239.070312 211.082031 239.351562 212.265625 C 239.773438 214.054688 239.835938 215.644531 238.144531 216.832031 C 238.097656 216.929688 238.050781 217.023438 238.007812 217.121094 C 234.695312 219.578125 231.410156 222.066406 228.363281 224.859375 C 227.414062 225.386719 227.109375 226.605469 226.054688 227.011719 C 225.4375 228.105469 224.269531 228.757812 223.722656 229.910156 C 222.882812 231.070312 221.867188 232.023438 220.523438 232.574219 C 219.640625 233.351562 218.554688 233.417969 217.5 233.253906 C 215.164062 232.890625 212.910156 232.222656 210.769531 231.183594 C 210.207031 230.910156 209.691406 230.59375 209.675781 229.863281 C 212.445312 229.378906 214.957031 228.167969 217.5 227.074219 C 218.5 226.644531 219.351562 225.9375 219.566406 224.742188 C 222.742188 221.421875 225.28125 217.757812 226.742188 213.308594 C 228.617188 207.601562 230.707031 201.96875 232.1875 196.136719 C 232.507812 194.871094 232.511719 193.730469 232.125 192.539062 C 235.558594 195.503906 238.992188 198.464844 242.421875 201.421875 C 241.914062 202.332031 241.347656 203.203125 241.328125 204.289062 Z M 241.328125 204.289062 " fill-opacity="1" fill-rule="nonzero"/><path fill="#f8952c" d="M 253.320312 200.757812 C 251.785156 200.347656 250.386719 200.882812 248.972656 201.347656 C 247.894531 200.554688 246.429688 200.359375 245.617188 199.164062 C 247.570312 196.875 249.519531 194.585938 251.230469 192.101562 C 252.933594 189.628906 254.410156 187.042969 255.6875 184.257812 C 255.546875 189.539062 255.242188 194.789062 255.277344 200.046875 C 254.777344 200.703125 253.957031 200.488281 253.320312 200.757812 Z M 253.320312 200.757812 " fill-opacity="1" fill-rule="nonzero"/><path fill="#cfa583" d="M 278.078125 165.242188 C 276.617188 164.308594 275.144531 163.390625 273.480469 162.84375 C 272.199219 161.972656 270.90625 161.121094 269.300781 160.96875 C 265.109375 159.878906 263.011719 160.882812 261.488281 164.820312 C 260.710938 166.824219 260.0625 168.878906 259.175781 170.847656 C 259.882812 167.265625 260.636719 163.652344 262.917969 160.695312 C 264.375 158.804688 266.582031 158.722656 268.632812 159.675781 C 272.128906 161.296875 275.542969 163.097656 278.988281 164.828125 C 278.6875 164.964844 278.378906 165.101562 278.078125 165.242188 Z M 278.078125 165.242188 " fill-opacity="1" fill-rule="nonzero"/><path fill="#c18365" d="M 219.074219 224.753906 C 216.867188 225.449219 214.738281 226.824219 212.324219 225.25 C 211.878906 224.960938 211.117188 225.164062 210.5 225.15625 C 203.640625 225.152344 196.78125 225.164062 189.921875 225.144531 C 189.109375 225.140625 188.207031 225.414062 187.527344 224.660156 C 198.046875 224.6875 208.558594 224.71875 219.074219 224.753906 Z M 219.074219 224.753906 " fill-opacity="1" fill-rule="nonzero"/><path fill="#442b20" d="M 238.171875 216.800781 C 235.613281 219.246094 232.722656 221.394531 231.09375 224.679688 C 228.980469 226.792969 228.496094 229.738281 227.230469 232.316406 C 227.207031 230.132812 228.167969 228.226562 228.738281 226.222656 C 228.847656 225.839844 229.996094 224.863281 228.359375 224.859375 C 228.960938 222.777344 230.820312 221.808594 232.339844 220.628906 C 234.171875 219.207031 235.78125 217.390625 238.171875 216.800781 Z M 238.171875 216.800781 " fill-opacity="1" fill-rule="nonzero"/><path fill="#442b20" d="M 209.675781 229.863281 C 213.0625 231.671875 216.375 233.789062 220.519531 232.574219 C 219.492188 234.191406 217.894531 233.65625 216.550781 233.433594 C 213.546875 232.929688 210.636719 232.007812 207.785156 230.9375 C 207.199219 230.71875 206.125 230.644531 206.355469 229.847656 C 206.605469 228.960938 207.660156 229.289062 208.394531 229.378906 C 208.832031 229.4375 209.246094 229.695312 209.675781 229.863281 Z M 209.675781 229.863281 " fill-opacity="1" fill-rule="nonzero"/><path fill="#442b20" d="M 223.71875 229.910156 C 223.960938 228.515625 225.140625 227.875 226.050781 227.011719 C 225.714844 228.339844 224.566406 229 223.71875 229.910156 Z M 223.71875 229.910156 " fill-opacity="1" fill-rule="nonzero"/><path fill="#f9e4b0" d="M 223.300781 158.363281 C 224.726562 158.039062 226.351562 156.988281 227.382812 158.824219 C 228.238281 160.363281 227.007812 162.585938 225.058594 163.480469 C 224.644531 163.671875 224.191406 163.761719 223.753906 163.898438 C 222.464844 163.785156 222.910156 162.847656 223.035156 162.207031 C 223.28125 160.925781 223.34375 159.652344 223.300781 158.363281 Z M 223.300781 158.363281 " fill-opacity="1" fill-rule="nonzero"/></svg>