<svg xmlns="http://www.w3.org/2000/svg" xmlns:xlink="http://www.w3.org/1999/xlink" width="590" zoomAndPan="magnify" viewBox="0 0 442.5 295.499996" height="394" preserveAspectRatio="xMidYMid meet" version="1.0"><defs><clipPath id="d839aa4ad0"><path d="M 168 269 L 269 269 L 269 281.082031 L 168 281.082031 Z M 168 269 " clip-rule="nonzero"/></clipPath><clipPath id="0adab4d0f6"><path d="M 240 13.785156 L 242 13.785156 L 242 21 L 240 21 Z M 240 13.785156 " clip-rule="nonzero"/></clipPath><clipPath id="05058dbfcf"><path d="M 345 181 L 352.84375 181 L 352.84375 183 L 345 183 Z M 345 181 " clip-rule="nonzero"/></clipPath><clipPath id="6592e756c1"><path d="M 89.289062 130 L 99 130 L 99 132 L 89.289062 132 Z M 89.289062 130 " clip-rule="nonzero"/></clipPath></defs><path fill="#29775e" d="M 253.75 263.074219 C 253.75 265.265625 269.316406 267.035156 288.519531 267.035156 C 307.726562 267.035156 323.292969 265.265625 323.292969 263.074219 C 323.292969 260.886719 307.726562 259.117188 288.519531 259.117188 C 269.316406 259.117188 253.75 260.886719 253.75 263.074219 " fill-opacity="1" fill-rule="nonzero"/><g clip-path="url(#d839aa4ad0)"><path fill="#29775e" d="M 168.039062 275.457031 C 168.039062 278.554688 190.582031 281.0625 218.390625 281.0625 C 246.199219 281.0625 268.742188 278.554688 268.742188 275.457031 C 268.742188 272.363281 246.199219 269.855469 218.390625 269.855469 C 190.582031 269.855469 168.039062 272.363281 168.039062 275.457031 " fill-opacity="1" fill-rule="nonzero"/></g><path fill="#29775e" d="M 127.992188 265.507812 C 127.992188 268.605469 150.535156 271.117188 178.347656 271.117188 C 206.152344 271.117188 228.699219 268.605469 228.699219 265.507812 C 228.699219 262.414062 206.152344 259.902344 178.347656 259.902344 C 150.535156 259.902344 127.992188 262.414062 127.992188 265.507812 " fill-opacity="1" fill-rule="nonzero"/><path fill="#f6891d" d="M 307.738281 262.832031 L 226.097656 222.660156 L 252.179688 169.757812 L 333.820312 209.925781 L 307.738281 262.832031 " fill-opacity="1" fill-rule="nonzero"/><path fill="#fab418" d="M 333.820312 209.925781 L 252.179688 169.757812 L 309.921875 155.515625 Z M 333.820312 209.925781 " fill-opacity="1" fill-rule="nonzero"/><path fill="#ffffff" d="M 305.027344 250.058594 L 237.882812 217.027344 L 270.089844 151.699219 L 337.230469 184.734375 L 305.027344 250.058594 " fill-opacity="1" fill-rule="nonzero"/><path fill="#c13331" d="M 316.050781 210.753906 L 316.476562 209.882812 L 263.65625 183.894531 L 272.554688 165.839844 L 324.507812 191.398438 L 315.179688 210.324219 L 316.050781 210.753906 L 316.476562 209.882812 L 316.050781 210.753906 L 316.917969 211.179688 L 327.109375 190.515625 L 271.671875 163.242188 L 261.054688 184.777344 L 316.488281 212.050781 L 316.917969 211.179688 L 316.050781 210.753906 " fill-opacity="1" fill-rule="nonzero"/><path fill="#c13331" d="M 279.136719 176 C 279.285156 175.695312 279.316406 175.40625 279.222656 175.128906 C 279.132812 174.855469 278.9375 174.640625 278.628906 174.492188 L 277.570312 173.96875 L 275.730469 177.699219 L 276.792969 178.222656 C 277.074219 178.359375 277.359375 178.375 277.652344 178.273438 C 277.945312 178.171875 278.160156 177.980469 278.296875 177.703125 Z M 279.46875 172.671875 C 280.324219 173.097656 280.875 173.699219 281.117188 174.492188 C 281.335938 175.238281 281.25 176.011719 280.855469 176.8125 L 280.019531 178.503906 C 279.644531 179.273438 279.050781 179.796875 278.242188 180.078125 C 277.433594 180.359375 276.652344 180.3125 275.890625 179.9375 L 274.875 179.4375 L 272.710938 183.828125 L 270.949219 182.960938 L 276.695312 171.308594 L 279.46875 172.671875 " fill-opacity="1" fill-rule="nonzero"/><path fill="#c13331" d="M 284.371094 178.402344 L 281.457031 182.675781 L 282.757812 183.316406 Z M 280.339844 184.253906 L 278.589844 186.71875 L 276.761719 185.820312 L 284.488281 175.144531 L 286.90625 176.335938 L 283.117188 188.949219 L 281.265625 188.039062 L 282.175781 185.15625 L 280.339844 184.253906 " fill-opacity="1" fill-rule="nonzero"/><path fill="#c13331" d="M 287.460938 185.019531 L 288.449219 177.082031 L 290.382812 178.03125 L 289.625 182.859375 L 292.980469 179.3125 L 294.929688 180.269531 L 289.21875 185.882812 L 286.8125 190.765625 L 285.054688 189.902344 L 287.460938 185.019531 " fill-opacity="1" fill-rule="nonzero"/><path fill="#c13331" d="M 299.320312 182.429688 L 297.792969 191.414062 L 301.660156 183.578125 L 303.417969 184.445312 L 297.667969 196.105469 L 295.777344 195.175781 L 297.039062 186.515625 L 293.355469 193.984375 L 291.597656 193.121094 L 297.347656 181.460938 L 299.320312 182.429688 " fill-opacity="1" fill-rule="nonzero"/><path fill="#c13331" d="M 307.414062 189.660156 C 307.550781 189.378906 307.570312 189.09375 307.472656 188.804688 C 307.375 188.511719 307.183594 188.296875 306.90625 188.160156 C 306.625 188.023438 306.335938 188.003906 306.042969 188.101562 C 305.75 188.195312 305.53125 188.386719 305.394531 188.664062 L 302.25 195.042969 C 302.113281 195.320312 302.09375 195.609375 302.199219 195.902344 C 302.296875 196.195312 302.488281 196.410156 302.765625 196.546875 C 303.046875 196.6875 303.335938 196.707031 303.625 196.605469 C 303.917969 196.503906 304.132812 196.316406 304.269531 196.039062 Z M 307.8125 186.433594 C 308.589844 186.816406 309.113281 187.414062 309.386719 188.226562 C 309.664062 189.039062 309.609375 189.828125 309.230469 190.597656 L 306.09375 196.957031 C 305.710938 197.730469 305.117188 198.257812 304.300781 198.53125 C 303.488281 198.804688 302.699219 198.753906 301.925781 198.375 C 301.152344 197.992188 300.628906 197.398438 300.359375 196.585938 C 300.085938 195.773438 300.140625 194.984375 300.519531 194.214844 L 303.65625 187.855469 C 304.035156 187.082031 304.636719 186.554688 305.449219 186.28125 C 306.261719 186.007812 307.050781 186.058594 307.8125 186.433594 " fill-opacity="1" fill-rule="nonzero"/><path fill="#c13331" d="M 318.96875 192.109375 L 320.820312 193.015625 L 313.25 203.769531 L 311.574219 202.949219 L 313.730469 196.042969 L 309.636719 201.996094 L 307.953125 201.167969 L 311.742188 188.550781 L 313.585938 189.457031 L 311.429688 196.152344 L 315.355469 190.328125 L 317.195312 191.234375 L 315.042969 197.921875 L 318.96875 192.109375 " fill-opacity="1" fill-rule="nonzero"/><path fill="#dc721b" d="M 226.097656 222.660156 L 252.179688 169.757812 L 279.957031 216.292969 L 226.097656 222.660156 " fill-opacity="1" fill-rule="nonzero"/><path fill="#dc721b" d="M 307.738281 262.832031 L 333.820312 209.925781 L 279.957031 216.292969 Z M 307.738281 262.832031 " fill-opacity="1" fill-rule="nonzero"/><path fill="#fab418" d="M 307.738281 262.832031 L 226.097656 222.660156 L 283.839844 208.421875 L 307.738281 262.832031 " fill-opacity="1" fill-rule="nonzero"/><path fill="#f25632" d="M 232.539062 230.414062 C 233.765625 234.171875 231.714844 238.210938 227.949219 239.4375 L 149.144531 265.15625 C 145.382812 266.382812 141.339844 264.328125 140.109375 260.570312 L 102.550781 145.699219 C 101.324219 141.941406 103.378906 137.902344 107.140625 136.675781 L 185.945312 110.957031 C 189.707031 109.730469 193.75 111.785156 194.976562 115.542969 L 232.539062 230.414062 " fill-opacity="1" fill-rule="nonzero"/><path fill="#2f6b58" d="M 194.976562 115.542969 C 194.976562 115.535156 194.976562 115.527344 194.972656 115.523438 C 194.976562 115.527344 194.976562 115.535156 194.976562 115.542969 M 194.972656 115.523438 C 194.96875 115.515625 194.96875 115.511719 194.96875 115.507812 C 194.96875 115.511719 194.96875 115.515625 194.972656 115.523438 M 194.96875 115.507812 C 194.921875 115.367188 194.871094 115.238281 194.820312 115.109375 C 194.871094 115.238281 194.921875 115.367188 194.96875 115.507812 M 194.820312 115.105469 C 194.820312 115.097656 194.816406 115.097656 194.816406 115.089844 C 194.816406 115.097656 194.820312 115.097656 194.820312 115.105469 M 194.8125 115.085938 C 194.8125 115.082031 194.808594 115.082031 194.808594 115.078125 C 194.808594 115.082031 194.8125 115.082031 194.8125 115.085938 " fill-opacity="1" fill-rule="nonzero"/><path fill="#b33523" d="M 146.925781 265.507812 C 144.457031 265.507812 142.136719 264.222656 140.832031 262.105469 C 141.414062 262.257812 142.019531 262.335938 142.632812 262.335938 C 143.367188 262.335938 144.109375 262.222656 144.84375 261.984375 L 223.652344 236.269531 C 227.410156 235.042969 229.464844 231.003906 228.234375 227.246094 L 190.675781 112.371094 C 190.496094 111.820312 190.25 111.3125 189.957031 110.835938 C 192.09375 111.390625 193.9375 112.914062 194.808594 115.078125 C 194.808594 115.082031 194.8125 115.082031 194.8125 115.085938 C 194.8125 115.089844 194.816406 115.089844 194.816406 115.089844 C 194.816406 115.097656 194.820312 115.097656 194.820312 115.105469 C 194.820312 115.105469 194.820312 115.109375 194.820312 115.109375 C 194.871094 115.238281 194.921875 115.367188 194.96875 115.507812 C 194.96875 115.511719 194.96875 115.515625 194.972656 115.523438 C 194.976562 115.527344 194.976562 115.535156 194.976562 115.542969 L 232.539062 230.414062 C 232.777344 231.152344 232.894531 231.902344 232.894531 232.636719 C 232.898438 235.648438 230.976562 238.453125 227.949219 239.4375 L 149.144531 265.15625 C 148.410156 265.394531 147.660156 265.507812 146.925781 265.507812 " fill-opacity="1" fill-rule="nonzero"/><path fill="#ffffff" d="M 222.761719 223.441406 L 141.140625 250.074219 L 106.148438 143.054688 L 187.769531 116.421875 L 222.761719 223.441406 " fill-opacity="1" fill-rule="nonzero"/><path fill="#e9e9e9" d="M 222.761719 223.441406 L 141.140625 250.074219 L 187.769531 116.421875 Z M 222.761719 223.441406 " fill-opacity="1" fill-rule="nonzero"/><path fill="#347eab" d="M 182.691406 131.976562 L 139.527344 146.058594 L 137.660156 140.347656 L 180.824219 126.261719 L 182.691406 131.976562 " fill-opacity="1" fill-rule="nonzero"/><path fill="#bdbcbc" d="M 184.136719 136.664062 L 141.054688 150.71875 L 140.1875 148.074219 L 183.269531 134.015625 L 184.136719 136.664062 " fill-opacity="1" fill-rule="nonzero"/><path fill="#bdbcbc" d="M 176.511719 180.777344 L 133.425781 194.835938 L 132.5625 192.1875 L 175.648438 178.128906 L 176.511719 180.777344 " fill-opacity="1" fill-rule="nonzero"/><path fill="#347eab" d="M 198.285156 179.800781 L 180.703125 185.535156 L 178.050781 177.425781 L 195.636719 171.691406 L 198.285156 179.800781 " fill-opacity="1" fill-rule="nonzero"/><path fill="#bdbcbc" d="M 178.347656 186.386719 L 135.261719 200.445312 L 134.394531 197.792969 L 177.480469 183.738281 L 178.347656 186.386719 " fill-opacity="1" fill-rule="nonzero"/><path fill="#bdbcbc" d="M 198.621094 188.039062 L 170.988281 197.058594 L 170.121094 194.40625 L 197.757812 185.394531 L 198.621094 188.039062 " fill-opacity="1" fill-rule="nonzero"/><path fill="#bdbcbc" d="M 200.457031 193.644531 L 172.820312 202.664062 L 171.957031 200.015625 L 199.589844 190.996094 L 200.457031 193.644531 " fill-opacity="1" fill-rule="nonzero"/><path fill="#bdbcbc" d="M 202.8125 200.847656 L 175.175781 209.867188 L 174.3125 207.21875 L 201.945312 198.203125 L 202.8125 200.847656 " fill-opacity="1" fill-rule="nonzero"/><path fill="#bdbcbc" d="M 204.644531 206.457031 L 177.011719 215.472656 L 176.144531 212.824219 L 203.777344 203.808594 L 204.644531 206.457031 " fill-opacity="1" fill-rule="nonzero"/><path fill="#bdbcbc" d="M 185.339844 140.074219 L 122.253906 160.660156 L 130.742188 186.632812 L 193.832031 166.046875 Z M 184.429688 141.867188 L 192.039062 165.136719 L 131.65625 184.839844 L 124.046875 161.570312 L 184.429688 141.867188 " fill-opacity="1" fill-rule="nonzero"/><path fill="#bdbcbc" d="M 124.582031 167.773438 L 187.601562 147.210938 L 187.160156 145.859375 L 124.136719 166.421875 " fill-opacity="1" fill-rule="nonzero"/><path fill="#bdbcbc" d="M 134.726562 156.589844 L 143.21875 182.5625 L 144.574219 182.121094 L 136.082031 156.148438 " fill-opacity="1" fill-rule="nonzero"/><path fill="#bdbcbc" d="M 149.179688 151.875 L 157.675781 177.847656 L 159.027344 177.40625 L 150.535156 151.433594 " fill-opacity="1" fill-rule="nonzero"/><path fill="#bdbcbc" d="M 160.953125 148.03125 L 169.445312 174.003906 L 170.796875 173.5625 L 162.304688 147.589844 " fill-opacity="1" fill-rule="nonzero"/><path fill="#bdbcbc" d="M 175.40625 143.316406 L 183.898438 169.289062 L 185.25 168.847656 L 176.757812 142.875 " fill-opacity="1" fill-rule="nonzero"/><path fill="#9e9c9d" d="M 129.320312 169.992188 L 135.441406 167.992188 L 135 166.640625 L 128.878906 168.636719 " fill-opacity="1" fill-rule="nonzero"/><path fill="#9e9c9d" d="M 130.710938 174.234375 L 136.828125 172.238281 L 136.386719 170.886719 L 130.265625 172.882812 " fill-opacity="1" fill-rule="nonzero"/><path fill="#9e9c9d" d="M 132.097656 178.484375 L 138.21875 176.484375 L 137.777344 175.132812 L 131.652344 177.128906 " fill-opacity="1" fill-rule="nonzero"/><path fill="#9e9c9d" d="M 133.097656 181.539062 L 139.21875 179.542969 L 138.773438 178.191406 L 132.65625 180.1875 " fill-opacity="1" fill-rule="nonzero"/><path fill="#9e9c9d" d="M 141.8125 166 L 149.46875 163.503906 L 148.972656 161.992188 L 141.320312 164.488281 " fill-opacity="1" fill-rule="nonzero"/><path fill="#9e9c9d" d="M 143.203125 170.246094 L 150.855469 167.75 L 150.359375 166.238281 L 142.710938 168.734375 " fill-opacity="1" fill-rule="nonzero"/><path fill="#9e9c9d" d="M 144.589844 174.492188 L 152.246094 171.996094 L 151.75 170.484375 L 144.097656 172.984375 " fill-opacity="1" fill-rule="nonzero"/><path fill="#9e9c9d" d="M 145.589844 177.550781 L 153.242188 175.054688 L 152.75 173.542969 L 145.09375 176.039062 " fill-opacity="1" fill-rule="nonzero"/><path fill="#9e9c9d" d="M 182.058594 152.78125 L 185.828125 151.550781 L 185.386719 150.199219 L 181.617188 151.429688 " fill-opacity="1" fill-rule="nonzero"/><path fill="#9e9c9d" d="M 183.449219 157.027344 L 187.21875 155.796875 L 186.777344 154.445312 L 183.007812 155.675781 " fill-opacity="1" fill-rule="nonzero"/><path fill="#9e9c9d" d="M 184.835938 161.273438 L 188.605469 160.042969 L 188.164062 158.691406 L 184.394531 159.921875 " fill-opacity="1" fill-rule="nonzero"/><path fill="#9e9c9d" d="M 185.835938 164.328125 L 189.605469 163.101562 L 189.164062 161.75 L 185.394531 162.980469 " fill-opacity="1" fill-rule="nonzero"/><path fill="#9e9c9d" d="M 155.648438 161.496094 L 163.46875 158.941406 L 162.96875 157.414062 L 155.148438 159.96875 " fill-opacity="1" fill-rule="nonzero"/><path fill="#9e9c9d" d="M 157.039062 165.742188 L 164.859375 163.191406 L 164.359375 161.664062 L 156.535156 164.214844 " fill-opacity="1" fill-rule="nonzero"/><path fill="#9e9c9d" d="M 158.425781 169.988281 L 166.246094 167.4375 L 165.746094 165.910156 L 157.921875 168.460938 " fill-opacity="1" fill-rule="nonzero"/><path fill="#9e9c9d" d="M 159.425781 173.046875 L 167.246094 170.496094 L 166.746094 168.964844 L 158.921875 171.519531 " fill-opacity="1" fill-rule="nonzero"/><path fill="#9e9c9d" d="M 168.769531 157.117188 L 177.4375 154.289062 L 176.996094 152.9375 L 168.324219 155.765625 " fill-opacity="1" fill-rule="nonzero"/><path fill="#9e9c9d" d="M 170.15625 161.363281 L 178.824219 158.535156 L 178.382812 157.183594 L 169.710938 160.011719 " fill-opacity="1" fill-rule="nonzero"/><path fill="#9e9c9d" d="M 171.542969 165.609375 L 180.214844 162.78125 L 179.773438 161.429688 L 171.101562 164.257812 " fill-opacity="1" fill-rule="nonzero"/><path fill="#9e9c9d" d="M 172.542969 168.667969 L 181.214844 165.839844 L 180.773438 164.484375 L 172.101562 167.316406 " fill-opacity="1" fill-rule="nonzero"/><path fill="#193d67" d="M 120.460938 147.71875 L 118.792969 148.261719 L 118.28125 146.691406 L 123.160156 145.101562 L 123.675781 146.671875 L 122.023438 147.210938 L 124.894531 155.992188 L 123.332031 156.503906 L 120.460938 147.71875 " fill-opacity="1" fill-rule="nonzero"/><path fill="#193d67" d="M 126.601562 146.605469 L 127.355469 150.875 L 128.515625 150.496094 Z M 127.609375 152.472656 L 128.011719 154.976562 L 126.378906 155.507812 L 124.757812 144.578125 L 126.910156 143.878906 L 132.03125 153.664062 L 130.386719 154.199219 L 129.242188 151.941406 L 127.609375 152.472656 " fill-opacity="1" fill-rule="nonzero"/><path fill="#193d67" d="M 138.871094 151.433594 L 137.191406 151.980469 L 134.914062 149.078125 L 134.785156 152.765625 L 133.105469 153.3125 L 133.4375 147.445312 L 129.722656 142.960938 L 131.449219 142.398438 L 133.652344 145.21875 L 133.757812 141.644531 L 135.484375 141.078125 L 135.136719 146.890625 L 138.871094 151.433594 " fill-opacity="1" fill-rule="nonzero"/><path fill="#3274a9" d="M 169.792969 212.347656 C 172.296875 220.003906 168.109375 228.238281 160.445312 230.738281 C 152.777344 233.242188 144.535156 229.0625 142.035156 221.402344 C 139.53125 213.746094 143.710938 205.511719 151.378906 203.011719 C 159.042969 200.507812 167.285156 204.691406 169.792969 212.347656 " fill-opacity="1" fill-rule="nonzero"/><path fill="#80cc28" d="M 155.910156 216.875 C 155.910156 216.875 146.980469 219.667969 140.726562 221.832031 C 137.988281 213.453125 142.566406 204.441406 150.953125 201.707031 L 155.910156 216.875 " fill-opacity="1" fill-rule="nonzero"/><path fill="#f1511b" d="M 155.910156 216.875 C 155.910156 216.875 146.980469 219.667969 140.726562 221.832031 C 141.632812 224.601562 143.652344 227.117188 145.128906 228.441406 L 155.910156 216.875 " fill-opacity="1" fill-rule="nonzero"/><path fill="#ffffff" d="M 145.398438 212.863281 L 145.566406 213.386719 C 145.585938 213.324219 145.628906 213.261719 145.683594 213.214844 L 145.800781 213.152344 C 145.960938 213.097656 146.097656 213.117188 146.210938 213.207031 C 146.308594 213.28125 146.390625 213.410156 146.449219 213.585938 L 146.621094 214.109375 C 146.679688 214.289062 146.667969 214.457031 146.59375 214.613281 C 146.519531 214.757812 146.402344 214.859375 146.234375 214.914062 C 146.074219 214.96875 145.921875 214.949219 145.777344 214.871094 C 145.636719 214.792969 145.539062 214.671875 145.488281 214.511719 L 145.46875 214.453125 L 145.8125 214.308594 L 145.847656 214.390625 C 145.890625 214.484375 145.949219 214.539062 146.03125 214.546875 L 146.101562 214.542969 C 146.25 214.492188 146.300781 214.386719 146.25 214.230469 L 146.054688 213.632812 C 146.03125 213.5625 145.984375 213.511719 145.917969 213.480469 L 145.804688 213.484375 C 145.738281 213.503906 145.699219 213.546875 145.683594 213.605469 L 145.691406 213.757812 L 145.714844 213.828125 L 145.34375 213.945312 L 144.90625 212.609375 L 145.984375 212.261719 L 146.109375 212.628906 L 145.398438 212.863281 " fill-opacity="1" fill-rule="nonzero"/><path fill="#ffffff" d="M 147.285156 212.441406 L 147.171875 212.3125 L 147.003906 212.296875 L 146.875 212.410156 L 146.863281 212.582031 L 147.296875 213.914062 L 147.410156 214.042969 L 147.578125 214.054688 L 147.707031 213.945312 L 147.722656 213.777344 Z M 148.105469 213.65625 C 148.160156 213.820312 148.148438 213.976562 148.070312 214.125 C 147.992188 214.277344 147.871094 214.375 147.714844 214.429688 C 147.550781 214.480469 147.394531 214.472656 147.242188 214.394531 C 147.09375 214.316406 146.992188 214.199219 146.9375 214.039062 L 146.503906 212.707031 C 146.449219 212.542969 146.460938 212.386719 146.539062 212.234375 C 146.617188 212.085938 146.738281 211.984375 146.894531 211.933594 C 147.058594 211.878906 147.214844 211.890625 147.363281 211.964844 C 147.515625 212.042969 147.617188 212.164062 147.671875 212.324219 L 148.105469 213.65625 " fill-opacity="1" fill-rule="nonzero"/><path fill="#ffffff" d="M 149.714844 212.652344 L 149.652344 212.585938 L 149.566406 212.574219 L 149.496094 212.636719 L 149.492188 212.722656 L 149.71875 213.417969 L 149.777344 213.488281 L 149.867188 213.496094 L 149.933594 213.4375 L 149.941406 213.351562 Z M 149.507812 212.382812 C 149.59375 212.359375 149.675781 212.363281 149.757812 212.402344 C 149.832031 212.445312 149.886719 212.507812 149.914062 212.589844 L 150.140625 213.289062 C 150.167969 213.371094 150.164062 213.453125 150.121094 213.53125 C 150.078125 213.609375 150.019531 213.660156 149.933594 213.6875 C 149.851562 213.714844 149.769531 213.710938 149.691406 213.671875 C 149.613281 213.628906 149.558594 213.570312 149.53125 213.488281 L 149.304688 212.789062 C 149.277344 212.707031 149.28125 212.621094 149.324219 212.542969 C 149.363281 212.464844 149.425781 212.410156 149.507812 212.382812 Z M 148.886719 214.0625 L 148.671875 214.132812 L 149.074219 211.144531 L 149.289062 211.074219 Z M 148.222656 212.523438 L 148.28125 212.589844 L 148.371094 212.59375 L 148.4375 212.539062 L 148.445312 212.449219 L 148.21875 211.75 L 148.160156 211.683594 L 148.070312 211.679688 L 148.003906 211.734375 L 147.996094 211.824219 Z M 148.648438 212.386719 C 148.675781 212.472656 148.667969 212.550781 148.628906 212.632812 C 148.585938 212.710938 148.523438 212.765625 148.441406 212.792969 C 148.355469 212.820312 148.273438 212.8125 148.195312 212.773438 C 148.117188 212.730469 148.0625 212.671875 148.039062 212.585938 L 147.808594 211.890625 C 147.78125 211.804688 147.785156 211.722656 147.828125 211.644531 C 147.867188 211.566406 147.929688 211.511719 148.011719 211.484375 C 148.097656 211.457031 148.179688 211.460938 148.261719 211.503906 C 148.339844 211.546875 148.394531 211.609375 148.421875 211.6875 L 148.648438 212.386719 " fill-opacity="1" fill-rule="nonzero"/><path fill="#ffffff" d="M 160.40625 216.152344 L 160.527344 216.519531 L 160.6875 218.761719 L 160.328125 218.878906 L 160.167969 216.640625 L 159.421875 216.882812 L 159.300781 216.511719 L 160.40625 216.152344 " fill-opacity="1" fill-rule="nonzero"/><path fill="#ffffff" d="M 161.625 216.359375 L 161.515625 216.230469 L 161.339844 216.214844 L 161.214844 216.324219 L 161.203125 216.496094 L 161.636719 217.832031 L 161.746094 217.960938 L 161.917969 217.972656 L 162.046875 217.863281 L 162.058594 217.691406 Z M 162.445312 217.574219 C 162.496094 217.734375 162.484375 217.890625 162.40625 218.042969 C 162.332031 218.191406 162.214844 218.292969 162.054688 218.34375 C 161.890625 218.398438 161.734375 218.386719 161.582031 218.308594 C 161.429688 218.234375 161.332031 218.117188 161.277344 217.953125 L 160.84375 216.621094 C 160.789062 216.460938 160.800781 216.304688 160.878906 216.152344 C 160.957031 216.003906 161.074219 215.898438 161.234375 215.847656 C 161.398438 215.796875 161.554688 215.804688 161.707031 215.882812 C 161.855469 215.960938 161.957031 216.082031 162.007812 216.242188 L 162.445312 217.574219 " fill-opacity="1" fill-rule="nonzero"/><path fill="#ffffff" d="M 164.050781 216.570312 L 163.996094 216.5 L 163.90625 216.492188 L 163.835938 216.550781 L 163.828125 216.640625 L 164.058594 217.335938 L 164.117188 217.40625 L 164.203125 217.414062 L 164.273438 217.355469 L 164.28125 217.265625 Z M 163.847656 216.300781 C 163.933594 216.273438 164.011719 216.28125 164.09375 216.320312 C 164.171875 216.359375 164.222656 216.425781 164.25 216.507812 L 164.480469 217.203125 C 164.507812 217.289062 164.5 217.371094 164.460938 217.449219 C 164.421875 217.527344 164.359375 217.578125 164.273438 217.605469 C 164.191406 217.632812 164.109375 217.625 164.03125 217.585938 C 163.949219 217.546875 163.898438 217.484375 163.871094 217.402344 L 163.640625 216.707031 C 163.613281 216.621094 163.621094 216.539062 163.664062 216.460938 C 163.699219 216.382812 163.761719 216.328125 163.847656 216.300781 Z M 163.226562 217.980469 L 163.007812 218.050781 L 163.414062 215.0625 L 163.628906 214.992188 Z M 162.5625 216.4375 L 162.621094 216.507812 L 162.710938 216.511719 L 162.777344 216.457031 L 162.785156 216.363281 L 162.558594 215.667969 L 162.5 215.601562 L 162.410156 215.59375 L 162.339844 215.652344 L 162.335938 215.742188 Z M 162.988281 216.304688 C 163.015625 216.386719 163.007812 216.46875 162.964844 216.550781 C 162.925781 216.628906 162.863281 216.679688 162.78125 216.707031 C 162.695312 216.734375 162.613281 216.730469 162.535156 216.691406 C 162.457031 216.648438 162.402344 216.585938 162.375 216.503906 L 162.144531 215.804688 C 162.117188 215.722656 162.125 215.640625 162.167969 215.558594 C 162.207031 215.480469 162.265625 215.429688 162.355469 215.402344 C 162.4375 215.375 162.519531 215.378906 162.597656 215.421875 C 162.679688 215.464844 162.734375 215.523438 162.761719 215.605469 L 162.988281 216.304688 " fill-opacity="1" fill-rule="nonzero"/><path fill="#ffffff" d="M 144.308594 224.660156 L 143.695312 222.78125 L 143.382812 222.882812 L 143.296875 222.625 C 143.382812 222.585938 143.453125 222.527344 143.515625 222.441406 C 143.578125 222.359375 143.609375 222.273438 143.621094 222.179688 L 143.878906 222.097656 L 144.675781 224.539062 L 144.308594 224.660156 " fill-opacity="1" fill-rule="nonzero"/><path fill="#ffffff" d="M 145.164062 222.28125 L 145.054688 222.148438 L 144.886719 222.136719 L 144.753906 222.25 L 144.746094 222.417969 L 145.179688 223.753906 L 145.289062 223.882812 L 145.460938 223.894531 L 145.589844 223.78125 L 145.601562 223.613281 Z M 145.984375 223.496094 C 146.039062 223.65625 146.027344 223.8125 145.949219 223.964844 C 145.871094 224.113281 145.753906 224.21875 145.59375 224.269531 C 145.433594 224.320312 145.273438 224.308594 145.125 224.234375 C 144.972656 224.15625 144.871094 224.035156 144.816406 223.878906 L 144.382812 222.542969 C 144.328125 222.382812 144.34375 222.226562 144.417969 222.078125 C 144.496094 221.925781 144.613281 221.824219 144.777344 221.769531 C 144.9375 221.71875 145.09375 221.730469 145.242188 221.808594 C 145.394531 221.886719 145.496094 222.003906 145.550781 222.164062 L 145.984375 223.496094 " fill-opacity="1" fill-rule="nonzero"/><path fill="#ffffff" d="M 147.59375 222.488281 L 147.535156 222.421875 L 147.445312 222.417969 L 147.378906 222.472656 L 147.375 222.5625 L 147.601562 223.261719 L 147.65625 223.328125 L 147.746094 223.335938 L 147.816406 223.277344 L 147.820312 223.1875 Z M 147.390625 222.222656 C 147.476562 222.195312 147.558594 222.199219 147.636719 222.242188 C 147.714844 222.285156 147.765625 222.347656 147.792969 222.429688 L 148.019531 223.125 C 148.050781 223.210938 148.042969 223.292969 148.003906 223.371094 C 147.960938 223.449219 147.898438 223.5 147.816406 223.527344 C 147.730469 223.554688 147.652344 223.546875 147.570312 223.511719 C 147.492188 223.46875 147.4375 223.410156 147.410156 223.324219 L 147.183594 222.628906 C 147.15625 222.542969 147.164062 222.460938 147.203125 222.382812 C 147.242188 222.304688 147.304688 222.25 147.390625 222.222656 Z M 146.769531 223.902344 L 146.550781 223.972656 L 146.953125 220.984375 L 147.167969 220.914062 Z M 146.105469 222.359375 L 146.160156 222.429688 L 146.25 222.433594 L 146.320312 222.375 L 146.328125 222.285156 L 146.097656 221.589844 L 146.039062 221.523438 L 145.949219 221.515625 L 145.882812 221.574219 L 145.875 221.664062 Z M 146.527344 222.226562 C 146.554688 222.308594 146.546875 222.390625 146.507812 222.46875 C 146.464844 222.550781 146.40625 222.601562 146.324219 222.628906 C 146.238281 222.65625 146.15625 222.652344 146.074219 222.609375 C 145.996094 222.570312 145.941406 222.507812 145.914062 222.425781 L 145.6875 221.730469 C 145.664062 221.644531 145.667969 221.5625 145.707031 221.484375 C 145.75 221.40625 145.8125 221.351562 145.894531 221.324219 C 145.976562 221.292969 146.0625 221.300781 146.140625 221.34375 C 146.222656 221.382812 146.273438 221.445312 146.300781 221.527344 L 146.527344 222.226562 " fill-opacity="1" fill-rule="nonzero"/><path fill="#fff200" d="M 147.464844 116.878906 C 145.652344 117.46875 143.703125 116.484375 143.113281 114.671875 C 142.519531 112.859375 143.511719 110.914062 145.324219 110.324219 C 147.132812 109.730469 149.082031 110.71875 149.675781 112.53125 C 150.265625 114.339844 149.277344 116.285156 147.464844 116.878906 Z M 162.808594 112.855469 L 151.90625 116.40625 C 152.566406 115.046875 152.722656 113.445312 152.214844 111.898438 C 151.175781 108.71875 147.753906 106.980469 144.570312 108.019531 C 141.386719 109.058594 139.648438 112.480469 140.6875 115.65625 C 141.195312 117.207031 142.269531 118.40625 143.601562 119.117188 L 132.699219 122.675781 C 130.648438 123.347656 129.523438 125.554688 130.195312 127.609375 L 131.238281 130.800781 L 168.789062 118.542969 L 167.75 115.355469 C 167.078125 113.300781 164.867188 112.179688 162.808594 112.855469 " fill-opacity="1" fill-rule="nonzero"/><path fill="#fab40a" d="M 134.664062 141.28125 L 172.21875 129.027344 L 168.789062 118.542969 L 131.238281 130.800781 L 134.664062 141.28125 " fill-opacity="1" fill-rule="nonzero"/><path fill="#c13331" d="M 189.402344 273.8125 L 183.566406 273.8125 L 183.566406 250.207031 L 199.125 250.207031 L 189.402344 273.8125 " fill-opacity="1" fill-rule="nonzero"/><path fill="#c13331" d="M 245.058594 273.8125 L 250.890625 273.8125 L 250.890625 250.207031 L 235.339844 250.207031 L 245.058594 273.8125 " fill-opacity="1" fill-rule="nonzero"/><path fill="#e9e9e9" d="M 219.667969 181.140625 L 210.90625 181.140625 L 210.90625 165.601562 L 219.667969 165.601562 L 219.667969 181.140625 " fill-opacity="1" fill-rule="nonzero"/><path fill="#7b7979" d="M 219.667969 171.070312 L 210.90625 171.070312 L 210.90625 165.601562 L 219.667969 165.601562 L 219.667969 171.070312 " fill-opacity="1" fill-rule="nonzero"/><path fill="#e9e9e9" d="M 223.722656 166.476562 C 223.722656 168.167969 222.347656 169.539062 220.652344 169.539062 L 209.921875 169.539062 C 208.226562 169.539062 206.851562 168.167969 206.851562 166.476562 L 206.851562 164.945312 C 206.851562 163.253906 208.226562 161.882812 209.921875 161.882812 L 220.652344 161.882812 C 222.347656 161.882812 223.722656 163.253906 223.722656 164.945312 L 223.722656 166.476562 " fill-opacity="1" fill-rule="nonzero"/><path fill="#c13331" d="M 260.882812 224.0625 C 260.882812 249.214844 240.464844 269.605469 215.289062 269.605469 C 190.105469 269.605469 169.695312 249.214844 169.695312 224.0625 C 169.695312 198.90625 190.105469 178.511719 215.289062 178.511719 C 240.464844 178.511719 260.882812 198.90625 260.882812 224.0625 " fill-opacity="1" fill-rule="nonzero"/><path fill="#ffffff" d="M 253.277344 224.0625 C 253.277344 245.019531 236.265625 262.011719 215.289062 262.011719 C 194.304688 262.011719 177.296875 245.019531 177.296875 224.0625 C 177.296875 203.097656 194.304688 186.105469 215.289062 186.105469 C 236.265625 186.105469 253.277344 203.097656 253.277344 224.0625 " fill-opacity="1" fill-rule="nonzero"/><path fill="#1f4c7f" d="M 218.320312 224.0625 C 218.320312 225.730469 216.960938 227.089844 215.289062 227.089844 C 213.613281 227.089844 212.253906 225.730469 212.253906 224.0625 C 212.253906 222.386719 213.613281 221.027344 215.289062 221.027344 C 216.960938 221.027344 218.320312 222.386719 218.320312 224.0625 " fill-opacity="1" fill-rule="nonzero"/><path fill="#1f4c7f" d="M 217.496094 217.824219 C 217.496094 217.824219 216.511719 222.242188 215.289062 222.242188 C 214.066406 222.242188 213.078125 217.824219 213.078125 217.824219 C 213.078125 217.824219 214.066406 192.289062 215.289062 192.289062 C 216.511719 192.289062 217.496094 217.824219 217.496094 217.824219 " fill-opacity="1" fill-rule="nonzero"/><path fill="#1f4c7f" d="M 210.792969 224.292969 C 210.792969 224.292969 214.335938 221.476562 215.289062 222.242188 C 216.238281 223.007812 214.234375 227.0625 214.234375 227.0625 C 214.234375 227.0625 202.195312 240.757812 201.246094 239.992188 C 200.292969 239.226562 210.792969 224.292969 210.792969 224.292969 " fill-opacity="1" fill-rule="nonzero"/><path fill="#7bd4f7" d="M 234.761719 191.472656 C 244.097656 198.386719 250.160156 209.476562 250.160156 221.980469 C 250.160156 242.941406 233.148438 259.933594 212.164062 259.933594 C 205.046875 259.933594 198.390625 257.972656 192.691406 254.566406 C 199.007812 259.242188 206.820312 262.011719 215.289062 262.011719 C 236.265625 262.011719 253.277344 245.019531 253.277344 224.0625 C 253.277344 210.210938 245.851562 198.097656 234.761719 191.472656 " fill-opacity="1" fill-rule="nonzero"/><path fill="#c13331" d="M 167.679688 194.40625 C 160.996094 185.601562 162.726562 173.054688 171.539062 166.382812 C 180.355469 159.707031 192.914062 161.4375 199.59375 170.242188 L 167.679688 194.40625 " fill-opacity="1" fill-rule="nonzero"/><path fill="#932623" d="M 199.59375 170.242188 C 200.71875 171.726562 194.488281 178.339844 185.679688 185.015625 C 176.863281 191.6875 168.804688 195.890625 167.679688 194.40625 C 166.550781 192.921875 172.777344 186.304688 181.59375 179.632812 C 190.40625 172.960938 198.46875 168.757812 199.59375 170.242188 " fill-opacity="1" fill-rule="nonzero"/><path fill="#ef3430" d="M 192.894531 168.449219 C 192.375 170.167969 188.996094 170.664062 185.355469 169.558594 C 181.714844 168.457031 179.183594 166.171875 179.703125 164.453125 C 180.222656 162.738281 183.601562 162.242188 187.242188 163.347656 C 190.882812 164.449219 193.414062 166.734375 192.894531 168.449219 " fill-opacity="1" fill-rule="nonzero"/><path fill="#c13331" d="M 192.605469 187.265625 L 185.972656 192.289062 L 178.746094 182.765625 L 185.382812 177.738281 L 192.605469 187.265625 " fill-opacity="1" fill-rule="nonzero"/><path fill="#c13331" d="M 264.820312 194.40625 C 271.5 185.601562 269.769531 173.054688 260.953125 166.382812 C 252.140625 159.707031 239.582031 161.4375 232.902344 170.242188 L 264.820312 194.40625 " fill-opacity="1" fill-rule="nonzero"/><path fill="#932623" d="M 232.902344 170.242188 C 231.773438 171.726562 238.003906 178.339844 246.820312 185.015625 C 255.632812 191.6875 263.691406 195.890625 264.820312 194.40625 C 265.945312 192.921875 259.714844 186.304688 250.902344 179.632812 C 242.089844 172.960938 234.03125 168.757812 232.902344 170.242188 " fill-opacity="1" fill-rule="nonzero"/><path fill="#ef3430" d="M 239.601562 168.449219 C 240.121094 170.167969 243.496094 170.664062 247.140625 169.558594 C 250.78125 168.457031 253.3125 166.171875 252.789062 164.453125 C 252.269531 162.738281 248.894531 162.242188 245.253906 163.347656 C 241.609375 164.449219 239.082031 166.734375 239.601562 168.449219 " fill-opacity="1" fill-rule="nonzero"/><path fill="#c13331" d="M 239.890625 187.265625 L 246.523438 192.289062 L 253.75 182.765625 L 247.113281 177.738281 L 239.890625 187.265625 " fill-opacity="1" fill-rule="nonzero"/><path fill="#1f4c7f" d="M 216.921875 189.839844 C 216.921875 190.742188 216.1875 191.472656 215.289062 191.472656 C 214.386719 191.472656 213.65625 190.742188 213.65625 189.839844 C 213.65625 188.941406 214.386719 188.210938 215.289062 188.210938 C 216.1875 188.210938 216.921875 188.941406 216.921875 189.839844 " fill-opacity="1" fill-rule="nonzero"/><path fill="#1f4c7f" d="M 216.921875 257.484375 C 216.921875 258.386719 216.1875 259.117188 215.289062 259.117188 C 214.386719 259.117188 213.65625 258.386719 213.65625 257.484375 C 213.65625 256.585938 214.386719 255.855469 215.289062 255.855469 C 216.1875 255.855469 216.921875 256.585938 216.921875 257.484375 " fill-opacity="1" fill-rule="nonzero"/><path fill="#1f4c7f" d="M 249.140625 225.292969 C 248.242188 225.292969 247.507812 224.5625 247.507812 223.660156 C 247.507812 222.761719 248.242188 222.03125 249.140625 222.03125 C 250.046875 222.03125 250.773438 222.761719 250.773438 223.660156 C 250.773438 224.5625 250.046875 225.292969 249.140625 225.292969 " fill-opacity="1" fill-rule="nonzero"/><path fill="#1f4c7f" d="M 181.429688 225.292969 C 180.527344 225.292969 179.796875 224.5625 179.796875 223.660156 C 179.796875 222.761719 180.527344 222.03125 181.429688 222.03125 C 182.335938 222.03125 183.066406 222.761719 183.066406 223.660156 C 183.066406 224.5625 182.335938 225.292969 181.429688 225.292969 " fill-opacity="1" fill-rule="nonzero"/><path fill="#1f4c7f" d="M 240.378906 200.898438 C 239.742188 201.539062 238.710938 201.539062 238.074219 200.898438 C 237.4375 200.265625 237.4375 199.230469 238.074219 198.59375 C 238.710938 197.957031 239.742188 197.957031 240.378906 198.59375 C 241.015625 199.230469 241.015625 200.265625 240.378906 200.898438 " fill-opacity="1" fill-rule="nonzero"/><path fill="#1f4c7f" d="M 192.503906 248.730469 C 191.867188 249.367188 190.828125 249.367188 190.191406 248.730469 C 189.554688 248.09375 189.554688 247.0625 190.191406 246.425781 C 190.828125 245.785156 191.867188 245.785156 192.503906 246.425781 C 193.140625 247.0625 193.140625 248.09375 192.503906 248.730469 " fill-opacity="1" fill-rule="nonzero"/><path fill="#1f4c7f" d="M 238.074219 248.730469 C 237.4375 248.09375 237.4375 247.0625 238.074219 246.425781 C 238.710938 245.785156 239.742188 245.785156 240.378906 246.425781 C 241.015625 247.0625 241.015625 248.09375 240.378906 248.730469 C 239.742188 249.367188 238.710938 249.367188 238.074219 248.730469 " fill-opacity="1" fill-rule="nonzero"/><path fill="#1f4c7f" d="M 190.191406 200.898438 C 189.554688 200.265625 189.554688 199.230469 190.191406 198.59375 C 190.828125 197.957031 191.867188 197.957031 192.503906 198.59375 C 193.140625 199.230469 193.140625 200.265625 192.503906 200.898438 C 191.867188 201.539062 190.828125 201.539062 190.191406 200.898438 " fill-opacity="1" fill-rule="nonzero"/><path fill="#0a1c30" d="M 308.363281 82.984375 C 308.363281 52.992188 274.03125 34.175781 231.679688 34.175781 C 189.328125 34.175781 154.996094 52.992188 154.996094 82.984375 C 154.996094 112.972656 189.328125 131.144531 231.679688 131.144531 C 236.023438 131.144531 240.28125 130.949219 244.429688 130.574219 L 240.089844 157.324219 L 267.65625 126.183594 C 291.871094 118.867188 308.363281 103.765625 308.363281 82.984375 " fill-opacity="1" fill-rule="nonzero"/><path fill="#ffffff" d="M 305.984375 75.339844 C 305.984375 45.351562 271.652344 26.53125 229.300781 26.53125 C 186.953125 26.53125 152.621094 45.351562 152.621094 75.339844 C 152.621094 105.328125 186.953125 123.5 229.300781 123.5 C 233.644531 123.5 237.902344 123.304688 242.050781 122.929688 L 237.714844 149.683594 L 265.277344 118.542969 C 289.496094 111.226562 305.984375 96.121094 305.984375 75.339844 " fill-opacity="1" fill-rule="nonzero"/><path fill="#dad9d9" d="M 296.5 50.46875 C 299.898438 56.148438 301.761719 62.53125 301.761719 69.523438 C 301.761719 90.304688 285.277344 105.40625 261.058594 112.722656 L 239.8125 136.726562 L 237.714844 149.683594 L 265.277344 118.542969 C 289.496094 111.226562 305.984375 96.121094 305.984375 75.339844 C 305.984375 65.851562 302.542969 57.480469 296.5 50.46875 " fill-opacity="1" fill-rule="nonzero"/><path fill="#dad9d9" d="M 242.050781 122.929688 C 237.902344 123.304688 229.425781 117.683594 225.082031 117.683594 C 196.050781 117.683594 170.792969 109.144531 157.769531 94.113281 C 168.875 112.742188 196.710938 123.5 229.300781 123.5 C 231.839844 123.5 234.351562 123.425781 236.828125 123.296875 L 242.050781 122.929688 " fill-opacity="1" fill-rule="nonzero"/><path fill="#183a59" d="M 209.910156 60.097656 L 223.878906 60.097656 C 223.878906 60.285156 223.886719 60.570312 223.90625 60.957031 C 223.921875 61.34375 223.929688 61.628906 223.929688 61.816406 C 223.929688 68.089844 222.773438 72.976562 220.46875 76.492188 C 218.160156 80.003906 214.976562 81.757812 210.910156 81.757812 C 206.953125 81.757812 203.8125 80.042969 201.496094 76.605469 C 199.183594 73.171875 198.023438 68.492188 198.023438 62.5625 C 198.023438 56.585938 199.226562 51.878906 201.628906 48.441406 C 204.027344 45.007812 207.300781 43.289062 211.453125 43.289062 C 214.265625 43.289062 216.652344 44.109375 218.617188 45.753906 C 220.578125 47.402344 222.015625 49.789062 222.925781 52.925781 L 216.1875 56.039062 C 215.890625 54.167969 215.339844 52.773438 214.527344 51.847656 C 213.710938 50.921875 212.636719 50.460938 211.300781 50.460938 C 209.292969 50.460938 207.820312 51.433594 206.886719 53.375 C 205.949219 55.320312 205.484375 58.382812 205.484375 62.5625 C 205.484375 66.554688 205.976562 69.578125 206.960938 71.636719 C 207.949219 73.691406 209.394531 74.71875 211.300781 74.71875 C 212.960938 74.71875 214.257812 74.023438 215.195312 72.625 C 216.128906 71.230469 216.597656 69.261719 216.597656 66.726562 L 209.910156 66.726562 L 209.910156 60.097656 " fill-opacity="1" fill-rule="nonzero"/><path fill="#183a59" d="M 227.425781 79.988281 L 227.425781 72.199219 C 228.371094 73.023438 229.296875 73.640625 230.207031 74.050781 C 231.113281 74.460938 232.03125 74.664062 232.957031 74.664062 C 234.226562 74.664062 235.226562 74.332031 235.953125 73.664062 C 236.683594 72.996094 237.046875 72.089844 237.046875 70.941406 C 237.046875 69.519531 236.0625 67.976562 234.089844 66.3125 C 233.542969 65.851562 233.128906 65.492188 232.855469 65.234375 C 230.558594 63.179688 228.976562 61.335938 228.121094 59.699219 C 227.265625 58.0625 226.835938 56.207031 226.835938 54.132812 C 226.835938 50.894531 227.746094 48.277344 229.574219 46.285156 C 231.402344 44.289062 233.789062 43.289062 236.738281 43.289062 C 237.785156 43.289062 238.820312 43.4375 239.835938 43.738281 C 240.859375 44.039062 241.933594 44.507812 243.066406 45.140625 L 243.066406 51.769531 C 241.75 51.136719 240.722656 50.699219 239.992188 50.460938 C 239.265625 50.21875 238.617188 50.097656 238.050781 50.097656 C 236.972656 50.097656 236.089844 50.4375 235.402344 51.113281 C 234.714844 51.792969 234.371094 52.679688 234.371094 53.773438 C 234.371094 54.734375 234.628906 55.628906 235.144531 56.460938 C 235.65625 57.289062 236.859375 58.519531 238.746094 60.148438 C 241.269531 62.304688 242.886719 64.101562 243.609375 65.53125 C 244.328125 66.960938 244.691406 68.6875 244.691406 70.707031 C 244.691406 74.117188 243.722656 76.8125 241.792969 78.789062 C 239.863281 80.769531 237.234375 81.757812 233.910156 81.757812 C 232.640625 81.757812 231.46875 81.613281 230.398438 81.320312 C 229.328125 81.03125 228.335938 80.585938 227.425781 79.988281 " fill-opacity="1" fill-rule="nonzero"/><path fill="#183a59" d="M 252.328125 81.296875 L 252.328125 50.714844 L 246.59375 50.714844 L 246.59375 43.777344 L 265.601562 43.777344 L 265.601562 50.714844 L 259.867188 50.714844 L 259.867188 81.296875 L 252.328125 81.296875 " fill-opacity="1" fill-rule="nonzero"/><path fill="#183a59" d="M 209.65625 106.929688 L 209.65625 89.878906 L 206.457031 89.878906 L 206.457031 86.011719 L 217.058594 86.011719 L 217.058594 89.878906 L 213.859375 89.878906 L 213.859375 106.929688 L 209.65625 106.929688 " fill-opacity="1" fill-rule="nonzero"/><path fill="#183a59" d="M 219.296875 106.929688 L 219.296875 86.011719 L 223.554688 86.011719 L 223.554688 106.929688 L 219.296875 106.929688 " fill-opacity="1" fill-rule="nonzero"/><path fill="#183a59" d="M 226.023438 106.929688 L 228.074219 86.011719 L 233.453125 86.011719 L 234.542969 93.992188 C 234.703125 95.207031 234.84375 96.367188 234.949219 97.480469 C 235.0625 98.59375 235.148438 99.675781 235.21875 100.726562 C 235.390625 98.882812 235.535156 97.425781 235.65625 96.363281 C 235.773438 95.296875 235.871094 94.507812 235.949219 93.992188 L 237.296875 86.011719 L 242.621094 86.011719 L 244.382812 106.929688 L 240.152344 106.929688 L 239.707031 97.214844 C 239.695312 96.984375 239.683594 96.644531 239.660156 96.183594 C 239.539062 93.644531 239.480469 91.5625 239.480469 89.9375 L 236.753906 106.929688 L 233.726562 106.929688 L 231.160156 89.824219 C 231.160156 91.246094 231.070312 93.28125 230.898438 95.925781 C 230.863281 96.527344 230.832031 96.976562 230.8125 97.273438 L 230.167969 106.929688 L 226.023438 106.929688 " fill-opacity="1" fill-rule="nonzero"/><path fill="#183a59" d="M 246.648438 106.929688 L 246.648438 86.011719 L 255.457031 86.011719 L 255.457031 89.878906 L 250.695312 89.878906 L 250.695312 94.105469 L 255.011719 94.105469 L 255.011719 97.945312 L 250.695312 97.945312 L 250.695312 102.847656 L 255.457031 102.847656 L 255.457031 106.929688 L 246.648438 106.929688 " fill-opacity="1" fill-rule="nonzero"/><path fill="#ffffff" d="M 127.613281 95.949219 L 127.613281 102.28125 C 127.613281 102.492188 127.785156 102.660156 127.992188 102.660156 C 128.203125 102.660156 128.371094 102.492188 128.371094 102.28125 L 128.371094 95.949219 C 128.371094 95.738281 128.203125 95.566406 127.992188 95.566406 C 127.785156 95.566406 127.613281 95.738281 127.613281 95.949219 " fill-opacity="1" fill-rule="nonzero"/><path fill="#ffffff" d="M 131.164062 98.734375 L 124.824219 98.734375 C 124.613281 98.734375 124.441406 98.90625 124.441406 99.117188 C 124.441406 99.324219 124.613281 99.496094 124.824219 99.496094 L 131.164062 99.496094 C 131.371094 99.496094 131.542969 99.324219 131.542969 99.117188 C 131.542969 98.90625 131.371094 98.734375 131.164062 98.734375 " fill-opacity="1" fill-rule="nonzero"/><path fill="#ffffff" d="M 162.660156 65.800781 L 162.660156 72.136719 C 162.660156 72.347656 162.828125 72.515625 163.039062 72.515625 C 163.25 72.515625 163.417969 72.347656 163.417969 72.136719 L 163.417969 65.800781 C 163.417969 65.589844 163.25 65.421875 163.039062 65.421875 C 162.828125 65.421875 162.660156 65.589844 162.660156 65.800781 " fill-opacity="1" fill-rule="nonzero"/><path fill="#ffffff" d="M 166.210938 68.589844 L 159.867188 68.589844 C 159.65625 68.589844 159.488281 68.757812 159.488281 68.96875 C 159.488281 69.179688 159.65625 69.347656 159.867188 69.347656 L 166.210938 69.347656 C 166.421875 69.347656 166.589844 69.179688 166.589844 68.96875 C 166.589844 68.757812 166.421875 68.589844 166.210938 68.589844 " fill-opacity="1" fill-rule="nonzero"/><g clip-path="url(#0adab4d0f6)"><path fill="#ffffff" d="M 240.476562 14.140625 L 240.476562 20.476562 C 240.476562 20.683594 240.648438 20.855469 240.859375 20.855469 C 241.066406 20.855469 241.238281 20.683594 241.238281 20.476562 L 241.238281 14.140625 C 241.238281 13.933594 241.066406 13.761719 240.859375 13.761719 C 240.648438 13.761719 240.476562 13.933594 240.476562 14.140625 " fill-opacity="1" fill-rule="nonzero"/></g><path fill="#ffffff" d="M 244.027344 16.929688 L 237.6875 16.929688 C 237.480469 16.929688 237.308594 17.101562 237.308594 17.308594 C 237.308594 17.519531 237.480469 17.691406 237.6875 17.691406 L 244.027344 17.691406 C 244.238281 17.691406 244.410156 17.519531 244.410156 17.308594 C 244.410156 17.101562 244.238281 16.929688 244.027344 16.929688 " fill-opacity="1" fill-rule="nonzero"/><path fill="#ffffff" d="M 336.851562 47.304688 L 336.851562 53.636719 C 336.851562 53.847656 337.023438 54.019531 337.230469 54.019531 C 337.441406 54.019531 337.613281 53.847656 337.613281 53.636719 L 337.613281 47.304688 C 337.613281 47.09375 337.441406 46.925781 337.230469 46.925781 C 337.023438 46.925781 336.851562 47.09375 336.851562 47.304688 " fill-opacity="1" fill-rule="nonzero"/><path fill="#ffffff" d="M 340.402344 50.089844 L 334.0625 50.089844 C 333.851562 50.089844 333.679688 50.261719 333.679688 50.46875 C 333.679688 50.679688 333.851562 50.851562 334.0625 50.851562 L 340.402344 50.851562 C 340.609375 50.851562 340.785156 50.679688 340.785156 50.46875 C 340.785156 50.261719 340.609375 50.089844 340.402344 50.089844 " fill-opacity="1" fill-rule="nonzero"/><path fill="#ffffff" d="M 348.894531 179.175781 L 348.894531 185.507812 C 348.894531 185.71875 349.066406 185.890625 349.277344 185.890625 C 349.488281 185.890625 349.65625 185.71875 349.65625 185.507812 L 349.65625 179.175781 C 349.65625 178.964844 349.488281 178.796875 349.277344 178.796875 C 349.066406 178.796875 348.894531 178.964844 348.894531 179.175781 " fill-opacity="1" fill-rule="nonzero"/><g clip-path="url(#05058dbfcf)"><path fill="#ffffff" d="M 352.445312 181.960938 L 346.105469 181.960938 C 345.894531 181.960938 345.726562 182.132812 345.726562 182.339844 C 345.726562 182.550781 345.894531 182.722656 346.105469 182.722656 L 352.445312 182.722656 C 352.65625 182.722656 352.828125 182.550781 352.828125 182.339844 C 352.828125 182.132812 352.65625 181.960938 352.445312 181.960938 " fill-opacity="1" fill-rule="nonzero"/></g><path fill="#ffffff" d="M 117.007812 66.5625 L 116.625 66.5625 C 116.625 67.679688 115.714844 68.585938 114.59375 68.589844 C 113.476562 68.585938 112.570312 67.679688 112.566406 66.5625 C 112.570312 65.441406 113.476562 64.539062 114.59375 64.535156 C 115.714844 64.539062 116.625 65.441406 116.625 66.5625 L 117.386719 66.5625 C 117.386719 65.023438 116.136719 63.773438 114.59375 63.773438 C 113.054688 63.773438 111.808594 65.023438 111.804688 66.5625 C 111.808594 68.101562 113.054688 69.347656 114.59375 69.347656 C 116.136719 69.347656 117.386719 68.101562 117.386719 66.5625 L 117.007812 66.5625 " fill-opacity="1" fill-rule="nonzero"/><path fill="#ffffff" d="M 199.390625 45.546875 L 199.007812 45.546875 C 199.007812 46.667969 198.101562 47.570312 196.980469 47.570312 C 195.859375 47.570312 194.953125 46.667969 194.949219 45.546875 C 194.953125 44.425781 195.859375 43.519531 196.980469 43.519531 C 198.101562 43.519531 199.007812 44.425781 199.007812 45.546875 L 199.769531 45.546875 C 199.769531 44.003906 198.519531 42.757812 196.980469 42.757812 C 195.4375 42.757812 194.191406 44.003906 194.191406 45.546875 C 194.191406 47.082031 195.4375 48.332031 196.980469 48.332031 C 198.519531 48.332031 199.769531 47.082031 199.769531 45.546875 L 199.390625 45.546875 " fill-opacity="1" fill-rule="nonzero"/><path fill="#ffffff" d="M 102.121094 174.074219 L 101.742188 174.074219 C 101.738281 175.195312 100.832031 176.101562 99.710938 176.101562 C 98.59375 176.101562 97.683594 175.195312 97.683594 174.074219 C 97.683594 172.953125 98.59375 172.046875 99.710938 172.046875 C 100.832031 172.046875 101.738281 172.953125 101.742188 174.074219 L 102.503906 174.074219 C 102.503906 172.535156 101.253906 171.289062 99.710938 171.289062 C 98.171875 171.289062 96.921875 172.535156 96.921875 174.074219 C 96.921875 175.613281 98.171875 176.859375 99.710938 176.859375 C 101.253906 176.859375 102.503906 175.613281 102.503906 174.074219 L 102.121094 174.074219 " fill-opacity="1" fill-rule="nonzero"/><path fill="#ffffff" d="M 290.539062 68.96875 L 290.15625 68.96875 C 290.15625 70.089844 289.25 70.992188 288.128906 70.996094 C 287.007812 70.992188 286.101562 70.089844 286.101562 68.96875 C 286.101562 67.851562 287.007812 66.945312 288.128906 66.941406 C 289.25 66.945312 290.15625 67.851562 290.15625 68.96875 L 290.917969 68.96875 C 290.917969 67.429688 289.671875 66.183594 288.128906 66.183594 C 286.585938 66.183594 285.339844 67.429688 285.339844 68.96875 C 285.339844 70.507812 286.585938 71.753906 288.128906 71.753906 C 289.671875 71.753906 290.917969 70.507812 290.917969 68.96875 L 290.539062 68.96875 " fill-opacity="1" fill-rule="nonzero"/><path fill="#ffffff" d="M 328.21875 148.941406 L 327.839844 148.941406 C 327.835938 150.0625 326.929688 150.964844 325.808594 150.96875 C 324.6875 150.964844 323.78125 150.0625 323.777344 148.941406 C 323.78125 147.824219 324.6875 146.917969 325.808594 146.914062 C 326.929688 146.917969 327.835938 147.824219 327.839844 148.941406 L 328.597656 148.941406 C 328.597656 147.402344 327.351562 146.15625 325.808594 146.152344 C 324.269531 146.15625 323.019531 147.402344 323.019531 148.941406 C 323.019531 150.480469 324.269531 151.730469 325.808594 151.730469 C 327.351562 151.730469 328.597656 150.480469 328.597656 148.941406 L 328.21875 148.941406 " fill-opacity="1" fill-rule="nonzero"/><path fill="#ffffff" d="M 127.152344 36.960938 L 135.648438 36.960938 C 135.859375 36.960938 136.027344 36.789062 136.027344 36.582031 C 136.027344 36.371094 135.859375 36.199219 135.648438 36.199219 L 127.152344 36.199219 C 126.941406 36.199219 126.769531 36.371094 126.769531 36.582031 C 126.769531 36.789062 126.941406 36.960938 127.152344 36.960938 " fill-opacity="1" fill-rule="nonzero"/><path fill="#ffffff" d="M 128.671875 39.242188 L 137.167969 39.242188 C 137.378906 39.242188 137.550781 39.070312 137.550781 38.863281 C 137.550781 38.652344 137.378906 38.480469 137.167969 38.480469 L 128.671875 38.480469 C 128.464844 38.480469 128.292969 38.652344 128.292969 38.863281 C 128.292969 39.070312 128.464844 39.242188 128.671875 39.242188 " fill-opacity="1" fill-rule="nonzero"/><path fill="#ffffff" d="M 167.871094 20.855469 L 176.367188 20.855469 C 176.578125 20.855469 176.75 20.683594 176.75 20.476562 C 176.75 20.269531 176.578125 20.09375 176.367188 20.09375 L 167.871094 20.09375 C 167.660156 20.09375 167.492188 20.269531 167.492188 20.476562 C 167.492188 20.683594 167.660156 20.855469 167.871094 20.855469 " fill-opacity="1" fill-rule="nonzero"/><path fill="#ffffff" d="M 169.394531 23.136719 L 177.890625 23.136719 C 178.101562 23.136719 178.269531 22.964844 178.269531 22.757812 C 178.269531 22.546875 178.101562 22.375 177.890625 22.375 L 169.394531 22.375 C 169.183594 22.375 169.015625 22.546875 169.015625 22.757812 C 169.015625 22.964844 169.183594 23.136719 169.394531 23.136719 " fill-opacity="1" fill-rule="nonzero"/><path fill="#ffffff" d="M 293.382812 28.136719 L 301.878906 28.136719 C 302.089844 28.136719 302.261719 27.96875 302.261719 27.757812 C 302.261719 27.546875 302.089844 27.375 301.878906 27.375 L 293.382812 27.375 C 293.171875 27.375 293 27.546875 293 27.757812 C 293 27.96875 293.171875 28.136719 293.382812 28.136719 " fill-opacity="1" fill-rule="nonzero"/><path fill="#ffffff" d="M 294.902344 30.417969 L 303.402344 30.417969 C 303.613281 30.417969 303.78125 30.246094 303.78125 30.039062 C 303.78125 29.828125 303.613281 29.65625 303.402344 29.65625 L 294.902344 29.65625 C 294.695312 29.65625 294.527344 29.828125 294.527344 30.039062 C 294.527344 30.246094 294.695312 30.417969 294.902344 30.417969 " fill-opacity="1" fill-rule="nonzero"/><path fill="#ffffff" d="M 320.796875 98.351562 L 329.296875 98.351562 C 329.503906 98.351562 329.675781 98.183594 329.675781 97.972656 C 329.675781 97.765625 329.503906 97.59375 329.296875 97.59375 L 320.796875 97.59375 C 320.585938 97.59375 320.417969 97.765625 320.417969 97.972656 C 320.417969 98.183594 320.585938 98.351562 320.796875 98.351562 " fill-opacity="1" fill-rule="nonzero"/><path fill="#ffffff" d="M 322.320312 100.632812 L 330.816406 100.632812 C 331.027344 100.632812 331.199219 100.464844 331.199219 100.253906 C 331.199219 100.042969 331.027344 99.871094 330.816406 99.871094 L 322.320312 99.871094 C 322.113281 99.871094 321.9375 100.042969 321.9375 100.253906 C 321.9375 100.464844 322.113281 100.632812 322.320312 100.632812 " fill-opacity="1" fill-rule="nonzero"/><g clip-path="url(#6592e756c1)"><path fill="#ffffff" d="M 89.691406 131.046875 L 98.191406 131.046875 C 98.402344 131.046875 98.570312 130.878906 98.570312 130.667969 C 98.570312 130.460938 98.402344 130.289062 98.191406 130.289062 L 89.691406 130.289062 C 89.480469 130.289062 89.3125 130.460938 89.3125 130.667969 C 89.3125 130.878906 89.480469 131.046875 89.691406 131.046875 " fill-opacity="1" fill-rule="nonzero"/></g><path fill="#ffffff" d="M 91.21875 133.328125 L 99.710938 133.328125 C 99.921875 133.328125 100.09375 133.160156 100.09375 132.949219 C 100.09375 132.738281 99.921875 132.570312 99.710938 132.570312 L 91.21875 132.570312 C 91.007812 132.570312 90.835938 132.738281 90.835938 132.949219 C 90.835938 133.160156 91.007812 133.328125 91.21875 133.328125 " fill-opacity="1" fill-rule="nonzero"/></svg>