<svg xmlns="http://www.w3.org/2000/svg" xmlns:xlink="http://www.w3.org/1999/xlink" width="590" zoomAndPan="magnify" viewBox="0 0 442.5 295.499996" height="394" preserveAspectRatio="xMidYMid meet" version="1.0"><defs><clipPath id="7345177436"><path d="M 113.917969 101 L 121 101 L 121 108 L 113.917969 108 Z M 113.917969 101 " clip-rule="nonzero"/></clipPath><clipPath id="3c9b2b375e"><path d="M 179 16.328125 L 187 16.328125 L 187 24 L 179 24 Z M 179 16.328125 " clip-rule="nonzero"/></clipPath></defs><path fill="#eae0be" d="M 163.378906 136.207031 C 163.339844 135.964844 163.300781 135.707031 163.269531 135.464844 C 162.433594 129.445312 162.347656 123.34375 163.1875 117.320312 C 163.460938 115.367188 163.820312 113.425781 164.28125 111.496094 C 165.726562 105.488281 168.46875 99.667969 172.304688 94.75 C 174.59375 91.804688 177.277344 89.183594 180.3125 87.03125 C 189.621094 80.410156 199.589844 82.664062 210.339844 81.039062 C 217.976562 79.882812 225.585938 78.195312 232.765625 75.292969 C 239.949219 72.394531 246.597656 68.28125 252.125 62.824219 C 258.46875 56.554688 260.808594 48.8125 265.828125 41.914062 C 267.421875 39.726562 269.960938 37.394531 273.589844 35.453125 C 275.40625 34.308594 277.355469 33.339844 279.414062 32.625 C 281.480469 31.902344 283.671875 31.433594 285.980469 31.269531 C 296.773438 30.488281 307.699219 35.292969 315.957031 42.246094 C 324.777344 49.6875 331.578125 58.785156 336.269531 68.804688 C 339.273438 75.207031 341.410156 81.972656 342.671875 88.921875 C 345.292969 103.433594 344.074219 118.703125 338.808594 132.925781 C 323.628906 173.953125 281.539062 208.710938 236.21875 205.773438 C 235.800781 205.742188 235.386719 205.707031 234.964844 205.671875 C 234.714844 205.667969 234.445312 205.636719 234.1875 205.617188 C 232.851562 205.5 231.503906 205.335938 230.171875 205.136719 C 226.683594 204.613281 223.246094 203.84375 219.894531 202.796875 C 217.261719 201.964844 214.6875 200.96875 212.183594 199.8125 C 209.289062 198.460938 206.484375 197.015625 203.792969 195.46875 C 201.664062 194.257812 199.597656 192.976562 197.601562 191.621094 C 193.054688 188.546875 188.878906 185.09375 185.09375 181.179688 C 183.257812 179.292969 181.515625 177.296875 179.886719 175.171875 C 177.703125 172.371094 175.703125 169.359375 173.886719 166.117188 C 170.367188 159.855469 167.476562 153.097656 165.511719 146.09375 C 164.589844 142.828125 163.863281 139.527344 163.378906 136.207031 Z M 163.378906 136.207031 " fill-opacity="1" fill-rule="nonzero"/><path fill="#4050ff" d="M 252.625 193.132812 L 147.621094 218.003906 C 144.46875 218.75 141.445312 216.367188 141.445312 213.136719 L 141.445312 41.421875 C 141.445312 38.445312 144.03125 36.128906 146.996094 36.445312 L 244.503906 46.863281 C 246.949219 47.125 248.84375 49.117188 248.980469 51.566406 L 256.476562 188 C 256.613281 190.410156 254.988281 192.574219 252.625 193.132812 Z M 252.625 193.132812 " fill-opacity="1" fill-rule="nonzero"/><path fill="#0b2f3f" d="M 260.171875 190.851562 L 151.03125 216.703125 C 149.152344 217.148438 147.347656 215.726562 147.347656 213.800781 L 147.347656 37.277344 C 147.347656 35.5 148.886719 34.121094 150.65625 34.308594 L 252.113281 45.148438 C 253.570312 45.304688 254.699219 46.492188 254.78125 47.953125 L 262.464844 187.785156 C 262.546875 189.230469 261.578125 190.519531 260.171875 190.851562 Z M 260.171875 190.851562 " fill-opacity="1" fill-rule="nonzero"/><path fill="#ffffff" d="M 150.332031 217.171875 C 149.578125 217.171875 148.847656 216.921875 148.242188 216.441406 C 147.421875 215.800781 146.957031 214.835938 146.957031 213.800781 L 146.957031 37.277344 C 146.957031 36.320312 147.367188 35.40625 148.078125 34.773438 C 148.789062 34.132812 149.742188 33.824219 150.691406 33.929688 L 252.148438 44.769531 C 253.800781 44.941406 255.070312 46.277344 255.160156 47.933594 L 262.847656 187.765625 C 262.933594 189.398438 261.847656 190.851562 260.253906 191.230469 L 151.113281 217.082031 C 150.855469 217.140625 150.585938 217.171875 150.332031 217.171875 Z M 150.335938 34.679688 C 149.695312 34.679688 149.074219 34.914062 148.589844 35.34375 C 148.042969 35.839844 147.726562 36.542969 147.726562 37.277344 L 147.726562 213.800781 C 147.726562 214.597656 148.089844 215.34375 148.71875 215.835938 C 149.351562 216.332031 150.15625 216.511719 150.9375 216.328125 L 260.078125 190.472656 C 261.304688 190.183594 262.144531 189.058594 262.082031 187.800781 L 254.394531 47.976562 C 254.324219 46.695312 253.34375 45.671875 252.070312 45.535156 L 150.609375 34.691406 C 150.523438 34.679688 150.429688 34.679688 150.335938 34.679688 Z M 150.335938 34.679688 " fill-opacity="1" fill-rule="nonzero"/><path fill="#ffffff" d="M 255.808594 186.242188 L 157.527344 208.210938 L 156.703125 43.324219 L 248.550781 52.820312 Z M 255.808594 186.242188 " fill-opacity="1" fill-rule="nonzero"/><path fill="#ffffff" d="M 224.101562 52.382812 L 187.246094 49.269531 C 184.957031 49.074219 183.191406 47.191406 183.148438 44.894531 L 183.019531 37.765625 L 228.75 42.648438 L 228.960938 47.738281 C 229.070312 50.433594 226.792969 52.609375 224.101562 52.382812 Z M 224.101562 52.382812 " fill-opacity="1" fill-rule="nonzero"/><path fill="#0b2f3f" d="M 224.484375 52.71875 C 224.347656 52.71875 224.214844 52.714844 224.082031 52.703125 L 187.222656 49.589844 C 184.765625 49.378906 182.875 47.371094 182.832031 44.90625 L 182.695312 37.421875 L 229.054688 42.375 L 229.273438 47.738281 C 229.332031 49.109375 228.796875 50.4375 227.796875 51.394531 C 226.90625 52.242188 225.714844 52.71875 224.484375 52.71875 Z M 183.339844 38.125 L 183.464844 44.894531 C 183.503906 47.03125 185.140625 48.773438 187.269531 48.953125 L 224.125 52.066406 C 225.316406 52.167969 226.496094 51.753906 227.355469 50.925781 C 228.21875 50.101562 228.683594 48.949219 228.632812 47.761719 L 228.433594 42.941406 Z M 183.339844 38.125 " fill-opacity="1" fill-rule="nonzero"/><path fill="#eae0be" d="M 241.824219 120.96875 L 197.175781 118.746094 L 197.175781 116.097656 L 241.640625 118.5 Z M 241.824219 120.96875 " fill-opacity="1" fill-rule="nonzero"/><path fill="#eae0be" d="M 242.378906 128.613281 L 197.175781 126.953125 L 197.175781 124.234375 L 242.195312 126.078125 Z M 242.378906 128.613281 " fill-opacity="1" fill-rule="nonzero"/><path fill="#0b2f3f" d="M 190.804688 167.207031 C 191.128906 174.214844 186.078125 180.207031 178.988281 180.445312 C 171.230469 180.707031 164.390625 174.105469 164.390625 165.890625 C 164.390625 157.90625 170.902344 152.425781 178.320312 153.386719 C 185.128906 154.265625 190.492188 160.359375 190.804688 167.207031 Z M 190.804688 167.207031 " fill-opacity="1" fill-rule="nonzero"/><path fill="#4050ff" d="M 193.65625 165.558594 C 193.976562 172.566406 188.925781 178.558594 181.835938 178.796875 C 174.078125 179.058594 167.238281 172.457031 167.238281 164.242188 C 167.238281 156.257812 173.753906 150.777344 181.171875 151.738281 C 187.976562 152.625 193.339844 158.714844 193.65625 165.558594 Z M 193.65625 165.558594 " fill-opacity="1" fill-rule="nonzero"/><path fill="#0b2f3f" d="M 181.398438 179.191406 C 177.785156 179.191406 174.195312 177.714844 171.480469 175.101562 C 168.539062 172.257812 166.847656 168.308594 166.847656 164.242188 C 166.847656 160.300781 168.382812 156.78125 171.179688 154.335938 C 173.878906 151.964844 177.535156 150.882812 181.21875 151.359375 C 188.082031 152.25 193.710938 158.480469 194.039062 165.542969 C 194.207031 169.199219 192.976562 172.636719 190.585938 175.222656 C 188.324219 177.660156 185.222656 179.070312 181.847656 179.1875 C 181.703125 179.1875 181.550781 179.191406 181.398438 179.191406 Z M 179.519531 152.019531 C 176.617188 152.019531 173.832031 153.039062 171.691406 154.914062 C 169.070312 157.210938 167.625 160.523438 167.625 164.242188 C 167.625 168.097656 169.230469 171.851562 172.019531 174.546875 C 174.691406 177.125 178.273438 178.546875 181.816406 178.414062 C 184.988281 178.308594 187.898438 176.988281 190.011719 174.699219 C 192.265625 172.265625 193.421875 169.027344 193.261719 165.578125 C 192.960938 158.875 187.621094 152.96875 181.117188 152.125 C 180.585938 152.054688 180.050781 152.019531 179.519531 152.019531 Z M 179.519531 152.019531 " fill-opacity="1" fill-rule="nonzero"/><path fill="#ffffff" d="M 175.566406 169.746094 C 175.480469 169.746094 175.390625 169.726562 175.304688 169.699219 C 175.09375 169.621094 174.925781 169.460938 174.84375 169.25 L 172.496094 163.097656 C 172.34375 162.699219 172.542969 162.253906 172.945312 162.101562 C 173.34375 161.949219 173.792969 162.148438 173.945312 162.550781 L 175.96875 167.859375 L 188.472656 160.738281 C 188.839844 160.53125 189.3125 160.65625 189.523438 161.023438 C 189.730469 161.390625 189.605469 161.863281 189.234375 162.074219 L 175.953125 169.640625 C 175.828125 169.710938 175.703125 169.746094 175.566406 169.746094 Z M 175.566406 169.746094 " fill-opacity="1" fill-rule="nonzero"/><path fill="#eae0be" d="M 244.515625 156.542969 L 200.570312 158.824219 L 200.570312 156.167969 L 244.355469 154.203125 Z M 244.515625 156.542969 " fill-opacity="1" fill-rule="nonzero"/><path fill="#eae0be" d="M 245 163.789062 L 200.570312 167.027344 L 200.570312 164.3125 L 244.835938 161.390625 Z M 245 163.789062 " fill-opacity="1" fill-rule="nonzero"/><path fill="#0b2f3f" d="M 188.253906 80.480469 C 188.578125 87.492188 183.527344 93.480469 176.4375 93.71875 C 168.679688 93.980469 161.839844 87.378906 161.839844 79.167969 C 161.839844 71.179688 168.351562 65.703125 175.773438 66.660156 C 182.578125 67.539062 187.945312 73.636719 188.253906 80.480469 Z M 188.253906 80.480469 " fill-opacity="1" fill-rule="nonzero"/><path fill="#4050ff" d="M 190.65625 78.835938 C 190.976562 85.84375 185.925781 91.832031 178.835938 92.070312 C 171.078125 92.332031 164.238281 85.730469 164.238281 77.519531 C 164.238281 69.53125 170.753906 64.054688 178.171875 65.015625 C 184.976562 65.898438 190.34375 71.988281 190.65625 78.835938 Z M 190.65625 78.835938 " fill-opacity="1" fill-rule="nonzero"/><path fill="#0b2f3f" d="M 178.398438 92.46875 C 174.785156 92.46875 171.195312 90.988281 168.480469 88.375 C 165.539062 85.535156 163.847656 81.582031 163.847656 77.519531 C 163.847656 73.578125 165.382812 70.054688 168.179688 67.609375 C 170.878906 65.242188 174.539062 64.160156 178.210938 64.636719 C 185.082031 65.527344 190.707031 71.753906 191.035156 78.816406 C 191.203125 82.472656 189.972656 85.914062 187.578125 88.496094 C 185.320312 90.9375 182.214844 92.34375 178.839844 92.460938 C 178.703125 92.460938 178.550781 92.46875 178.398438 92.46875 Z M 176.519531 65.292969 C 173.617188 65.292969 170.832031 66.3125 168.691406 68.1875 C 166.066406 70.488281 164.625 73.796875 164.625 77.519531 C 164.625 81.371094 166.230469 85.128906 169.019531 87.820312 C 171.691406 90.402344 175.265625 91.816406 178.816406 91.6875 C 181.988281 91.578125 184.898438 90.261719 187.011719 87.972656 C 189.265625 85.539062 190.421875 82.304688 190.261719 78.851562 C 189.960938 72.152344 184.621094 66.242188 178.117188 65.398438 C 177.585938 65.328125 177.050781 65.292969 176.519531 65.292969 Z M 176.519531 65.292969 " fill-opacity="1" fill-rule="nonzero"/><path fill="#ffffff" d="M 172.566406 83.015625 C 172.480469 83.015625 172.390625 82.996094 172.304688 82.96875 C 172.09375 82.890625 171.925781 82.730469 171.84375 82.519531 L 169.496094 76.367188 C 169.34375 75.96875 169.542969 75.523438 169.945312 75.371094 C 170.34375 75.21875 170.792969 75.417969 170.945312 75.820312 L 172.96875 81.128906 L 185.472656 74.007812 C 185.839844 73.796875 186.3125 73.925781 186.523438 74.292969 C 186.734375 74.660156 186.605469 75.132812 186.238281 75.339844 L 172.945312 82.910156 C 172.828125 82.980469 172.703125 83.015625 172.566406 83.015625 Z M 172.566406 83.015625 " fill-opacity="1" fill-rule="nonzero"/><path fill="#eae0be" d="M 241.824219 77.210938 L 197.175781 74.988281 L 197.175781 72.335938 L 241.640625 74.734375 Z M 241.824219 77.210938 " fill-opacity="1" fill-rule="nonzero"/><path fill="#eae0be" d="M 242.378906 84.851562 L 197.175781 83.195312 L 197.175781 80.476562 L 242.195312 82.320312 Z M 242.378906 84.851562 " fill-opacity="1" fill-rule="nonzero"/><path fill="#0b2f3f" d="M 223.410156 126.253906 C 223.410156 126.253906 223.109375 123.488281 228.578125 122.289062 C 234.050781 121.089844 236 127.75 235.625 128.269531 C 235.25 128.792969 229.480469 130.738281 229.480469 130.738281 L 225.40625 127.820312 Z M 223.410156 126.253906 " fill-opacity="1" fill-rule="nonzero"/><path fill="#f97e58" d="M 234.574219 119.023438 C 234.574219 119.023438 231.222656 111.78125 229.964844 110.699219 C 228.703125 109.617188 223.566406 107.742188 222.5 108.035156 C 221.429688 108.320312 219.175781 109.679688 217.652344 111.246094 C 216.128906 112.8125 215.464844 114.875 215.796875 115.070312 C 216.128906 115.269531 217.683594 114.921875 218.429688 113.988281 C 218.429688 113.988281 217.601562 115.902344 218.429688 116.101562 C 219.257812 116.304688 219.691406 114.558594 220.492188 113.539062 C 221.289062 112.523438 223.527344 111.78125 224.542969 112.433594 C 225.558594 113.085938 226.816406 115.9375 226.816406 115.9375 C 226.816406 115.9375 225.175781 118.90625 225.128906 120.660156 C 225.085938 122.347656 226.917969 124.066406 228.847656 125.105469 C 230.78125 126.148438 234.574219 119.023438 234.574219 119.023438 Z M 234.574219 119.023438 " fill-opacity="1" fill-rule="nonzero"/><path fill="#f97e58" d="M 234.574219 119.023438 L 236.453125 122.574219 L 231.753906 135.335938 L 227.253906 123.371094 Z M 234.574219 119.023438 " fill-opacity="1" fill-rule="nonzero"/><path fill="#0b2f3f" d="M 283.789062 83.984375 L 283.601562 87.308594 L 281.605469 102.222656 L 279.886719 100.785156 Z M 283.789062 83.984375 " fill-opacity="1" fill-rule="nonzero"/><path fill="#0b2f3f" d="M 309.5625 75.316406 C 309.5625 75.316406 314.488281 79.566406 311.488281 90.503906 C 309.738281 96.898438 317.75 102.980469 312.21875 108.398438 C 305.824219 114.667969 292.320312 104.914062 292.320312 104.914062 L 294.253906 90.773438 L 299.832031 77.648438 Z M 309.5625 75.316406 " fill-opacity="1" fill-rule="nonzero"/><path fill="#0b2f3f" d="M 293.882812 71.046875 C 293.882812 71.046875 281.675781 63.070312 279.75 89.46875 C 279.292969 95.722656 271.851562 97.496094 273.175781 104.949219 C 274.5 112.398438 293.523438 105.558594 293.847656 105.496094 C 294.171875 105.429688 292.914062 99.609375 292.613281 98.730469 C 292.308594 97.863281 293.882812 71.046875 293.882812 71.046875 Z M 293.882812 71.046875 " fill-opacity="1" fill-rule="nonzero"/><path fill="#f97e58" d="M 286.472656 105.355469 C 286.472656 105.355469 283.652344 114.507812 282.832031 115.855469 C 282.007812 117.207031 294.601562 117.761719 297.316406 117.300781 C 300.03125 116.839844 301.210938 114.898438 301.210938 114.898438 C 301.210938 114.898438 298.925781 105.28125 300.445312 101.46875 C 301.960938 97.65625 286.472656 105.355469 286.472656 105.355469 Z M 286.472656 105.355469 " fill-opacity="1" fill-rule="nonzero"/><path fill="#f97e58" d="M 288.835938 107.292969 C 294.070312 108.71875 299.335938 103.71875 302.097656 98.597656 C 304.855469 93.476562 309.578125 74.359375 297.839844 72.0625 C 286.105469 69.769531 283.4375 82.363281 282.503906 88.089844 C 281.5625 93.816406 281.746094 105.363281 288.835938 107.292969 Z M 288.835938 107.292969 " fill-opacity="1" fill-rule="nonzero"/><path fill="#0b2f3f" d="M 290.65625 107.726562 C 290.007812 107.726562 289.378906 107.644531 288.785156 107.480469 C 287.949219 107.253906 287.171875 106.886719 286.484375 106.386719 C 286.394531 106.320312 286.378906 106.207031 286.441406 106.117188 C 286.507812 106.03125 286.625 106.011719 286.710938 106.078125 C 287.363281 106.550781 288.101562 106.898438 288.886719 107.113281 C 291.199219 107.742188 293.996094 107.074219 296.773438 105.222656 C 296.859375 105.164062 296.984375 105.1875 297.042969 105.273438 C 297.101562 105.363281 297.078125 105.484375 296.988281 105.542969 C 294.824219 106.972656 292.640625 107.726562 290.65625 107.726562 Z M 290.65625 107.726562 " fill-opacity="1" fill-rule="nonzero"/><path fill="#0b2f3f" d="M 286.367188 87.890625 C 286.488281 87.910156 286.597656 87.957031 286.699219 88.03125 C 286.796875 88.105469 286.882812 88.199219 286.949219 88.316406 C 287.015625 88.429688 287.0625 88.558594 287.085938 88.699219 C 287.109375 88.839844 287.109375 88.984375 287.085938 89.125 C 287.0625 89.269531 287.015625 89.40625 286.945312 89.53125 C 286.878906 89.65625 286.792969 89.761719 286.695312 89.851562 C 286.59375 89.9375 286.480469 90 286.363281 90.039062 C 286.242188 90.074219 286.125 90.082031 286.003906 90.0625 C 285.886719 90.042969 285.777344 89.996094 285.675781 89.921875 C 285.574219 89.851562 285.492188 89.753906 285.421875 89.640625 C 285.355469 89.523438 285.3125 89.394531 285.289062 89.253906 C 285.265625 89.113281 285.265625 88.972656 285.289062 88.828125 C 285.3125 88.683594 285.359375 88.550781 285.425781 88.425781 C 285.492188 88.300781 285.578125 88.191406 285.679688 88.105469 C 285.78125 88.015625 285.890625 87.953125 286.011719 87.917969 C 286.128906 87.882812 286.25 87.871094 286.367188 87.890625 Z M 286.367188 87.890625 " fill-opacity="1" fill-rule="nonzero"/><path fill="#0b2f3f" d="M 289.210938 96.707031 C 289.199219 96.707031 289.179688 96.707031 289.167969 96.699219 L 288.898438 96.640625 C 288.574219 96.566406 288.304688 96.355469 288.152344 96.054688 C 288 95.75 288 95.40625 288.140625 95.109375 L 288.691406 93.917969 C 288.738281 93.816406 288.847656 93.777344 288.945312 93.824219 C 289.046875 93.871094 289.085938 93.980469 289.039062 94.078125 L 288.492188 95.273438 C 288.398438 95.472656 288.402344 95.691406 288.496094 95.890625 C 288.597656 96.082031 288.773438 96.222656 288.980469 96.269531 L 289.25 96.328125 C 289.355469 96.351562 289.417969 96.457031 289.394531 96.558594 C 289.378906 96.648438 289.304688 96.707031 289.210938 96.707031 Z M 289.210938 96.707031 " fill-opacity="1" fill-rule="nonzero"/><path fill="#ffffff" d="M 289.121094 99.457031 C 289.140625 99.628906 289.203125 99.847656 289.308594 100.070312 C 289.519531 100.523438 289.886719 101 290.335938 101.148438 C 290.644531 101.246094 291.054688 101.195312 291.445312 101.070312 C 291.953125 100.902344 292.425781 100.605469 292.625 100.339844 C 292.710938 100.222656 292.734375 100.105469 292.6875 100.019531 C 292.472656 99.644531 291.507812 99.691406 290.914062 99.59375 C 290.324219 99.503906 289.613281 99.050781 289.234375 99.144531 C 289.132812 99.167969 289.097656 99.285156 289.121094 99.457031 Z M 289.121094 99.457031 " fill-opacity="1" fill-rule="nonzero"/><path fill="#0b2f3f" d="M 294.164062 87.777344 C 294.164062 87.777344 296.835938 87.605469 298.238281 89.445312 Z M 294.164062 87.777344 " fill-opacity="1" fill-rule="nonzero"/><path fill="#0b2f3f" d="M 288.375 86.628906 C 288.375 86.628906 286.628906 85.414062 284.332031 86.414062 Z M 288.375 86.628906 " fill-opacity="1" fill-rule="nonzero"/><path fill="#0b2f3f" d="M 286.742188 88.039062 C 286.742188 88.039062 285.609375 87.160156 284.214844 87.820312 C 284.214844 87.820312 285.449219 87.878906 286.105469 88.339844 Z M 286.742188 88.039062 " fill-opacity="1" fill-rule="nonzero"/><path fill="#0b2f3f" d="M 294.640625 90.757812 C 294.757812 90.777344 294.867188 90.824219 294.96875 90.898438 C 295.070312 90.972656 295.152344 91.066406 295.222656 91.179688 C 295.289062 91.296875 295.332031 91.425781 295.355469 91.566406 C 295.378906 91.707031 295.378906 91.847656 295.355469 91.992188 C 295.332031 92.136719 295.285156 92.269531 295.21875 92.394531 C 295.152344 92.523438 295.066406 92.628906 294.964844 92.714844 C 294.863281 92.804688 294.753906 92.867188 294.632812 92.902344 C 294.515625 92.941406 294.394531 92.949219 294.277344 92.929688 C 294.15625 92.910156 294.046875 92.863281 293.945312 92.789062 C 293.847656 92.714844 293.761719 92.621094 293.695312 92.503906 C 293.628906 92.390625 293.582031 92.261719 293.558594 92.121094 C 293.535156 91.980469 293.535156 91.839844 293.558594 91.695312 C 293.582031 91.550781 293.628906 91.414062 293.699219 91.289062 C 293.765625 91.164062 293.851562 91.058594 293.949219 90.96875 C 294.050781 90.882812 294.164062 90.820312 294.28125 90.785156 C 294.402344 90.746094 294.519531 90.738281 294.640625 90.757812 Z M 294.640625 90.757812 " fill-opacity="1" fill-rule="nonzero"/><path fill="#0b2f3f" d="M 294.253906 90.773438 C 294.253906 90.773438 295.613281 90.308594 296.714844 91.386719 C 296.714844 91.386719 295.53125 91.042969 294.761719 91.261719 Z M 294.253906 90.773438 " fill-opacity="1" fill-rule="nonzero"/><path fill="#0b2f3f" d="M 302.027344 93.445312 C 301.554688 92.242188 302.429688 88.613281 298.589844 87.042969 C 291.601562 84.183594 291.921875 79.816406 291.921875 79.816406 C 291.921875 79.816406 287.332031 78.613281 283.058594 84.898438 C 283.058594 84.898438 282.503906 68.222656 293.570312 70.980469 C 294.460938 71.203125 298.292969 68.902344 304.59375 71.347656 C 316.035156 75.789062 310.097656 90.78125 305.3125 93.597656 C 304.535156 94.058594 302.027344 93.445312 302.027344 93.445312 Z M 302.027344 93.445312 " fill-opacity="1" fill-rule="nonzero"/><path fill="#f97e58" d="M 302.871094 93.636719 C 302.871094 93.636719 306.691406 93.144531 306.292969 96.238281 C 305.890625 99.335938 300.5625 101.054688 300.5625 101.054688 Z M 302.871094 93.636719 " fill-opacity="1" fill-rule="nonzero"/><path fill="#0b2f3f" d="M 303.589844 95.570312 C 303.589844 95.570312 305.675781 96.234375 303 98.292969 Z M 303.589844 95.570312 " fill-opacity="1" fill-rule="nonzero"/><path fill="#4050ff" d="M 281.550781 110.351562 C 281.550781 110.351562 277.5 109.214844 269.679688 108.796875 C 269.679688 108.796875 266.066406 118.550781 265.996094 124.664062 C 265.921875 130.777344 263.03125 141.058594 263.167969 148.835938 C 263.300781 156.613281 263.539062 160.050781 262.269531 174.058594 C 261.648438 180.851562 271.933594 176.269531 290.722656 182.136719 C 299.585938 184.910156 311.382812 172.226562 311.382812 172.226562 C 311.382812 172.226562 311.503906 153.980469 312.035156 146.691406 C 312.566406 139.410156 315.398438 120.753906 315.398438 120.753906 L 303.136719 114.269531 C 303.136719 114.269531 300.953125 117.148438 290.855469 114.007812 C 280.757812 110.863281 281.550781 110.351562 281.550781 110.351562 Z M 281.550781 110.351562 " fill-opacity="1" fill-rule="nonzero"/><path fill="#4050ff" d="M 269.675781 108.796875 C 269.675781 108.796875 266.0625 108.238281 261.265625 113.996094 C 256.945312 119.179688 245.191406 130.199219 245.191406 130.199219 L 234.574219 118.402344 C 234.574219 118.402344 234.523438 124.769531 230.675781 126.398438 C 226.398438 128.214844 223.402344 126.25 223.402344 126.25 C 223.402344 126.25 225.101562 128.144531 226.054688 130.507812 C 228.65625 137 233.167969 149.265625 239.078125 152.742188 C 247.144531 157.484375 267.539062 136.621094 267.539062 136.621094 Z M 269.675781 108.796875 " fill-opacity="1" fill-rule="nonzero"/><path fill="#4050ff" d="M 285.992188 107.15625 C 285.992188 107.15625 281.710938 109.78125 281.113281 110.332031 C 280.523438 110.886719 280.363281 114.308594 280.363281 114.308594 L 302.125 117.957031 L 303.894531 114.761719 C 303.894531 114.761719 301.109375 109.632812 300.09375 109.453125 C 300.09375 109.453125 295.949219 111.835938 290.652344 110.742188 C 285.351562 109.644531 285.992188 107.15625 285.992188 107.15625 Z M 285.992188 107.15625 " fill-opacity="1" fill-rule="nonzero"/><path fill="#0b2f3f" d="M 294.660156 118.359375 C 293.019531 118.359375 291.136719 118.15625 288.980469 117.65625 C 280.476562 115.664062 280.914062 110.363281 280.921875 110.308594 C 280.933594 110.203125 281.039062 110.128906 281.132812 110.136719 C 281.238281 110.148438 281.3125 110.238281 281.308594 110.34375 C 281.308594 110.355469 281.195312 111.609375 282.082031 113.082031 C 282.910156 114.441406 284.792969 116.277344 289.070312 117.277344 C 299.824219 119.792969 303.695312 114.699219 303.738281 114.648438 C 303.800781 114.558594 303.921875 114.542969 304.003906 114.605469 C 304.09375 114.667969 304.109375 114.785156 304.046875 114.875 C 304.015625 114.921875 301.417969 118.359375 294.660156 118.359375 Z M 294.660156 118.359375 " fill-opacity="1" fill-rule="nonzero"/><path fill="#0b2f3f" d="M 217.875 241.597656 C 217.875 241.597656 216.679688 245.871094 207.121094 240.601562 C 197.558594 235.332031 209.910156 229.972656 209.910156 229.972656 L 216.480469 234.046875 Z M 217.875 241.597656 " fill-opacity="1" fill-rule="nonzero"/><path fill="#f97e58" d="M 201.480469 226.28125 C 201.480469 226.28125 193.105469 239.582031 189.800781 242.328125 C 186.5 245.078125 174.703125 252.109375 171.621094 253.210938 C 168.535156 254.308594 170.960938 258.269531 179.003906 258.15625 C 187.046875 258.046875 199.171875 255.300781 201.925781 252.441406 C 204.679688 249.582031 215.148438 232.765625 215.148438 232.765625 L 209.53125 224.742188 Z M 201.480469 226.28125 " fill-opacity="1" fill-rule="nonzero"/><path fill="#0b2f3f" d="M 175.691406 250.789062 C 175.691406 250.789062 175.765625 255.148438 181.421875 254.925781 C 187.078125 254.707031 199.789062 250.164062 201.84375 249.945312 C 203.898438 249.722656 204.121094 250.019531 204.121094 250.019531 C 204.121094 250.019531 202.945312 252.511719 202.945312 253.902344 C 202.945312 255.292969 203.75 259.472656 200.671875 260.054688 C 197.582031 260.644531 194.570312 259.613281 192.292969 259.835938 C 190.019531 260.054688 174.515625 260.933594 169.8125 260.054688 C 165.109375 259.175781 164.378906 256.097656 166.945312 254.484375 C 169.519531 252.871094 175.980469 250.894531 175.980469 250.894531 " fill-opacity="1" fill-rule="nonzero"/><path fill="#ff5c33" d="M 261.496094 169.929688 C 261.496094 169.929688 231.007812 174.179688 223.515625 180.332031 C 216.019531 186.488281 197.949219 231.363281 197.949219 231.363281 C 197.949219 231.363281 210.671875 232.074219 217.875 241.597656 L 240.589844 202.648438 C 240.589844 202.648438 291.070312 207.605469 296.949219 201.890625 C 302.824219 196.171875 294.117188 168.609375 294.117188 168.609375 L 271.78125 164.359375 Z M 261.496094 169.929688 " fill-opacity="1" fill-rule="nonzero"/><path fill="#0b2f3f" d="M 242.832031 191.917969 C 242.832031 191.917969 239.15625 196.480469 250.0625 198.730469 C 256.917969 200.136719 262.921875 205.871094 263.390625 202.84375 C 263.855469 199.816406 261.667969 193.210938 261.667969 193.210938 C 261.667969 193.210938 256.933594 189.683594 256.1875 189.433594 C 255.441406 189.183594 250.15625 190.574219 250.15625 190.574219 Z M 242.832031 191.917969 " fill-opacity="1" fill-rule="nonzero"/><path fill="#f97e58" d="M 248.324219 188.085938 C 248.324219 188.085938 245.945312 197.996094 244.570312 200.097656 C 243.199219 202.199219 233.25 214.5625 232.507812 215.929688 C 231.765625 217.296875 231.765625 225.613281 238.308594 223.609375 C 244.851562 221.613281 258.351562 209.195312 258.351562 209.195312 L 261.246094 190.328125 L 254.875 188.152344 Z M 248.324219 188.085938 " fill-opacity="1" fill-rule="nonzero"/><path fill="#0b2f3f" d="M 233.980469 213.917969 C 233.980469 213.917969 227.554688 219.503906 229.351562 223.292969 C 231.140625 227.085938 238.527344 226.867188 243.800781 223.714844 C 249.078125 220.558594 251.605469 216.246094 254.453125 215.503906 C 257.300781 214.765625 259.375 213.402344 259.589844 210.808594 C 259.800781 208.210938 259.105469 204.210938 259.105469 204.210938 C 259.105469 204.210938 257.898438 206.390625 255.300781 208.839844 C 252.695312 211.296875 245.3125 217.46875 241.023438 218.027344 C 236.734375 218.585938 233.449219 217.777344 233.980469 213.917969 Z M 233.980469 213.917969 " fill-opacity="1" fill-rule="nonzero"/><path fill="#ff5c33" d="M 242.832031 191.917969 C 242.832031 191.917969 255.585938 144.824219 265 142.542969 C 280.671875 138.734375 306.265625 174.664062 306.265625 174.664062 C 306.265625 174.664062 308.230469 175.328125 310.722656 176.816406 C 310.902344 176.929688 313.519531 209.742188 293.679688 205.203125 C 280.777344 202.246094 270.753906 177.550781 270.753906 177.550781 L 263.390625 202.84375 C 263.394531 202.84375 260.464844 189.863281 242.832031 191.917969 Z M 242.832031 191.917969 " fill-opacity="1" fill-rule="nonzero"/><path fill="#0b2f3f" d="M 263.550781 194.792969 C 263.492188 194.792969 263.4375 194.765625 263.402344 194.71875 C 256.4375 185.484375 246.429688 187.09375 246.328125 187.109375 C 246.21875 187.128906 246.125 187.058594 246.105469 186.953125 C 246.089844 186.847656 246.160156 186.75 246.265625 186.730469 C 246.371094 186.714844 256.605469 185.070312 263.710938 194.492188 C 263.773438 194.578125 263.757812 194.695312 263.667969 194.757812 C 263.632812 194.78125 263.59375 194.792969 263.550781 194.792969 Z M 263.550781 194.792969 " fill-opacity="1" fill-rule="nonzero"/><path fill="#0b2f3f" d="M 219.183594 235.933594 C 219.125 235.933594 219.074219 235.910156 219.03125 235.863281 C 212.726562 227.957031 201.253906 227.765625 201.144531 227.765625 C 201.039062 227.765625 200.949219 227.679688 200.949219 227.574219 C 200.949219 227.46875 201.039062 227.382812 201.144531 227.382812 C 201.257812 227.382812 212.914062 227.574219 219.328125 235.625 C 219.394531 235.707031 219.382812 235.828125 219.300781 235.890625 C 219.269531 235.914062 219.230469 235.933594 219.183594 235.933594 Z M 219.183594 235.933594 " fill-opacity="1" fill-rule="nonzero"/><path fill="#0b2f3f" d="M 242.832031 192.109375 C 242.816406 192.109375 242.796875 192.109375 242.78125 192.105469 C 242.675781 192.074219 242.617188 191.96875 242.644531 191.867188 L 248.121094 172.554688 C 248.148438 172.457031 248.253906 172.394531 248.359375 172.421875 C 248.464844 172.453125 248.523438 172.554688 248.496094 172.660156 L 243.019531 191.96875 C 242.996094 192.050781 242.921875 192.109375 242.832031 192.109375 Z M 242.832031 192.109375 " fill-opacity="1" fill-rule="nonzero"/><path fill="#0b2f3f" d="M 270.753906 177.742188 C 270.730469 177.742188 270.714844 177.738281 270.691406 177.730469 C 270.589844 177.695312 270.539062 177.585938 270.574219 177.488281 C 270.589844 177.429688 272.539062 171.742188 273.695312 163.253906 C 273.707031 163.148438 273.8125 163.074219 273.910156 163.089844 C 274.015625 163.109375 274.09375 163.203125 274.074219 163.304688 C 272.914062 171.835938 270.953125 177.550781 270.933594 177.609375 C 270.914062 177.695312 270.835938 177.742188 270.753906 177.742188 Z M 270.753906 177.742188 " fill-opacity="1" fill-rule="nonzero"/><path fill="#0b2f3f" d="M 289.625 204.410156 C 289.570312 204.410156 289.523438 204.394531 289.484375 204.351562 C 282.882812 197.59375 272.46875 180.722656 270.8125 178.015625 L 263.539062 201.757812 C 263.511719 201.855469 263.402344 201.914062 263.300781 201.882812 C 263.203125 201.855469 263.144531 201.746094 263.171875 201.644531 L 270.574219 177.5 C 270.597656 177.429688 270.660156 177.371094 270.738281 177.363281 C 270.8125 177.351562 270.890625 177.394531 270.925781 177.457031 C 271.039062 177.648438 282.644531 196.800781 289.765625 204.089844 C 289.839844 204.164062 289.835938 204.289062 289.757812 204.363281 C 289.71875 204.394531 289.671875 204.410156 289.625 204.410156 Z M 289.625 204.410156 " fill-opacity="1" fill-rule="nonzero"/><path fill="#f97e58" d="M 302.125 208.851562 L 298.238281 214.292969 C 298.246094 214.285156 298.234375 214.273438 298.234375 214.273438 L 298.226562 214.289062 C 298.222656 214.300781 298.210938 214.316406 298.203125 214.324219 L 298.164062 214.375 C 297.851562 214.921875 296.515625 217.035156 295.316406 216.234375 C 293.964844 215.332031 294.742188 214.363281 295.382812 213.402344 C 296.027344 212.4375 296.929688 210.515625 298.625 207.292969 C 299.285156 206.039062 299.855469 205.144531 300.351562 204.460938 Z M 302.125 208.851562 " fill-opacity="1" fill-rule="nonzero"/><path fill="#f97e58" d="M 304.851562 219.109375 C 302.570312 221.101562 301.699219 220.4375 301.699219 220.4375 C 301.152344 221.214844 297.691406 221.484375 296.101562 221.035156 C 294.503906 220.59375 293.40625 218.789062 293.40625 218.789062 C 294.527344 217.910156 295.800781 218.625 296.597656 218.757812 C 297.398438 218.898438 298.625 217.960938 298.625 217.960938 C 298.625 217.960938 300.058594 216.679688 300.910156 214.84375 C 301.757812 213.015625 302.132812 208.859375 302.132812 208.859375 L 300.363281 204.472656 C 301.140625 203.386719 301.722656 202.832031 302.136719 202.222656 C 302.824219 201.25 304.617188 199.789062 304.617188 199.789062 L 311.5 203.539062 C 311.5 203.539062 310.269531 210.121094 309.742188 212.582031 C 309.230469 215.039062 307.132812 217.117188 304.851562 219.109375 Z M 304.851562 219.109375 " fill-opacity="1" fill-rule="nonzero"/><path fill="#0b2f3f" d="M 301.695312 220.628906 C 301.640625 220.628906 301.59375 220.609375 301.554688 220.570312 C 301.476562 220.496094 301.484375 220.371094 301.558594 220.296875 C 301.582031 220.273438 304.050781 217.875 305.277344 215.796875 C 305.328125 215.703125 305.453125 215.675781 305.539062 215.726562 C 305.628906 215.777344 305.664062 215.902344 305.609375 215.988281 C 304.355469 218.113281 301.933594 220.472656 301.828125 220.570312 C 301.789062 220.609375 301.742188 220.628906 301.695312 220.628906 Z M 301.695312 220.628906 " fill-opacity="1" fill-rule="nonzero"/><path fill="#4050ff" d="M 312.152344 119.460938 C 312.152344 119.460938 320.371094 120.082031 322.464844 138.863281 C 323.800781 150.8125 324.507812 161.792969 324.292969 169.035156 C 323.75 187.203125 314.535156 205.617188 313.449219 206.929688 C 312.367188 208.253906 304.121094 205.125 301.960938 201.40625 C 301.960938 201.40625 304.035156 195.953125 304.214844 194.816406 C 304.394531 193.683594 308.15625 169.121094 308.0625 167.683594 C 307.96875 166.246094 304.996094 151.40625 306.171875 138.457031 C 307.34375 125.503906 312.152344 119.460938 312.152344 119.460938 Z M 312.152344 119.460938 " fill-opacity="1" fill-rule="nonzero"/><path fill="#0b2f3f" d="M 315.007812 201.882812 C 314.996094 201.882812 314.984375 201.882812 314.964844 201.878906 C 308.769531 200.578125 305.089844 195.671875 305.054688 195.621094 C 304.992188 195.53125 305.007812 195.417969 305.097656 195.351562 C 305.183594 195.289062 305.300781 195.304688 305.363281 195.394531 C 305.398438 195.441406 308.996094 200.238281 315.042969 201.5 C 315.148438 201.523438 315.210938 201.621094 315.195312 201.726562 C 315.175781 201.820312 315.101562 201.882812 315.007812 201.882812 Z M 315.007812 201.882812 " fill-opacity="1" fill-rule="nonzero"/><path fill="#0b2f3f" d="M 307.117188 174.664062 C 307.105469 174.664062 307.097656 174.664062 307.085938 174.664062 C 306.980469 174.644531 306.910156 174.546875 306.921875 174.441406 C 306.964844 174.191406 307.035156 173.800781 307.121094 173.320312 C 307.429688 171.628906 307.945312 168.800781 307.875 167.695312 C 307.855469 167.421875 307.78125 166.789062 307.664062 165.828125 C 307.179688 161.820312 306.046875 152.445312 305.890625 141.511719 C 305.890625 141.40625 305.972656 141.320312 306.082031 141.3125 C 306.1875 141.3125 306.277344 141.402344 306.277344 141.503906 C 306.433594 152.421875 307.566406 161.78125 308.042969 165.78125 C 308.160156 166.746094 308.238281 167.386719 308.253906 167.671875 C 308.324219 168.820312 307.804688 171.675781 307.496094 173.382812 C 307.40625 173.859375 307.335938 174.25 307.296875 174.5 C 307.289062 174.59375 307.210938 174.664062 307.117188 174.664062 Z M 307.117188 174.664062 " fill-opacity="1" fill-rule="nonzero"/><path fill="#0b2f3f" d="M 230.359375 103.921875 C 230.679688 110.933594 225.632812 116.921875 218.542969 117.160156 C 210.785156 117.421875 203.945312 110.820312 203.945312 102.609375 C 203.945312 94.621094 210.457031 89.144531 217.875 90.105469 C 224.679688 90.988281 230.046875 97.078125 230.359375 103.921875 Z M 230.359375 103.921875 " fill-opacity="1" fill-rule="nonzero"/><path fill="#4050ff" d="M 232.757812 103.027344 C 233.078125 110.035156 228.03125 116.027344 220.941406 116.265625 C 213.183594 116.527344 206.34375 109.925781 206.34375 101.710938 C 206.34375 93.726562 212.855469 88.246094 220.273438 89.207031 C 227.082031 90.085938 232.445312 96.179688 232.757812 103.027344 Z M 232.757812 103.027344 " fill-opacity="1" fill-rule="nonzero"/><path fill="#0b2f3f" d="M 220.503906 116.660156 C 216.890625 116.660156 213.300781 115.183594 210.585938 112.570312 C 207.644531 109.726562 205.953125 105.773438 205.953125 101.710938 C 205.953125 97.769531 207.488281 94.25 210.28125 91.804688 C 212.984375 89.433594 216.644531 88.351562 220.320312 88.828125 C 227.183594 89.71875 232.816406 95.949219 233.144531 103.011719 C 233.3125 106.664062 232.082031 110.105469 229.6875 112.691406 C 227.429688 115.128906 224.324219 116.539062 220.953125 116.65625 C 220.804688 116.65625 220.652344 116.660156 220.503906 116.660156 Z M 218.621094 89.488281 C 215.722656 89.488281 212.9375 90.503906 210.796875 92.378906 C 208.167969 94.679688 206.726562 97.992188 206.726562 101.710938 C 206.726562 105.566406 208.332031 109.320312 211.125 112.015625 C 213.796875 114.59375 217.375 116.007812 220.921875 115.878906 C 224.09375 115.769531 227.003906 114.453125 229.117188 112.167969 C 231.371094 109.734375 232.527344 106.496094 232.367188 103.042969 C 232.0625 96.34375 226.722656 90.4375 220.222656 89.59375 C 219.691406 89.523438 219.152344 89.488281 218.621094 89.488281 Z M 218.621094 89.488281 " fill-opacity="1" fill-rule="nonzero"/><path fill="#ffffff" d="M 214.671875 107.207031 C 214.585938 107.207031 214.496094 107.191406 214.410156 107.160156 C 214.199219 107.085938 214.03125 106.921875 213.949219 106.710938 L 211.601562 100.558594 C 211.449219 100.164062 211.648438 99.714844 212.050781 99.5625 C 212.453125 99.414062 212.898438 99.609375 213.050781 100.011719 L 215.074219 105.320312 L 227.578125 98.203125 C 227.945312 97.992188 228.417969 98.121094 228.625 98.488281 C 228.835938 98.851562 228.707031 99.324219 228.339844 99.535156 L 215.050781 107.101562 C 214.933594 107.171875 214.804688 107.207031 214.671875 107.207031 Z M 214.671875 107.207031 " fill-opacity="1" fill-rule="nonzero"/><path fill="#f97e58" d="M 226.824219 115.9375 C 226.824219 115.9375 224.644531 115.058594 223.640625 114.304688 C 222.636719 113.546875 220.929688 112.136719 220.011719 113.597656 C 219.101562 115.058594 220.988281 116.683594 222.777344 117.796875 C 224.570312 118.90625 225.269531 121.3125 225.269531 121.3125 L 228.925781 118.890625 Z M 226.824219 115.9375 " fill-opacity="1" fill-rule="nonzero"/><path fill="#0b2f3f" d="M 227.621094 130.480469 C 227.273438 130.480469 227.0625 130.457031 227.035156 130.457031 C 226.929688 130.445312 226.851562 130.351562 226.863281 130.246094 C 226.875 130.144531 226.96875 130.0625 227.074219 130.078125 C 227.144531 130.085938 233.910156 130.71875 236.617188 123.722656 C 236.65625 123.621094 236.769531 123.578125 236.867188 123.609375 C 236.96875 123.652344 237.015625 123.761719 236.980469 123.863281 C 235.507812 127.664062 232.882812 129.257812 230.9375 129.921875 C 229.550781 130.398438 228.316406 130.480469 227.621094 130.480469 Z M 227.621094 130.480469 " fill-opacity="1" fill-rule="nonzero"/><path fill="#ffffff" d="M 277.027344 33.523438 L 319.394531 33.523438 C 321.222656 33.523438 322.710938 35 322.710938 36.828125 L 322.710938 51.210938 C 322.710938 53.035156 321.230469 54.519531 319.394531 54.519531 L 282.855469 54.519531 L 277.027344 60.328125 L 277.027344 54.519531 C 275.203125 54.519531 273.714844 53.039062 273.714844 51.210938 L 273.714844 36.828125 C 273.714844 35 275.195312 33.523438 277.027344 33.523438 Z M 277.027344 33.523438 " fill-opacity="1" fill-rule="nonzero"/><path fill="#0b2f3f" d="M 277.027344 60.597656 C 276.992188 60.597656 276.957031 60.589844 276.921875 60.574219 C 276.820312 60.53125 276.753906 60.425781 276.753906 60.316406 L 276.753906 54.773438 C 274.902344 54.636719 273.4375 53.085938 273.4375 51.207031 L 273.4375 36.828125 C 273.4375 34.855469 275.050781 33.246094 277.027344 33.246094 L 319.394531 33.246094 C 321.375 33.246094 322.984375 34.855469 322.984375 36.828125 L 322.984375 51.210938 C 322.984375 53.1875 321.375 54.792969 319.394531 54.792969 L 282.964844 54.792969 L 277.222656 60.519531 C 277.167969 60.566406 277.097656 60.597656 277.027344 60.597656 Z M 277.027344 33.796875 C 275.355469 33.796875 273.992188 35.152344 273.992188 36.820312 L 273.992188 51.207031 C 273.992188 52.878906 275.355469 54.234375 277.027344 54.234375 C 277.179688 54.234375 277.304688 54.355469 277.304688 54.507812 L 277.304688 59.652344 L 282.65625 54.316406 C 282.707031 54.261719 282.777344 54.234375 282.847656 54.234375 L 319.390625 54.234375 C 321.066406 54.234375 322.425781 52.878906 322.425781 51.207031 L 322.425781 36.828125 C 322.425781 35.15625 321.066406 33.800781 319.390625 33.800781 L 277.027344 33.800781 Z M 277.027344 33.796875 " fill-opacity="1" fill-rule="nonzero"/><path fill="#0b2f3f" d="M 315 40.890625 L 281.417969 40.890625 C 281.265625 40.890625 281.144531 40.769531 281.144531 40.617188 C 281.144531 40.464844 281.265625 40.34375 281.417969 40.34375 L 315 40.34375 C 315.152344 40.34375 315.273438 40.464844 315.273438 40.617188 C 315.273438 40.769531 315.152344 40.890625 315 40.890625 Z M 315 40.890625 " fill-opacity="1" fill-rule="nonzero"/><path fill="#0b2f3f" d="M 304.613281 45.921875 L 281.421875 45.921875 C 281.273438 45.921875 281.148438 45.796875 281.148438 45.648438 C 281.148438 45.496094 281.273438 45.375 281.421875 45.375 L 304.613281 45.375 C 304.765625 45.375 304.886719 45.496094 304.886719 45.648438 C 304.886719 45.796875 304.765625 45.921875 304.613281 45.921875 Z M 304.613281 45.921875 " fill-opacity="1" fill-rule="nonzero"/><path fill="#0b2f3f" d="M 237.988281 35.132812 C 237.597656 35.132812 237.199219 35.097656 236.808594 35.023438 C 236.703125 35.007812 236.628906 34.902344 236.652344 34.796875 C 236.667969 34.691406 236.769531 34.617188 236.878906 34.640625 C 237.246094 34.710938 237.625 34.738281 237.988281 34.742188 C 238.097656 34.742188 238.1875 34.832031 238.1875 34.941406 C 238.1875 35.046875 238.097656 35.132812 237.988281 35.132812 Z M 239.136719 35.023438 C 239.042969 35.023438 238.964844 34.960938 238.945312 34.867188 C 238.921875 34.761719 238.992188 34.65625 239.101562 34.632812 C 239.464844 34.5625 239.828125 34.453125 240.164062 34.308594 C 240.265625 34.265625 240.382812 34.3125 240.421875 34.414062 C 240.464844 34.511719 240.417969 34.628906 240.316406 34.667969 C 239.957031 34.820312 239.570312 34.941406 239.179688 35.019531 C 239.160156 35.023438 239.148438 35.023438 239.136719 35.023438 Z M 235.734375 34.726562 C 235.710938 34.726562 235.6875 34.722656 235.664062 34.714844 C 235.292969 34.582031 234.929688 34.414062 234.589844 34.21875 C 234.5 34.167969 234.464844 34.046875 234.515625 33.953125 C 234.566406 33.859375 234.691406 33.824219 234.785156 33.875 C 235.105469 34.058594 235.449219 34.214844 235.800781 34.34375 C 235.90625 34.378906 235.957031 34.492188 235.917969 34.59375 C 235.886719 34.679688 235.8125 34.726562 235.734375 34.726562 Z M 241.238281 34.132812 C 241.175781 34.132812 241.117188 34.105469 241.074219 34.050781 C 241.011719 33.964844 241.035156 33.839844 241.121094 33.777344 C 241.421875 33.566406 241.707031 33.324219 241.964844 33.050781 C 242.039062 32.96875 242.160156 32.96875 242.242188 33.042969 C 242.324219 33.121094 242.324219 33.242188 242.25 33.324219 C 241.976562 33.613281 241.671875 33.875 241.351562 34.105469 C 241.320312 34.121094 241.28125 34.132812 241.238281 34.132812 Z M 233.738281 33.597656 C 233.691406 33.597656 233.652344 33.578125 233.617188 33.550781 C 233.308594 33.292969 233.023438 33.015625 232.777344 32.710938 C 232.707031 32.632812 232.71875 32.503906 232.800781 32.433594 C 232.886719 32.363281 233.011719 32.375 233.078125 32.460938 C 233.3125 32.742188 233.574219 33.003906 233.867188 33.246094 C 233.949219 33.316406 233.96875 33.441406 233.898438 33.527344 C 233.851562 33.574219 233.792969 33.597656 233.738281 33.597656 Z M 265.835938 33.417969 C 265.769531 33.417969 265.707031 33.382812 265.664062 33.324219 C 265.664062 33.316406 265.441406 32.957031 265.027344 32.367188 C 264.964844 32.28125 264.988281 32.160156 265.074219 32.09375 C 265.164062 32.03125 265.285156 32.054688 265.351562 32.140625 C 265.769531 32.742188 265.992188 33.101562 265.996094 33.113281 C 266.054688 33.207031 266.027344 33.328125 265.933594 33.382812 C 265.90625 33.410156 265.871094 33.417969 265.835938 33.417969 Z M 242.722656 32.414062 C 242.699219 32.414062 242.675781 32.410156 242.65625 32.402344 C 242.550781 32.367188 242.5 32.253906 242.535156 32.152344 C 242.640625 31.863281 242.691406 31.535156 242.691406 31.191406 L 242.691406 31.09375 C 242.691406 30.984375 242.78125 30.894531 242.886719 30.894531 C 242.886719 30.894531 242.886719 30.894531 242.890625 30.894531 C 242.996094 30.894531 243.082031 30.984375 243.089844 31.089844 L 243.089844 31.191406 C 243.089844 31.582031 243.03125 31.949219 242.910156 32.289062 C 242.878906 32.363281 242.796875 32.414062 242.722656 32.414062 Z M 232.285156 31.828125 C 232.214844 31.828125 232.144531 31.785156 232.109375 31.71875 C 231.925781 31.351562 231.789062 30.972656 231.707031 30.59375 C 231.683594 30.488281 231.753906 30.382812 231.859375 30.359375 C 231.972656 30.335938 232.070312 30.40625 232.09375 30.511719 C 232.167969 30.859375 232.292969 31.210938 232.46875 31.542969 C 232.515625 31.640625 232.480469 31.757812 232.378906 31.804688 C 232.351562 31.820312 232.320312 31.828125 232.285156 31.828125 Z M 264.515625 31.523438 C 264.457031 31.523438 264.398438 31.496094 264.359375 31.441406 C 264.148438 31.164062 263.914062 30.859375 263.652344 30.535156 C 263.582031 30.449219 263.597656 30.324219 263.679688 30.253906 C 263.769531 30.1875 263.890625 30.203125 263.960938 30.285156 C 264.222656 30.609375 264.457031 30.917969 264.671875 31.199219 C 264.738281 31.285156 264.71875 31.410156 264.632812 31.472656 C 264.597656 31.507812 264.554688 31.523438 264.515625 31.523438 Z M 198.246094 31.316406 C 198.191406 31.316406 198.132812 31.292969 198.097656 31.246094 C 198.027344 31.164062 198.039062 31.035156 198.125 30.964844 L 198.28125 30.839844 C 198.371094 30.769531 198.492188 30.78125 198.5625 30.867188 C 198.632812 30.949219 198.621094 31.078125 198.535156 31.144531 L 198.375 31.273438 C 198.335938 31.296875 198.289062 31.316406 198.246094 31.316406 Z M 199.304688 30.464844 C 199.246094 30.464844 199.1875 30.441406 199.148438 30.390625 C 199.078125 30.300781 199.09375 30.179688 199.183594 30.109375 C 199.484375 29.871094 199.789062 29.632812 200.09375 29.40625 C 200.179688 29.34375 200.300781 29.359375 200.367188 29.441406 C 200.429688 29.527344 200.414062 29.652344 200.332031 29.714844 C 200.027344 29.941406 199.722656 30.179688 199.425781 30.417969 C 199.390625 30.453125 199.34375 30.464844 199.304688 30.464844 Z M 242.703125 30.15625 C 242.617188 30.15625 242.539062 30.097656 242.511719 30.011719 C 242.414062 29.671875 242.277344 29.324219 242.109375 28.976562 C 242.0625 28.875 242.101562 28.757812 242.203125 28.714844 C 242.300781 28.667969 242.417969 28.707031 242.464844 28.804688 C 242.644531 29.179688 242.792969 29.550781 242.898438 29.90625 C 242.925781 30.011719 242.867188 30.121094 242.761719 30.152344 C 242.738281 30.152344 242.722656 30.15625 242.703125 30.15625 Z M 263.074219 29.71875 C 263.015625 29.71875 262.960938 29.695312 262.921875 29.652344 C 262.683594 29.371094 262.433594 29.078125 262.164062 28.789062 C 262.09375 28.707031 262.097656 28.585938 262.175781 28.507812 C 262.257812 28.441406 262.378906 28.441406 262.453125 28.519531 C 262.722656 28.816406 262.980469 29.109375 263.21875 29.394531 C 263.289062 29.476562 263.277344 29.605469 263.195312 29.671875 C 263.160156 29.707031 263.113281 29.71875 263.074219 29.71875 Z M 231.8125 29.609375 C 231.808594 29.609375 231.808594 29.609375 231.800781 29.609375 C 231.691406 29.605469 231.609375 29.511719 231.613281 29.398438 C 231.636719 29.011719 231.71875 28.613281 231.855469 28.222656 C 231.890625 28.121094 232.007812 28.066406 232.105469 28.101562 C 232.210938 28.136719 232.261719 28.246094 232.226562 28.351562 C 232.105469 28.707031 232.035156 29.066406 232.011719 29.421875 C 232.007812 29.527344 231.917969 29.609375 231.8125 29.609375 Z M 201.136719 29.074219 C 201.078125 29.074219 201.015625 29.046875 200.980469 28.992188 C 200.914062 28.90625 200.933594 28.78125 201.019531 28.71875 C 201.335938 28.492188 201.652344 28.265625 201.960938 28.042969 C 202.046875 27.980469 202.175781 28.003906 202.234375 28.089844 C 202.296875 28.175781 202.273438 28.300781 202.1875 28.363281 C 201.878906 28.578125 201.570312 28.804688 201.253906 29.035156 C 201.21875 29.054688 201.179688 29.074219 201.136719 29.074219 Z M 241.710938 28.089844 C 241.648438 28.089844 241.582031 28.0625 241.546875 28.003906 C 241.351562 27.699219 241.121094 27.398438 240.878906 27.09375 C 240.808594 27.007812 240.820312 26.886719 240.90625 26.816406 C 240.988281 26.746094 241.117188 26.757812 241.1875 26.84375 C 241.445312 27.160156 241.675781 27.472656 241.882812 27.789062 C 241.941406 27.878906 241.917969 28.003906 241.824219 28.0625 C 241.789062 28.078125 241.746094 28.089844 241.710938 28.089844 Z M 261.519531 28.015625 C 261.46875 28.015625 261.417969 27.996094 261.382812 27.957031 C 261.125 27.6875 260.851562 27.414062 260.570312 27.140625 C 260.492188 27.066406 260.488281 26.945312 260.5625 26.863281 C 260.640625 26.785156 260.761719 26.78125 260.84375 26.855469 C 261.125 27.128906 261.398438 27.402344 261.660156 27.675781 C 261.738281 27.753906 261.730469 27.878906 261.65625 27.957031 C 261.621094 27.996094 261.574219 28.015625 261.519531 28.015625 Z M 203.023438 27.746094 C 202.957031 27.746094 202.898438 27.71875 202.859375 27.660156 C 202.800781 27.570312 202.824219 27.445312 202.910156 27.386719 C 203.230469 27.171875 203.554688 26.957031 203.875 26.75 C 203.960938 26.691406 204.089844 26.714844 204.148438 26.808594 C 204.207031 26.902344 204.183594 27.023438 204.089844 27.082031 C 203.773438 27.285156 203.453125 27.496094 203.132812 27.710938 C 203.097656 27.734375 203.058594 27.746094 203.023438 27.746094 Z M 232.539062 27.449219 C 232.503906 27.449219 232.46875 27.4375 232.433594 27.421875 C 232.339844 27.363281 232.308594 27.242188 232.367188 27.148438 C 232.566406 26.828125 232.804688 26.507812 233.074219 26.199219 C 233.144531 26.117188 233.273438 26.109375 233.355469 26.179688 C 233.4375 26.25 233.441406 26.378906 233.371094 26.460938 C 233.113281 26.75 232.886719 27.054688 232.707031 27.351562 C 232.664062 27.414062 232.601562 27.449219 232.539062 27.449219 Z M 204.953125 26.5 C 204.890625 26.5 204.824219 26.464844 204.785156 26.40625 C 204.726562 26.316406 204.753906 26.191406 204.847656 26.132812 C 205.179688 25.929688 205.507812 25.734375 205.839844 25.539062 C 205.933594 25.488281 206.058594 25.515625 206.109375 25.609375 C 206.164062 25.703125 206.132812 25.824219 206.039062 25.878906 C 205.710938 26.070312 205.386719 26.269531 205.058594 26.472656 C 205.03125 26.488281 204.988281 26.5 204.953125 26.5 Z M 259.871094 26.40625 C 259.824219 26.40625 259.777344 26.390625 259.734375 26.355469 C 259.457031 26.105469 259.167969 25.847656 258.871094 25.605469 C 258.789062 25.535156 258.777344 25.414062 258.847656 25.324219 C 258.917969 25.242188 259.039062 25.230469 259.128906 25.300781 C 259.425781 25.550781 259.71875 25.808594 260.003906 26.066406 C 260.085938 26.140625 260.089844 26.261719 260.015625 26.34375 C 259.972656 26.382812 259.921875 26.40625 259.871094 26.40625 Z M 240.257812 26.308594 C 240.207031 26.308594 240.152344 26.292969 240.117188 26.25 C 239.863281 25.988281 239.582031 25.726562 239.296875 25.472656 C 239.214844 25.402344 239.207031 25.273438 239.277344 25.191406 C 239.347656 25.109375 239.476562 25.105469 239.558594 25.175781 C 239.855469 25.4375 240.140625 25.703125 240.40625 25.976562 C 240.480469 26.054688 240.480469 26.179688 240.398438 26.257812 C 240.359375 26.285156 240.3125 26.308594 240.257812 26.308594 Z M 234.183594 25.664062 L 234.042969 25.523438 L 233.925781 25.367188 C 234.21875 25.109375 234.515625 24.867188 234.808594 24.632812 C 234.890625 24.5625 235.019531 24.582031 235.085938 24.660156 C 235.15625 24.75 235.140625 24.871094 235.058594 24.941406 C 234.761719 25.175781 234.46875 25.414062 234.183594 25.664062 Z M 206.945312 25.335938 C 206.875 25.335938 206.808594 25.300781 206.769531 25.238281 C 206.714844 25.144531 206.75 25.023438 206.84375 24.96875 C 207.183594 24.785156 207.523438 24.597656 207.859375 24.421875 C 207.953125 24.371094 208.078125 24.410156 208.128906 24.503906 C 208.179688 24.601562 208.140625 24.71875 208.046875 24.773438 C 207.714844 24.945312 207.375 25.128906 207.039062 25.320312 C 207.007812 25.324219 206.980469 25.335938 206.945312 25.335938 Z M 258.105469 24.921875 C 258.066406 24.921875 258.019531 24.910156 257.984375 24.882812 C 257.6875 24.648438 257.378906 24.421875 257.066406 24.203125 C 256.980469 24.136719 256.957031 24.015625 257.019531 23.929688 C 257.085938 23.839844 257.207031 23.816406 257.296875 23.882812 C 257.609375 24.109375 257.925781 24.339844 258.230469 24.574219 C 258.316406 24.636719 258.328125 24.765625 258.265625 24.855469 C 258.222656 24.898438 258.164062 24.921875 258.105469 24.921875 Z M 238.53125 24.785156 C 238.492188 24.785156 238.449219 24.773438 238.410156 24.742188 C 238.109375 24.515625 237.800781 24.292969 237.480469 24.078125 C 237.386719 24.019531 237.363281 23.898438 237.429688 23.804688 C 237.492188 23.710938 237.613281 23.6875 237.703125 23.753906 C 238.03125 23.96875 238.34375 24.195312 238.648438 24.429688 C 238.734375 24.492188 238.753906 24.621094 238.683594 24.703125 C 238.652344 24.761719 238.589844 24.785156 238.53125 24.785156 Z M 235.839844 24.285156 C 235.78125 24.285156 235.71875 24.253906 235.683594 24.203125 C 235.617188 24.113281 235.636719 23.992188 235.722656 23.929688 C 235.964844 23.753906 236.195312 23.585938 236.4375 23.425781 C 236.144531 23.257812 235.835938 23.089844 235.527344 22.933594 C 235.425781 22.878906 235.390625 22.765625 235.4375 22.664062 C 235.492188 22.566406 235.605469 22.53125 235.707031 22.578125 C 236.054688 22.757812 236.394531 22.945312 236.726562 23.136719 C 236.769531 23.160156 236.792969 23.195312 236.808594 23.230469 C 236.867188 23.234375 236.921875 23.265625 236.957031 23.316406 C 237.015625 23.410156 236.992188 23.53125 236.902344 23.589844 C 236.59375 23.800781 236.277344 24.015625 235.96875 24.242188 C 235.921875 24.273438 235.882812 24.285156 235.839844 24.285156 Z M 208.980469 24.265625 C 208.910156 24.265625 208.839844 24.226562 208.804688 24.15625 C 208.757812 24.054688 208.800781 23.941406 208.894531 23.894531 C 209.242188 23.71875 209.59375 23.554688 209.9375 23.390625 C 210.039062 23.347656 210.152344 23.390625 210.199219 23.492188 C 210.246094 23.589844 210.199219 23.707031 210.101562 23.753906 C 209.757812 23.910156 209.414062 24.078125 209.070312 24.25 C 209.046875 24.261719 209.011719 24.265625 208.980469 24.265625 Z M 256.226562 23.589844 C 256.191406 23.589844 256.152344 23.578125 256.121094 23.5625 C 255.800781 23.359375 255.480469 23.152344 255.148438 22.960938 C 255.054688 22.910156 255.019531 22.789062 255.078125 22.695312 C 255.128906 22.601562 255.253906 22.566406 255.347656 22.625 C 255.683594 22.816406 256.011719 23.019531 256.339844 23.230469 C 256.433594 23.289062 256.457031 23.410156 256.398438 23.503906 C 256.355469 23.5625 256.292969 23.589844 256.226562 23.589844 Z M 211.078125 23.300781 C 211 23.300781 210.925781 23.253906 210.894531 23.183594 C 210.855469 23.085938 210.894531 22.96875 211 22.925781 C 211.355469 22.769531 211.71875 22.625 212.070312 22.484375 C 212.167969 22.445312 212.285156 22.492188 212.324219 22.59375 C 212.367188 22.695312 212.3125 22.808594 212.214844 22.851562 C 211.863281 22.992188 211.507812 23.136719 211.152344 23.289062 C 211.128906 23.292969 211.101562 23.300781 211.078125 23.300781 Z M 237.753906 23.007812 C 237.683594 23.007812 237.621094 22.972656 237.585938 22.910156 C 237.527344 22.816406 237.5625 22.695312 237.65625 22.640625 C 237.996094 22.4375 238.332031 22.25 238.671875 22.078125 C 238.765625 22.023438 238.886719 22.066406 238.941406 22.160156 C 238.992188 22.257812 238.953125 22.375 238.859375 22.425781 C 238.527344 22.601562 238.199219 22.789062 237.859375 22.984375 C 237.824219 23.003906 237.789062 23.007812 237.753906 23.007812 Z M 234.574219 22.449219 C 234.546875 22.449219 234.523438 22.445312 234.492188 22.433594 C 234.152344 22.28125 233.796875 22.136719 233.4375 21.996094 C 233.335938 21.953125 233.285156 21.84375 233.324219 21.738281 C 233.367188 21.632812 233.476562 21.589844 233.582031 21.628906 C 233.949219 21.769531 234.304688 21.917969 234.65625 22.078125 C 234.753906 22.125 234.800781 22.238281 234.753906 22.339844 C 234.71875 22.410156 234.648438 22.449219 234.574219 22.449219 Z M 213.21875 22.449219 C 213.136719 22.449219 213.0625 22.398438 213.03125 22.320312 C 212.996094 22.214844 213.050781 22.105469 213.148438 22.070312 C 213.515625 21.9375 213.878906 21.808594 214.246094 21.691406 C 214.351562 21.65625 214.460938 21.714844 214.496094 21.816406 C 214.53125 21.914062 214.472656 22.03125 214.375 22.066406 C 214.019531 22.183594 213.65625 22.308594 213.289062 22.445312 C 213.257812 22.445312 213.234375 22.449219 213.21875 22.449219 Z M 254.230469 22.4375 C 254.203125 22.4375 254.171875 22.433594 254.144531 22.414062 C 253.804688 22.238281 253.460938 22.078125 253.117188 21.925781 C 253.015625 21.878906 252.972656 21.761719 253.015625 21.664062 C 253.0625 21.566406 253.179688 21.519531 253.28125 21.566406 C 253.636719 21.722656 253.984375 21.890625 254.332031 22.066406 C 254.429688 22.117188 254.464844 22.234375 254.417969 22.332031 C 254.371094 22.398438 254.300781 22.4375 254.230469 22.4375 Z M 239.796875 21.941406 C 239.722656 21.941406 239.652344 21.902344 239.617188 21.828125 C 239.570312 21.726562 239.617188 21.609375 239.714844 21.566406 C 240.070312 21.402344 240.433594 21.257812 240.789062 21.117188 C 240.894531 21.082031 241.007812 21.128906 241.046875 21.234375 C 241.085938 21.332031 241.035156 21.449219 240.929688 21.488281 C 240.578125 21.621094 240.230469 21.769531 239.878906 21.925781 C 239.851562 21.9375 239.828125 21.941406 239.796875 21.941406 Z M 215.40625 21.726562 C 215.320312 21.726562 215.242188 21.667969 215.21875 21.589844 C 215.191406 21.484375 215.25 21.371094 215.355469 21.34375 C 215.726562 21.234375 216.101562 21.128906 216.46875 21.035156 C 216.582031 21.003906 216.683594 21.070312 216.707031 21.175781 C 216.738281 21.28125 216.671875 21.390625 216.570312 21.414062 C 216.199219 21.507812 215.832031 21.609375 215.464844 21.722656 C 215.441406 21.726562 215.425781 21.726562 215.40625 21.726562 Z M 232.425781 21.617188 C 232.402344 21.617188 232.386719 21.609375 232.363281 21.605469 C 232.007812 21.488281 231.636719 21.378906 231.269531 21.273438 C 231.164062 21.246094 231.101562 21.132812 231.128906 21.027344 C 231.160156 20.925781 231.269531 20.859375 231.375 20.894531 C 231.753906 21 232.121094 21.109375 232.484375 21.234375 C 232.589844 21.269531 232.640625 21.378906 232.605469 21.484375 C 232.582031 21.566406 232.507812 21.617188 232.425781 21.617188 Z M 252.125 21.507812 C 252.101562 21.507812 252.078125 21.5 252.054688 21.496094 C 251.699219 21.359375 251.335938 21.238281 250.976562 21.132812 C 250.871094 21.105469 250.8125 20.996094 250.839844 20.890625 C 250.871094 20.785156 250.980469 20.726562 251.085938 20.753906 C 251.453125 20.867188 251.828125 20.988281 252.1875 21.128906 C 252.289062 21.167969 252.339844 21.28125 252.304688 21.382812 C 252.28125 21.460938 252.207031 21.507812 252.125 21.507812 Z M 217.628906 21.144531 C 217.542969 21.144531 217.460938 21.082031 217.4375 20.996094 C 217.414062 20.890625 217.480469 20.785156 217.585938 20.761719 C 217.964844 20.675781 218.34375 20.597656 218.714844 20.523438 C 218.828125 20.503906 218.925781 20.574219 218.949219 20.679688 C 218.972656 20.785156 218.902344 20.890625 218.792969 20.914062 C 218.425781 20.984375 218.046875 21.058594 217.671875 21.144531 C 217.660156 21.144531 217.648438 21.144531 217.628906 21.144531 Z M 241.953125 21.132812 C 241.863281 21.132812 241.789062 21.082031 241.765625 20.996094 C 241.734375 20.890625 241.792969 20.777344 241.898438 20.75 C 242.273438 20.640625 242.652344 20.535156 243.023438 20.453125 C 243.128906 20.429688 243.234375 20.492188 243.265625 20.597656 C 243.289062 20.703125 243.222656 20.808594 243.117188 20.835938 C 242.757812 20.917969 242.382812 21.015625 242.015625 21.128906 C 241.992188 21.128906 241.96875 21.132812 241.953125 21.132812 Z M 230.203125 21.003906 C 230.191406 21.003906 230.171875 21.003906 230.15625 21 C 229.789062 20.917969 229.414062 20.84375 229.035156 20.773438 C 228.929688 20.753906 228.855469 20.652344 228.878906 20.546875 C 228.894531 20.441406 228.996094 20.367188 229.105469 20.390625 C 229.492188 20.457031 229.871094 20.535156 230.242188 20.621094 C 230.347656 20.644531 230.417969 20.75 230.390625 20.859375 C 230.378906 20.941406 230.296875 21.003906 230.203125 21.003906 Z M 249.917969 20.847656 C 249.90625 20.847656 249.890625 20.847656 249.871094 20.84375 C 249.503906 20.761719 249.125 20.6875 248.757812 20.632812 C 248.652344 20.617188 248.574219 20.515625 248.59375 20.40625 C 248.609375 20.300781 248.710938 20.226562 248.820312 20.242188 C 249.199219 20.300781 249.585938 20.378906 249.964844 20.457031 C 250.070312 20.480469 250.140625 20.585938 250.109375 20.699219 C 250.09375 20.785156 250.011719 20.847656 249.917969 20.847656 Z M 219.894531 20.714844 C 219.800781 20.714844 219.714844 20.644531 219.703125 20.546875 C 219.683594 20.441406 219.761719 20.335938 219.867188 20.320312 C 220.25 20.261719 220.636719 20.207031 221.015625 20.160156 C 221.132812 20.148438 221.21875 20.226562 221.238281 20.335938 C 221.25 20.445312 221.171875 20.539062 221.0625 20.558594 C 220.6875 20.597656 220.308594 20.652344 219.929688 20.707031 C 219.917969 20.714844 219.90625 20.714844 219.894531 20.714844 Z M 244.199219 20.621094 C 244.097656 20.621094 244.019531 20.550781 244.007812 20.453125 C 243.988281 20.34375 244.0625 20.242188 244.175781 20.230469 C 244.558594 20.171875 244.953125 20.132812 245.335938 20.105469 C 245.449219 20.097656 245.539062 20.179688 245.546875 20.285156 C 245.550781 20.394531 245.476562 20.488281 245.367188 20.492188 C 244.992188 20.523438 244.613281 20.5625 244.234375 20.621094 C 244.214844 20.621094 244.210938 20.621094 244.199219 20.621094 Z M 227.9375 20.597656 C 227.933594 20.597656 227.921875 20.597656 227.914062 20.597656 C 227.542969 20.550781 227.160156 20.503906 226.777344 20.46875 C 226.664062 20.457031 226.589844 20.367188 226.59375 20.253906 C 226.605469 20.144531 226.683594 20.0625 226.8125 20.074219 C 227.203125 20.109375 227.585938 20.148438 227.96875 20.203125 C 228.074219 20.214844 228.152344 20.3125 228.136719 20.421875 C 228.117188 20.523438 228.03125 20.597656 227.9375 20.597656 Z M 247.648438 20.5 C 247.640625 20.5 247.636719 20.5 247.628906 20.5 C 247.25 20.46875 246.871094 20.453125 246.492188 20.453125 C 246.382812 20.453125 246.292969 20.367188 246.292969 20.253906 C 246.292969 20.144531 246.382812 20.058594 246.492188 20.058594 C 246.878906 20.058594 247.269531 20.074219 247.660156 20.105469 C 247.769531 20.109375 247.851562 20.207031 247.839844 20.3125 C 247.835938 20.421875 247.746094 20.5 247.648438 20.5 Z M 222.1875 20.453125 C 222.085938 20.453125 222.003906 20.371094 221.992188 20.273438 C 221.984375 20.160156 222.0625 20.070312 222.171875 20.0625 C 222.5625 20.035156 222.949219 20.011719 223.328125 20 C 223.4375 19.992188 223.527344 20.082031 223.53125 20.191406 C 223.539062 20.300781 223.449219 20.390625 223.339844 20.394531 C 222.960938 20.40625 222.582031 20.429688 222.195312 20.457031 C 222.195312 20.453125 222.1875 20.453125 222.1875 20.453125 Z M 225.644531 20.394531 C 225.644531 20.394531 225.636719 20.394531 225.632812 20.394531 C 225.257812 20.378906 224.875 20.371094 224.488281 20.367188 C 224.378906 20.367188 224.289062 20.277344 224.289062 20.167969 C 224.289062 20.058594 224.378906 19.96875 224.488281 19.96875 C 224.878906 19.96875 225.265625 19.980469 225.648438 20 C 225.761719 20.003906 225.84375 20.097656 225.835938 20.203125 C 225.835938 20.3125 225.742188 20.394531 225.644531 20.394531 Z M 225.644531 20.394531 " fill-opacity="1" fill-rule="nonzero"/><g clip-path="url(#7345177436)"><path fill="#ff5c33" d="M 120.015625 104.5625 C 120.015625 104.96875 119.9375 105.355469 119.78125 105.730469 C 119.628906 106.101562 119.40625 106.429688 119.121094 106.71875 C 118.835938 107.003906 118.503906 107.222656 118.132812 107.375 C 117.757812 107.53125 117.367188 107.609375 116.964844 107.609375 C 116.558594 107.609375 116.167969 107.53125 115.792969 107.375 C 115.421875 107.222656 115.089844 107.003906 114.804688 106.71875 C 114.519531 106.429688 114.296875 106.101562 114.144531 105.730469 C 113.988281 105.355469 113.910156 104.96875 113.910156 104.5625 C 113.910156 104.160156 113.988281 103.773438 114.144531 103.398438 C 114.296875 103.027344 114.519531 102.695312 114.804688 102.410156 C 115.089844 102.125 115.421875 101.90625 115.792969 101.75 C 116.167969 101.597656 116.558594 101.519531 116.964844 101.519531 C 117.367188 101.519531 117.757812 101.597656 118.132812 101.75 C 118.503906 101.90625 118.835938 102.125 119.121094 102.410156 C 119.40625 102.695312 119.628906 103.027344 119.78125 103.398438 C 119.9375 103.773438 120.015625 104.160156 120.015625 104.5625 Z M 120.015625 104.5625 " fill-opacity="1" fill-rule="nonzero"/></g><path fill="#0b2f3f" d="M 117.828125 106.949219 C 116.011719 106.949219 114.535156 105.476562 114.535156 103.667969 C 114.535156 101.855469 116.011719 100.382812 117.828125 100.382812 C 119.640625 100.382812 121.117188 101.855469 121.117188 103.667969 C 121.117188 105.476562 119.640625 106.949219 117.828125 106.949219 Z M 117.828125 100.863281 C 116.273438 100.863281 115.011719 102.121094 115.011719 103.667969 C 115.011719 105.214844 116.273438 106.472656 117.828125 106.472656 C 119.378906 106.472656 120.640625 105.214844 120.640625 103.667969 C 120.640625 102.121094 119.378906 100.863281 117.828125 100.863281 Z M 117.828125 100.863281 " fill-opacity="1" fill-rule="nonzero"/><path fill="#ff5c33" d="M 329.003906 104.265625 C 329.003906 104.671875 328.925781 105.058594 328.769531 105.433594 C 328.617188 105.804688 328.394531 106.132812 328.109375 106.421875 C 327.824219 106.707031 327.492188 106.925781 327.117188 107.078125 C 326.746094 107.234375 326.355469 107.3125 325.949219 107.3125 C 325.546875 107.3125 325.15625 107.234375 324.78125 107.078125 C 324.40625 106.925781 324.078125 106.707031 323.792969 106.421875 C 323.503906 106.132812 323.285156 105.804688 323.128906 105.433594 C 322.976562 105.058594 322.898438 104.671875 322.898438 104.265625 C 322.898438 103.863281 322.976562 103.476562 323.128906 103.101562 C 323.285156 102.730469 323.503906 102.398438 323.792969 102.113281 C 324.078125 101.828125 324.40625 101.609375 324.78125 101.453125 C 325.15625 101.300781 325.546875 101.222656 325.949219 101.222656 C 326.355469 101.222656 326.746094 101.300781 327.117188 101.453125 C 327.492188 101.609375 327.824219 101.828125 328.109375 102.113281 C 328.394531 102.398438 328.617188 102.730469 328.769531 103.101562 C 328.925781 103.476562 329.003906 103.863281 329.003906 104.265625 Z M 329.003906 104.265625 " fill-opacity="1" fill-rule="nonzero"/><path fill="#0b2f3f" d="M 326.8125 106.652344 C 325 106.652344 323.523438 105.179688 323.523438 103.371094 C 323.523438 101.558594 325 100.085938 326.8125 100.085938 C 328.628906 100.085938 330.105469 101.558594 330.105469 103.371094 C 330.105469 105.179688 328.628906 106.652344 326.8125 106.652344 Z M 326.8125 100.566406 C 325.261719 100.566406 324 101.824219 324 103.371094 C 324 104.917969 325.261719 106.175781 326.8125 106.175781 C 328.367188 106.175781 329.628906 104.917969 329.628906 103.371094 C 329.628906 101.824219 328.367188 100.566406 326.8125 100.566406 Z M 326.8125 100.566406 " fill-opacity="1" fill-rule="nonzero"/><path fill="#4050ff" d="M 185.273438 20.761719 C 185.273438 21.164062 185.195312 21.554688 185.039062 21.925781 C 184.886719 22.300781 184.664062 22.628906 184.378906 22.914062 C 184.09375 23.199219 183.761719 23.417969 183.390625 23.574219 C 183.015625 23.730469 182.625 23.804688 182.222656 23.804688 C 181.816406 23.804688 181.425781 23.730469 181.050781 23.574219 C 180.679688 23.417969 180.347656 23.199219 180.0625 22.914062 C 179.777344 22.628906 179.554688 22.300781 179.402344 21.925781 C 179.246094 21.554688 179.167969 21.164062 179.167969 20.761719 C 179.167969 20.359375 179.246094 19.96875 179.402344 19.597656 C 179.554688 19.222656 179.777344 18.894531 180.0625 18.609375 C 180.347656 18.324219 180.679688 18.101562 181.050781 17.949219 C 181.425781 17.792969 181.816406 17.71875 182.222656 17.71875 C 182.625 17.71875 183.015625 17.792969 183.390625 17.949219 C 183.761719 18.101562 184.09375 18.324219 184.378906 18.609375 C 184.664062 18.894531 184.886719 19.222656 185.039062 19.597656 C 185.195312 19.96875 185.273438 20.359375 185.273438 20.761719 Z M 185.273438 20.761719 " fill-opacity="1" fill-rule="nonzero"/><g clip-path="url(#3c9b2b375e)"><path fill="#0b2f3f" d="M 183.078125 23.148438 C 181.261719 23.148438 179.785156 21.675781 179.785156 19.863281 C 179.785156 18.054688 181.261719 16.582031 183.078125 16.582031 C 184.894531 16.582031 186.371094 18.054688 186.371094 19.863281 C 186.371094 21.675781 184.894531 23.148438 183.078125 23.148438 Z M 183.078125 17.058594 C 181.527344 17.058594 180.265625 18.316406 180.265625 19.863281 C 180.265625 21.414062 181.527344 22.671875 183.078125 22.671875 C 184.632812 22.671875 185.890625 21.414062 185.890625 19.863281 C 185.890625 18.316406 184.632812 17.058594 183.078125 17.058594 Z M 183.078125 17.058594 " fill-opacity="1" fill-rule="nonzero"/></g></svg>