<svg xmlns="http://www.w3.org/2000/svg" xmlns:xlink="http://www.w3.org/1999/xlink" width="590" zoomAndPan="magnify" viewBox="0 0 442.5 295.499996" height="394" preserveAspectRatio="xMidYMid meet" version="1.0"><defs><clipPath id="02cea3cec6"><path d="M 87.640625 13.558594 L 228 13.558594 L 228 171 L 87.640625 171 Z M 87.640625 13.558594 " clip-rule="nonzero"/></clipPath><clipPath id="8e2f619169"><path d="M 291 229 L 344 229 L 344 281.605469 L 291 281.605469 Z M 291 229 " clip-rule="nonzero"/></clipPath><clipPath id="7abe599269"><path d="M 315 273 L 354 273 L 354 281.605469 L 315 281.605469 Z M 315 273 " clip-rule="nonzero"/></clipPath><clipPath id="39800ad8eb"><path d="M 290 13.558594 L 357 13.558594 L 357 64 L 290 64 Z M 290 13.558594 " clip-rule="nonzero"/></clipPath><clipPath id="cb5a4d9d8e"><path d="M 192 274 L 211 274 L 211 281.605469 L 192 281.605469 Z M 192 274 " clip-rule="nonzero"/></clipPath><clipPath id="5493907eed"><path d="M 139 274 L 157 274 L 157 281.605469 L 139 281.605469 Z M 139 274 " clip-rule="nonzero"/></clipPath><clipPath id="76f3f0f14a"><path d="M 108 274 L 126 274 L 126 281.605469 L 108 281.605469 Z M 108 274 " clip-rule="nonzero"/></clipPath></defs><path fill="#832d3b" d="M 339.585938 105.945312 C 339.585938 120.34375 327.953125 132.015625 313.609375 132.015625 C 299.261719 132.015625 287.632812 120.34375 287.632812 105.945312 C 287.632812 91.542969 299.261719 79.871094 313.609375 79.871094 C 327.953125 79.871094 339.585938 91.542969 339.585938 105.945312 Z M 339.585938 105.945312 " fill-opacity="1" fill-rule="nonzero"/><path fill="#2f2f2f" d="M 313.609375 80.1875 C 299.4375 80.1875 287.949219 91.71875 287.949219 105.945312 L 287.316406 105.945312 C 287.316406 91.371094 299.089844 79.554688 313.609375 79.554688 Z M 313.609375 80.1875 " fill-opacity="1" fill-rule="evenodd"/><path fill="#ff8906" d="M 330.136719 105.945312 C 330.136719 115.105469 322.738281 122.535156 313.609375 122.535156 C 304.480469 122.535156 297.078125 115.105469 297.078125 105.945312 C 297.078125 96.78125 304.480469 89.351562 313.609375 89.351562 C 322.738281 89.351562 330.136719 96.78125 330.136719 105.945312 Z M 330.136719 105.945312 " fill-opacity="1" fill-rule="nonzero"/><path fill="#2f2f2f" d="M 313.609375 122.21875 C 322.5625 122.21875 329.824219 114.933594 329.824219 105.945312 L 330.453125 105.945312 C 330.453125 115.28125 322.910156 122.847656 313.609375 122.847656 Z M 313.609375 122.21875 " fill-opacity="1" fill-rule="evenodd"/><path fill="#ffb25d" d="M 320.691406 105.941406 C 320.691406 109.871094 317.519531 113.054688 313.609375 113.054688 C 309.695312 113.054688 306.523438 109.871094 306.523438 105.941406 C 306.523438 102.015625 309.695312 98.832031 313.609375 98.832031 C 317.519531 98.832031 320.691406 102.015625 320.691406 105.941406 Z M 320.691406 105.941406 " fill-opacity="1" fill-rule="nonzero"/><path fill="#2f2f2f" d="M 306.839844 105.945312 C 306.839844 109.695312 309.871094 112.738281 313.609375 112.738281 C 317.347656 112.738281 320.378906 109.695312 320.378906 105.945312 L 321.007812 105.945312 C 321.007812 110.042969 317.695312 113.371094 313.609375 113.371094 C 309.519531 113.371094 306.210938 110.042969 306.210938 105.945312 Z M 306.839844 105.945312 " fill-opacity="1" fill-rule="evenodd"/><path fill="#4f69e1" d="M 350.066406 79.871094 L 349.148438 84.941406 L 353.753906 85.890625 L 347.304688 89.695312 L 342.425781 88.914062 L 342.390625 88.910156 L 343.617188 83.992188 Z M 350.066406 79.871094 " fill-opacity="1" fill-rule="nonzero"/><path fill="#2f2f2f" d="M 342.109375 88.734375 L 343.3125 83.914062 L 343.925781 84.066406 L 342.878906 88.257812 L 348.988281 84.667969 L 349.308594 85.214844 L 349.304688 85.214844 L 343.335938 88.742188 L 347.242188 89.363281 L 353.59375 85.621094 L 353.914062 86.164062 L 347.367188 90.023438 L 342.488281 89.242188 L 313.769531 106.214844 L 313.449219 105.671875 Z M 342.109375 88.734375 " fill-opacity="1" fill-rule="evenodd"/><g clip-path="url(#02cea3cec6)"><path fill="#e0e3fc" d="M 87.957031 27.414062 C 87.957031 19.957031 93.980469 13.90625 101.414062 13.90625 L 201.5625 13.90625 C 208.992188 13.90625 215.019531 19.957031 215.019531 27.414062 L 215.019531 150.859375 L 227.535156 150.859375 L 227.535156 156.828125 C 227.535156 164.289062 221.511719 170.335938 214.078125 170.335938 L 128.328125 170.335938 C 120.894531 170.335938 114.871094 164.289062 114.871094 156.828125 L 114.871094 35.269531 L 87.957031 35.269531 Z M 87.957031 27.414062 " fill-opacity="1" fill-rule="nonzero"/><path fill="#4f69e1" d="M 101.414062 14.222656 C 94.15625 14.222656 88.269531 20.128906 88.269531 27.414062 L 88.269531 34.953125 L 114.554688 34.953125 L 114.554688 27.414062 C 114.554688 20.128906 108.671875 14.222656 101.414062 14.222656 Z M 105.539062 14.222656 C 111.128906 15.984375 115.183594 21.222656 115.183594 27.414062 L 115.183594 156.828125 C 115.183594 164.117188 121.070312 170.019531 128.328125 170.019531 C 135.585938 170.019531 141.472656 164.117188 141.472656 156.828125 L 141.472656 150.546875 L 214.703125 150.546875 L 214.703125 27.414062 C 214.703125 20.128906 208.820312 14.222656 201.5625 14.222656 Z M 215.332031 150.546875 L 215.332031 27.414062 C 215.332031 19.78125 209.167969 13.59375 201.5625 13.59375 L 101.414062 13.59375 C 93.804688 13.59375 87.640625 19.78125 87.640625 27.414062 L 87.640625 35.582031 L 114.554688 35.582031 L 114.554688 156.828125 C 114.554688 164.460938 120.722656 170.652344 128.328125 170.652344 L 214.078125 170.652344 C 221.6875 170.652344 227.851562 164.460938 227.851562 156.828125 L 227.851562 150.546875 Z M 132.453125 170.019531 L 214.078125 170.019531 C 221.335938 170.019531 227.222656 164.117188 227.222656 156.828125 L 227.222656 151.175781 L 142.101562 151.175781 L 142.101562 156.828125 C 142.101562 163.019531 138.042969 168.261719 132.453125 170.019531 Z M 132.453125 170.019531 " fill-opacity="1" fill-rule="evenodd"/></g><path fill="#4f69e1" d="M 205.003906 61.96875 L 130.519531 61.96875 L 130.519531 66.992188 L 205.003906 66.992188 Z M 205.003906 61.96875 " fill-opacity="1" fill-rule="nonzero"/><path fill="#8b98f3" d="M 205.003906 80.8125 L 130.519531 80.8125 L 130.519531 83.953125 L 205.003906 83.953125 Z M 205.003906 80.8125 " fill-opacity="1" fill-rule="nonzero"/><path fill="#8b98f3" d="M 205.003906 89.609375 L 130.519531 89.609375 L 130.519531 92.75 L 205.003906 92.75 Z M 205.003906 89.609375 " fill-opacity="1" fill-rule="nonzero"/><path fill="#8b98f3" d="M 205.003906 98.40625 L 130.519531 98.40625 L 130.519531 101.546875 L 205.003906 101.546875 Z M 205.003906 98.40625 " fill-opacity="1" fill-rule="nonzero"/><path fill="#8b98f3" d="M 169.953125 106.886719 L 130.519531 106.886719 L 130.519531 110.027344 L 169.953125 110.027344 Z M 169.953125 106.886719 " fill-opacity="1" fill-rule="nonzero"/><path fill="#ff8906" d="M 151.628906 34.367188 L 180.371094 34.367188 L 180.371094 51.894531 L 151.628906 51.894531 Z M 151.628906 34.367188 " fill-opacity="1" fill-rule="nonzero"/><path fill="#2f2f2f" d="M 151.3125 34.050781 L 180.683594 34.050781 L 180.683594 52.210938 L 151.3125 52.210938 Z M 151.945312 34.679688 L 151.945312 51.578125 L 180.054688 51.578125 L 180.054688 34.679688 Z M 151.945312 34.679688 " fill-opacity="1" fill-rule="evenodd"/><path fill="#ffffff" d="M 157.308594 53.070312 L 163.492188 53.070312 L 163.492188 42.035156 L 157.308594 42.035156 Z M 157.308594 53.070312 " fill-opacity="1" fill-rule="nonzero"/><path fill="#2f2f2f" d="M 157.625 42.351562 L 157.625 53.070312 L 156.996094 53.070312 L 156.996094 41.722656 L 163.492188 41.722656 L 163.492188 42.351562 Z M 157.625 42.351562 " fill-opacity="1" fill-rule="evenodd"/><path fill="#ffffff" d="M 168.808594 48.585938 L 175.414062 48.585938 L 175.414062 41.972656 L 168.808594 41.972656 Z M 168.808594 48.585938 " fill-opacity="1" fill-rule="nonzero"/><path fill="#2f2f2f" d="M 169.121094 45.59375 L 169.121094 48.585938 L 168.492188 48.585938 L 168.492188 41.65625 L 175.414062 41.65625 L 175.414062 42.289062 L 172.425781 42.289062 L 172.425781 44.964844 L 175.414062 44.964844 L 175.414062 45.59375 L 172.425781 45.59375 L 172.425781 48.585938 L 171.796875 48.585938 L 171.796875 45.59375 Z M 171.796875 44.964844 L 169.121094 44.964844 L 169.121094 42.289062 L 171.796875 42.289062 Z M 171.796875 44.964844 " fill-opacity="1" fill-rule="evenodd"/><path fill="#4f69e1" d="M 149.648438 54.328125 L 182.351562 54.328125 L 182.351562 51.894531 L 149.648438 51.894531 Z M 149.648438 54.328125 " fill-opacity="1" fill-rule="nonzero"/><path fill="#4f69e1" d="M 149.332031 54.644531 L 182.667969 54.644531 L 182.667969 51.578125 L 149.332031 51.578125 Z M 149.960938 54.011719 L 149.960938 52.210938 L 182.039062 52.210938 L 182.039062 54.011719 Z M 149.960938 54.011719 " fill-opacity="1" fill-rule="evenodd"/><path fill="#ffffff" d="M 154.402344 34.929688 L 154.402344 32.292969 L 159.15625 32.292969 L 159.15625 34.929688 C 159.15625 36.246094 158.09375 37.3125 156.78125 37.3125 C 155.46875 37.3125 154.402344 36.246094 154.402344 34.929688 Z M 154.402344 34.929688 " fill-opacity="1" fill-rule="nonzero"/><path fill="#4f69e1" d="M 154.089844 31.976562 L 159.472656 31.976562 L 159.472656 34.929688 C 159.472656 36.417969 158.265625 37.625 156.78125 37.625 C 155.292969 37.625 154.089844 36.417969 154.089844 34.929688 Z M 154.71875 32.605469 L 154.71875 34.929688 C 154.71875 36.070312 155.640625 36.996094 156.78125 36.996094 C 157.917969 36.996094 158.84375 36.070312 158.84375 34.929688 L 158.84375 32.605469 Z M 154.71875 32.605469 " fill-opacity="1" fill-rule="evenodd"/><path fill="#4f69e1" d="M 159.15625 34.886719 L 159.15625 32.292969 L 164 32.292969 L 164 34.886719 C 164 36.226562 162.914062 37.3125 161.578125 37.3125 C 160.242188 37.3125 159.15625 36.226562 159.15625 34.886719 Z M 159.15625 34.886719 " fill-opacity="1" fill-rule="nonzero"/><path fill="#4f69e1" d="M 158.84375 31.976562 L 164.3125 31.976562 L 164.3125 34.886719 C 164.3125 36.398438 163.089844 37.625 161.578125 37.625 C 160.066406 37.625 158.84375 36.398438 158.84375 34.886719 Z M 159.472656 32.605469 L 159.472656 34.886719 C 159.472656 36.050781 160.414062 36.996094 161.578125 36.996094 C 162.742188 36.996094 163.683594 36.050781 163.683594 34.886719 L 163.683594 32.605469 Z M 159.472656 32.605469 " fill-opacity="1" fill-rule="evenodd"/><path fill="#ffffff" d="M 164 34.929688 L 164 32.292969 L 168.753906 32.292969 L 168.753906 34.929688 C 168.753906 36.246094 167.6875 37.3125 166.375 37.3125 C 165.0625 37.3125 164 36.246094 164 34.929688 Z M 164 34.929688 " fill-opacity="1" fill-rule="nonzero"/><path fill="#4f69e1" d="M 163.683594 31.976562 L 169.066406 31.976562 L 169.066406 34.929688 C 169.066406 36.417969 167.863281 37.625 166.375 37.625 C 164.890625 37.625 163.683594 36.417969 163.683594 34.929688 Z M 164.3125 32.605469 L 164.3125 34.929688 C 164.3125 36.070312 165.238281 36.996094 166.375 36.996094 C 167.515625 36.996094 168.4375 36.070312 168.4375 34.929688 L 168.4375 32.605469 Z M 164.3125 32.605469 " fill-opacity="1" fill-rule="evenodd"/><path fill="#4f69e1" d="M 168.753906 34.929688 L 168.753906 32.292969 L 173.507812 32.292969 L 173.507812 34.929688 C 173.507812 36.246094 172.441406 37.3125 171.128906 37.3125 C 169.816406 37.3125 168.753906 36.246094 168.753906 34.929688 Z M 168.753906 34.929688 " fill-opacity="1" fill-rule="nonzero"/><path fill="#4f69e1" d="M 168.4375 31.976562 L 173.820312 31.976562 L 173.820312 34.929688 C 173.820312 36.417969 172.617188 37.625 171.128906 37.625 C 169.644531 37.625 168.4375 36.417969 168.4375 34.929688 Z M 169.066406 32.605469 L 169.066406 34.929688 C 169.066406 36.070312 169.992188 36.996094 171.128906 36.996094 C 172.269531 36.996094 173.191406 36.070312 173.191406 34.929688 L 173.191406 32.605469 Z M 169.066406 32.605469 " fill-opacity="1" fill-rule="evenodd"/><path fill="#ffffff" d="M 173.507812 34.886719 L 173.507812 32.292969 L 178.347656 32.292969 L 178.347656 34.886719 C 178.347656 36.226562 177.265625 37.3125 175.925781 37.3125 C 174.589844 37.3125 173.507812 36.226562 173.507812 34.886719 Z M 173.507812 34.886719 " fill-opacity="1" fill-rule="nonzero"/><path fill="#4f69e1" d="M 173.191406 31.976562 L 178.664062 31.976562 L 178.664062 34.886719 C 178.664062 36.398438 177.4375 37.625 175.925781 37.625 C 174.417969 37.625 173.191406 36.398438 173.191406 34.886719 Z M 173.820312 32.605469 L 173.820312 34.886719 C 173.820312 36.050781 174.765625 36.996094 175.925781 36.996094 C 177.089844 36.996094 178.03125 36.050781 178.03125 34.886719 L 178.03125 32.605469 Z M 173.820312 32.605469 " fill-opacity="1" fill-rule="evenodd"/><path fill="#ffffff" d="M 178.519531 25.886719 L 183.015625 32.292969 L 149.648438 32.292969 L 154.144531 25.886719 Z M 178.519531 25.886719 " fill-opacity="1" fill-rule="nonzero"/><path fill="#4f69e1" d="M 183.015625 32.292969 L 178.519531 25.886719 L 175.0625 25.886719 L 178.347656 32.292969 Z M 183.015625 32.292969 " fill-opacity="1" fill-rule="nonzero"/><path fill="#4f69e1" d="M 154.144531 25.886719 L 149.648438 32.292969 L 154.402344 32.292969 L 157.601562 25.886719 Z M 154.144531 25.886719 " fill-opacity="1" fill-rule="nonzero"/><path fill="#4f69e1" d="M 161.058594 25.886719 L 159.15625 32.292969 L 164 32.292969 L 164.515625 25.886719 Z M 161.058594 25.886719 " fill-opacity="1" fill-rule="nonzero"/><path fill="#4f69e1" d="M 168.0625 25.886719 L 168.753906 32.292969 L 173.507812 32.292969 L 171.605469 25.886719 Z M 168.0625 25.886719 " fill-opacity="1" fill-rule="nonzero"/><path fill="#4f69e1" d="M 149.648438 35.019531 L 149.648438 32.292969 L 154.402344 32.292969 L 154.402344 35.019531 C 154.402344 36.332031 153.339844 37.398438 152.027344 37.398438 C 150.714844 37.398438 149.648438 36.332031 149.648438 35.019531 Z M 149.648438 35.019531 " fill-opacity="1" fill-rule="nonzero"/><path fill="#4f69e1" d="M 178.347656 35.019531 L 178.347656 32.292969 L 183.015625 32.292969 L 183.015625 35.019531 C 183.015625 36.332031 182.039062 37.398438 180.726562 37.398438 C 179.414062 37.398438 178.347656 36.332031 178.347656 35.019531 Z M 178.347656 35.019531 " fill-opacity="1" fill-rule="nonzero"/><path fill="#4f69e1" d="M 153.980469 25.574219 L 178.683594 25.574219 L 183.332031 32.191406 L 183.332031 35.019531 C 183.332031 36.492188 182.226562 37.714844 180.726562 37.714844 C 179.238281 37.714844 178.03125 36.507812 178.03125 35.019531 L 178.03125 32.609375 L 154.71875 32.609375 L 154.71875 35.019531 C 154.71875 36.507812 153.511719 37.714844 152.027344 37.714844 C 150.539062 37.714844 149.332031 36.507812 149.332031 35.019531 L 149.332031 32.191406 Z M 154.089844 32.609375 L 154.089844 35.019531 C 154.089844 36.160156 153.164062 37.082031 152.027344 37.082031 C 150.886719 37.082031 149.964844 36.160156 149.964844 35.019531 L 149.964844 32.609375 Z M 150.253906 31.976562 L 154.207031 31.976562 L 157.09375 26.203125 L 154.308594 26.203125 Z M 157.796875 26.203125 L 154.914062 31.976562 L 158.921875 31.976562 L 160.636719 26.203125 Z M 161.292969 26.203125 L 159.578125 31.976562 L 163.707031 31.976562 L 164.175781 26.203125 Z M 164.808594 26.203125 L 164.339844 31.976562 L 168.402344 31.976562 L 167.777344 26.203125 Z M 168.410156 26.203125 L 169.035156 31.976562 L 173.085938 31.976562 L 171.371094 26.203125 Z M 172.027344 26.203125 L 173.742188 31.976562 L 177.832031 31.976562 L 174.871094 26.203125 Z M 175.578125 26.203125 L 178.539062 31.976562 L 182.410156 31.976562 L 178.355469 26.203125 Z M 182.703125 32.609375 L 178.664062 32.609375 L 178.664062 35.019531 C 178.664062 36.160156 179.585938 37.082031 180.726562 37.082031 C 181.847656 37.082031 182.703125 36.171875 182.703125 35.019531 Z M 182.703125 32.609375 " fill-opacity="1" fill-rule="evenodd"/><path fill="#ffb25d" d="M 290.660156 192.40625 C 293.15625 196.320312 295.003906 200.941406 295.003906 204.078125 C 295.003906 239.359375 295.003906 251.890625 298.902344 258.027344 C 297.488281 258.8125 296.179688 259.582031 295.003906 260.3125 C 281.789062 246.519531 289.191406 199.304688 273.863281 192.40625 Z M 290.660156 192.40625 " fill-opacity="1" fill-rule="nonzero"/><path fill="#ffb25d" d="M 335.566406 190.816406 C 338.585938 195 340.988281 200.503906 340.988281 204.078125 L 340.988281 249.589844 C 342.804688 250.5 344.410156 251.753906 345.746094 253.417969 C 345.746094 219.464844 363.1875 205.671875 351.558594 190.816406 Z M 335.566406 190.816406 " fill-opacity="1" fill-rule="nonzero"/><path fill="#2f2f2f" d="M 351.40625 191.132812 L 335.566406 191.132812 L 335.566406 190.5 L 351.714844 190.5 L 351.808594 190.621094 C 354.757812 194.390625 355.871094 198.109375 355.871094 202.089844 C 355.871094 206.054688 354.769531 210.273438 353.316406 215.046875 C 353.003906 216.066406 352.679688 217.109375 352.34375 218.1875 C 349.527344 227.199219 346.0625 238.300781 346.0625 253.417969 L 345.429688 253.417969 C 345.429688 238.199219 348.925781 227.011719 351.742188 217.996094 C 352.078125 216.921875 352.402344 215.878906 352.710938 214.863281 C 354.167969 210.085938 355.242188 205.949219 355.242188 202.089844 C 355.242188 198.289062 354.199219 194.746094 351.40625 191.132812 Z M 351.40625 191.132812 " fill-opacity="1" fill-rule="evenodd"/><path fill="#ff8906" d="M 330.945312 186.042969 L 284.960938 186.042969 C 286.90625 187.34375 288.9375 189.707031 290.660156 192.40625 C 293.15625 196.320312 295.003906 200.941406 295.003906 204.078125 C 295.003906 239.359375 295.003906 251.890625 298.902344 258.027344 C 310.652344 251.507812 329.78125 243.964844 340.988281 249.589844 L 340.988281 204.078125 C 340.988281 200.503906 338.589844 195 335.566406 190.816406 C 334.105469 188.792969 332.496094 187.082031 330.945312 186.042969 Z M 330.945312 186.042969 " fill-opacity="1" fill-rule="nonzero"/><path fill="#2f2f2f" d="M 285.136719 185.78125 C 287.132812 187.117188 289.191406 189.519531 290.925781 192.238281 C 292.183594 194.210938 293.28125 196.363281 294.0625 198.421875 C 294.84375 200.476562 295.320312 202.457031 295.320312 204.078125 C 295.320312 221.722656 295.320312 233.664062 295.808594 241.964844 C 296.28125 250.046875 297.214844 254.609375 299.011719 257.605469 C 304.867188 254.378906 312.5 250.925781 320.070312 248.949219 C 327.539062 247 335.015625 246.46875 340.675781 249.085938 L 340.675781 204.078125 C 340.675781 203.242188 340.539062 202.285156 340.285156 201.25 L 340.894531 201.101562 C 341.15625 202.167969 341.304688 203.175781 341.304688 204.078125 L 341.304688 250.097656 L 340.847656 249.871094 C 335.351562 247.109375 327.863281 247.566406 320.230469 249.558594 C 312.609375 251.546875 304.914062 255.050781 299.054688 258.304688 L 298.796875 258.449219 L 298.636719 258.195312 C 296.640625 255.054688 295.664062 250.3125 295.179688 242 C 294.691406 233.679688 294.691406 221.71875 294.691406 204.085938 L 294.691406 204.078125 C 294.691406 202.566406 294.242188 200.664062 293.476562 198.644531 C 292.710938 196.632812 291.632812 194.515625 290.398438 192.578125 C 288.683594 189.890625 286.679688 187.570312 284.789062 186.304688 Z M 285.136719 185.78125 " fill-opacity="1" fill-rule="evenodd"/><g clip-path="url(#8e2f619169)"><path fill="#ffb25d" d="M 343.101562 255.539062 C 343.101562 269.894531 331.507812 281.53125 317.203125 281.53125 C 302.898438 281.53125 291.304688 269.894531 291.304688 255.539062 C 291.304688 241.179688 302.898438 229.542969 317.203125 229.542969 C 331.507812 229.542969 343.101562 241.179688 343.101562 255.539062 Z M 343.101562 255.539062 " fill-opacity="1" fill-rule="nonzero"/></g><path fill="#2f2f2f" d="M 317.203125 229.859375 C 303.074219 229.859375 291.621094 241.355469 291.621094 255.539062 L 290.988281 255.539062 C 290.988281 241.007812 302.726562 229.226562 317.203125 229.226562 C 331.683594 229.226562 343.417969 241.007812 343.417969 255.539062 L 342.789062 255.539062 C 342.789062 241.355469 331.332031 229.859375 317.203125 229.859375 Z M 317.203125 229.859375 " fill-opacity="1" fill-rule="evenodd"/><path fill="#ff8906" d="M 336.628906 255.539062 C 336.628906 266.304688 327.929688 275.035156 317.203125 275.035156 C 306.476562 275.035156 297.777344 266.304688 297.777344 255.539062 C 297.777344 244.769531 306.476562 236.042969 317.203125 236.042969 C 327.929688 236.042969 336.628906 244.769531 336.628906 255.539062 Z M 336.628906 255.539062 " fill-opacity="1" fill-rule="nonzero"/><path fill="#2f2f2f" d="M 298.09375 255.539062 C 298.09375 266.132812 306.652344 274.71875 317.203125 274.71875 C 327.757812 274.71875 336.3125 266.132812 336.3125 255.539062 L 336.941406 255.539062 C 336.941406 266.480469 328.105469 275.347656 317.203125 275.347656 C 306.300781 275.347656 297.464844 266.480469 297.464844 255.539062 Z M 298.09375 255.539062 " fill-opacity="1" fill-rule="evenodd"/><g clip-path="url(#7abe599269)"><path fill="#ffb25d" d="M 315.617188 273.042969 L 353.675781 273.042969 L 353.675781 281.53125 L 315.617188 281.53125 Z M 315.617188 273.042969 " fill-opacity="1" fill-rule="nonzero"/><path fill="#2f2f2f" d="M 353.046875 273.675781 L 316.246094 273.675781 L 316.246094 280.902344 L 353.046875 280.902344 Z M 315.617188 273.042969 L 315.617188 281.53125 L 353.675781 281.53125 L 353.675781 273.042969 Z M 315.617188 273.042969 " fill-opacity="1" fill-rule="evenodd"/></g><path fill="#ffb25d" d="M 312.445312 265.617188 L 350.503906 265.617188 L 350.503906 274.105469 L 312.445312 274.105469 Z M 312.445312 265.617188 " fill-opacity="1" fill-rule="nonzero"/><path fill="#2f2f2f" d="M 349.875 266.246094 L 313.078125 266.246094 L 313.078125 273.476562 L 349.875 273.476562 Z M 312.445312 265.617188 L 312.445312 274.105469 L 350.503906 274.105469 L 350.503906 265.617188 Z M 312.445312 265.617188 " fill-opacity="1" fill-rule="evenodd"/><path fill="#ffb25d" d="M 317.734375 258.191406 L 355.789062 258.191406 L 355.789062 266.679688 L 317.734375 266.679688 Z M 317.734375 258.191406 " fill-opacity="1" fill-rule="nonzero"/><path fill="#2f2f2f" d="M 355.160156 258.820312 L 318.363281 258.820312 L 318.363281 266.046875 L 355.160156 266.046875 Z M 317.734375 258.191406 L 317.734375 266.679688 L 355.789062 266.679688 L 355.789062 258.191406 Z M 317.734375 258.191406 " fill-opacity="1" fill-rule="evenodd"/><path fill="#ffb25d" d="M 314.5625 250.765625 L 352.617188 250.765625 L 352.617188 259.25 L 314.5625 259.25 Z M 314.5625 250.765625 " fill-opacity="1" fill-rule="nonzero"/><path fill="#2f2f2f" d="M 351.988281 251.394531 L 315.191406 251.394531 L 315.191406 258.621094 L 351.988281 258.621094 Z M 314.5625 250.765625 L 314.5625 259.25 L 352.617188 259.25 L 352.617188 250.765625 Z M 314.5625 250.765625 " fill-opacity="1" fill-rule="evenodd"/><path fill="#ffb25d" d="M 311.390625 243.335938 L 349.445312 243.335938 L 349.445312 251.824219 L 311.390625 251.824219 Z M 311.390625 243.335938 " fill-opacity="1" fill-rule="nonzero"/><path fill="#2f2f2f" d="M 348.816406 243.964844 L 312.019531 243.964844 L 312.019531 251.195312 L 348.816406 251.195312 Z M 311.390625 243.335938 L 311.390625 251.824219 L 349.445312 251.824219 L 349.445312 243.335938 Z M 311.390625 243.335938 " fill-opacity="1" fill-rule="evenodd"/><g clip-path="url(#39800ad8eb)"><path fill="#8b98f3" d="M 290.761719 16.429688 C 290.761719 15.039062 291.890625 13.90625 293.28125 13.90625 L 353.605469 13.90625 C 354.996094 13.90625 356.125 15.039062 356.125 16.429688 L 356.125 61.015625 C 356.125 62.410156 354.996094 63.539062 353.605469 63.539062 L 293.28125 63.539062 C 291.890625 63.539062 290.761719 62.410156 290.761719 61.015625 Z M 290.761719 16.429688 " fill-opacity="1" fill-rule="nonzero"/></g><path fill="#2f2f2f" d="M 355.808594 61.015625 L 355.808594 16.429688 L 356.4375 16.429688 L 356.4375 61.015625 C 356.4375 62.582031 355.171875 63.851562 353.605469 63.851562 L 293.28125 63.851562 L 293.28125 63.222656 L 353.605469 63.222656 C 354.824219 63.222656 355.808594 62.234375 355.808594 61.015625 Z M 355.808594 61.015625 " fill-opacity="1" fill-rule="evenodd"/><path fill="#ffffff" d="M 296.445312 37.296875 L 304.160156 37.296875 L 304.160156 49.847656 L 296.445312 49.847656 Z M 296.445312 37.296875 " fill-opacity="1" fill-rule="nonzero"/><path fill="#ffb25d" d="M 308.015625 31.59375 L 315.730469 31.59375 L 315.730469 49.847656 L 308.015625 49.847656 Z M 308.015625 31.59375 " fill-opacity="1" fill-rule="nonzero"/><path fill="#ff8906" d="M 319.585938 25.886719 L 327.300781 25.886719 L 327.300781 49.847656 L 319.585938 49.847656 Z M 319.585938 25.886719 " fill-opacity="1" fill-rule="nonzero"/><path fill="#2f2f2f" d="M 319.273438 25.574219 L 327.300781 25.574219 L 327.300781 26.203125 L 319.902344 26.203125 L 319.902344 49.847656 L 319.273438 49.847656 Z M 319.273438 25.574219 " fill-opacity="1" fill-rule="evenodd"/><path fill="#ffb25d" d="M 331.15625 31.59375 L 338.871094 31.59375 L 338.871094 49.847656 L 331.15625 49.847656 Z M 331.15625 31.59375 " fill-opacity="1" fill-rule="nonzero"/><path fill="#2f2f2f" d="M 307.703125 31.277344 L 315.730469 31.277344 L 315.730469 31.90625 L 308.332031 31.90625 L 308.332031 49.847656 L 307.703125 49.847656 Z M 330.84375 31.277344 L 338.871094 31.277344 L 338.871094 31.90625 L 331.472656 31.90625 L 331.472656 49.847656 L 330.84375 49.847656 Z M 330.84375 31.277344 " fill-opacity="1" fill-rule="evenodd"/><path fill="#ffffff" d="M 342.726562 21.894531 L 350.441406 21.894531 L 350.441406 49.847656 L 342.726562 49.847656 Z M 342.726562 21.894531 " fill-opacity="1" fill-rule="nonzero"/><path fill="#2f2f2f" d="M 342.410156 21.578125 L 350.441406 21.578125 L 350.441406 22.210938 L 343.042969 22.210938 L 343.042969 49.847656 L 342.410156 49.847656 Z M 296.132812 36.980469 L 304.160156 36.980469 L 304.160156 37.613281 L 296.761719 37.613281 L 296.761719 49.847656 L 296.132812 49.847656 Z M 296.132812 36.980469 " fill-opacity="1" fill-rule="evenodd"/><path fill="#ff8906" d="M 296.445312 55.265625 C 296.445312 54.480469 297.082031 53.839844 297.871094 53.839844 L 349.015625 53.839844 C 349.804688 53.839844 350.441406 54.480469 350.441406 55.265625 C 350.441406 56.054688 349.804688 56.691406 349.015625 56.691406 L 297.871094 56.691406 C 297.082031 56.691406 296.445312 56.054688 296.445312 55.265625 Z M 296.445312 55.265625 " fill-opacity="1" fill-rule="nonzero"/><path fill="#2f2f2f" d="M 296.132812 55.265625 C 296.132812 54.304688 296.910156 53.523438 297.871094 53.523438 L 349.015625 53.523438 L 349.015625 54.15625 L 297.871094 54.15625 C 297.257812 54.15625 296.761719 54.652344 296.761719 55.265625 C 296.761719 55.878906 297.257812 56.378906 297.871094 56.378906 L 297.871094 57.007812 C 296.910156 57.007812 296.132812 56.226562 296.132812 55.265625 Z M 296.132812 55.265625 " fill-opacity="1" fill-rule="evenodd"/><path fill="#ffbcad" d="M 187.074219 153.628906 C 185.578125 153.824219 183.449219 153.101562 183.214844 152.859375 L 182.164062 158.816406 L 183.214844 159.539062 C 183.527344 160.019531 184.316406 160.96875 184.96875 160.921875 C 184.84375 161.257812 184.832031 161.566406 184.96875 161.832031 C 185.753906 163.332031 188.035156 166.15625 191.609375 165.023438 C 191.828125 165.203125 192.140625 165.308594 192.566406 165.207031 C 194.007812 164.164062 196.894531 161.855469 196.894531 160.988281 C 196.894531 160.75 196.871094 160.53125 196.824219 160.335938 C 197.128906 159.882812 198.574219 158.816406 199.152344 158.816406 L 198 153.628906 L 191.972656 154.042969 C 190.632812 153.335938 188.414062 153.457031 187.074219 153.628906 Z M 187.074219 153.628906 " fill-opacity="1" fill-rule="nonzero"/><g clip-path="url(#cb5a4d9d8e)"><path fill="#2f2f2f" d="M 192.828125 281.566406 C 192.945312 279.441406 193.914062 277.777344 197.136719 277.339844 C 199.496094 277.019531 200.765625 275.535156 201.265625 274.523438 L 210.09375 274.523438 L 210.09375 281.566406 Z M 192.828125 281.566406 " fill-opacity="1" fill-rule="nonzero"/></g><g clip-path="url(#5493907eed)"><path fill="#2f2f2f" d="M 156.519531 281.566406 C 156.402344 279.441406 155.433594 277.777344 152.214844 277.339844 C 149.851562 277.019531 148.585938 275.535156 148.085938 274.523438 L 139.257812 274.523438 L 139.257812 281.566406 Z M 156.519531 281.566406 " fill-opacity="1" fill-rule="nonzero"/></g><g clip-path="url(#76f3f0f14a)"><path fill="#2f2f2f" d="M 126 281.566406 C 125.882812 279.441406 124.914062 277.777344 121.695312 277.339844 C 119.332031 277.019531 119.296875 275.535156 118.800781 274.523438 L 109.972656 274.523438 L 108.738281 281.566406 Z M 126 281.566406 " fill-opacity="1" fill-rule="nonzero"/></g><path fill="#2f2f2f" d="M 241.671875 270.332031 C 241.738281 271.460938 241.367188 273.386719 239.460938 274.863281 C 237.175781 276.632812 236.882812 278.335938 237.492188 280.011719 C 237.578125 280.246094 237.679688 280.476562 237.796875 280.707031 C 242.914062 280.707031 244.929688 280.300781 252.558594 271.34375 L 251.976562 270.332031 L 249.402344 265.851562 Z M 241.671875 270.332031 " fill-opacity="1" fill-rule="nonzero"/><path fill="#8b98f3" d="M 121.644531 273.640625 L 133.410156 201.679688 L 136.308594 273.429688 C 136.347656 274.363281 137.113281 275.101562 138.046875 275.101562 L 148.460938 275.101562 C 149.417969 275.101562 150.199219 274.320312 150.199219 273.359375 L 150.199219 180.3125 C 146.972656 181.699219 127.738281 182.625 118.527344 182.914062 L 107.816406 273.152344 C 107.691406 274.1875 108.5 275.101562 109.539062 275.101562 L 119.929688 275.101562 C 120.78125 275.101562 121.507812 274.480469 121.644531 273.640625 Z M 121.644531 273.640625 " fill-opacity="1" fill-rule="nonzero"/><path fill="#2f2f2f" d="M 139.035156 193.671875 L 139.480469 194.117188 L 134.078125 199.535156 L 133.726562 201.699219 L 135.015625 233.636719 L 134.386719 233.660156 L 133.222656 204.789062 L 127.90625 237.292969 L 127.285156 237.191406 L 133.09375 201.660156 L 133.074219 201.132812 L 133.183594 201.128906 L 133.492188 199.234375 Z M 139.035156 193.671875 " fill-opacity="1" fill-rule="evenodd"/><path fill="#2f2f2f" d="M 146.972656 111.277344 C 144.359375 112.480469 138.03125 109.320312 136.675781 109.125 C 134.769531 108.851562 135.085938 112.6875 135.890625 115.3125 C 135.171875 114.132812 133.328125 112.070312 131.683594 113.25 C 129.628906 114.722656 132.273438 118.257812 134.328125 119.140625 L 131.769531 119.730469 C 121.035156 109.597656 126.335938 104.707031 130.328125 103.527344 C 131.359375 101.972656 133.296875 100.777344 136.675781 100.582031 C 146.945312 99.992188 150.175781 108.242188 147.535156 110.894531 C 147.375 111.050781 147.1875 111.179688 146.972656 111.277344 Z M 146.972656 111.277344 " fill-opacity="1" fill-rule="nonzero"/><path fill="#ffbcad" d="M 141.078125 128.566406 C 138.496094 134.929688 133.152344 130.238281 130.804688 127.09375 C 131.367188 125.5 132.300781 121.898438 131.769531 119.730469 L 134.328125 119.140625 C 132.273438 118.257812 129.632812 114.722656 131.683594 113.25 C 133.328125 112.070312 135.171875 114.132812 135.890625 115.3125 C 135.085938 112.6875 134.769531 108.851562 136.675781 109.125 C 138.03125 109.320312 144.359375 112.480469 146.972656 111.277344 C 147.5 119.078125 145.132812 124.488281 140.796875 124.230469 C 140.839844 125.175781 140.996094 127.40625 141.078125 128.566406 Z M 141.078125 128.566406 " fill-opacity="1" fill-rule="nonzero"/><path fill="#f58861" d="M 137.371094 123.035156 C 138.617188 123.785156 139.761719 124.167969 140.796875 124.230469 C 140.8125 124.605469 140.847656 125.191406 140.890625 125.828125 C 138.921875 125.324219 137.722656 123.753906 137.371094 123.035156 Z M 137.371094 123.035156 " fill-opacity="1" fill-rule="nonzero"/><path fill="#4f69e1" d="M 113.34375 134.363281 C 117.027344 130.433594 126.78125 126.753906 130.90625 126.5625 C 132.632812 129.835938 137.296875 134.710938 140.984375 128.007812 C 142.808594 128.96875 146.914062 131.589844 149.910156 134.363281 C 152.90625 137.140625 158.929688 145.539062 160.5625 147.945312 L 183.308594 152.234375 L 181.867188 160.617188 C 170.929688 159.75 160.511719 158.476562 158.546875 157.773438 C 156.261719 156.953125 151.222656 152.785156 149.210938 151.515625 C 150.6875 160.484375 151.757812 171.828125 151.347656 184.070312 C 140.523438 188.230469 124.574219 185.804688 117.949219 184.070312 L 119.390625 162.683594 L 117.9375 153.4375 L 116.796875 159.503906 L 115.070312 184.648438 L 106.144531 184.359375 C 106.722656 163.550781 106.917969 161.40625 107.214844 158.929688 C 108.355469 149.390625 110.3125 137.597656 113.34375 134.363281 Z M 113.34375 134.363281 " fill-opacity="1" fill-rule="nonzero"/><path fill="#2f2f2f" d="M 148.910156 151.636719 C 147.878906 145.34375 146.644531 140.21875 145.578125 136.769531 L 146.179688 136.582031 C 147.242188 140.019531 148.46875 145.097656 149.5 151.324219 C 150.179688 151.769531 151.15625 152.492188 152.230469 153.285156 C 152.742188 153.664062 153.273438 154.058594 153.808594 154.445312 C 154.730469 155.117188 155.660156 155.773438 156.507812 156.316406 C 157.359375 156.863281 158.101562 157.277344 158.652344 157.476562 C 158.988281 157.59375 159.617188 157.742188 160.511719 157.902344 C 161.394531 158.066406 162.519531 158.242188 163.835938 158.425781 C 166.46875 158.789062 169.855469 159.183594 173.601562 159.558594 L 173.535156 160.1875 C 169.789062 159.8125 166.390625 159.417969 163.75 159.050781 C 162.429688 158.863281 161.292969 158.6875 160.398438 158.523438 C 159.507812 158.363281 158.832031 158.207031 158.441406 158.070312 C 157.816406 157.84375 157.023438 157.394531 156.167969 156.847656 C 155.304688 156.296875 154.363281 155.628906 153.4375 154.957031 C 152.882812 154.550781 152.339844 154.148438 151.820312 153.765625 C 150.996094 153.15625 150.242188 152.597656 149.636719 152.179688 C 151.054688 161.050781 152.058594 172.140625 151.664062 184.078125 L 151.65625 184.289062 L 151.460938 184.363281 C 146.832031 186.140625 141.296875 186.726562 135.960938 186.679688 C 130.621094 186.632812 125.460938 185.957031 121.574219 185.207031 L 121.695312 184.585938 C 125.550781 185.332031 130.671875 186.003906 135.964844 186.050781 C 141.1875 186.09375 146.554688 185.53125 151.042969 183.847656 C 151.425781 171.773438 150.375 160.585938 148.921875 151.707031 C 148.910156 151.699219 148.898438 151.691406 148.882812 151.683594 Z M 120.230469 139.507812 L 120.851562 139.625 L 117.109375 159.546875 L 115.722656 179.757812 L 115.09375 179.714844 L 116.484375 159.464844 Z M 120.230469 139.507812 " fill-opacity="1" fill-rule="evenodd"/><path fill="#832d3b" d="M 198.097656 273.265625 L 203.183594 180.3125 C 206.40625 181.699219 226.503906 181.46875 235.71875 181.757812 L 235.140625 226.550781 L 250.117188 264.125 C 250.445312 264.945312 250.105469 265.878906 249.332031 266.300781 L 241.65625 270.464844 C 240.777344 270.941406 239.679688 270.578125 239.253906 269.675781 L 221.480469 231.746094 C 220.5 229.65625 219.976562 227.378906 219.945312 225.066406 L 219.59375 199.386719 L 211.980469 273.539062 C 211.890625 274.425781 211.144531 275.101562 210.253906 275.101562 L 199.835938 275.101562 C 198.839844 275.101562 198.046875 274.261719 198.097656 273.265625 Z M 198.097656 273.265625 " fill-opacity="1" fill-rule="nonzero"/><path fill="#2f2f2f" d="M 214.347656 193.671875 L 213.902344 194.117188 L 219.265625 199.503906 L 214.921875 241.8125 L 215.546875 241.878906 L 219.355469 204.8125 L 219.628906 225.070312 C 219.660156 227.425781 220.195312 229.75 221.195312 231.882812 L 223.710938 237.25 L 224.28125 236.980469 L 221.765625 231.613281 C 220.804688 229.5625 220.289062 227.328125 220.257812 225.0625 L 219.90625 199.253906 Z M 214.347656 193.671875 " fill-opacity="1" fill-rule="evenodd"/><path fill="#ffbcad" d="M 213.046875 127.988281 C 216.425781 141.011719 220.972656 129.660156 223.320312 126.515625 C 222.757812 124.921875 221.824219 121.320312 222.355469 119.152344 L 219.796875 118.5625 C 221.851562 117.679688 224.492188 114.144531 222.4375 112.671875 C 220.796875 111.492188 218.949219 113.554688 218.230469 114.734375 C 219.039062 112.109375 219.355469 108.273438 217.449219 108.546875 C 216.09375 108.742188 209.765625 111.902344 207.148438 110.699219 C 206.625 118.496094 208.988281 123.910156 213.328125 123.652344 C 213.28125 124.597656 213.128906 126.828125 213.046875 127.988281 Z M 213.046875 127.988281 " fill-opacity="1" fill-rule="nonzero"/><path fill="#f58861" d="M 213.328125 123.652344 C 213.308594 124.019531 213.277344 124.582031 213.238281 125.195312 C 214.28125 124.597656 216.5625 123.140625 217.320312 122.09375 C 215.851562 123.082031 214.515625 123.582031 213.328125 123.652344 Z M 213.328125 123.652344 " fill-opacity="1" fill-rule="nonzero"/><path fill="#2f2f2f" d="M 207.148438 110.699219 C 209.765625 111.902344 216.09375 108.742188 217.449219 108.546875 C 219.355469 108.273438 219.039062 112.109375 218.234375 114.734375 C 218.949219 113.554688 220.796875 111.492188 222.4375 112.671875 C 224.492188 114.144531 221.851562 117.679688 219.796875 118.5625 L 222.355469 119.152344 C 230.410156 107.253906 225.921875 103.933594 222.667969 103.757812 C 220.152344 96.824219 208.53125 105.734375 204.730469 103.757812 C 201.582031 102.121094 204.097656 109.117188 206.589844 110.316406 C 206.75 110.472656 206.9375 110.601562 207.148438 110.699219 Z M 207.148438 110.699219 " fill-opacity="1" fill-rule="nonzero"/><path fill="#ff8906" d="M 236.175781 183.492188 L 234.734375 162.105469 L 236.585938 153.4375 C 237.324219 149.96875 240.492188 136.300781 237.902344 132.917969 C 235.175781 129.363281 228.15625 126.5 223.914062 126.039062 C 223.671875 126.011719 223.4375 125.992188 223.21875 125.984375 C 221.050781 128.585938 216.65625 133.785156 216.425781 133.785156 C 216.195312 133.785156 214.164062 129.546875 213.257812 127.429688 C 212.894531 127.621094 212.59375 127.882812 212.050781 128.195312 C 209.898438 129.449219 206.390625 132.132812 204.8125 136.097656 C 203.851562 138.503906 202.085938 150.640625 203.746094 159.894531 C 202.925781 166.914062 202.480469 174.691406 202.773438 183.492188 C 213.601562 187.652344 229.550781 185.226562 236.175781 183.492188 Z M 236.175781 183.492188 " fill-opacity="1" fill-rule="nonzero"/><path fill="#2f2f2f" d="M 205.121094 152.359375 C 206.164062 145.945312 207.46875 139.675781 208.546875 136.191406 L 207.945312 136.003906 C 206.851562 139.535156 205.542969 145.835938 204.5 152.257812 Z M 205.121094 152.359375 " fill-opacity="1" fill-rule="evenodd"/><path fill="#2f2f2f" d="M 221.117188 136.1875 L 223.605469 125.964844 L 224.21875 126.113281 L 221.527344 137.164062 L 216.441406 134.164062 L 212.105469 137.273438 L 211.738281 128.207031 L 212.367188 128.183594 L 212.6875 136.078125 L 216.410156 133.410156 Z M 221.117188 136.1875 " fill-opacity="1" fill-rule="evenodd"/><path fill="#ff8906" d="M 223.625 150.257812 L 228.230469 136.675781 L 237.445312 143.613281 L 231.171875 156.671875 C 230.246094 158.59375 228.34375 159.855469 226.214844 159.949219 L 197.710938 161.238281 L 197.136719 152.28125 Z M 223.625 150.257812 " fill-opacity="1" fill-rule="nonzero"/><path fill="#2f2f2f" d="M 223.410156 149.984375 L 227.957031 136.582031 L 228.503906 136.769531 L 223.835938 150.53125 L 197.441406 152.546875 L 197.980469 160.9375 L 226.199219 159.660156 C 228.222656 159.570312 230.03125 158.371094 230.910156 156.546875 L 237.183594 143.484375 L 237.707031 143.738281 L 231.433594 156.796875 C 230.460938 158.816406 228.460938 160.140625 226.226562 160.242188 L 197.441406 161.542969 L 196.828125 152.015625 Z M 223.410156 149.984375 " fill-opacity="1" fill-rule="evenodd"/><path fill="#2f2f2f" d="M 97.21875 203.140625 C 97.21875 195.960938 103.019531 190.136719 110.175781 190.136719 C 117.332031 190.136719 123.132812 195.960938 123.132812 203.140625 L 123.132812 205.449219 C 123.132812 206.410156 122.355469 207.1875 121.394531 207.1875 L 120.261719 207.1875 C 119.304688 207.1875 118.527344 206.410156 118.527344 205.449219 L 118.527344 203.140625 C 118.527344 198.515625 114.789062 194.761719 110.175781 194.761719 C 105.5625 194.761719 101.824219 198.515625 101.824219 203.140625 L 101.824219 205.449219 C 101.824219 206.410156 101.046875 207.1875 100.089844 207.1875 L 98.957031 207.1875 C 97.996094 207.1875 97.21875 206.410156 97.21875 205.449219 Z M 97.21875 203.140625 " fill-opacity="1" fill-rule="evenodd"/><path fill="#2f2f2f" d="M 96.929688 203.144531 C 96.929688 195.800781 102.859375 189.847656 110.175781 189.847656 C 117.492188 189.847656 123.421875 195.800781 123.421875 203.144531 L 123.421875 205.449219 C 123.421875 206.570312 122.515625 207.476562 121.394531 207.476562 L 120.261719 207.476562 C 119.144531 207.476562 118.234375 206.570312 118.234375 205.449219 L 118.234375 203.144531 C 118.234375 198.671875 114.625 195.050781 110.175781 195.050781 C 105.726562 195.050781 102.117188 198.671875 102.117188 203.144531 L 102.117188 205.449219 C 102.117188 206.570312 101.207031 207.476562 100.089844 207.476562 L 98.957031 207.476562 C 97.835938 207.476562 96.929688 206.570312 96.929688 205.449219 Z M 110.175781 190.429688 C 103.179688 190.429688 97.507812 196.121094 97.507812 203.144531 L 97.507812 205.449219 C 97.507812 206.25 98.15625 206.898438 98.957031 206.898438 L 100.089844 206.898438 C 100.886719 206.898438 101.535156 206.25 101.535156 205.449219 L 101.535156 203.144531 C 101.535156 198.355469 105.402344 194.472656 110.175781 194.472656 C 114.949219 194.472656 118.816406 198.355469 118.816406 203.144531 L 118.816406 205.449219 C 118.816406 206.25 119.464844 206.898438 120.261719 206.898438 L 121.394531 206.898438 C 122.195312 206.898438 122.84375 206.25 122.84375 205.449219 L 122.84375 203.144531 C 122.84375 196.121094 117.171875 190.429688 110.175781 190.429688 Z M 110.175781 190.429688 " fill-opacity="1" fill-rule="evenodd"/><path fill="#4f69e1" d="M 88.582031 206.90625 C 88.582031 205.945312 89.359375 205.164062 90.320312 205.164062 L 130.035156 205.164062 C 130.992188 205.164062 131.769531 205.945312 131.769531 206.90625 L 131.769531 230.011719 C 131.769531 230.972656 130.992188 231.75 130.035156 231.75 L 90.320312 231.75 C 89.359375 231.75 88.582031 230.972656 88.582031 230.011719 Z M 88.582031 206.90625 " fill-opacity="1" fill-rule="nonzero"/><path fill="#e0e3fc" d="M 88.582031 206.90625 C 88.582031 205.945312 89.359375 205.164062 90.320312 205.164062 L 130.035156 205.164062 C 130.992188 205.164062 131.769531 205.945312 131.769531 206.90625 L 131.769531 218.453125 C 131.769531 219.414062 130.992188 220.191406 130.035156 220.191406 L 90.320312 220.191406 C 89.359375 220.191406 88.582031 219.414062 88.582031 218.453125 Z M 88.582031 206.90625 " fill-opacity="1" fill-rule="nonzero"/><path fill="#2f2f2f" d="M 88.265625 206.90625 C 88.265625 205.769531 89.1875 204.851562 90.320312 204.851562 L 130.035156 204.851562 C 131.167969 204.851562 132.085938 205.769531 132.085938 206.90625 L 132.085938 208.113281 L 131.457031 208.113281 L 131.457031 206.90625 C 131.457031 206.117188 130.820312 205.480469 130.035156 205.480469 L 90.320312 205.480469 C 89.535156 205.480469 88.898438 206.117188 88.898438 206.90625 L 88.898438 218.453125 C 88.898438 219.238281 89.535156 219.878906 90.320312 219.878906 L 110.175781 219.878906 L 110.175781 220.507812 L 90.320312 220.507812 C 89.1875 220.507812 88.265625 219.585938 88.265625 218.453125 Z M 88.265625 206.90625 " fill-opacity="1" fill-rule="evenodd"/><path fill="#ffbcad" d="M 115.648438 191.292969 C 116.511719 188.984375 114.207031 187.25 114.207031 186.671875 C 114.207031 186.492188 114.0625 185.59375 113.921875 184.648438 L 107.871094 184.441406 L 107.871094 186.09375 C 107.871094 188.402344 105.28125 189.847656 106.722656 192.160156 C 108.160156 194.472656 111.175781 196.074219 112.191406 195.050781 C 112.480469 194.761719 111.039062 193.316406 111.328125 192.160156 C 111.558594 191.238281 113.632812 190.136719 115.648438 191.292969 Z M 115.648438 191.292969 " fill-opacity="1" fill-rule="nonzero"/><path fill="#2f2f2f" d="M 113.34375 214.992188 C 113.34375 216.585938 112.054688 217.882812 110.464844 217.882812 C 108.875 217.882812 107.585938 216.585938 107.585938 214.992188 C 107.585938 213.394531 108.875 212.101562 110.464844 212.101562 C 112.054688 212.101562 113.34375 213.394531 113.34375 214.992188 Z M 113.34375 214.992188 " fill-opacity="1" fill-rule="nonzero"/><path fill="#2f2f2f" d="M 110.464844 217.300781 C 111.734375 217.300781 112.761719 216.265625 112.761719 214.992188 C 112.761719 213.714844 111.734375 212.679688 110.464844 212.679688 C 109.195312 212.679688 108.164062 213.714844 108.164062 214.992188 C 108.164062 216.265625 109.195312 217.300781 110.464844 217.300781 Z M 110.464844 217.882812 C 112.054688 217.882812 113.34375 216.585938 113.34375 214.992188 C 113.34375 213.394531 112.054688 212.101562 110.464844 212.101562 C 108.875 212.101562 107.585938 213.394531 107.585938 214.992188 C 107.585938 216.585938 108.875 217.882812 110.464844 217.882812 Z M 110.464844 217.882812 " fill-opacity="1" fill-rule="evenodd"/><path fill="#2f2f2f" d="M 131.457031 230.011719 L 131.457031 208.113281 L 132.085938 208.113281 L 132.085938 230.011719 C 132.085938 231.148438 131.167969 232.066406 130.035156 232.066406 L 88.582031 232.066406 L 88.582031 231.4375 L 130.035156 231.4375 C 130.820312 231.4375 131.457031 230.796875 131.457031 230.011719 Z M 131.457031 230.011719 " fill-opacity="1" fill-rule="evenodd"/></svg>