<svg xmlns="http://www.w3.org/2000/svg" viewBox="0 0 120 120" fill="none">
  <defs>
    <linearGradient id="bg" x1="0" y1="0" x2="1" y2="1">
      <stop offset="0%" stop-color="#FFF7ED"/>
      <stop offset="100%" stop-color="#FFEDD5"/>
    </linearGradient>
  </defs>
  <rect width="120" height="120" rx="60" fill="url(#bg)"/>
  <!-- Warning shield -->
  <path d="M60 18 L88 30 L88 58 Q88 80 60 94 Q32 80 32 58 L32 30 Z" fill="#EA580C" opacity="0.1"/>
  <path d="M60 24 L84 35 L84 58 Q84 76 60 88 Q36 76 36 58 L36 35 Z" fill="white" opacity="0.9"/>
  <path d="M60 24 L84 35 L84 58 Q84 76 60 88 Q36 76 36 58 L36 35 Z" stroke="#EA580C" stroke-width="2" fill="none"/>
  <!-- Exclamation -->
  <rect x="57" y="44" width="6" height="22" rx="3" fill="#EA580C"/>
  <circle cx="60" cy="74" r="4" fill="#EA580C"/>
</svg>
