<svg xmlns="http://www.w3.org/2000/svg" xmlns:xlink="http://www.w3.org/1999/xlink" width="590" zoomAndPan="magnify" viewBox="0 0 442.5 295.499996" height="394" preserveAspectRatio="xMidYMid meet" version="1.0"><defs><clipPath id="fca537e74a"><path d="M 45.175781 19.0625 L 306 19.0625 L 306 184 L 45.175781 184 Z M 45.175781 19.0625 " clip-rule="nonzero"/></clipPath><clipPath id="b984cc76db"><path d="M 45.175781 19.0625 L 307 19.0625 L 307 185 L 45.175781 185 Z M 45.175781 19.0625 " clip-rule="nonzero"/></clipPath><clipPath id="11254fe17a"><path d="M 225 122.046875 L 365.765625 122.046875 L 365.765625 265.378906 L 225 265.378906 Z M 225 122.046875 " clip-rule="nonzero"/></clipPath><clipPath id="f3e82553ff"><path d="M 56.660156 245.566406 L 403.722656 245.566406 L 403.722656 265.378906 L 56.660156 265.378906 Z M 56.660156 245.566406 " clip-rule="nonzero"/></clipPath></defs><g clip-path="url(#fca537e74a)"><path fill="#ddecff" d="M 303.878906 183.519531 C 302.582031 183.519531 301.105469 183.285156 300.121094 183.285156 L 45.78125 183.285156 L 45.78125 19.519531 L 305.171875 19.519531 L 305.171875 177.34375 C 305.171875 178.972656 305.003906 180.707031 305.171875 182.328125 C 305.238281 183.007812 305.113281 183.320312 305.117188 183.417969 C 304.746094 183.492188 304.320312 183.519531 303.878906 183.519531 M 179.015625 141.316406 L 179.015625 150.269531 L 293.894531 150.269531 L 293.894531 141.316406 L 179.015625 141.316406 M 108.710938 137.074219 C 108.738281 137.074219 108.765625 137.074219 108.792969 137.074219 C 108.800781 137.074219 108.808594 137.074219 108.820312 137.074219 C 108.824219 137.074219 108.835938 137.074219 108.84375 137.074219 C 108.871094 137.074219 108.898438 137.074219 108.921875 137.074219 C 139.578125 136.714844 164.484375 111.796875 164.84375 81.128906 C 164.84375 81.09375 164.84375 81.058594 164.84375 81.019531 C 164.84375 80.984375 164.84375 80.949219 164.84375 80.914062 C 164.484375 50.246094 139.578125 25.328125 108.929688 24.96875 C 108.902344 24.96875 108.875 24.96875 108.847656 24.96875 C 108.835938 24.96875 108.828125 24.96875 108.820312 24.96875 C 108.808594 24.96875 108.800781 24.96875 108.792969 24.96875 C 108.761719 24.96875 108.734375 24.96875 108.707031 24.96875 C 90.273438 25.199219 73.003906 34.1875 62.542969 49.433594 C 52.796875 63.632812 50.363281 81.757812 55.46875 98.125 C 55.476562 98.15625 55.488281 98.1875 55.496094 98.222656 C 55.507812 98.257812 55.523438 98.292969 55.535156 98.328125 C 63.355469 121.523438 84.210938 136.800781 108.710938 137.074219 M 179.015625 122.304688 L 179.015625 131.257812 L 293.894531 131.257812 L 293.894531 122.304688 L 179.015625 122.304688 M 179.015625 103.292969 L 179.015625 112.246094 L 293.894531 112.246094 L 293.894531 103.292969 L 179.015625 103.292969 M 179.015625 84.28125 L 179.015625 93.230469 L 293.894531 93.230469 L 293.894531 84.28125 L 179.015625 84.28125 M 179.015625 65.265625 L 179.015625 74.21875 L 293.894531 74.21875 L 293.894531 65.265625 L 179.015625 65.265625 M 179.015625 46.253906 L 179.015625 55.207031 L 293.894531 55.207031 L 293.894531 46.253906 L 179.015625 46.253906 " fill-opacity="1" fill-rule="nonzero"/></g><path fill="#ff6450" d="M 60.132812 93.882812 C 56.597656 79.957031 58.867188 65.230469 66.855469 53.113281 C 75.613281 39.828125 90.289062 31.738281 105.996094 30.71875 L 105.996094 57.515625 C 94.261719 58.910156 85.15625 68.902344 85.15625 81.019531 C 85.15625 82.589844 85.3125 84.121094 85.601562 85.601562 L 60.132812 93.882812 " fill-opacity="1" fill-rule="nonzero"/><path fill="#ddecff" d="M 55.535156 98.328125 C 55.523438 98.292969 55.507812 98.257812 55.496094 98.222656 C 55.507812 98.253906 55.523438 98.292969 55.535156 98.328125 M 55.46875 98.125 C 50.363281 81.757812 52.796875 63.632812 62.542969 49.433594 C 73.003906 34.1875 90.273438 25.199219 108.707031 24.96875 C 107.230469 25.019531 105.996094 26.3125 105.996094 27.792969 L 105.996094 57.515625 L 105.996094 30.71875 C 90.289062 31.738281 75.613281 39.828125 66.855469 53.113281 C 58.867188 65.230469 56.597656 79.957031 60.132812 93.882812 L 85.601562 85.601562 L 57.46875 94.746094 C 56.109375 95.191406 55.039062 96.65625 55.46875 98.125 M 108.929688 24.96875 C 108.890625 24.96875 108.855469 24.96875 108.820312 24.96875 C 108.828125 24.96875 108.835938 24.96875 108.847656 24.96875 C 108.875 24.96875 108.902344 24.96875 108.929688 24.96875 " fill-opacity="1" fill-rule="nonzero"/><path fill="#874a51" d="M 105.996094 131.328125 C 86.113281 130.089844 69.152344 117.835938 61.859375 99.25 L 87.34375 90.96875 C 90.722656 98.257812 97.699219 103.539062 105.996094 104.527344 L 105.996094 131.328125 " fill-opacity="1" fill-rule="nonzero"/><path fill="#ddecff" d="M 108.84375 137.074219 C 108.835938 137.074219 108.824219 137.074219 108.820312 137.074219 C 108.851562 137.074219 108.886719 137.074219 108.921875 137.074219 C 108.898438 137.074219 108.871094 137.074219 108.84375 137.074219 M 108.710938 137.074219 C 84.210938 136.800781 63.355469 121.523438 55.535156 98.328125 C 55.523438 98.292969 55.507812 98.253906 55.496094 98.222656 C 55.488281 98.1875 55.476562 98.15625 55.46875 98.125 C 55.039062 96.65625 56.109375 95.191406 57.46875 94.746094 L 85.601562 85.601562 C 85.96875 87.480469 86.558594 89.277344 87.34375 90.96875 L 61.859375 99.25 C 69.152344 117.835938 86.113281 130.089844 105.996094 131.328125 L 105.996094 104.527344 L 105.996094 134.25 C 105.996094 135.730469 107.230469 137.027344 108.710938 137.074219 " fill-opacity="1" fill-rule="nonzero"/><path fill="#95cbf0" d="M 111.640625 131.324219 L 111.640625 104.527344 C 122.453125 103.242188 131.027344 94.660156 132.3125 83.84375 L 159.097656 83.84375 C 157.449219 109.277344 137.0625 129.675781 111.640625 131.324219 " fill-opacity="1" fill-rule="nonzero"/><path fill="#ddecff" d="M 108.792969 137.074219 C 108.765625 137.074219 108.738281 137.074219 108.710938 137.074219 C 107.230469 137.027344 105.996094 135.730469 105.996094 134.25 L 105.996094 104.527344 C 106.921875 104.636719 107.863281 104.691406 108.820312 104.691406 C 109.773438 104.691406 110.714844 104.636719 111.640625 104.527344 L 111.640625 131.324219 C 137.0625 129.675781 157.449219 109.277344 159.097656 83.84375 L 162.023438 83.84375 C 163.5 83.84375 164.796875 82.609375 164.84375 81.128906 C 164.484375 111.796875 139.578125 136.714844 108.921875 137.074219 C 108.886719 137.074219 108.851562 137.074219 108.820312 137.074219 C 108.808594 137.074219 108.800781 137.074219 108.792969 137.074219 M 164.84375 81.019531 C 164.84375 80.984375 164.84375 80.949219 164.84375 80.914062 C 164.84375 80.949219 164.84375 80.984375 164.84375 81.019531 " fill-opacity="1" fill-rule="nonzero"/><path fill="#ffc074" d="M 159.097656 78.199219 L 132.3125 78.199219 C 131.027344 67.382812 122.453125 58.800781 111.640625 57.515625 L 111.640625 30.71875 C 137.0625 32.367188 157.449219 52.765625 159.097656 78.199219 " fill-opacity="1" fill-rule="nonzero"/><path fill="#ddecff" d="M 162.023438 83.84375 L 132.3125 83.84375 C 132.421875 82.917969 132.476562 81.976562 132.476562 81.019531 C 132.476562 80.066406 132.421875 79.125 132.3125 78.199219 L 159.097656 78.199219 C 157.449219 52.765625 137.0625 32.367188 111.640625 30.71875 L 111.640625 57.515625 C 110.714844 57.40625 109.773438 57.351562 108.820312 57.351562 C 107.863281 57.351562 106.921875 57.40625 105.996094 57.515625 L 105.996094 27.792969 C 105.996094 26.3125 107.230469 25.019531 108.707031 24.96875 C 108.734375 24.96875 108.761719 24.96875 108.792969 24.96875 C 108.800781 24.96875 108.808594 24.96875 108.820312 24.96875 C 108.855469 24.96875 108.890625 24.96875 108.929688 24.96875 C 139.578125 25.328125 164.484375 50.246094 164.84375 80.914062 C 164.84375 80.949219 164.84375 80.984375 164.84375 81.019531 C 164.84375 81.058594 164.84375 81.09375 164.84375 81.128906 C 164.796875 82.609375 163.5 83.84375 162.023438 83.84375 " fill-opacity="1" fill-rule="nonzero"/><path fill="#ddecff" d="M 108.820312 104.691406 C 107.863281 104.691406 106.921875 104.636719 105.996094 104.527344 C 97.699219 103.539062 90.722656 98.257812 87.34375 90.96875 C 86.558594 89.277344 85.96875 87.480469 85.601562 85.601562 C 85.3125 84.121094 85.15625 82.589844 85.15625 81.019531 C 85.15625 68.902344 94.261719 58.910156 105.996094 57.515625 C 106.921875 57.40625 107.863281 57.351562 108.820312 57.351562 C 109.773438 57.351562 110.714844 57.40625 111.640625 57.515625 C 122.453125 58.800781 131.027344 67.382812 132.3125 78.199219 C 132.421875 79.125 132.476562 80.066406 132.476562 81.019531 C 132.476562 81.976562 132.421875 82.917969 132.3125 83.84375 C 131.027344 94.660156 122.453125 103.242188 111.640625 104.527344 C 110.714844 104.636719 109.773438 104.691406 108.820312 104.691406 M 117.742188 78.699219 C 115.765625 78.699219 114.148438 79.46875 112.898438 81.003906 C 111.652344 82.539062 111.027344 84.726562 111.027344 87.570312 C 111.027344 90.410156 111.652344 92.617188 112.898438 94.179688 C 114.148438 95.742188 115.765625 96.527344 117.742188 96.527344 C 119.722656 96.527344 121.335938 95.742188 122.585938 94.179688 C 123.832031 92.617188 124.457031 90.410156 124.457031 87.570312 C 124.457031 84.726562 123.832031 82.539062 122.585938 81.003906 C 121.335938 79.46875 119.722656 78.699219 117.742188 78.699219 M 113.785156 67.332031 L 98.417969 96.527344 L 101.472656 96.527344 L 116.796875 67.332031 L 113.785156 67.332031 M 97.558594 67.332031 C 95.578125 67.332031 93.964844 68.101562 92.714844 69.636719 C 91.46875 71.171875 90.84375 73.359375 90.84375 76.203125 C 90.84375 79.042969 91.46875 81.246094 92.714844 82.8125 C 93.964844 84.378906 95.578125 85.160156 97.558594 85.160156 C 99.539062 85.160156 101.152344 84.378906 102.398438 82.8125 C 103.648438 81.246094 104.269531 79.042969 104.269531 76.203125 C 104.269531 73.359375 103.648438 71.171875 102.398438 69.636719 C 101.152344 68.101562 99.539062 67.332031 97.558594 67.332031 M 117.742188 93.640625 C 116.824219 93.640625 116.070312 93.160156 115.484375 92.199219 C 114.894531 91.238281 114.601562 89.695312 114.601562 87.570312 C 114.601562 85.445312 114.894531 83.917969 115.484375 82.984375 C 116.070312 82.050781 116.824219 81.585938 117.742188 81.585938 C 118.660156 81.585938 119.414062 82.050781 120.003906 82.984375 C 120.589844 83.917969 120.882812 85.445312 120.882812 87.570312 C 120.882812 89.695312 120.589844 91.238281 120.003906 92.199219 C 119.414062 93.160156 118.660156 93.640625 117.742188 93.640625 M 97.558594 82.273438 C 96.640625 82.273438 95.886719 81.792969 95.296875 80.832031 C 94.710938 79.871094 94.414062 78.328125 94.414062 76.203125 C 94.414062 74.078125 94.710938 72.550781 95.296875 71.617188 C 95.886719 70.683594 96.640625 70.214844 97.558594 70.214844 C 98.476562 70.214844 99.226562 70.683594 99.816406 71.617188 C 100.40625 72.550781 100.699219 74.078125 100.699219 76.203125 C 100.699219 78.328125 100.40625 79.871094 99.816406 80.832031 C 99.226562 81.792969 98.476562 82.273438 97.558594 82.273438 " fill-opacity="1" fill-rule="nonzero"/><path fill="#739ad4" d="M 117.742188 96.527344 C 115.765625 96.527344 114.148438 95.742188 112.898438 94.179688 C 111.652344 92.617188 111.027344 90.410156 111.027344 87.570312 C 111.027344 84.726562 111.652344 82.539062 112.898438 81.003906 C 114.148438 79.46875 115.765625 78.699219 117.742188 78.699219 C 119.722656 78.699219 121.335938 79.46875 122.585938 81.003906 C 123.832031 82.539062 124.457031 84.726562 124.457031 87.570312 C 124.457031 90.410156 123.832031 92.617188 122.585938 94.179688 C 121.335938 95.742188 119.722656 96.527344 117.742188 96.527344 M 117.742188 81.585938 C 116.824219 81.585938 116.070312 82.050781 115.484375 82.984375 C 114.894531 83.917969 114.601562 85.445312 114.601562 87.570312 C 114.601562 89.695312 114.894531 91.238281 115.484375 92.199219 C 116.070312 93.160156 116.824219 93.640625 117.742188 93.640625 C 118.660156 93.640625 119.414062 93.160156 120.003906 92.199219 C 120.589844 91.238281 120.882812 89.695312 120.882812 87.570312 C 120.882812 85.445312 120.589844 83.917969 120.003906 82.984375 C 119.414062 82.050781 118.660156 81.585938 117.742188 81.585938 M 101.472656 96.527344 L 98.417969 96.527344 L 113.785156 67.332031 L 116.796875 67.332031 L 101.472656 96.527344 M 97.558594 85.160156 C 95.578125 85.160156 93.964844 84.378906 92.714844 82.8125 C 91.46875 81.246094 90.84375 79.042969 90.84375 76.203125 C 90.84375 73.359375 91.46875 71.171875 92.714844 69.636719 C 93.964844 68.101562 95.578125 67.332031 97.558594 67.332031 C 99.539062 67.332031 101.152344 68.101562 102.398438 69.636719 C 103.648438 71.171875 104.269531 73.359375 104.269531 76.203125 C 104.269531 79.042969 103.648438 81.246094 102.398438 82.8125 C 101.152344 84.378906 99.539062 85.160156 97.558594 85.160156 M 97.558594 70.214844 C 96.640625 70.214844 95.886719 70.683594 95.296875 71.617188 C 94.710938 72.550781 94.414062 74.078125 94.414062 76.203125 C 94.414062 78.328125 94.710938 79.871094 95.296875 80.832031 C 95.886719 81.792969 96.640625 82.273438 97.558594 82.273438 C 98.476562 82.273438 99.226562 81.792969 99.816406 80.832031 C 100.40625 79.871094 100.699219 78.328125 100.699219 76.203125 C 100.699219 74.078125 100.40625 72.550781 99.816406 71.617188 C 99.226562 70.683594 98.476562 70.214844 97.558594 70.214844 " fill-opacity="1" fill-rule="nonzero"/><path fill="#95cbf0" d="M 179.015625 55.207031 L 293.894531 55.207031 L 293.894531 46.253906 L 179.015625 46.253906 Z M 179.015625 55.207031 " fill-opacity="1" fill-rule="nonzero"/><path fill="#95cbf0" d="M 179.015625 74.21875 L 293.894531 74.21875 L 293.894531 65.265625 L 179.015625 65.265625 Z M 179.015625 74.21875 " fill-opacity="1" fill-rule="nonzero"/><path fill="#95cbf0" d="M 179.015625 93.230469 L 293.894531 93.230469 L 293.894531 84.28125 L 179.015625 84.28125 Z M 179.015625 93.230469 " fill-opacity="1" fill-rule="nonzero"/><path fill="#95cbf0" d="M 179.015625 112.246094 L 293.894531 112.246094 L 293.894531 103.292969 L 179.015625 103.292969 Z M 179.015625 112.246094 " fill-opacity="1" fill-rule="nonzero"/><path fill="#95cbf0" d="M 179.015625 131.257812 L 293.894531 131.257812 L 293.894531 122.304688 L 179.015625 122.304688 Z M 179.015625 131.257812 " fill-opacity="1" fill-rule="nonzero"/><path fill="#95cbf0" d="M 179.015625 150.269531 L 293.894531 150.269531 L 293.894531 141.316406 L 179.015625 141.316406 Z M 179.015625 150.269531 " fill-opacity="1" fill-rule="nonzero"/><g clip-path="url(#b984cc76db)"><path fill="#5c9ed4" d="M 304.078125 184.367188 C 303.253906 184.367188 302.324219 184.226562 301.664062 184.226562 L 45.78125 184.226562 C 45.175781 184.226562 45.175781 183.285156 45.78125 183.285156 L 300.121094 183.285156 C 301.105469 183.285156 302.582031 183.519531 303.878906 183.519531 C 304.320312 183.519531 304.746094 183.492188 305.117188 183.417969 C 305.113281 183.320312 305.238281 183.007812 305.171875 182.328125 C 305.003906 180.707031 305.171875 178.972656 305.171875 177.34375 L 305.171875 19.519531 C 305.171875 19.214844 305.40625 19.066406 305.640625 19.066406 C 305.875 19.066406 306.109375 19.21875 306.109375 19.519531 L 306.109375 183.757812 C 306.109375 184.011719 305.894531 184.226562 305.640625 184.226562 C 305.554688 184.226562 305.4375 184.210938 305.335938 184.210938 C 305.28125 184.210938 305.234375 184.214844 305.195312 184.226562 C 304.878906 184.332031 304.492188 184.367188 304.078125 184.367188 " fill-opacity="1" fill-rule="nonzero"/></g><path fill="#f2b1a5" d="M 246.867188 128.324219 C 260.015625 141.316406 289.183594 181.714844 289.183594 181.714844 C 284.78125 202.304688 261.921875 214.015625 261.921875 214.015625 C 245.320312 173.445312 238.132812 141.046875 238.132812 141.046875 L 246.867188 128.324219 " fill-opacity="1" fill-rule="nonzero"/><g clip-path="url(#11254fe17a)"><path fill="#ff4931" d="M 358.269531 151.898438 C 358.269531 151.898438 349.824219 128.1875 332.445312 122.15625 L 306.816406 122.15625 L 296.023438 125.429688 C 279.246094 130.128906 272.535156 145.945312 272.535156 145.945312 C 261.390625 169.917969 256.390625 180.621094 252.183594 204.933594 C 252.183594 204.933594 221.910156 250.960938 225.292969 255.515625 C 225.292969 255.515625 276.867188 258.808594 303.109375 263.5 C 303.109375 263.5 359.550781 273.355469 365.652344 245.898438 C 365.652344 245.898438 366.398438 172.679688 358.269531 151.898438 " fill-opacity="1" fill-rule="nonzero"/></g><path fill="#f2b1a5" d="M 288.25 84.78125 C 288.25 84.78125 286.582031 80.730469 289.75 67.335938 C 289.75 67.335938 295.683594 48.46875 313.765625 49.113281 C 314.417969 49.132812 315.25 49.300781 315.882812 49.53125 C 332.839844 55.691406 329.988281 73.800781 329.988281 73.800781 C 329.097656 79.734375 327.238281 84.433594 325.429688 87.84375 C 323.089844 92.261719 317.539062 96.0625 317.539062 96.0625 C 310.933594 100.582031 297.269531 101.15625 293.792969 100.042969 C 291.054688 99.167969 289.71875 93.332031 288.25 84.78125 " fill-opacity="1" fill-rule="nonzero"/><path fill="#f2b1a5" d="M 300.226562 89.164062 C 300.699219 111.503906 296.023438 118.5625 296.023438 118.5625 C 284.964844 130.027344 330.167969 118.722656 330.167969 118.722656 C 323.953125 106.863281 325.496094 91.96875 325.496094 91.96875 C 315.195312 91.382812 300.226562 89.164062 300.226562 89.164062 " fill-opacity="1" fill-rule="nonzero"/><path fill="#722a33" d="M 300.90625 100.640625 C 307.140625 100.722656 316.320312 99.011719 320.769531 94.09375 C 321.171875 93.644531 320.511719 92.976562 320.101562 93.425781 C 315.839844 98.144531 306.839844 99.777344 300.90625 99.699219 C 300.300781 99.691406 300.300781 100.632812 300.90625 100.640625 " fill-opacity="1" fill-rule="nonzero"/><path fill="#f2b1a5" d="M 289.75 67.335938 C 288.355469 79.160156 283.496094 80.773438 283.496094 80.773438 C 281.71875 84.957031 291.046875 87.101562 291.046875 87.101562 C 290.519531 82.039062 289.75 67.335938 289.75 67.335938 " fill-opacity="1" fill-rule="nonzero"/><path fill="#722a33" d="M 292.121094 77.273438 C 293.164062 77.664062 294.332031 77.132812 294.722656 76.089844 L 295.148438 74.953125 C 295.539062 73.914062 295.007812 72.742188 293.964844 72.351562 C 292.925781 71.960938 291.753906 72.496094 291.367188 73.535156 L 290.941406 74.671875 C 290.550781 75.714844 291.082031 76.882812 292.121094 77.273438 " fill-opacity="1" fill-rule="nonzero"/><path fill="#722a33" d="M 291.046875 70.078125 C 293.585938 70.308594 297.558594 71.46875 299.03125 73.761719 C 300.378906 75.867188 303.75 73.914062 302.394531 71.796875 C 300.089844 68.207031 295.085938 66.554688 291.046875 66.183594 C 288.554688 65.957031 288.570312 69.851562 291.046875 70.078125 " fill-opacity="1" fill-rule="nonzero"/><path fill="#722a33" d="M 334.886719 53.132812 C 334.214844 52.089844 333.542969 48.996094 330.886719 47.90625 C 314.175781 41.046875 300.539062 43.570312 293.042969 49.09375 C 287.328125 53.308594 286.339844 57.953125 291.046875 66.183594 C 291.925781 67.722656 298.011719 71.371094 301.828125 73.871094 C 303.035156 76.359375 303.253906 82.355469 303.984375 85.898438 C 305.828125 94.792969 323.082031 103.714844 324.941406 101.707031 C 330.832031 95.347656 334.855469 89.539062 339.0625 84.113281 C 346.804688 70.457031 346.285156 60.871094 334.886719 53.132812 " fill-opacity="1" fill-rule="nonzero"/><path fill="#f2b1a5" d="M 304.476562 76.875 C 308.097656 70.714844 311.050781 74.855469 311.050781 74.855469 C 312.941406 80.203125 305.828125 84.699219 305.828125 84.699219 C 303.183594 86 304.476562 76.875 304.476562 76.875 " fill-opacity="1" fill-rule="nonzero"/><path fill="#ff4931" d="M 334.671875 123.09375 C 334.671875 122.085938 331.902344 113.367188 331.902344 113.367188 C 317.625 121.15625 292.246094 116.894531 292.246094 116.894531 C 291.371094 122.15625 291.046875 127.214844 291.046875 127.214844 C 316.375 130.855469 334.671875 123.09375 334.671875 123.09375 " fill-opacity="1" fill-rule="nonzero"/><g clip-path="url(#f3e82553ff)"><path fill="#ffb55c" d="M 396.464844 265.378906 L 64.15625 265.378906 C 60.164062 265.378906 56.902344 262.113281 56.902344 258.121094 L 56.902344 252.914062 C 56.902344 248.921875 60.164062 245.65625 64.15625 245.65625 L 396.464844 245.65625 C 400.457031 245.65625 403.722656 248.921875 403.722656 252.914062 L 403.722656 258.121094 C 403.722656 262.113281 400.457031 265.378906 396.464844 265.378906 " fill-opacity="1" fill-rule="nonzero"/></g><path fill="#722a33" d="M 302.707031 72.875 C 302.726562 73.125 302.742188 73.375 302.753906 73.625 C 303.222656 82.394531 300.089844 88.53125 300.089844 88.53125 C 302.074219 89.429688 306.007812 87.101562 306.007812 87.101562 C 304.683594 80.773438 306.722656 72.222656 306.722656 72.222656 L 302.707031 72.875 " fill-opacity="1" fill-rule="nonzero"/><path fill="#f2b1a5" d="M 267.195312 230.714844 C 279.160156 228.183594 295.277344 215.007812 295.277344 215.007812 L 316.15625 185.96875 C 324.242188 174.535156 300.089844 153.246094 300.089844 153.246094 C 291.28125 150.605469 248.664062 210.925781 248.664062 210.925781 C 239.683594 216.550781 267.195312 230.714844 267.195312 230.714844 " fill-opacity="1" fill-rule="nonzero"/><path fill="#ff6c61" d="M 304.160156 135.207031 C 282.339844 134.511719 256.972656 185.359375 256.972656 185.359375 C 269.039062 204.558594 295.945312 221.554688 295.945312 221.554688 C 335.890625 170.8125 327.398438 149.894531 327.398438 149.894531 C 326.296875 135.199219 304.160156 135.207031 304.160156 135.207031 " fill-opacity="1" fill-rule="nonzero"/><path fill="#f2b1a5" d="M 267.195312 230.714844 C 245.152344 243.828125 200.140625 170.675781 200.140625 170.675781 L 217.679688 158.878906 C 243.960938 181.75 267.195312 204.671875 267.195312 204.671875 L 267.195312 230.714844 " fill-opacity="1" fill-rule="nonzero"/><path fill="#f2b1a5" d="M 206.058594 180.308594 C 184.910156 168.273438 183.820312 154.023438 183.820312 154.023438 C 184.21875 138.203125 175.726562 128.1875 175.726562 128.1875 C 174.96875 122.683594 206.058594 169.632812 206.058594 169.632812 L 206.058594 180.308594 " fill-opacity="1" fill-rule="nonzero"/><path fill="#722a33" d="M 176.304688 81.195312 C 176.570312 81.519531 176.710938 81.808594 176.78125 82.074219 C 176.851562 82.339844 176.84375 82.582031 176.808594 82.820312 C 176.769531 83.058594 176.699219 83.292969 176.644531 83.535156 C 176.589844 83.773438 176.546875 84.027344 176.5625 84.304688 C 176.585938 84.699219 176.6875 85.101562 176.847656 85.511719 C 177.007812 85.917969 177.230469 86.332031 177.492188 86.746094 C 177.753906 87.15625 178.058594 87.566406 178.382812 87.972656 C 178.707031 88.375 179.054688 88.773438 179.40625 89.15625 C 179.519531 89.28125 180.644531 90.476562 180.753906 90.589844 C 180.859375 90.703125 180.933594 90.8125 180.972656 90.917969 C 181.015625 91.019531 181.023438 91.117188 181.011719 91.199219 C 180.996094 91.285156 180.957031 91.359375 180.902344 91.417969 C 180.84375 91.472656 180.769531 91.515625 180.683594 91.539062 C 180.625 91.554688 180.5625 91.558594 180.496094 91.554688 C 180.429688 91.550781 180.359375 91.539062 180.289062 91.511719 C 180.214844 91.488281 180.140625 91.449219 180.070312 91.402344 C 179.996094 91.355469 179.921875 91.292969 179.851562 91.21875 C 179.71875 91.074219 178.347656 89.601562 178.214844 89.449219 C 177.863281 89.054688 177.527344 88.652344 177.207031 88.242188 C 176.886719 87.835938 176.589844 87.421875 176.328125 87.003906 C 176.0625 86.589844 175.832031 86.167969 175.640625 85.746094 C 175.453125 85.324219 175.3125 84.898438 175.226562 84.476562 C 175.167969 84.207031 175.195312 83.902344 175.230469 83.585938 C 175.269531 83.269531 175.316406 82.9375 175.300781 82.613281 C 175.289062 82.285156 175.222656 81.964844 175.023438 81.671875 C 174.828125 81.375 174.503906 81.101562 173.980469 80.871094 C 173.835938 80.808594 173.691406 80.757812 173.542969 80.71875 C 173.398438 80.679688 173.246094 80.648438 173.097656 80.628906 C 172.949219 80.609375 172.796875 80.597656 172.644531 80.59375 C 172.492188 80.589844 172.332031 80.601562 172.179688 80.613281 C 172.277344 80.546875 172.328125 80.441406 172.324219 80.328125 C 172.320312 80.214844 172.269531 80.082031 172.191406 79.957031 C 172.113281 79.832031 172.003906 79.710938 171.875 79.613281 C 171.746094 79.515625 171.597656 79.4375 171.445312 79.40625 C 171.863281 79.378906 172.296875 79.375 172.730469 79.410156 C 173.164062 79.445312 173.597656 79.523438 174.015625 79.652344 C 174.4375 79.785156 174.847656 79.964844 175.230469 80.21875 C 175.617188 80.472656 175.980469 80.792969 176.304688 81.195312 " fill-opacity="1" fill-rule="nonzero"/><path fill="#722a33" d="M 168.863281 79.863281 C 168.941406 79.84375 170.023438 79.601562 170.023438 79.601562 C 169.921875 79.621094 169.773438 79.652344 169.660156 79.679688 C 169.550781 79.703125 169.453125 79.730469 169.339844 79.757812 C 169.226562 79.789062 169.113281 79.820312 169.003906 79.855469 C 168.890625 79.890625 168.78125 79.925781 168.667969 79.964844 L 168.804688 79.882812 L 168.863281 79.863281 " fill-opacity="1" fill-rule="nonzero"/><path fill="#722a33" d="M 169.484375 81.167969 C 169.550781 81.144531 169.597656 81.121094 169.664062 81.097656 C 169.734375 81.078125 169.808594 81.054688 169.878906 81.035156 C 169.949219 81.019531 170.023438 81 170.097656 80.980469 C 170.171875 80.964844 170.246094 80.949219 170.320312 80.933594 L 170.808594 80.84375 C 170.703125 80.871094 169.597656 81.167969 169.597656 81.167969 L 169.484375 81.167969 " fill-opacity="1" fill-rule="nonzero"/><path fill="#722a33" d="M 170.09375 79.585938 C 170.1875 79.566406 170.582031 79.496094 170.671875 79.480469 C 170.761719 79.464844 171.226562 79.394531 171.226562 79.394531 L 171.292969 79.390625 L 171.378906 79.398438 L 171.445312 79.40625 C 171.597656 79.4375 171.742188 79.515625 171.875 79.613281 C 172.003906 79.710938 172.113281 79.832031 172.191406 79.957031 C 172.269531 80.085938 172.320312 80.214844 172.324219 80.328125 C 172.328125 80.441406 172.277344 80.546875 172.179688 80.613281 L 172.121094 80.640625 L 172.042969 80.664062 C 171.960938 80.679688 170.6875 80.867188 170.6875 80.867188 L 170.320312 80.933594 C 170.246094 80.949219 170.171875 80.964844 170.097656 80.980469 C 170.023438 81 169.949219 81.019531 169.878906 81.035156 C 169.808594 81.054688 169.734375 81.078125 169.664062 81.097656 C 169.597656 81.121094 169.550781 81.144531 169.484375 81.167969 C 169.351562 81.214844 169.203125 81.265625 169.089844 81.324219 C 168.972656 81.382812 168.867188 81.449219 168.769531 81.519531 C 168.671875 81.59375 168.589844 81.671875 168.515625 81.757812 C 168.445312 81.84375 168.390625 81.9375 168.347656 82.039062 C 168.203125 82.40625 168.261719 82.734375 168.449219 83.039062 C 168.640625 83.339844 168.957031 83.617188 169.324219 83.875 C 169.691406 84.132812 170.109375 84.375 170.503906 84.609375 C 170.898438 84.84375 171.265625 85.066406 171.535156 85.296875 C 171.949219 85.652344 172.324219 86.03125 172.660156 86.425781 C 172.996094 86.816406 173.296875 87.226562 173.570312 87.648438 C 173.839844 88.070312 174.082031 88.5 174.304688 88.9375 C 174.523438 89.375 174.726562 89.816406 174.90625 90.253906 C 174.980469 90.425781 175.246094 91.105469 175.3125 91.273438 C 175.375 91.441406 175.621094 92.109375 175.679688 92.273438 C 175.710938 92.359375 175.722656 92.4375 175.726562 92.503906 C 175.726562 92.574219 175.710938 92.632812 175.6875 92.683594 C 175.660156 92.734375 175.625 92.777344 175.578125 92.808594 C 175.535156 92.839844 175.480469 92.867188 175.417969 92.882812 C 175.328125 92.902344 175.226562 92.90625 175.117188 92.890625 C 175.007812 92.875 174.894531 92.835938 174.785156 92.78125 C 174.679688 92.722656 174.578125 92.648438 174.488281 92.554688 C 174.402344 92.460938 174.328125 92.347656 174.28125 92.214844 C 174.238281 92.082031 173.726562 90.699219 173.671875 90.558594 C 173.484375 90.078125 173.273438 89.59375 173.035156 89.117188 C 172.800781 88.636719 172.53125 88.167969 172.222656 87.71875 C 171.914062 87.273438 171.566406 86.847656 171.164062 86.460938 C 170.765625 86.074219 170.308594 85.71875 169.792969 85.421875 C 169.507812 85.253906 169.214844 85.109375 168.929688 84.964844 C 168.648438 84.820312 168.371094 84.679688 168.109375 84.519531 C 167.847656 84.359375 167.605469 84.183594 167.390625 83.964844 C 167.175781 83.75 166.988281 83.5 166.839844 83.191406 C 166.628906 82.746094 166.546875 82.351562 166.5625 82.007812 C 166.582031 81.660156 166.699219 81.359375 166.886719 81.101562 C 167.078125 80.839844 167.339844 80.621094 167.644531 80.433594 C 167.953125 80.246094 168.300781 80.089844 168.667969 79.964844 C 168.78125 79.925781 168.890625 79.890625 169.003906 79.855469 C 169.113281 79.820312 169.226562 79.789062 169.339844 79.757812 C 169.453125 79.730469 169.550781 79.703125 169.660156 79.679688 C 169.773438 79.652344 169.914062 79.621094 170.023438 79.601562 L 170.09375 79.585938 " fill-opacity="1" fill-rule="nonzero"/><path fill="#722a33" d="M 182.453125 88.410156 C 182.554688 88.386719 182.664062 88.386719 182.78125 88.410156 C 182.894531 88.433594 183.011719 88.476562 183.125 88.539062 C 183.238281 88.597656 183.347656 88.679688 183.445312 88.769531 C 183.539062 88.863281 183.625 88.96875 183.691406 89.082031 L 187.019531 94.941406 L 174.523438 98.378906 L 170.394531 92.355469 C 170.316406 92.238281 170.261719 92.121094 170.234375 92.007812 C 170.207031 91.898438 170.203125 91.789062 170.222656 91.695312 C 170.242188 91.597656 170.285156 91.515625 170.351562 91.449219 C 170.417969 91.382812 170.507812 91.332031 170.617188 91.304688 L 173.671875 90.558594 C 173.726562 90.699219 174.238281 92.082031 174.28125 92.214844 C 174.328125 92.347656 174.402344 92.460938 174.488281 92.554688 C 174.578125 92.648438 174.679688 92.722656 174.785156 92.78125 C 174.894531 92.835938 175.007812 92.875 175.117188 92.890625 C 175.226562 92.90625 175.328125 92.902344 175.417969 92.882812 C 175.480469 92.867188 175.535156 92.839844 175.578125 92.808594 C 175.625 92.777344 175.660156 92.734375 175.6875 92.683594 C 175.710938 92.632812 175.726562 92.574219 175.726562 92.503906 C 175.722656 92.4375 175.710938 92.359375 175.679688 92.273438 C 175.621094 92.109375 175.183594 90.9375 175.113281 90.765625 C 175.046875 90.597656 174.980469 90.425781 174.90625 90.253906 L 178.214844 89.449219 C 178.347656 89.601562 179.71875 91.074219 179.851562 91.21875 C 179.921875 91.292969 179.996094 91.355469 180.070312 91.402344 C 180.140625 91.449219 180.214844 91.488281 180.289062 91.511719 C 180.359375 91.539062 180.429688 91.550781 180.496094 91.554688 C 180.5625 91.558594 180.625 91.554688 180.683594 91.539062 C 180.769531 91.515625 180.84375 91.472656 180.902344 91.417969 C 180.957031 91.359375 180.996094 91.285156 181.011719 91.199219 C 181.023438 91.117188 181.015625 91.019531 180.972656 90.917969 C 180.933594 90.8125 180.859375 90.703125 180.753906 90.589844 C 180.644531 90.476562 179.519531 89.28125 179.40625 89.15625 L 182.453125 88.410156 " fill-opacity="1" fill-rule="nonzero"/><path fill="#722a33" d="M 187.28125 94.871094 C 187.363281 94.847656 187.457031 94.84375 187.550781 94.859375 C 187.644531 94.875 187.746094 94.90625 187.839844 94.957031 C 187.933594 95.003906 188.027344 95.066406 188.109375 95.140625 C 188.195312 95.214844 188.269531 95.300781 188.332031 95.394531 L 188.59375 95.800781 C 188.65625 95.898438 188.699219 95.992188 188.722656 96.082031 C 188.746094 96.171875 188.75 96.261719 188.734375 96.335938 C 188.722656 96.414062 188.6875 96.484375 188.640625 96.539062 C 188.589844 96.59375 188.523438 96.636719 188.441406 96.660156 L 175.394531 100.363281 C 175.300781 100.386719 175.199219 100.394531 175.097656 100.378906 C 174.996094 100.363281 174.886719 100.332031 174.785156 100.28125 C 174.683594 100.230469 174.585938 100.167969 174.496094 100.089844 C 174.40625 100.011719 174.328125 99.921875 174.265625 99.820312 L 173.988281 99.386719 C 173.925781 99.285156 173.886719 99.183594 173.863281 99.085938 C 173.84375 98.992188 173.839844 98.898438 173.859375 98.816406 C 173.878906 98.730469 173.917969 98.65625 173.972656 98.597656 C 174.03125 98.539062 174.105469 98.496094 174.199219 98.46875 L 187.28125 94.871094 " fill-opacity="1" fill-rule="nonzero"/><path fill="#ffffff" d="M 196.652344 91.078125 L 237.894531 153.652344 L 206.578125 173.78125 L 161.320312 100.621094 L 173.757812 97.261719 L 174.523438 98.378906 L 174.199219 98.46875 C 174.105469 98.496094 174.03125 98.539062 173.972656 98.597656 C 173.917969 98.65625 173.878906 98.730469 173.859375 98.816406 C 173.839844 98.898438 173.84375 98.992188 173.863281 99.085938 C 173.886719 99.183594 173.925781 99.285156 173.988281 99.386719 L 174.265625 99.820312 C 174.328125 99.921875 174.40625 100.011719 174.496094 100.089844 C 174.585938 100.167969 174.683594 100.230469 174.785156 100.28125 C 174.886719 100.332031 174.996094 100.363281 175.097656 100.378906 C 175.199219 100.394531 175.300781 100.386719 175.394531 100.363281 L 188.441406 96.660156 C 188.523438 96.636719 188.589844 96.59375 188.640625 96.539062 C 188.6875 96.484375 188.722656 96.414062 188.734375 96.335938 C 188.75 96.261719 188.746094 96.171875 188.722656 96.082031 C 188.699219 95.992188 188.65625 95.898438 188.59375 95.800781 L 188.332031 95.394531 C 188.269531 95.300781 188.195312 95.214844 188.109375 95.140625 C 188.027344 95.066406 187.933594 95.003906 187.839844 94.957031 C 187.746094 94.90625 187.644531 94.875 187.550781 94.859375 C 187.457031 94.84375 187.363281 94.847656 187.28125 94.871094 L 187.019531 94.941406 L 186.398438 93.847656 L 196.652344 91.078125 " fill-opacity="1" fill-rule="nonzero"/><path fill="#722a33" d="M 196.609375 88.699219 C 196.804688 88.648438 197.015625 88.648438 197.238281 88.691406 C 197.460938 88.730469 197.691406 88.8125 197.914062 88.929688 C 198.140625 89.042969 198.359375 89.195312 198.558594 89.375 C 198.761719 89.554688 198.945312 89.761719 199.097656 89.988281 L 242.671875 155.789062 C 242.84375 156.046875 242.972656 156.316406 243.0625 156.582031 C 243.148438 156.847656 243.195312 157.109375 243.199219 157.351562 C 243.203125 157.59375 243.167969 157.820312 243.085938 158.015625 C 243.003906 158.207031 242.878906 158.371094 242.714844 158.484375 L 209.136719 181.441406 C 208.90625 181.601562 208.648438 181.6875 208.378906 181.710938 C 208.105469 181.730469 207.820312 181.6875 207.542969 181.585938 C 207.265625 181.480469 206.988281 181.320312 206.738281 181.105469 C 206.484375 180.890625 206.25 180.625 206.058594 180.308594 L 157.433594 101.164062 C 157.265625 100.894531 157.160156 100.621094 157.109375 100.359375 C 157.0625 100.101562 157.074219 99.851562 157.136719 99.628906 C 157.199219 99.410156 157.316406 99.210938 157.480469 99.054688 C 157.648438 98.894531 157.863281 98.777344 158.125 98.710938 L 172.234375 95.039062 L 173.757812 97.261719 L 161.320312 100.621094 L 206.578125 173.78125 L 237.894531 153.652344 L 196.652344 91.078125 L 186.398438 93.847656 L 185.164062 91.675781 L 196.609375 88.699219 " fill-opacity="1" fill-rule="nonzero"/><path fill="#f2b1a5" d="M 220.558594 101.992188 C 213.210938 104.96875 211.34375 113.367188 211.34375 113.367188 C 210.199219 117.917969 223.671875 109.074219 223.671875 109.074219 L 220.558594 101.992188 " fill-opacity="1" fill-rule="nonzero"/><path fill="#f2b1a5" d="M 247.867188 129.449219 C 243.679688 125.355469 241.730469 120.691406 240.5 117.960938 C 239.195312 115.054688 238.375 111.851562 237.015625 109 C 235.785156 106.414062 232.597656 104.179688 230.308594 102.507812 C 227.941406 100.78125 225.472656 100.34375 222.554688 99.902344 C 220.664062 99.617188 219.984375 98.910156 219.226562 100.773438 C 218.3125 103.019531 218.5 102.871094 219.355469 104.6875 C 217.800781 105.058594 216.683594 104.554688 215.722656 106.105469 C 214.890625 107.449219 215.105469 108.449219 216.0625 109.585938 C 213.949219 110.464844 210.863281 113.539062 214.664062 114.953125 C 214.160156 116.984375 210.996094 117.101562 212.957031 119.785156 C 214.167969 121.441406 216.257812 122.175781 218.011719 121.058594 C 218.953125 125.933594 221.355469 129.355469 224.789062 132.835938 C 226.34375 134.414062 228.050781 136.175781 229.949219 137.367188 C 232.070312 138.699219 240.585938 147.777344 241.355469 149.894531 L 247.867188 129.449219 " fill-opacity="1" fill-rule="nonzero"/><path fill="#722a33" d="M 206.71875 123.914062 C 205.972656 123.125 207.292969 120.660156 208.082031 119.917969 L 244.011719 85.984375 C 244.800781 85.238281 246.054688 85.273438 246.800781 86.0625 C 247.546875 86.855469 247.507812 88.109375 246.71875 88.855469 L 210.789062 122.785156 C 210 123.53125 207.464844 124.703125 206.71875 123.914062 " fill-opacity="1" fill-rule="nonzero"/><path fill="#722a33" d="M 244.53125 88.210938 C 244.925781 88.628906 245.59375 88.648438 246.011719 88.25 L 249.449219 85.007812 C 249.867188 84.609375 249.886719 83.945312 249.488281 83.523438 C 249.09375 83.105469 248.429688 83.085938 248.007812 83.480469 L 244.574219 86.726562 C 244.152344 87.121094 244.132812 87.789062 244.53125 88.210938 " fill-opacity="1" fill-rule="nonzero"/><path fill="#722a33" d="M 247.296875 87.039062 C 251.035156 90.996094 237.78125 102.15625 237.78125 102.15625 C 236.761719 103.007812 236.53125 102.09375 236.53125 102.09375 C 236.050781 101.699219 242.914062 94.652344 242.914062 94.652344 C 247.011719 89.992188 244.957031 88.484375 244.957031 88.484375 L 247.296875 87.039062 " fill-opacity="1" fill-rule="nonzero"/><path fill="#722a33" d="M 204.351562 126.148438 C 204.644531 126.457031 205.132812 126.472656 205.441406 126.179688 L 209.605469 122.25 C 209.914062 121.957031 209.929688 121.46875 209.636719 121.160156 C 209.347656 120.851562 208.855469 120.835938 208.550781 121.128906 L 204.386719 125.0625 C 204.078125 125.351562 204.0625 125.84375 204.351562 126.148438 " fill-opacity="1" fill-rule="nonzero"/><path fill="#f2b1a5" d="M 226.964844 119.671875 C 219.605469 122.941406 218.800781 101.640625 218.800781 101.640625 C 219.980469 98.890625 223.671875 100.140625 223.671875 100.140625 C 234.964844 114.488281 226.964844 119.671875 226.964844 119.671875 " fill-opacity="1" fill-rule="nonzero"/><path fill="#722a33" d="M 316.15625 245.65625 C 344.261719 204.984375 348.867188 149.894531 348.867188 149.894531 C 349.242188 123.65625 381.59375 133.28125 381.59375 133.28125 C 412.066406 135.199219 382.347656 245.65625 382.347656 245.65625 L 316.15625 245.65625 " fill-opacity="1" fill-rule="nonzero"/><path fill="#ff4931" d="M 86.792969 245.65625 L 64.015625 245.65625 L 64.015625 165.527344 L 86.792969 165.527344 L 86.792969 245.65625 " fill-opacity="1" fill-rule="nonzero"/><path fill="#722a33" d="M 114.339844 245.65625 L 91.5625 245.65625 L 91.5625 165.527344 L 114.339844 165.527344 L 114.339844 245.65625 " fill-opacity="1" fill-rule="nonzero"/><path fill="#83c2ed" d="M 141.867188 245.65625 L 119.085938 245.65625 L 119.085938 165.527344 L 141.867188 165.527344 L 141.867188 245.65625 " fill-opacity="1" fill-rule="nonzero"/><path fill="#ffb55c" d="M 172.722656 245.65625 L 149.941406 245.65625 L 149.941406 165.527344 L 172.722656 165.527344 L 172.722656 245.65625 " fill-opacity="1" fill-rule="nonzero"/><path fill="#ffffff" d="M 81.015625 177.953125 C 81.015625 181.054688 78.503906 183.566406 75.402344 183.566406 C 72.304688 183.566406 69.792969 181.054688 69.792969 177.953125 C 69.792969 174.855469 72.304688 172.34375 75.402344 172.34375 C 78.503906 172.34375 81.015625 174.855469 81.015625 177.953125 " fill-opacity="1" fill-rule="nonzero"/><path fill="#ffffff" d="M 79.09375 232.59375 L 71.714844 232.59375 L 71.714844 190.558594 L 79.09375 190.558594 L 79.09375 232.59375 " fill-opacity="1" fill-rule="nonzero"/><path fill="#ffffff" d="M 108.5625 177.953125 C 108.5625 181.054688 106.050781 183.566406 102.953125 183.566406 C 99.851562 183.566406 97.34375 181.054688 97.34375 177.953125 C 97.34375 174.855469 99.851562 172.34375 102.953125 172.34375 C 106.050781 172.34375 108.5625 174.855469 108.5625 177.953125 " fill-opacity="1" fill-rule="nonzero"/><path fill="#ffffff" d="M 106.640625 232.59375 L 99.261719 232.59375 L 99.261719 190.558594 L 106.640625 190.558594 L 106.640625 232.59375 " fill-opacity="1" fill-rule="nonzero"/><path fill="#ffffff" d="M 136.085938 177.953125 C 136.085938 181.054688 133.574219 183.566406 130.472656 183.566406 C 127.375 183.566406 124.867188 181.054688 124.867188 177.953125 C 124.867188 174.855469 127.375 172.34375 130.472656 172.34375 C 133.574219 172.34375 136.085938 174.855469 136.085938 177.953125 " fill-opacity="1" fill-rule="nonzero"/><path fill="#ffffff" d="M 134.164062 232.59375 L 126.785156 232.59375 L 126.785156 190.558594 L 134.164062 190.558594 L 134.164062 232.59375 " fill-opacity="1" fill-rule="nonzero"/><path fill="#ffffff" d="M 166.941406 176.996094 C 166.941406 180.09375 164.429688 182.605469 161.332031 182.605469 C 158.234375 182.605469 155.722656 180.09375 155.722656 176.996094 C 155.722656 173.894531 158.234375 171.382812 161.332031 171.382812 C 164.429688 171.382812 166.941406 173.894531 166.941406 176.996094 " fill-opacity="1" fill-rule="nonzero"/><path fill="#ffffff" d="M 165.023438 231.632812 L 157.640625 231.632812 L 157.640625 189.597656 L 165.023438 189.597656 L 165.023438 231.632812 " fill-opacity="1" fill-rule="nonzero"/><path fill="#ffffff" d="M 79.09375 234.652344 L 71.714844 234.652344 L 71.714844 237.777344 L 79.09375 237.777344 L 79.09375 234.652344 " fill-opacity="1" fill-rule="nonzero"/><path fill="#ffffff" d="M 106.640625 234.652344 L 99.261719 234.652344 L 99.261719 237.777344 L 106.640625 237.777344 L 106.640625 234.652344 " fill-opacity="1" fill-rule="nonzero"/><path fill="#ffffff" d="M 134.164062 234.652344 L 126.785156 234.652344 L 126.785156 237.777344 L 134.164062 237.777344 L 134.164062 234.652344 " fill-opacity="1" fill-rule="nonzero"/><path fill="#ffffff" d="M 165.023438 234.070312 L 157.640625 234.070312 L 157.640625 237.195312 L 165.023438 237.195312 L 165.023438 234.070312 " fill-opacity="1" fill-rule="nonzero"/><path fill="#ce515d" d="M 253.667969 191.113281 C 250.082031 180 246.566406 168.867188 243.214844 157.683594 C 242.359375 154.8125 241.511719 151.941406 240.6875 149.066406 C 240.398438 148.066406 240.261719 146.671875 239.753906 145.757812 C 238.339844 143.207031 234.617188 140.84375 232.394531 138.828125 C 229.53125 136.230469 226.59375 133.878906 224.546875 130.503906 C 222.230469 126.6875 221.574219 122.835938 221.867188 118.488281 C 222.070312 115.4375 220.941406 112.484375 220.386719 109.417969 C 220.050781 107.546875 219.300781 105.160156 219.433594 103.242188 C 219.792969 97.910156 225.019531 101.519531 226.472656 104.179688 C 228.964844 108.742188 230.839844 113.582031 233.601562 118.03125 C 233.921875 118.546875 234.734375 118.074219 234.414062 117.558594 C 231.652344 113.105469 229.8125 108.246094 227.285156 103.707031 C 226.136719 101.640625 223.074219 98.496094 220.394531 99.546875 C 217.636719 100.628906 218.667969 104.675781 218.992188 106.761719 C 219.621094 110.773438 221.351562 114.929688 220.863281 118.90625 C 219.800781 127.566406 225.464844 133.898438 231.460938 139.246094 C 233.746094 141.28125 237.621094 143.785156 238.953125 146.398438 C 239.804688 148.0625 240.082031 150.375 240.601562 152.160156 C 244.433594 165.296875 248.5625 178.34375 252.761719 191.363281 C 252.945312 191.9375 253.855469 191.691406 253.667969 191.113281 " fill-opacity="1" fill-rule="nonzero"/><path fill="#aa0404" d="M 256.566406 185.597656 C 266.082031 200.429688 280.914062 212.582031 295.707031 221.960938 C 295.867188 222.0625 296.15625 222.046875 296.277344 221.886719 C 307.359375 207.742188 317.9375 192.523438 324.332031 175.597656 C 326.984375 168.578125 329.273438 160.65625 328.496094 153.054688 C 328.386719 151.96875 328.261719 150.796875 327.851562 149.769531 C 327.628906 149.214844 326.722656 149.457031 326.945312 150.019531 C 329.675781 156.871094 326.488281 166.625 324.257812 173.050781 C 320.464844 183.984375 314.644531 194.183594 308.277344 203.796875 C 306.136719 207.023438 303.914062 210.199219 301.625 213.320312 C 300.742188 214.523438 296.429688 221.082031 295.894531 220.964844 C 295.09375 220.792969 294.042969 219.742188 293.371094 219.285156 C 291.710938 218.152344 290.074219 216.992188 288.453125 215.808594 C 276.777344 207.269531 265.25 197.398438 257.375 185.121094 C 257.050781 184.613281 256.238281 185.085938 256.566406 185.597656 " fill-opacity="1" fill-rule="nonzero"/><path fill="#aa0404" d="M 334.546875 122.640625 C 321.039062 127.597656 305.429688 129 291.171875 126.761719 C 290.578125 126.667969 290.324219 127.574219 290.921875 127.667969 C 305.339844 129.933594 321.121094 128.566406 334.796875 123.546875 C 335.359375 123.339844 335.117188 122.429688 334.546875 122.640625 " fill-opacity="1" fill-rule="nonzero"/><path fill="#ce515d" d="M 181.746094 142.636719 C 182.390625 146.421875 182.785156 150.234375 183.347656 154.023438 C 184.042969 158.695312 186.511719 163.101562 189.347656 166.796875 C 192.195312 170.511719 195.632812 173.746094 199.320312 176.617188 C 201.675781 178.453125 204.652344 179.804688 206.875 181.75 C 208.609375 183.265625 209.78125 185.941406 211.09375 187.886719 C 213.320312 191.183594 215.632812 194.425781 218.046875 197.589844 C 221.902344 202.644531 225.996094 207.519531 230.402344 212.101562 C 236.265625 218.199219 242.699219 223.886719 249.867188 228.40625 C 252.707031 230.195312 255.785156 232.054688 259.023438 233.046875 C 259.605469 233.222656 259.851562 232.316406 259.273438 232.140625 C 249.585938 229.175781 240.757812 221.042969 233.753906 214.152344 C 229.5 209.96875 225.527344 205.5 221.785156 200.851562 C 219.441406 197.941406 217.195312 194.957031 215.027344 191.910156 C 212.761719 188.738281 210.882812 184.90625 208.347656 181.972656 C 207.195312 180.640625 205.644531 179.941406 204.136719 178.9375 C 200.363281 176.429688 196.800781 173.5625 193.636719 170.308594 C 189.34375 165.886719 185.253906 160.25 184.289062 154 C 183.691406 150.140625 183.3125 146.246094 182.652344 142.382812 C 182.554688 141.789062 181.644531 142.042969 181.746094 142.636719 " fill-opacity="1" fill-rule="nonzero"/></svg>